<svg id="圖層_1" data-name="圖層 1" xmlns="http://www.w3.org/2000/svg" viewBox="0 0 170 170"><defs><style>.cls-1,.cls-4{fill:#e60012;}.cls-1,.cls-3{stroke:#e60012;}.cls-1,.cls-2,.cls-3{stroke-miterlimit:10;stroke-width:0.75px;}.cls-2,.cls-5{fill:#231815;}.cls-2{stroke:#231815;}.cls-3{fill:none;}</style></defs><title>工作區域 1</title><path class="cls-1" d="M12.39,19.68a6,6,0,0,1,1.2-2.43q1.19-1.77,2.75-3.69a44.4,44.4,0,0,1,3-3.4c1-1,1.68-1.49,2.07-1.49s.54.22.76.65a6.68,6.68,0,0,1,.5,1.49A13.62,13.62,0,0,1,23,12.47c.05.56.07.93.07,1.13a21.71,21.71,0,0,1-.25,3.22A11.57,11.57,0,0,1,21.84,20a6.57,6.57,0,0,1-1.92,2.46,4.84,4.84,0,0,1-3.11,1,5.58,5.58,0,0,1-3.15-.84A3.22,3.22,0,0,1,12.39,19.68ZM72.65,48a.9.9,0,0,1-.4.58c-.21.14-.44.29-.69.43a7.32,7.32,0,0,0-.65.44.62.62,0,0,0-.29.5V69.22c0,.34-.37.63-1.12.87a19.45,19.45,0,0,1-2.61.61c-1,.17-1.94.29-2.86.37s-1.52.1-1.81.1a.69.69,0,0,1-.65-.5,7.16,7.16,0,0,1-.29-2.1c-.05-1.07-.08-2.33-.11-3.8s0-3.06,0-4.75.06-3.31.11-4.85.08-2.93.11-4.17,0-2.15,0-2.78a.64.64,0,0,0-.72-.73H50.34a.64.64,0,0,0-.72.73V64.87c0,.34.25.57.76.69a8.31,8.31,0,0,0,1.88.18,23.79,23.79,0,0,0,2.43-.14c.87-.1,1.68-.16,2.42-.18a8.27,8.27,0,0,1,1.89.11c.5.09.76.29.76.57a.45.45,0,0,1-.51.51H29.85a3.28,3.28,0,0,0-.51.8,8.47,8.47,0,0,1-3.19,3.44,10.08,10.08,0,0,1-4.63.9q-.43,0-.87,0a1.53,1.53,0,0,1-.8-.33.73.73,0,0,0-.07-.25.79.79,0,0,1-.07-.25V43.8a1.67,1.67,0,0,1,.18-.73.63.63,0,0,1,.61-.36,11.25,11.25,0,0,1,1.45.47l2.83,1c1,.39,2,.76,2.86,1.12l1.7.69H60.27c.14,0,.43-.2.87-.61s.86-.87,1.3-1.38.82-1,1.16-1.48a2.28,2.28,0,0,0,.5-1c0-.43-.14-.67-.43-.72a5.53,5.53,0,0,0-.94-.07,14.78,14.78,0,0,0-1.52.14c-.73.1-1.46.18-2.21.25a19.46,19.46,0,0,1-2.07.11c-.62,0-1-.12-1.16-.36a4.52,4.52,0,0,1-.39-1,.79.79,0,0,0-.84-.61H36.37a2.65,2.65,0,0,0-1.09.65,5.84,5.84,0,0,1-1,.8,10.9,10.9,0,0,1-3.41,1.48,14.88,14.88,0,0,1-3.69.47c-.39,0-.63-.24-.73-.72a26.12,26.12,0,0,1-.14-2.68c0-.92,0-1.81-.07-2.68-.1-1.84-.17-3.68-.22-5.54s-.07-3.73-.07-5.62c0-.43.24-.65.72-.65a4.57,4.57,0,0,1,2.1.55c.73.36,1.46.74,2.21,1.15s1.51.8,2.28,1.16a5.61,5.61,0,0,0,2.39.55h19l.5-.22,3.48-3.48.51-.21a6.66,6.66,0,0,1,1.88.76,28.89,28.89,0,0,1,2.64,1.59A16.37,16.37,0,0,1,66,28.52c.65.63,1,1.16.91,1.59a.48.48,0,0,1-.29.44l-.62.28a2.56,2.56,0,0,0-.61.4,1,1,0,0,0-.29.84v9.19A2.37,2.37,0,0,0,66,42.93a19.36,19.36,0,0,0,2.21,1.74c.84.58,1.67,1.12,2.49,1.63a9.72,9.72,0,0,1,1.82,1.34ZM58.53,15.77l1.34,1.12c.6.51,1.22,1.05,1.84,1.63s1.2,1.13,1.71,1.63a5.42,5.42,0,0,1,1,1.2,1.27,1.27,0,0,1-.43.39.9.9,0,0,1-.51.18H25a.85.85,0,0,1-.33-.07.23.23,0,0,1-.18-.21.9.9,0,0,1,.11-.44A.41.41,0,0,1,25,21H52.52a2.11,2.11,0,0,0,1.73-.79,11.53,11.53,0,0,0,1.2-1.78,20.73,20.73,0,0,1,1.12-1.81,2.26,2.26,0,0,1,1.52-1Zm7-3.48c.2,0,.56-.23,1.09-.69a20.29,20.29,0,0,0,1.59-1.52c.53-.55,1-1.05,1.49-1.48s.76-.65.9-.65a1.2,1.2,0,0,1,.69.32l.83.69a8.3,8.3,0,0,1,.8.76c.24.27.44.47.58.62s.46.43.94.87,1,.89,1.49,1.37,1,.93,1.34,1.34.57.69.57.84c0,.57-.45,1.23-1.37,2a21.56,21.56,0,0,1-3.22,2.07,29.08,29.08,0,0,1-3.62,1.62,8.58,8.58,0,0,1-2.58.66.58.58,0,0,1-.65-.66,15.89,15.89,0,0,1,.29-3,15.91,15.91,0,0,0,.29-3,6.8,6.8,0,0,0,0-.76c0-.26-.2-.4-.54-.4a36.4,36.4,0,0,0-4.31.26,36.27,36.27,0,0,1-4.31.25q-10,0-20-.21l-3,0-3.36.07q-1.71,0-3.33,0a13.79,13.79,0,0,1-2.79-.37,2,2,0,0,1-.44-.18.57.57,0,0,1-.29-.39.43.43,0,0,1,.29-.15H39.26c.53,0,.81-.45.84-1.34A26.91,26.91,0,0,0,40,8.27a22.37,22.37,0,0,1-.11-2.89c0-.9.3-1.34.83-1.34A45.12,45.12,0,0,1,46,4.36l5.32.69.22.22-.08.36c-.24.19-.47.38-.69.54a2.49,2.49,0,0,0-.54.62,2.55,2.55,0,0,0-.25.87c-.07.43-.15.9-.22,1.41s-.12,1-.15,1.45,0,.78,0,1l.22.5.43.29ZM28.83,65.16c0,.48.22.73.66.73,1.68,0,3.39,0,5.1-.07a45.94,45.94,0,0,0,5.11-.44q.72-.07.72-.72V48.22a.64.64,0,0,0-.72-.73H29.56a.65.65,0,0,0-.73.73Zm1.74-8.69-.14-.22a7.84,7.84,0,0,1,1.3-.1c.73,0,1.53,0,2.43,0s1.73,0,2.53,0l1.63,0,.22.22-.22.29H31.08ZM55.92,37.06V30.4a.64.64,0,0,0-.72-.72H35.86a.64.64,0,0,0-.72.72v6.74a.64.64,0,0,0,.72.72l18.76.51a.89.89,0,0,0,.61-.33l.47-.47ZM51.36,56.18h8.18l.22.22-.22.29H51.36l-.29-.29Z"/><path class="cls-2" d="M92.06,24.32a5.12,5.12,0,0,1,1.16-3.12,17.3,17.3,0,0,1,2.25-2.5c.82-.74,1.61-1.53,2.38-2.35.49-.48,1-1,1.38-1.49s.87-1,1.31-1.55c.23-.24.4-.37.5-.37.29,0,.57.26.84.77a9.6,9.6,0,0,1,.68,1.73c.19.66.35,1.31.47,2a9.43,9.43,0,0,1,.19,1.34c0,3-.59,5.18-1.74,6.7a6.79,6.79,0,0,1-3.84,2.75,5.05,5.05,0,0,1-3.84-.58A3.57,3.57,0,0,1,92.06,24.32ZM92.86,48c.43,0,1.17,0,2.21,0s2.21,0,3.51,0,2.67,0,4.09,0,2.76,0,4,0l3.16.07a11.55,11.55,0,0,1,1.59.11l-.76.26a3.07,3.07,0,0,1-.69.18H92.86l-.29-.29Zm52.29-19.19a9.65,9.65,0,0,1-1,.83,1.27,1.27,0,0,0-.61,1v9.7c0,.39-.39.71-1.16,1a18.89,18.89,0,0,1-2.61.69c-1,.19-1.91.35-2.82.47l-1.89.25a.82.82,0,0,0-.51-.5c-.09-.63-.18-1.14-.25-1.53a2.54,2.54,0,0,0-.32-.9,1.15,1.15,0,0,0-.73-.44,7.54,7.54,0,0,0-1.45-.11,3,3,0,0,1-.87,0,3.43,3.43,0,0,0-.87,0,.83.83,0,0,0-.79.87,18.87,18.87,0,0,1-.51,4.38,18.81,18.81,0,0,0-.51,4.38,33.8,33.8,0,0,0,.18,3.48c.12,1.16.26,2.31.4,3.47a61.6,61.6,0,0,1,.4,6.3c0,2.08,0,4.2,0,6.38a2,2,0,0,1-1,1.73,7,7,0,0,1-2.35,1,15.44,15.44,0,0,1-2.76.4c-.91,0-1.64.07-2.17.07s-.94-.28-.94-.86c0-2.32.08-4.59.26-6.81s.25-4.49.25-6.81c0-.15,0-.36,0-.65a3.93,3.93,0,0,0,0-.84,2.12,2.12,0,0,0-.18-.72.51.51,0,0,0-.5-.33,2.61,2.61,0,0,0-1.09.69,7,7,0,0,1-1,.91L115,58.5q-1.74,1.3-4.34,3t-5.51,3.19a46.34,46.34,0,0,1-5.72,2.53,15,15,0,0,1-5,1l-.47,0c-.22,0-.32-.13-.32-.33s.28-.62.87-1.15,1.23-1.09,2-1.67,1.44-1.12,2.14-1.63l1.41-1c1-.77,2.11-1.58,3.29-2.43s2.33-1.74,3.45-2.68a31.11,31.11,0,0,0,3.07-3,14.42,14.42,0,0,0,2.28-3.41,3.82,3.82,0,0,0,.29-.79q.15-.51.33-1a5.49,5.49,0,0,1,.39-.87.68.68,0,0,1,.59-.36c.24,0,.71,0,1.41.07s1.41.08,2.14.08a9,9,0,0,0,2-.19c.58-.11.87-.34.87-.68V40a.64.64,0,0,0-.72-.72h-2.65a1.58,1.58,0,0,0-.61.07,3.26,3.26,0,0,0-.4.25,3.06,3.06,0,0,0-.4.33c-.48.39-1,.8-1.63,1.23a21.42,21.42,0,0,1-1.88,1.2,12.67,12.67,0,0,1-2,.9,6.17,6.17,0,0,1-2,.36,5.1,5.1,0,0,1-.73,0,1.8,1.8,0,0,1-.51-.55,3.58,3.58,0,0,1-.25-1.55q0-1.27,0-2.76c0-1,0-1.94,0-2.86s0-1.56,0-1.95l-.15-5.22c0-1.73-.07-3.47-.07-5.21,0-.44.24-.65.73-.65a5.65,5.65,0,0,1,2.21.61c.89.41,1.79.86,2.71,1.34s1.8.93,2.64,1.34a5,5,0,0,0,2,.62h16.43l.51-.22q.22-.21.87-.87t1.38-1.41c.48-.51.93-1,1.34-1.34s.66-.58.76-.58a3.7,3.7,0,0,1,1.74.76,27.79,27.79,0,0,1,2.39,1.78A23.23,23.23,0,0,1,144,27a6.83,6.83,0,0,1,1.19,1.56Zm5.07-15.94a20.62,20.62,0,0,0,1.48,1.52c.8.78,1.63,1.6,2.5,2.47s1.65,1.67,2.36,2.42a5.92,5.92,0,0,1,1.05,1.27c0,.43-.54.93-1.6,1.49a38.29,38.29,0,0,1-3.62,1.62A39.2,39.2,0,0,1,148.44,25a11.6,11.6,0,0,1-2.57.55c-.48,0-.7-.35-.65-1.05s.13-1.47.25-2.32a16.8,16.8,0,0,0,.19-2.32c0-.7-.27-1.05-.8-1.05H104.74c-.25,0-.37-.07-.37-.22a.72.72,0,0,1,.69-.76,8.52,8.52,0,0,1,1.56-.07,13.49,13.49,0,0,0,1.56,0c.45,0,.68-.23.68-.61l-.21-.37q-.59-.87-1.41-2.28c-.56-.94-1.1-1.93-1.64-3s-1-2-1.37-3a6.82,6.82,0,0,1-.58-2.46c0-.49.22-.73.65-.73a15.85,15.85,0,0,1,3.37.4A13.53,13.53,0,0,1,111.11,7a8.63,8.63,0,0,1,2.68,2.17,4.89,4.89,0,0,1,1.08,3.15,2.74,2.74,0,0,1-.39,1.45,9.24,9.24,0,0,1-.87,1.2,13.72,13.72,0,0,0-.87,1.08,1.88,1.88,0,0,0-.4,1.13c0,.19.29.35.87.47s1.26.21,2,.29,1.51.12,2.21.14,1.17,0,1.41,0l.51-.22.07-.07.21-.51V4.76a.64.64,0,0,1,.73-.72,46,46,0,0,1,4.67.25,34.48,34.48,0,0,1,4.6.76,3,3,0,0,0,.51.18q.36.1.36.33c0,.14-.14.35-.44.61s-.48.45-.57.55l-.22.5V17.36l.14.36a1.38,1.38,0,0,0,.36.26,1,1,0,0,0,.44.11A7.53,7.53,0,0,0,131,18l1.24-.14,1.19-.15a2.51,2.51,0,0,0,.69-.14c.34-.14.62-.57.83-1.27a21.1,21.1,0,0,0,.58-2.42c.17-.92.32-1.91.44-3s.26-2,.43-2.9A16.53,16.53,0,0,1,137,5.85q.28-.87.72-.87a10.72,10.72,0,0,1,1.92.43c1,.29,2.16.63,3.37,1s2.34.76,3.4,1.12,1.76.61,2.1.76l.26.25a1.17,1.17,0,0,1,.17.26,4.55,4.55,0,0,1-1.23.86q-1,.59-2.46,1.35c-1,.5-2,1.06-3.11,1.66S140,13.89,139,14.47a25.16,25.16,0,0,0-2.32,1.59q-.9.72-.9,1.23c0,.1.07.17.21.22a1.18,1.18,0,0,0,.36.07h7.9a2.53,2.53,0,0,0,1-.61c.51-.41,1.05-.89,1.63-1.42S148,14.5,148.48,14a12.94,12.94,0,0,0,.94-1.06l.44-.21ZM133.85,38.15l.07-.07.22-.51V28.44a.64.64,0,0,0-.72-.72H116a.64.64,0,0,0-.72.72v8.7a.64.64,0,0,0,.72.72c2.9,0,5.78.07,8.66.22s5.76.24,8.65.29Zm-2,12.82q3,1.16,5.91,2.5t5.9,2.42c2.12.78,4.28,1.45,6.48,2s4.4,1.11,6.63,1.59a.67.67,0,0,1,.29.08.24.24,0,0,1,.14.21,2.09,2.09,0,0,1-.72,1.27c-.49.51-1,1-1.63,1.63L153,64.4A3.92,3.92,0,0,0,152,65.89a3.53,3.53,0,0,0-.26.87,10.18,10.18,0,0,1-.28,1.12,5.91,5.91,0,0,1-.44,1,.77.77,0,0,1-.69.43,3.18,3.18,0,0,1-1-.43c-.54-.29-1.1-.62-1.7-1s-1.18-.71-1.71-1-.89-.58-1.08-.73c-1-.67-2.31-1.58-3.88-2.71a51.26,51.26,0,0,1-4.56-3.73,25.83,25.83,0,0,1-3.76-4.24A7.33,7.33,0,0,1,131,51.19q0-.3.33-.33A.56.56,0,0,1,131.82,51Zm1.45-2.46a1.63,1.63,0,0,1-.8-.26c-.28-.17-.53-.3-.72-.4a10.25,10.25,0,0,1,1.95-.11c.78,0,1.43,0,2,0h9.05c.39,0,.83-.32,1.31-1s.95-1.36,1.41-2.13l1.27-2.14c.39-.65.7-1,.94-1a3.91,3.91,0,0,1,1.38.84c.72.55,1.48,1.18,2.28,1.88s1.56,1.39,2.28,2.06,1.23,1.14,1.52,1.38l.07.29-.14.29-.51.22Z"/><path class="cls-2" d="M64.72,103c.58-.63,1.15-1.28,1.7-2s1.12-1.33,1.7-2a2.54,2.54,0,0,1,.69-.26,1.28,1.28,0,0,1,.69.19,8.87,8.87,0,0,1,1.09.83c.67.56,1.42,1.16,2.24,1.81s1.58,1.28,2.28,1.88a15.88,15.88,0,0,0,1.27,1l.15.44A3.89,3.89,0,0,1,75,106.17a1.41,1.41,0,0,0-.9,1.41v55.05c0,.43-.3.8-.87,1.12a9.24,9.24,0,0,1-2,.76,19.37,19.37,0,0,1-2.28.43,14.07,14.07,0,0,1-1.63.15,3.16,3.16,0,0,1-.55,0,4.56,4.56,0,0,0-.54,0l-.51-.21-.07-.07-.22-.51V105.41a.64.64,0,0,0-.72-.72H22.21a.64.64,0,0,0-.73.72v52.87a.65.65,0,0,0,.73.73H63.42a.42.42,0,0,1,.28.14,3.72,3.72,0,0,1-.39.36.8.8,0,0,1-.47.22H22.5c-.1,0-.22.13-.37.4l-.29.54a6.42,6.42,0,0,1-.68,1.09l-.84,1a8.59,8.59,0,0,1-3.07,2.17,9.42,9.42,0,0,1-3.73.8.64.64,0,0,1-.73-.73v-64.6a1.27,1.27,0,0,1,.11-.47.39.39,0,0,1,.4-.25,5.59,5.59,0,0,1,1.59.54q1.23.54,2.64,1.23c.95.46,1.85.87,2.72,1.23a5.64,5.64,0,0,0,1.88.55H64.21ZM27.78,150.89a29.83,29.83,0,0,0-2.39-4.09,12.94,12.94,0,0,1-1.95-4.24l.21-.21a79.41,79.41,0,0,0,8.66-1.2,46.28,46.28,0,0,1,8.73-.83l.29.29-.22.51c-1.64,1.25-3.27,2.51-4.89,3.76s-3.25,2.51-4.89,3.77q-.79.58-1.59,1.26A7.68,7.68,0,0,1,28.07,151Zm13-34.18c0,.1-.22.2-.65.32a4.2,4.2,0,0,1-.8.19h-15q-.72,0-.51-.48c.15-.31.31-.47.51-.47h15a2.64,2.64,0,0,1,.76.15A3,3,0,0,1,40.82,116.71ZM41,135.1a1.16,1.16,0,0,1-.55,1,3.86,3.86,0,0,1-1.27.62,8.08,8.08,0,0,1-1.48.29c-.51,0-.91.07-1.19.07a1.76,1.76,0,0,1-1-.25,7,7,0,0,1-.76-.55c-.24-.19-.49-.37-.73-.54a1.46,1.46,0,0,0-.87-.25,3.25,3.25,0,0,0-1.77.47A11.38,11.38,0,0,0,30,137a10.67,10.67,0,0,1-1.53,1.09,3.38,3.38,0,0,1-1.73.47,1.19,1.19,0,0,1-.62-.14.54.54,0,0,1-.25-.51q0-4.2-.26-8.36t-.25-8.37c0-.48.31-.65.94-.51a15.68,15.68,0,0,1,2.21.73c.84.33,1.67.68,2.46,1a5.09,5.09,0,0,0,1.63.54,3.54,3.54,0,0,0,1.85-.43,5.33,5.33,0,0,0,1.12-.91,11.09,11.09,0,0,0,.76-.91.94.94,0,0,1,.76-.43,2.86,2.86,0,0,1,1,.54c.53.37,1.07.77,1.63,1.23s1,.9,1.48,1.31.65.69.65.83a1,1,0,0,1-.4.72,1.09,1.09,0,0,0-.39.8Zm-9.85-1.73a.64.64,0,0,0,.72.72H34.3a.64.64,0,0,0,.72-.72v-8.19a.64.64,0,0,0-.72-.72H31.91a.64.64,0,0,0-.72.72Zm20.13-.58c.24,0,.49-.39.76-1a16.46,16.46,0,0,0,.76-2.31c.24-.92.5-1.91.76-3s.52-2,.76-2.94.47-1.64.69-2.24.45-.91.69-.91a5.26,5.26,0,0,1,1.45.55c.77.36,1.6.77,2.5,1.23s1.7.9,2.42,1.34a4.78,4.78,0,0,1,1.23.87.16.16,0,0,0-.07.1.16.16,0,0,1-.07.11,9.53,9.53,0,0,1-.91,1.06,6,6,0,0,0-.83,1c-.43.63-1.06,1.56-1.88,2.79S58,132,57.19,133.4s-1.45,2.71-2,4a8,8,0,0,0-.87,3,3,3,0,0,0,.43,1.31,15.11,15.11,0,0,0,1,1.59A7.27,7.27,0,0,0,57,144.66a2,2,0,0,0,1.19.58,1.56,1.56,0,0,0,1.38-.79,11.81,11.81,0,0,0,.87-1.7c.24-.61.45-1.18.65-1.71s.43-.79.72-.79a.28.28,0,0,1,.29.22,1.07,1.07,0,0,1,.07.35,13.25,13.25,0,0,1-.32,3,13.41,13.41,0,0,0-.33,3,6.31,6.31,0,0,0,.76,3,6.22,6.22,0,0,1,.76,3,2.31,2.31,0,0,1-.29,1.31,1.62,1.62,0,0,1-.79.62,3.83,3.83,0,0,1-1.09.21c-.39,0-.8,0-1.23,0a6.36,6.36,0,0,1-4-1.38,19.75,19.75,0,0,1-3.15-3c-.92-1.11-1.69-2.13-2.32-3s-1.13-1.38-1.52-1.38-1.11.45-2.17,1.34-2.28,1.89-3.66,3a37.81,37.81,0,0,1-4.34,3,8.34,8.34,0,0,1-4.17,1.34c-.34,0-.51-.09-.51-.29s.3-.61.91-1.12,1.35-1.12,2.24-1.84,1.86-1.53,2.9-2.4,2-1.76,2.93-2.68a18.17,18.17,0,0,0,2.36-2.86,5.78,5.78,0,0,0,1-2.86A11.07,11.07,0,0,0,46,138a24.78,24.78,0,0,0-.69-2.83l-.87-2.82c-.29-.94-.53-1.83-.72-2.64a61.2,61.2,0,0,1-1.27-10.51q-.18-5.28-.18-10.64v-1.09a.65.65,0,0,1,.65-.73.45.45,0,0,1,.22,0l.21.1a2.47,2.47,0,0,0,.47.11,3.38,3.38,0,0,1,.48.11c1,.19,2,.34,3,.43a12.74,12.74,0,0,1,3,.66c.38.09.58.28.58.57s-.17.44-.51.73a2.58,2.58,0,0,0-.65.72,3.68,3.68,0,0,0-.26,1.2,15.35,15.35,0,0,0-.07,2.06,8.78,8.78,0,0,0,.25,1.92c.15.55.37.83.66.83a11,11,0,0,0,1.84-.18,7.35,7.35,0,0,0,2-.61,5.55,5.55,0,0,0,1.56-1.12,2.41,2.41,0,0,0,.65-1.71A3.34,3.34,0,0,0,55.7,111c-.41-.65-.79-1.27-1.16-1.88a6.48,6.48,0,0,1-.72-1.56c-.12-.43.08-.65.62-.65s1.37,0,2.24.14a11,11,0,0,1,2.5.59,5.7,5.7,0,0,1,2,1.23,2.7,2.7,0,0,1,.83,2,2.88,2.88,0,0,1-.51,1.63,2.87,2.87,0,0,0-.5,1.63c0,.83.16,1.32.5,1.49a4.08,4.08,0,0,1,1.16,1,.89.89,0,0,1-.51.43,1.86,1.86,0,0,1-.72.15H50c-.2,0-.33.22-.4.68s-.12,1-.15,1.56,0,1.14,0,1.67,0,.89,0,1.08c0,.53,0,1.32.07,2.36s.12,2.1.22,3.18a22.69,22.69,0,0,0,.47,3.05,4.13,4.13,0,0,0,.83,1.91Z"/><path class="cls-2" d="M103.11,152.71c0-.39-.11-1-.19-1.85a17.19,17.19,0,0,0-.4-2.54,10,10,0,0,0-.75-2.21,1.46,1.46,0,0,0-1.34-.94,1,1,0,0,0-.62.26.69.69,0,0,0-.33.54v17.6a1.23,1.23,0,0,1-.87,1.12,7.89,7.89,0,0,1-2,.58,20.35,20.35,0,0,1-2.25.22l-1.59,0c-.39,0-.63-.24-.73-.72a11.43,11.43,0,0,1-.21-3.41c.09-1.15.14-2.29.14-3.4q0-14.34-.21-28.5T91.52,101c0-.48.19-.72.58-.72a4.12,4.12,0,0,1,1.41.54c.7.37,1.51.75,2.42,1.16s1.89.79,2.9,1.16a8.29,8.29,0,0,0,2.75.54,2.58,2.58,0,0,0,1.67-.65,12.34,12.34,0,0,0,1.48-1.41l1.27-1.42a1.58,1.58,0,0,1,1-.65,3.72,3.72,0,0,1,1.37.91,28.14,28.14,0,0,1,2.25,2.1c.77.8,1.46,1.55,2.06,2.28a3.53,3.53,0,0,1,.91,1.45,5.55,5.55,0,0,1-.83,1.63c-.56.9-1.24,2-2,3.22s-1.67,2.6-2.64,4-1.84,2.75-2.64,4l-2,3.12a6,6,0,0,0-.83,1.48,1.53,1.53,0,0,0,.22.94,11.37,11.37,0,0,0,1.48,1.78c.55.55,1.1,1.12,1.63,1.7q1.51,1.74,2.64,3.3a17.84,17.84,0,0,1,1.85,3.18,16.81,16.81,0,0,1,1.09,3.52,22.37,22.37,0,0,1,.36,4.2,15.73,15.73,0,0,1-.47,3.72,11.64,11.64,0,0,1-1.49,3.52,8.39,8.39,0,0,1-2.53,2.57,5.94,5.94,0,0,1-3.7.83.35.35,0,0,1-.14,0,.28.28,0,0,0-.15,0Zm-3.41-9.42c0,.24.21.4.62.47a6.19,6.19,0,0,0,.9.11,3.25,3.25,0,0,0,1.85-.47,2.78,2.78,0,0,0,1-1.2,4.88,4.88,0,0,0,.4-1.63c0-.6.07-1.22.07-1.84a19.71,19.71,0,0,0-.4-4c-.26-1.3-.54-2.6-.83-3.91s-.57-2.6-.83-3.91a19.64,19.64,0,0,1-.4-4,49.77,49.77,0,0,1,.76-8.72,49.77,49.77,0,0,0,.76-8.72.75.75,0,0,0-.61-.73,3.88,3.88,0,0,0-1.34-.22,4.72,4.72,0,0,0-1.34.18c-.41.12-.62.26-.62.4Zm18.11-.07a9.69,9.69,0,0,1,1.81.57c.87.35,1.75.73,2.64,1.16a17.1,17.1,0,0,1,2.36,1.38c.67.49,1,.89,1,1.23a.62.62,0,0,1-.22.44,31.26,31.26,0,0,1-3.22,3.51c-1.43,1.38-3,2.7-4.56,4a35.93,35.93,0,0,1-4.93,3.3,9.34,9.34,0,0,1-4.31,1.37h-.61a1,1,0,0,1-.55-.21c1.06-1.4,2.07-2.73,3-4s1.84-2.53,2.71-3.84a46.67,46.67,0,0,0,2.4-4,40,40,0,0,0,2-4.61Zm-9.42-21.44a6.11,6.11,0,0,1,.62-1.42c.31-.55.67-1.13,1.09-1.73s.79-1.2,1.15-1.78.67-1.08.91-1.52a33.5,33.5,0,0,0,3-8.15q.93-4.23,2-8.43l.36-.36h.21a10,10,0,0,1,1.56.21c.8.15,1.62.34,2.46.58a22.6,22.6,0,0,1,2.25.76c.65.27,1,.49,1,.69a2.1,2.1,0,0,1-.33.8q-.33.58-.69,1.26c-.24.47-.47.92-.68,1.38a2.74,2.74,0,0,0-.33,1.05.82.82,0,0,0,.47.76,1.89,1.89,0,0,0,.9.25H125a1,1,0,0,0,.58-.21l3.91-3.48.5-.14a6,6,0,0,1,1.49.9q.9.69,1.77,1.41l1.6,1.34c.48.41.79.62.94.62a1,1,0,0,0,.65-.14.71.71,0,0,0,.18-.44,1.88,1.88,0,0,0,0-.58.83.83,0,0,1,.18-.58c.2,0,.34.15.44.44l1.41,3c.51,1.08,1.06,2.16,1.67,3.22a21.65,21.65,0,0,0,2,3,10.9,10.9,0,0,0,2.32,2.25,46.68,46.68,0,0,0,6,3.55c2,1,4.09,2.15,6.12,3.4a1.72,1.72,0,0,0,.33.26.35.35,0,0,1,.18.32c0,.29-.27.6-.8.94l-1.16.73a10.88,10.88,0,0,0-2.93,2.86,12.7,12.7,0,0,0-1.85,3.65l-.29.22a1.84,1.84,0,0,1-.91-.61c-.26-.32-.55-.64-.86-1a6.05,6.05,0,0,0-1.09-.91,2.86,2.86,0,0,0-1.56-.39,1.84,1.84,0,0,0-.94.25,1.81,1.81,0,0,1-.94.25H123.31c-.48,0-.72-.19-.72-.58a4.87,4.87,0,0,1,1.7-.18c1,0,2.19,0,3.44,0s2.44,0,3.55,0,1.81,0,2.1,0a1.74,1.74,0,0,0,1.37-.9,19,19,0,0,0,1.27-2c.41-.75.81-1.43,1.2-2s.75-.91,1.08-.91.55.24,1,.73,1.08,1,1.71,1.55A23.38,23.38,0,0,0,143,127.5a3,3,0,0,0,1.7.73.38.38,0,0,0,.43-.44,5.62,5.62,0,0,0-.47-1.16c-.31-.68-.7-1.49-1.16-2.46s-1-2-1.56-3.19-1.12-2.27-1.62-3.33L139,114.86l-.8-1.63c-.1-.19-.26-.54-.47-1s-.46-1-.73-1.56-.53-1-.79-1.41-.5-.61-.69-.61a5,5,0,0,0-.65.8c-.2.28-.39.57-.58.86-1.11,1.84-2.35,3.91-3.7,6.23a68.6,68.6,0,0,1-4.49,6.74,41.38,41.38,0,0,1-5.32,5.83,15,15,0,0,1-6.12,3.44c-.63.19-.93.15-.9-.11a2.54,2.54,0,0,1,.57-1.13c.37-.48.85-1,1.45-1.69s1.19-1.31,1.74-2,1-1.26,1.45-1.81a2.53,2.53,0,0,0,.61-1.34,1,1,0,0,0-.43-.91q-.44-.26-1-.54a6.46,6.46,0,0,1-1.16-.69,2.17,2.17,0,0,1-.76-1.27c0-.19-.09-.5-.14-.94s-.11-.87-.18-1.3a7.55,7.55,0,0,0-.29-1.16c-.13-.34-.33-.51-.62-.51-.1,0-.35.19-.76.58l-.76.73c-.68.67-1.41,1.35-2.21,2a8.27,8.27,0,0,1-2.57,1.52Zm29.7,37.44A4,4,0,0,1,137,161.9a9.37,9.37,0,0,1-2.57,2.1,15.46,15.46,0,0,1-3.18,1.38,10.49,10.49,0,0,1-2.9.51c-.24,0-.39-.08-.43-.22l-.15-.44c-.24-.92-.41-1.64-.5-2.17a11.42,11.42,0,0,0-.37-1.48,6.36,6.36,0,0,0-.65-1.42c-.29-.48-.72-1.1-1.3-1.88a1.92,1.92,0,0,1-.26-.32.82.82,0,0,1-.1-.4c0-.34.15-.51.47-.51s.69,0,1.16.07a4.22,4.22,0,0,0,1.44-.11,2.28,2.28,0,0,0,1.34-1,7.12,7.12,0,0,0,.22-2c.05-1.2.1-2.52.15-4s.07-2.83.07-4.16,0-2.21.07-2.64.11-.87.18-1.31a3.17,3.17,0,0,0,0-1.3,1.53,1.53,0,0,0-.18-.54c-.07-.12-.25-.19-.54-.19H116.72a.58.58,0,1,1,0-1.15h25.49c.25,0,.56-.32.94-.95s.82-1.32,1.27-2.1a17,17,0,0,1,1.45-2.09c.51-.63,1-1,1.42-1a3.78,3.78,0,0,1,1.51.91,28.81,28.81,0,0,1,2.4,2.1c.82.79,1.54,1.55,2.17,2.28s.94,1.21.94,1.45a.23.23,0,0,1-.22.25,1.71,1.71,0,0,1-.36,0H138.81a.64.64,0,0,0-.72.72Zm-18.76-46.86a2.18,2.18,0,0,0-.62.44l-.87.83-.87.91c-.26.29-.47.5-.61.65l-.07.36a10,10,0,0,0,1,1c.53.51,1.1,1,1.7,1.52s1.18,1,1.74,1.38a2.72,2.72,0,0,0,1.12.61.91.91,0,0,0,.65-.29,2,2,0,0,0,.47-.72,6,6,0,0,0,.3-.87,3.14,3.14,0,0,0,.1-.72,1.89,1.89,0,0,0-.5-1.42,7.13,7.13,0,0,0-1.2-.87,7,7,0,0,1-1.3-1,3.08,3.08,0,0,1-.84-1.67Zm2.24-4.85a1.22,1.22,0,0,0-.54.8,4.69,4.69,0,0,0-.11.94,1.55,1.55,0,0,0,.4,1,3.89,3.89,0,0,0,1,.83,4.83,4.83,0,0,0,1.26.55,4.44,4.44,0,0,0,1.16.18,1,1,0,0,0,.83-.4,2.38,2.38,0,0,0,.47-.94,6.08,6.08,0,0,0,.19-1.17c0-.4,0-.73,0-1a3.06,3.06,0,0,0-.11-1q-.11-.33-.9-.33a11.27,11.27,0,0,0-1.85.15Zm34.91.15a6.89,6.89,0,0,0-2.71,1.59c-.85.77-1.68,1.58-2.5,2.43a20.74,20.74,0,0,1-2.5,2.2,4.39,4.39,0,0,1-2.64,1c-.49,0-.73-.22-.73-.66a6.76,6.76,0,0,1,.33-1.84q.33-1.12.69-2.25a16.36,16.36,0,0,0,.54-2.14,3,3,0,0,0,0-1.59,8.53,8.53,0,0,0-1.09-.14c-.52,0-1.11-.08-1.73-.08H141l-.21-.29.29-.21c1.45-.1,2.53-.19,3.26-.29a5.22,5.22,0,0,0,1.81-.55,6.27,6.27,0,0,0,1.48-1.19q.76-.8,2.28-2.25a.8.8,0,0,1,.51-.28,3.25,3.25,0,0,1,1.12.79c.6.53,1.25,1.15,1.92,1.85l1.92,2q.9.94,1.2,1.23l.14.36Zm-4.34,52.58a4.32,4.32,0,0,1-3-1.82,26.66,26.66,0,0,1-3-4.19,43.84,43.84,0,0,1-2.46-4.82,38.3,38.3,0,0,1-1.42-3.66,1.59,1.59,0,0,1-.07-.76c.05-.12.29-.18.73-.18a12,12,0,0,1,4.38.94,17.5,17.5,0,0,1,4.38,2.54,15.31,15.31,0,0,1,3.37,3.65,7.73,7.73,0,0,1,1.34,4.24,4,4,0,0,1-1.12,3A4.34,4.34,0,0,1,152.14,160.24Z"/><line class="cls-3" x1="10.62" y1="75.33" x2="159.38" y2="75.33"/><path class="cls-4" d="M30.42,90.84a.2.2,0,0,1-.11,0s0,0,0-.1a.4.4,0,0,1,.22-.17,1.64,1.64,0,0,1,.35-.08l.37,0h.3a.16.16,0,0,0,.18-.18V79.81a.16.16,0,0,0-.16-.17,2.65,2.65,0,0,0-.59,0,1.3,1.3,0,0,1-.56-.11c-.06,0-.08-.07-.07-.14s0-.1.1-.1l8.79-.11a.15.15,0,0,1,.17.17L39.3,82c0,.11,0,.16-.11.16H39a.52.52,0,0,1-.42-.19,1.48,1.48,0,0,1-.24-.47,5,5,0,0,1-.15-.61c0-.23-.07-.43-.11-.62a3.07,3.07,0,0,0-.13-.47c-.06-.13-.13-.19-.23-.19H34.44a.14.14,0,0,0-.16.16V90.13c0,.06,0,.11.11.19a.28.28,0,0,0,.18.1h.3l.42,0a4,4,0,0,1,.41.06.84.84,0,0,1,.26.07.25.25,0,0,1,.1.15c0,.06,0,.1-.12.1Zm4.39-5.76q-.14,0-.15-.15c0-.11,0-.17.15-.17h1.64a.26.26,0,0,0,.18-.09.33.33,0,0,0,.11-.18c0-.23,0-.46.08-.69a4.46,4.46,0,0,1,.12-.7A.14.14,0,0,1,37.1,83h.24c.09,0,.14,0,.14.17v3.55a.14.14,0,0,1-.09.12.71.71,0,0,1-.18.08H37a.11.11,0,0,1-.08-.11c0-.09,0-.21,0-.35s0-.28-.05-.43,0-.29-.06-.42a1.59,1.59,0,0,0-.08-.33.39.39,0,0,1,0-.09s0-.06-.06-.06Z"/><path class="cls-5" d="M52.69,79.94a.87.87,0,0,0,0,.26c0,.17,0,.37,0,.62v2.73l0,2.43c0,.25,0,.5,0,.73s0,.46-.07.68a5.72,5.72,0,0,1-.14.67,5.1,5.1,0,0,1-.26.7,3.9,3.9,0,0,1-1.51,1.81,4.25,4.25,0,0,1-2.29.6A5.65,5.65,0,0,1,47.08,91a4.24,4.24,0,0,1-1.15-.4,4.73,4.73,0,0,1-1-.67,3.47,3.47,0,0,1-.76-1,2.62,2.62,0,0,1-.31-.82,4.28,4.28,0,0,1-.09-.87V79.84a.14.14,0,0,0-.06-.12.79.79,0,0,0-.27-.08l-.39,0-.39,0a.63.63,0,0,1-.24-.07.16.16,0,0,1-.09-.15q0-.09.12-.09h5.22c.08,0,.11,0,.11.09a.2.2,0,0,1-.08.15.63.63,0,0,1-.25,0l-.45,0c-.16,0-.31,0-.44.06a.54.54,0,0,0-.25.08.08.08,0,0,0,0,0,.35.35,0,0,1,0,.06v7.28a3.2,3.2,0,0,0,.21,1.17,3,3,0,0,0,.59,1,2.77,2.77,0,0,0,2.08.87,2.87,2.87,0,0,0,1.35-.29,2.49,2.49,0,0,0,.87-.77,3.68,3.68,0,0,0,.5-1.12,7.85,7.85,0,0,0,.23-1.3c0-.45,0-.9,0-1.34s0-.87,0-1.25,0-1,0-1.41,0-.92,0-1.4c0-.23,0-.45,0-.67a4.93,4.93,0,0,0,0-.67.15.15,0,0,0-.11-.15,1.57,1.57,0,0,0-.36,0L51,79.62a3.21,3.21,0,0,1-.5-.09c-.15,0-.24-.09-.26-.15s0-.14.11-.14h3.84a.13.13,0,0,1,.11.05.05.05,0,0,1,0,0,0,0,0,0,1,0,0,.49.49,0,0,1-.28.14,2.5,2.5,0,0,1-.43.09l-.45.07a1.1,1.1,0,0,0-.34.07.2.2,0,0,0-.1.07A.41.41,0,0,1,52.69,79.94Z"/><path class="cls-5" d="M64.85,90.31l.24-.94c.08-.32.16-.64.25-1,0-.12.06-.26.1-.39a1.47,1.47,0,0,1,.13-.37.19.19,0,0,1,.22-.13h.28a.14.14,0,0,1,.16.16v3.09a.14.14,0,0,1-.16.16l-8.68-.11c-.08,0-.12,0-.11-.1a.2.2,0,0,1,.09-.15.7.7,0,0,1,.26-.07l.41,0,.38,0c.12,0,.19,0,.21-.07a.3.3,0,0,0,0-.12V79.81a.15.15,0,0,0-.16-.17,3.09,3.09,0,0,0-.58,0,1.42,1.42,0,0,1-.57-.12c-.05,0-.07-.07-.06-.14a.1.1,0,0,1,.11-.1h5.32c.07,0,.11,0,.1.09a.18.18,0,0,1-.08.15.87.87,0,0,1-.24.06l-.4.06-.43,0h-.28a.14.14,0,0,0-.11.06.16.16,0,0,0-.06.12V90.31a.15.15,0,0,0,.06.13l.13.06a1,1,0,0,0,.26,0l.54,0,.7,0,.74,0,.62,0h.38A.23.23,0,0,0,64.85,90.31Z"/><path class="cls-5" d="M76.84,90.31c.09-.31.17-.62.25-.94s.16-.64.25-1l.09-.39a3.19,3.19,0,0,1,.13-.37.2.2,0,0,1,.22-.13h.29a.14.14,0,0,1,.16.16v3.09a.14.14,0,0,1-.16.16l-8.69-.11c-.07,0-.11,0-.1-.1a.18.18,0,0,1,.09-.15.7.7,0,0,1,.26-.07l.41,0,.38,0c.12,0,.19,0,.21-.07a.3.3,0,0,0,0-.12V79.81a.15.15,0,0,0-.16-.17,3.09,3.09,0,0,0-.58,0,1.42,1.42,0,0,1-.57-.12s-.07-.07-.07-.14,0-.1.12-.1h5.32c.07,0,.11,0,.1.09a.16.16,0,0,1-.09.15.68.68,0,0,1-.23.06l-.41.06-.42,0h-.28a.17.17,0,0,0-.12.06.18.18,0,0,0,0,.12V90.31a.17.17,0,0,0,0,.13l.14.06a1,1,0,0,0,.26,0l.54,0,.7,0,.74,0,.62,0h.38A.21.21,0,0,0,76.84,90.31Z"/><path class="cls-4" d="M83.41,90.84c-.08,0-.11,0-.12-.11s0-.11.09-.14a1.82,1.82,0,0,1,.25-.06l.39,0a3.29,3.29,0,0,1,.42,0l.28,0c.12,0,.17-.06.17-.18V79.72c0-.11,0-.16-.15-.16h-2a.2.2,0,0,0-.14.06l-.1.11a2.58,2.58,0,0,0-.16.44l-.2.74c-.07.27-.13.53-.2.79a3.83,3.83,0,0,1-.19.54c0,.07-.13.11-.28.1a2.45,2.45,0,0,0-.34,0,.14.14,0,0,1-.16-.16c0-.12,0-.23,0-.33s0-.21,0-.32L81,80.39c0-.36,0-.73,0-1.1a.14.14,0,0,1,.16-.16h10a.14.14,0,0,1,.16.16v2.87a.14.14,0,0,1-.16.16h-.35a.48.48,0,0,1-.18,0,.12.12,0,0,1-.09-.1,4,4,0,0,1-.15-.53c-.08-.25-.15-.52-.23-.8s-.15-.53-.22-.76a1.41,1.41,0,0,0-.14-.39l-.12-.1a.23.23,0,0,0-.14-.07h-2a.14.14,0,0,0-.16.16V90.24a.14.14,0,0,0,.06.12.16.16,0,0,0,.12.06l.28,0a3,3,0,0,1,.41,0l.41,0a1.28,1.28,0,0,1,.24.06.18.18,0,0,1,.09.14c0,.07,0,.11-.1.11Z"/><path class="cls-5" d="M94.38,83.71a3.86,3.86,0,0,1,.5-1.93,5.19,5.19,0,0,1,1.28-1.52,6,6,0,0,1,1.76-1,5.69,5.69,0,0,1,2-.36,5.2,5.2,0,0,1,2.09.41,5,5,0,0,1,1.6,1.09,5.46,5.46,0,0,1,1.11,1.6,7.4,7.4,0,0,1,.65,3.91,6.88,6.88,0,0,1-.5,1.92,5.75,5.75,0,0,1-1.06,1.65A5.09,5.09,0,0,1,101,91.06a6.58,6.58,0,0,1-1.19.11,5.37,5.37,0,0,1-1.93-.37,6,6,0,0,1-1.75-1,5.49,5.49,0,0,1-1.26-1.53,3.9,3.9,0,0,1-.49-1.9Zm8.31-.43a5.23,5.23,0,0,0-.18-1.32,4.65,4.65,0,0,0-.52-1.28,3.18,3.18,0,0,0-.9-1,2.13,2.13,0,0,0-1.28-.39,2.19,2.19,0,0,0-1.14.29,2.72,2.72,0,0,0-.79.76,3.84,3.84,0,0,0-.5,1.08,9.75,9.75,0,0,0-.29,1.24A10.65,10.65,0,0,0,97,83.94c0,.41,0,.78,0,1.1s0,.72,0,1.14a11.2,11.2,0,0,0,.14,1.27,9.43,9.43,0,0,0,.28,1.22,4,4,0,0,0,.49,1,2.74,2.74,0,0,0,.82.78,2.17,2.17,0,0,0,1.11.27,2.14,2.14,0,0,0,1.27-.38,3.26,3.26,0,0,0,.9-1,4.38,4.38,0,0,0,.53-1.28,5.1,5.1,0,0,0,.18-1.31Z"/><path class="cls-5" d="M114.28,89.11c-.09.29-.18.58-.26.87s-.18.58-.29.86l0,.08s0,0-.1,0h-.91a.79.79,0,0,1-.2,0,1.59,1.59,0,0,1-.19-.47c-.08-.29-.18-.62-.29-1s-.21-.71-.3-1l-.18-.64-1.28-4.33-.45-1.52c-.16-.51-.31-1-.46-1.53a1.42,1.42,0,0,1,0-.22l-.06-.22a1.34,1.34,0,0,1-.06-.12.37.37,0,0,0-.05-.11.3.3,0,0,0-.18-.09,2,2,0,0,0-.28-.06l-.29,0a.64.64,0,0,1-.21,0,.21.21,0,0,1-.11-.15c0-.06,0-.09.13-.09h4.9c.08,0,.12,0,.1.09a.24.24,0,0,1-.08.15.88.88,0,0,1-.23.06l-.37,0-.39,0-.26,0-.13,0s0,0,0,.13a1.84,1.84,0,0,0,.06.48c0,.25.1.51.17.8s.14.56.2.82.11.45.15.55c.17.72.37,1.43.56,2.13s.39,1.41.58,2.12c.07.23.14.45.2.67s.14.45.19.68.06.23.08.34a1.42,1.42,0,0,0,.11.33l.06.06.1.06.1.1A.28.28,0,0,1,114.28,89.11Zm2.23-9.41a.64.64,0,0,0-.3-.07l-.51,0-.48-.06c-.14,0-.21-.08-.21-.16s0-.12.13-.12h4.79c.08,0,.12,0,.11.12s-.13.18-.33.2l-.63,0-.59.05c-.17,0-.24.09-.21.19l2,7.07a3.4,3.4,0,0,1,.08.45l.09.53c0,.17.08.34.12.5a1.81,1.81,0,0,0,.17.39.87.87,0,0,1,.14.33c0,.16.08.28.1.37a9.64,9.64,0,0,0-.29,1,2.56,2.56,0,0,0,0,.27.37.37,0,0,1-.12.21.48.48,0,0,1-.18,0h-1a.16.16,0,0,1-.14-.08,2,2,0,0,1-.16-.45c-.09-.27-.19-.6-.31-1s-.24-.83-.38-1.3-.27-.92-.39-1.34-.23-.81-.34-1.14-.16-.55-.2-.67-.13-.42-.2-.63-.13-.42-.18-.63,0-.23-.09-.46-.08-.48-.13-.73a4.57,4.57,0,0,0-.16-.66c-.06-.19-.13-.29-.19-.29s-.15.05-.2.16a1.12,1.12,0,0,0,0,.21,1.74,1.74,0,0,1-.05.22l-.24,1c-.2.84-.43,1.67-.68,2.49s-.5,1.63-.76,2.46c0,.14-.11.18-.19.1a.35.35,0,0,1-.13-.29l.06-.24c0-.15.08-.31.13-.5s.09-.36.14-.53.08-.27.09-.31c.19-.71.39-1.42.61-2.12s.41-1.4.6-2.11c.07-.28.14-.56.2-.86a4.46,4.46,0,0,1,.26-.83,1.58,1.58,0,0,1,.07-.16,1.43,1.43,0,0,0,.08-.22,2.25,2.25,0,0,0,0-.22.17.17,0,0,0,0-.14Zm5.13-.43.29,0,.6,0h2.59c.12,0,.16.05.13.14s-.1.16-.24.18l-.46,0a2.15,2.15,0,0,0-.5.12.63.63,0,0,0-.35.35,2.7,2.7,0,0,0-.14.4c0,.13-.07.26-.11.4a11.35,11.35,0,0,0-.32,1.14c-.09.38-.19.76-.31,1.15l-.62,2.15c-.09.28-.17.56-.26.84s-.17.57-.25.86a3.88,3.88,0,0,0-.14.45,4.43,4.43,0,0,1-.14.44c0,.15-.12.22-.23.22s-.14-.08-.11-.23,0-.08,0-.11a.3.3,0,0,0,0-.1,3.73,3.73,0,0,0,.09-.46,3.56,3.56,0,0,1,.1-.47c.07-.32.15-.64.23-1s.16-.64.25-1c.18-.67.35-1.34.52-2s.34-1.32.53-2c.05-.14.09-.28.13-.4a2.59,2.59,0,0,0,.09-.42.94.94,0,0,0,0-.22s0-.1-.13-.15a.62.62,0,0,0-.27-.05h-.37a1.67,1.67,0,0,1-.39,0,.55.55,0,0,1-.31-.16c0-.05,0-.08,0-.11Z"/><path class="cls-5" d="M129.58,80.63a.53.53,0,0,0-.06.31,4.52,4.52,0,0,0,0,.49c0,.18.05.35.08.51a2.31,2.31,0,0,1,0,.38v7.8a.14.14,0,0,0,.06.12.28.28,0,0,0,.13.07.28.28,0,0,0,.15,0h.16l.34,0,.52.06.49.08.29.07a.25.25,0,0,1,.1.15c0,.06,0,.1-.11.1h-4q-.17,0-.12-.15a.28.28,0,0,1,.19-.22,1.28,1.28,0,0,1,.35-.09,2.55,2.55,0,0,1,.39,0,1.17,1.17,0,0,0,.31,0q.15,0,.15-.15c0-.92,0-1.84,0-2.77,0-.21,0-.43,0-.65s0-.45,0-.66V82.86c0-.29,0-.59,0-.88s0-.59,0-.89c0-.13,0-.26,0-.4a1.76,1.76,0,0,0,0-.4.62.62,0,0,0-.34-.53,1.66,1.66,0,0,0-.31-.12,2,2,0,0,0-.33-.08.48.48,0,0,0-.15,0l-.16,0a.2.2,0,0,1-.1-.15c0-.06,0-.09.11-.09h3.45a.22.22,0,0,1,.15.08.79.79,0,0,1,.17.19l.16.21a.76.76,0,0,1,.11.16l2.36,3.23c.79,1.07,1.56,2.16,2.32,3.25a2.25,2.25,0,0,1,.24.46,4.54,4.54,0,0,0,.21.45,1,1,0,0,0,.23.25l.35.27c.11.09.21.19.3.28a.47.47,0,0,1,.13.29L138,90.79a.17.17,0,0,1,0,.12l-.12,0h-.2l-.33,0-.32,0-.16,0a.36.36,0,0,1-.16-.13.68.68,0,0,0-.13-.18L134,86.87l-2.57-3.69-.53-.79-.54-.79c-.08-.13-.17-.26-.24-.39a1.59,1.59,0,0,0-.27-.37.69.69,0,0,0-.11-.13.25.25,0,0,0-.15-.08Zm8.53,6.51a.17.17,0,0,1,0,.16.21.21,0,0,1-.13,0,.2.2,0,0,1-.14-.06.2.2,0,0,1-.06-.19,1.3,1.3,0,0,0,0-.23,2.82,2.82,0,0,1,0-.41,1.48,1.48,0,0,0,0-.42c0-.71,0-1.42,0-2.12s0-1.41-.05-2.13c0-.1,0-.21,0-.32s0-.21,0-.32,0-.42,0-.63a4.53,4.53,0,0,0,0-.64c0-.07-.1-.12-.27-.16a4,4,0,0,0-.56-.11l-.6,0-.38,0-.18,0c-.09,0-.14,0-.14-.08V79.3s0-.06.11-.06h4c.1,0,.14.05.13.14s-.11.14-.26.16a3.68,3.68,0,0,1-.49,0,3.58,3.58,0,0,0-.49,0c-.15,0-.22.08-.22.16Z"/><line class="cls-3" x1="10.62" y1="93.43" x2="159.38" y2="93.43"/></svg>