<svg xmlns="http://www.w3.org/2000/svg" viewBox="0 0 56.85 59.61"><defs><style>.cls-1{stroke:#000;stroke-miterlimit:10;stroke-width:0.5px;}</style></defs><title>資產 6</title><g id="圖層_2" data-name="圖層 2"><g id="圖層_1-2" data-name="圖層 1"><path class="cls-1" d="M46.14,3.93c.51-.55,1-1.13,1.5-1.72S48.63,1,49.15.48a2.35,2.35,0,0,1,.6-.23,1.2,1.2,0,0,1,.61.16,8.37,8.37,0,0,1,1,.74l2,1.6c.72.58,1.39,1.13,2,1.66s1,.85,1.12.93l.13.39a3.53,3.53,0,0,1-1.31,1A1.24,1.24,0,0,0,54.46,8V56.61c0,.38-.26.71-.77,1a7.5,7.5,0,0,1-1.79.67,16.63,16.63,0,0,1-2,.38,11.74,11.74,0,0,1-1.44.13,3.64,3.64,0,0,1-.48,0,3.64,3.64,0,0,0-.48,0L47,58.53,47,58.46,46.78,58v-52a.57.57,0,0,0-.64-.64H8.57a.56.56,0,0,0-.64.64V52.77a.57.57,0,0,0,.64.64H45a.37.37,0,0,1,.25.12,3,3,0,0,1-.35.32.67.67,0,0,1-.42.2H8.83c-.09,0-.2.11-.32.35s-.22.39-.26.48a5.37,5.37,0,0,1-.61,1c-.23.3-.48.6-.73.89a7.79,7.79,0,0,1-2.72,1.92,8.28,8.28,0,0,1-3.3.71.57.57,0,0,1-.64-.64V1.63a1,1,0,0,1,.1-.42A.35.35,0,0,1,.7,1a5,5,0,0,1,1.41.48c.72.32,1.5.68,2.33,1.09s1.63.77,2.4,1.09a5.06,5.06,0,0,0,1.67.48H45.69ZM13.5,46.24a27.69,27.69,0,0,0-2.11-3.62,11.65,11.65,0,0,1-1.73-3.74l.19-.19a73.64,73.64,0,0,0,7.65-1.06,40.61,40.61,0,0,1,7.71-.74l.26.26-.2.45L21,40.93q-2.14,1.66-4.32,3.32c-.47.35-.93.72-1.4,1.12a7,7,0,0,1-1.48,1ZM25,16c0,.09-.19.18-.58.29a3.8,3.8,0,0,1-.7.16H10.49q-.64,0-.45-.42c.13-.27.28-.41.45-.41H23.74a2.57,2.57,0,0,1,.67.12A2.89,2.89,0,0,1,25,16Zm.19,16.26a1,1,0,0,1-.48.86,3.33,3.33,0,0,1-1.12.54A6.47,6.47,0,0,1,22.3,34c-.45,0-.8.06-1.06.06a1.55,1.55,0,0,1-.86-.22,6.72,6.72,0,0,1-.67-.48l-.64-.48a1.32,1.32,0,0,0-.77-.22,3,3,0,0,0-1.57.41,10.7,10.7,0,0,0-1.31,1,8.76,8.76,0,0,1-1.35,1,2.94,2.94,0,0,1-1.53.42,1,1,0,0,1-.55-.13.46.46,0,0,1-.22-.45c0-2.47-.07-4.94-.22-7.39s-.23-4.92-.23-7.39c0-.43.28-.58.83-.45a13.73,13.73,0,0,1,2,.64c.74.3,1.47.61,2.17.93a4.55,4.55,0,0,0,1.44.48,3,3,0,0,0,1.63-.39,4.67,4.67,0,0,0,1-.8,9.17,9.17,0,0,0,.67-.8.83.83,0,0,1,.67-.38,2.55,2.55,0,0,1,.9.48c.47.32.95.68,1.44,1.09s.92.79,1.31,1.15.57.61.57.74a.89.89,0,0,1-.35.64.94.94,0,0,0-.35.7Zm-8.7-1.54a.56.56,0,0,0,.64.64h2.11a.57.57,0,0,0,.64-.64V23.52a.57.57,0,0,0-.64-.64H17.15a.56.56,0,0,0-.64.64Zm17.79-.51c.21,0,.44-.34.67-.9a15,15,0,0,0,.67-2.05c.21-.81.44-1.68.67-2.62s.46-1.8.68-2.59.41-1.45.6-2,.4-.8.61-.8a4.65,4.65,0,0,1,1.28.48c.68.32,1.42.69,2.21,1.09s1.5.8,2.14,1.19a4.88,4.88,0,0,1,1.09.76c0,.05-.06.08-.06.1s0,.05-.07.1a7.24,7.24,0,0,1-.8.92,5.55,5.55,0,0,0-.73.93c-.39.56-.94,1.38-1.67,2.47s-1.43,2.24-2.11,3.45-1.28,2.39-1.79,3.52A7.1,7.1,0,0,0,36.92,37a2.54,2.54,0,0,0,.39,1.15,12.19,12.19,0,0,0,.89,1.41,6.87,6.87,0,0,0,1.12,1.21,1.76,1.76,0,0,0,1.06.52,1.38,1.38,0,0,0,1.21-.71,8.84,8.84,0,0,0,.77-1.5c.22-.53.41-1,.58-1.51s.38-.7.64-.7a.24.24,0,0,1,.25.19.93.93,0,0,1,.07.32A12.11,12.11,0,0,1,43.61,40a12,12,0,0,0-.29,2.62A5.64,5.64,0,0,0,44,45.25a5.47,5.47,0,0,1,.68,2.65,2.08,2.08,0,0,1-.26,1.15,1.41,1.41,0,0,1-.7.55,3.34,3.34,0,0,1-1,.19c-.35,0-.71,0-1.09,0a5.61,5.61,0,0,1-3.55-1.21,17.38,17.38,0,0,1-2.79-2.69c-.81-1-1.49-1.88-2-2.69S32.27,42,31.93,42A4.41,4.41,0,0,0,30,43.2c-.94.79-2,1.66-3.23,2.62a34.74,34.74,0,0,1-3.84,2.63,7.4,7.4,0,0,1-3.68,1.18c-.3,0-.45-.08-.45-.26s.27-.54.8-1,1.19-1,2-1.63,1.65-1.34,2.56-2.11,1.79-1.56,2.6-2.37a16.13,16.13,0,0,0,2.08-2.53,5.09,5.09,0,0,0,.92-2.53,9.49,9.49,0,0,0-.16-2.33,22.68,22.68,0,0,0-.6-2.5c-.26-.83-.52-1.66-.77-2.49s-.47-1.61-.64-2.34a53.83,53.83,0,0,1-1.12-9.28q-.16-4.66-.16-9.41v-1a.58.58,0,0,1,.57-.64.53.53,0,0,1,.2,0l.19.1a2.46,2.46,0,0,0,.41.1,2.59,2.59,0,0,1,.42.09c.9.17,1.79.3,2.69.39a10.77,10.77,0,0,1,2.62.57q.51.14.51.51c0,.18-.15.39-.44.64a2.55,2.55,0,0,0-.58.64,3,3,0,0,0-.22,1.06,12,12,0,0,0-.07,1.82,7.6,7.6,0,0,0,.23,1.7c.12.49.32.74.57.74A10.38,10.38,0,0,0,35,15.49a6.48,6.48,0,0,0,1.73-.55,4.58,4.58,0,0,0,1.38-1,2.11,2.11,0,0,0,.57-1.5A2.87,2.87,0,0,0,38.17,11c-.36-.58-.7-1.13-1-1.67A5.56,5.56,0,0,1,36.51,8c-.11-.39.07-.58.54-.58a17.16,17.16,0,0,1,2,.13A9,9,0,0,1,41.24,8,5,5,0,0,1,43,9.12a2.38,2.38,0,0,1,.74,1.79,2.55,2.55,0,0,1-.45,1.44,2.55,2.55,0,0,0-.45,1.44c0,.73.15,1.16.45,1.31a3.84,3.84,0,0,1,1,.87.82.82,0,0,1-.45.38,1.66,1.66,0,0,1-.64.13H33.15c-.17,0-.29.2-.36.61a12.72,12.72,0,0,0-.12,1.37,12,12,0,0,0,0,1.47q0,.7,0,1c0,.47,0,1.17.06,2.08s.11,1.86.19,2.82a20.79,20.79,0,0,0,.42,2.69,3.52,3.52,0,0,0,.74,1.69Z"/></g></g></svg>