<svg xmlns="http://www.w3.org/2000/svg" viewBox="0 0 58.42 60.34"><defs><style>.cls-1{stroke:#000;stroke-miterlimit:10;stroke-width:0.5px;}</style></defs><title>town</title><g id="圖層_2" data-name="圖層 2"><g id="圖層_1-2" data-name="圖層 1"><path class="cls-1" d="M.25,18.17a4.49,4.49,0,0,1,1-2.75,15,15,0,0,1,2-2.21c.72-.66,1.43-1.35,2.11-2.08.43-.43.83-.86,1.22-1.31L7.74,8.44c.21-.21.36-.32.45-.32.25,0,.5.23.73.67a8.1,8.1,0,0,1,.61,1.54c.17.58.31,1.15.42,1.73a8.82,8.82,0,0,1,.16,1.18,9.66,9.66,0,0,1-1.54,5.92,5.92,5.92,0,0,1-3.39,2.43,4.42,4.42,0,0,1-3.39-.51A3.15,3.15,0,0,1,.25,18.17ZM1,39.1l2,0c.91,0,2,0,3.1,0l3.62,0c1.25,0,2.43,0,3.52,0s2,0,2.78.07a10.3,10.3,0,0,1,1.41.09l-.67.23a3.36,3.36,0,0,1-.61.16H1L.7,39.29Zm46.21-17a8.19,8.19,0,0,1-.86.73,1.16,1.16,0,0,0-.55.87v8.57c0,.35-.34.63-1,.87a18.56,18.56,0,0,1-2.3.61c-.86.17-1.69.31-2.5.41l-1.66.23a.77.77,0,0,0-.45-.45c-.09-.56-.16-1-.23-1.35a2.32,2.32,0,0,0-.28-.8,1,1,0,0,0-.64-.38,6.8,6.8,0,0,0-1.28-.1,2.68,2.68,0,0,1-.77,0,3.11,3.11,0,0,0-.77,0,.73.73,0,0,0-.7.77,16.65,16.65,0,0,1-.45,3.87,16.65,16.65,0,0,0-.45,3.87A28.7,28.7,0,0,0,32.41,43c.11,1,.22,2,.35,3.07a52.88,52.88,0,0,1,.35,5.57c0,1.84,0,3.71,0,5.63a1.77,1.77,0,0,1-.87,1.54,6.35,6.35,0,0,1-2.08.86,13.58,13.58,0,0,1-2.43.36q-1.21.06-1.92.06c-.56,0-.83-.26-.83-.77q0-3.07.22-6c.15-2,.23-4,.23-6,0-.13,0-.32,0-.58a4.45,4.45,0,0,0,0-.73,2.07,2.07,0,0,0-.16-.64.47.47,0,0,0-.45-.29,2.29,2.29,0,0,0-1,.61,6.47,6.47,0,0,1-.9.8l-2.49,1.92Q19,49.54,16.7,51t-4.87,2.82a40.91,40.91,0,0,1-5,2.24A13.52,13.52,0,0,1,2.36,57l-.41,0c-.2,0-.29-.12-.29-.29s.25-.55.77-1,1.08-1,1.72-1.47,1.27-1,1.89-1.44,1-.76,1.25-.93c.9-.68,1.87-1.4,2.91-2.14s2.06-1.54,3-2.37A26.32,26.32,0,0,0,16,44.6a13,13,0,0,0,2-3,4.16,4.16,0,0,0,.25-.7c.09-.3.19-.6.29-.9a5.47,5.47,0,0,1,.35-.76.57.57,0,0,1,.52-.32c.21,0,.63,0,1.24.06s1.25.06,1.89.06a8.28,8.28,0,0,0,1.73-.16c.51-.1.77-.31.77-.6V32.06a.57.57,0,0,0-.64-.64H22a1.49,1.49,0,0,0-.54.06,1.85,1.85,0,0,0-.35.23,3.27,3.27,0,0,0-.36.28c-.42.35-.9.71-1.44,1.09a15.07,15.07,0,0,1-1.66,1.06,11,11,0,0,1-1.79.8,5.52,5.52,0,0,1-1.76.32,3.87,3.87,0,0,1-.64,0c-.09,0-.24-.19-.45-.48a3,3,0,0,1-.22-1.38c0-.75,0-1.56,0-2.43s0-1.72,0-2.53,0-1.39,0-1.73c0-1.53-.09-3.07-.13-4.61s-.06-3.07-.06-4.6c0-.39.21-.58.64-.58a5,5,0,0,1,1.95.54c.79.37,1.59.76,2.4,1.19s1.59.82,2.33,1.18a4.37,4.37,0,0,0,1.76.55H36.28l.45-.2.77-.76c.38-.39.79-.8,1.21-1.25s.83-.84,1.19-1.19.58-.51.67-.51a3.44,3.44,0,0,1,1.54.67,25.46,25.46,0,0,1,2.11,1.57,21.6,21.6,0,0,1,2,1.83,5.75,5.75,0,0,1,1.06,1.37ZM51.64,8.06c.17.21.61.66,1.31,1.34s1.44,1.41,2.21,2.18,1.46,1.48,2.08,2.14a5.41,5.41,0,0,1,.93,1.12c0,.39-.47.82-1.41,1.31a30.57,30.57,0,0,1-3.2,1.44c-1.19.47-2.36.87-3.49,1.19a10.52,10.52,0,0,1-2.27.48c-.42,0-.62-.31-.57-.93s.11-1.3.22-2a14,14,0,0,0,.16-2.05c0-.61-.23-.92-.7-.92H11.45c-.21,0-.32-.07-.32-.2a.63.63,0,0,1,.61-.67,7.39,7.39,0,0,1,1.37-.06c.52,0,1,0,1.38,0s.61-.2.61-.55l-.19-.32c-.35-.51-.76-1.18-1.25-2s-1-1.71-1.44-2.63S11.34,5.07,11,4.22A6.08,6.08,0,0,1,10.49,2c0-.42.19-.64.58-.64a14.53,14.53,0,0,1,3,.35,12.21,12.21,0,0,1,3,1.09,7.43,7.43,0,0,1,2.37,1.92,4.3,4.3,0,0,1,1,2.79,2.46,2.46,0,0,1-.35,1.28,8.35,8.35,0,0,1-.77,1.05c-.28.32-.53.64-.77,1a1.68,1.68,0,0,0-.35,1c0,.17.26.31.77.42a17,17,0,0,0,1.79.26q1,.09,1.95.12c.62,0,1,0,1.25,0l.45-.2.06-.06.19-.45V.89a.57.57,0,0,1,.64-.64c1.28,0,2.66.08,4.13.22a30.53,30.53,0,0,1,4.07.68,4.3,4.3,0,0,0,.44.16c.22.06.32.16.32.28s-.12.31-.38.55-.43.39-.51.48l-.19.45v9l.12.32a1.51,1.51,0,0,0,.32.22.94.94,0,0,0,.39.1,5.43,5.43,0,0,0,.7-.07l1.09-.13,1.06-.12a2.81,2.81,0,0,0,.6-.13,1.67,1.67,0,0,0,.74-1.12A19.07,19.07,0,0,0,38.68,9c.15-.81.28-1.68.39-2.62s.23-1.79.38-2.56a15.71,15.71,0,0,1,.48-1.92c.17-.51.38-.77.64-.77a9.62,9.62,0,0,1,1.7.39c.91.25,1.91.55,3,.89s2.07.67,3,1,1.56.55,1.86.68l.22.22a.89.89,0,0,1,.16.22,4,4,0,0,1-1.09.77c-.6.34-1.32.74-2.17,1.19s-1.77.94-2.76,1.47-1.88,1-2.72,1.57a21.2,21.2,0,0,0-2,1.4c-.54.43-.8.79-.8,1.09,0,.09.06.15.19.19a.88.88,0,0,0,.32.07h7a2.23,2.23,0,0,0,.87-.55c.45-.36.93-.77,1.44-1.24s1-.93,1.41-1.38.7-.76.83-.93l.38-.19ZM37.18,30.39l.06-.06.19-.45V21.82a.56.56,0,0,0-.64-.64H21.43a.57.57,0,0,0-.64.64V29.5a.57.57,0,0,0,.64.64q3.84,0,7.65.19c2.54.13,5.09.21,7.65.26ZM35.39,41.72q2.69,1,5.21,2.21t5.22,2.14c1.88.69,3.78,1.28,5.73,1.8s3.89,1,5.85,1.4a.63.63,0,0,1,.26.07.21.21,0,0,1,.13.19,1.9,1.9,0,0,1-.64,1.12q-.65.68-1.44,1.44l-1.57,1.5a3.55,3.55,0,0,0-1,1.32,3,3,0,0,0-.23.76,7.69,7.69,0,0,1-.25,1,4.86,4.86,0,0,1-.39.86.67.67,0,0,1-.6.38,2.69,2.69,0,0,1-.9-.38c-.47-.26-1-.54-1.5-.86s-1-.63-1.51-.93-.79-.51-1-.64c-.89-.6-2-1.4-3.42-2.4a42.74,42.74,0,0,1-4-3.3,23,23,0,0,1-3.33-3.74,6.54,6.54,0,0,1-1.38-3.75c0-.17.1-.26.29-.28A.5.5,0,0,1,35.39,41.72Zm1.28-2.17a1.44,1.44,0,0,1-.71-.23c-.25-.15-.47-.26-.64-.35a8.17,8.17,0,0,1,1.73-.1c.68,0,1.26,0,1.73,0h8c.34,0,.72-.29,1.15-.87a20.65,20.65,0,0,0,1.25-1.89l1.12-1.88c.34-.58.62-.87.83-.87a3.45,3.45,0,0,1,1.22.74c.64.49,1.31,1,2,1.66s1.38,1.23,2,1.83,1.09,1,1.34,1.21l.07.26-.13.25-.45.2Z"/></g></g></svg>