<?xml version="1.0" encoding="UTF-8"?>
<svg width="284px" height="284px" viewBox="0 0 284 284" version="1.1" xmlns="http://www.w3.org/2000/svg" xmlns:xlink="http://www.w3.org/1999/xlink">
    <!-- Generator: Sketch 55.2 (78181) - https://sketchapp.com -->
    <title>burning-home</title>
    <desc>Created with Sketch.</desc>
    <g id="Page-1" stroke="none" stroke-width="1" fill="none" fill-rule="evenodd">
        <g id="burning-home">
            <g transform="translate(73.000000, 82.000000)"></g>
            <g id="Group" transform="translate(73.000000, 74.000000)" fill="#000000" fill-rule="nonzero">
                <path d="M74.3876032,100.804577 L74.3876032,102.977622 C74.3876032,105.029943 73.0010446,106.693198 71.2866062,106.693198 L59.9499004,106.693198 C58.235462,106.693198 56.8489034,105.029943 56.8489034,102.977622 L56.8489034,89.3992372 C56.8489034,87.3469168 58.235462,85.6870948 59.9499004,85.6870948 L70.9319608,85.6870948 C70.5921321,83.0191354 70.3641458,80.3191354 70.2996213,77.6013986 L59.9503783,77.6013986 C58.2359399,77.6013986 56.8493812,75.9415766 56.8493812,73.8892562 L56.8493812,60.3114431 C56.8493812,58.2608392 58.2359399,56.5975842 59.9503783,56.5975842 L71.2870843,56.5975842 C71.8161847,56.5975842 72.2922317,56.7978385 72.7266963,57.0770502 C73.7552637,53.4427208 75.0978502,49.9302606 76.8299731,46.6432295 C77.2529666,45.8433566 77.8026193,45.1819453 78.4263555,44.6475524 L55.4986697,20.9700571 C54.3396195,19.7702479 52.6103643,19.7702479 51.4484463,20.9700571 L14.8463577,58.7809282 C14.1662223,59.4869676 13.7728621,60.5111252 13.7728621,61.5924984 L13.7728621,116.244183 C13.7728621,118.297076 15.1565531,119.956325 16.8738591,119.956325 L85.6033857,119.956325 C80.9442428,115.440877 77.0804234,108.692308 74.3876032,100.804577 Z M50.0996464,102.97705 C50.0996464,105.029371 48.710698,106.692626 46.9957816,106.692626 L35.6590758,106.692626 C33.9446374,106.692626 32.5585567,105.029371 32.5585567,102.97705 L32.5585567,89.3992372 C32.5585567,87.3469168 33.9446374,85.6870948 35.6590758,85.6870948 L46.9957816,85.6870948 C48.710698,85.6870948 50.0996464,87.3469168 50.0996464,89.3992372 L50.0996464,102.97705 Z M50.0996464,73.8892562 C50.0996464,75.9415766 48.710698,77.6013986 46.9957816,77.6013986 L35.6590758,77.6013986 C33.9446374,77.6013986 32.5585567,75.9415766 32.5585567,73.8892562 L32.5585567,60.3114431 C32.5585567,58.2608392 33.9446374,56.5975842 35.6590758,56.5975842 L46.9957816,56.5975842 C48.710698,56.5975842 50.0996464,58.2608392 50.0996464,60.3114431 L50.0996464,73.8892562 Z" id="Shape"></path>
                <path d="M82.7619203,43.254927 C83.2260183,43.3115702 83.6872486,43.4105531 84.1393979,43.6016528 C86.1257943,44.4278449 87.5596714,46.376033 88.0682196,48.7150032 L89.3658777,50.0527019 C90.2706541,46.1723458 91.4736762,42.4710744 92.9309728,39.0335664 L56.5057289,1.54310236 C54.762135,-0.251176097 52.1782895,-0.251176097 50.4404311,1.54310236 L1.86212767,51.5437381 C-0.0922460571,53.5502861 -0.310673251,57.0661793 1.36218271,59.3994278 C2.28464329,60.6821996 3.58803707,61.3367452 4.89764432,61.3367452 C5.96779418,61.3367452 7.04989302,60.8944692 7.92790341,59.9898919 L53.4726022,13.1092181 L82.7619203,43.254927 Z" id="Shape"></path>
                <path d="M135.431073,58.658487 C134.83697,58.4055943 134.209889,58.2762874 133.559865,58.2762874 C128.593394,58.2762874 123.231652,65.6868404 119.447652,72.7249206 C118.906602,67.3460903 117.006238,61.7298156 114.794722,55.2009535 L113.787185,52.2125874 C110.538021,42.4830896 113.142419,31.5892562 116.355736,25.2160204 C116.675012,24.5792118 116.648247,23.7736172 116.284998,23.1722822 C115.927485,22.5709472 115.2918,22.2802925 114.688614,22.445073 C102.692805,25.6726002 92.7722908,44.9067388 92.1691066,64.2810553 C90.7591276,62.6075016 89.2248797,61.5564527 87.865087,60.6255563 C84.8558578,58.5698029 83.0405703,57.3310871 83.6169885,50.798792 C83.6905943,49.942276 83.2652109,49.1355372 82.5855535,48.8506039 C81.9082857,48.5639542 81.1516768,48.8860776 80.7616625,49.6150032 C69.1209747,71.7087731 76.3219027,106.490655 90.4044822,117.319262 C91.0669332,117.825048 91.9210455,117.665416 92.4238581,116.961665 C92.7163689,116.550859 92.8081372,115.705785 92.7340536,115.17082 C92.2790365,111.791672 91.1730405,102.205213 92.1992182,95.2054673 C92.8731395,96.0728544 93.7009645,96.6387158 94.4484917,97.1553719 C95.7643132,98.0536554 96.9023329,98.8289256 97.6087567,101.185633 C97.8004172,101.829879 98.2764647,102.296758 98.8442795,102.399174 C99.4120952,102.483853 99.9822993,102.204641 100.316393,101.649078 C101.847295,99.1470438 102.530777,95.2689764 103.254406,91.1528926 C104.206022,85.7637635 105.178668,80.2396058 107.957521,77.5573427 C106.840053,81.538398 106.49162,86.3753974 108.023001,90.9720916 L108.617104,92.7274634 C110.375993,97.9506676 111.653098,101.715448 110.919432,105.296567 C110.733028,106.220025 111.153154,107.154355 111.889211,107.479911 C112.631002,107.802034 113.458827,107.412969 113.813473,106.574189 C115.202422,103.251112 116.990944,100.232422 118.63799,98.3328671 C117.975539,100.968786 117.733214,104.043547 117.481807,107.21157 C117.218929,110.569549 116.940757,114.044246 116.172678,117.172791 C115.986274,117.923458 116.213783,118.730197 116.740493,119.193071 C117.015319,119.433948 117.337463,119.558105 117.659607,119.558105 C117.961199,119.558105 118.262791,119.448252 118.526146,119.239415 C120.814137,117.388493 122.809614,115.010044 124.456182,112.172156 C129.239116,103.909663 130.093229,93.0169739 130.856051,83.4167832 C131.562953,74.4213605 132.233529,65.9288621 135.964475,61.7630006 C136.360703,61.3212968 136.538026,60.6644628 136.425706,60.0293706 C136.31482,59.4 135.939144,58.879911 135.431073,58.658487 Z" id="Shape"></path>
            </g>
            <rect id="矩形" stroke="#979797" stroke-width="3" transform="translate(142.000000, 142.000000) rotate(45.000000) translate(-142.000000, -142.000000) " x="51.5" y="51.5" width="181" height="181"></rect>
            <rect id="矩形" stroke="#979797" transform="translate(142.000000, 142.000000) rotate(45.000000) translate(-142.000000, -142.000000) " x="42.5" y="42.5" width="199" height="199"></rect>
        </g>
    </g>
</svg>