<?xml version="1.0" encoding="UTF-8"?>
<svg width="284px" height="284px" viewBox="0 0 284 284" version="1.1" xmlns="http://www.w3.org/2000/svg" xmlns:xlink="http://www.w3.org/1999/xlink">
    <!-- Generator: Sketch 55.2 (78181) - https://sketchapp.com -->
    <title>rain-drops</title>
    <desc>Created with Sketch.</desc>
    <g id="Page-1" stroke="none" stroke-width="1" fill="none" fill-rule="evenodd">
        <g id="rain-drops">
            <g stroke-width="1" fill-rule="evenodd" transform="translate(72.578644, 74.578644)" fill="#000000" id="Page-1">
                <g fill-rule="nonzero">
                    <g>
                        <g id="rain-drops">
                            <g id="Group">
                                <path d="M1.98552301,77.157654 C-4.11280372,93.5258651 4.30597448,111.685982 20.8103141,117.738416 C37.3022336,123.792258 55.6234737,115.423929 61.7303171,99.0712024 C67.8250952,82.718827 50.5595736,38 50.5595736,38 C50.5595736,38 8.09839913,60.7929619 1.98552301,77.157654 Z M12.4394425,83.5855719 C14.4568407,101.375483 24.6318376,107.482815 24.6318376,107.482815 C6.49796541,102.114135 12.4394425,83.5855719 12.4394425,83.5855719 Z" id="Shape"></path>
                                <path d="M114.091289,81.0740176 C114.091289,81.0740176 95.4499613,91.0871554 92.7700336,98.2695601 C90.0943644,105.452317 93.7895566,113.424751 101.033027,116.081642 C108.271885,118.733255 116.313443,115.066745 118.99408,107.889971 C121.674718,100.711437 114.091289,81.0740176 114.091289,81.0740176 Z M106.431918,99.0869208 C107.320141,106.899941 111.785387,109.579707 111.785387,109.579707 C103.826156,107.232493 106.431918,99.0869208 106.431918,99.0869208 Z" id="Shape"></path>
                                <path d="M113.743878,50.0111437 C118.733611,36.618651 104.59621,0.0112609971 104.59621,0.0112609971 C104.59621,0.0112609971 69.8394736,18.6925513 64.8408685,32.0720235 C59.8465216,45.4543109 66.7443555,60.3441642 80.2412282,65.2863343 C93.7423593,70.248915 108.743498,63.4029326 113.743878,50.0111437 Z M73.3902363,37.3330205 C75.0449641,51.8948974 83.3750265,56.8975953 83.3750265,56.8975953 C68.5268341,52.5061584 73.3902363,37.3330205 73.3902363,37.3330205 Z" id="Shape"></path>
                            </g>
                        </g>
                    </g>
                </g>
            </g>
            <rect id="矩形" stroke="#979797" stroke-width="3" transform="translate(142.000000, 142.000000) rotate(45.000000) translate(-142.000000, -142.000000) " x="51.5" y="51.5" width="181" height="181"></rect>
            <rect id="矩形" stroke="#979797" stroke-width="1" transform="translate(142.000000, 142.000000) rotate(45.000000) translate(-142.000000, -142.000000) " x="42.5" y="42.5" width="199" height="199"></rect>
        </g>
    </g>
</svg>