<?xml version="1.0" encoding="UTF-8"?>
<svg width="283px" height="283px" viewBox="0 0 283 283" version="1.1" xmlns="http://www.w3.org/2000/svg" xmlns:xlink="http://www.w3.org/1999/xlink">
    <!-- Generator: Sketch 55.2 (78181) - https://sketchapp.com -->
    <title>cloudy</title>
    <desc>Created with Sketch.</desc>
    <g id="Page-1" stroke="none" stroke-width="1" fill="none" fill-rule="evenodd">
        <g id="cloudy" transform="translate(-0.578644, -0.578644)">
            <g id="icon" stroke-width="1" fill-rule="evenodd" transform="translate(81.578644, 91.578644)" fill="#000000">
                <g id="Capa_1" fill-rule="nonzero">
                    <g id="Group">
                        <path d="M11.2094118,43.476 L1.90588235,52.476 L14.1211765,51.928 C13.4435294,50.648 12.8470588,49.28 12.3529412,47.844 C11.8552941,46.404 11.4741176,44.952 11.2094118,43.476 Z" id="Shape"></path>
                        <path d="M53.4423529,29.608 C53.5941176,30.036 53.7035294,30.468 53.8270588,30.888 C54.4058824,28.952 55.1505882,27.092 56.0329412,25.332 L51.6705882,25.528 C52.3517647,26.812 52.9447059,28.172 53.4423529,29.608 Z" id="Shape"></path>
                        <path d="M49.5811765,22.328 L53.6611765,9.264 L43.3305882,16.664 C44.4847059,17.384 45.5964706,18.228 46.6658824,19.188 C47.7317647,20.156 48.7058824,21.208 49.5811765,22.328 Z" id="Shape"></path>
                        <path d="M40.1082353,15.06 L37.8811765,1.444 L32.1988235,13.708 C33.5223529,13.676 34.8564706,13.772 36.2011765,14.004 C37.5494118,14.24 38.8552941,14.592 40.1082353,15.06 Z" id="Shape"></path>
                        <path d="M24.8505882,15.444 C26.1176471,14.88 27.4094118,14.452 28.7011765,14.148 L20.76,3.616 L21.2470588,17.452 C22.3764706,16.688 23.5835294,16 24.8505882,15.444 Z" id="Shape"></path>
                        <path d="M15.6564706,23.124 C16.5105882,21.912 17.4317647,20.812 18.42,19.82 L6.89647059,15.188 L13.4258824,26.908 C14.0611765,25.592 14.8058824,24.328 15.6564706,23.124 Z" id="Shape"></path>
                        <path d="M11.0823529,34.984 C11.2835294,33.452 11.6047059,31.976 12.0141176,30.564 L0,33.076 L10.8211765,39.524 C10.7929412,38.028 10.8776471,36.508 11.0823529,34.984 Z" id="Shape"></path>
                        <path d="M26.0364706,52.076 C28.8423529,52.076 28.7152941,52.82 28.7152941,52.076 C28.7152941,42.324 35.6964706,34.42 44.3082353,34.42 C46.4647059,34.42 48.5047059,34.936 50.3717647,35.836 C49.2811765,27.336 43.4188235,20.288 35.5341176,18.936 C25.8917647,17.288 16.8917647,24.804 15.4305882,35.732 C14.5411765,42.388 16.6623529,48.756 20.6364706,53.116 C22.3305882,52.452 24.1447059,52.076 26.0364706,52.076 Z" id="Shape"></path>
                        <path d="M100.274118,44.656 C99.9141176,30.256 89.5129412,18.704 76.7188235,18.704 C64.6341176,18.704 54.6811765,29 53.3011765,42.276 C51.2470588,40.816 48.8188235,39.972 46.2282353,39.972 C38.8588235,39.972 32.8870588,46.728 32.8870588,55.072 C32.8870588,55.704 32.9894118,55.072 30.5964706,55.072 C22.6905882,55.072 16.2741176,62.344 16.2741176,71.3 C16.2741176,79.472 21.6,86.228 28.5282353,87.364 C29.0647059,87.48 29.6258824,87.536 30.2047059,87.536 L97.7717647,87.536 C98.0117647,87.536 98.0894118,87.512 98.0964706,87.48 C98.4070588,87.496 98.6964706,87.536 99,87.536 C109.464706,87.536 117.949412,77.92 117.949412,66.06 C117.949412,54.68 110.145882,45.404 100.274118,44.656 Z" id="Shape"></path>
                        <path d="M80.34,95.364 C80.1388235,94.764 79.9552941,94.108 79.7823529,93.388 C79.6164706,94.084 79.4294118,94.716 79.2458824,95.304 C79.1894118,95.484 79.1364706,95.64 79.0729412,95.812 C78.9352941,96.22 78.7976471,96.6 78.6529412,96.968 C78.5823529,97.148 78.5082353,97.32 78.4376471,97.492 C78.2929412,97.828 78.1411765,98.18 77.9894118,98.508 C77.9188235,98.656 77.8517647,98.812 77.7741176,98.952 C77.5870588,99.344 77.3964706,99.716 77.2023529,100.108 C76.4576471,101.552 75.6458824,103.068 74.7423529,105.14 C72.6882353,109.896 75.7411765,114.672 79.7823529,114.672 C83.8235294,114.672 86.8764706,109.9 84.8152941,105.14 C82.9941176,100.952 81.4976471,99.016 80.34,95.364 Z" id="Shape"></path>
                        <path d="M61.1823529,94.108 C60.9635294,93.404 60.7411765,92.664 60.54,91.828 C60.3458824,92.624 60.1411765,93.336 59.9258824,94.016 C59.8552941,94.244 59.7811765,94.436 59.7070588,94.648 C59.5623529,95.084 59.4105882,95.524 59.2517647,95.912 C59.1705882,96.14 59.0717647,96.356 58.9764706,96.568 C58.8247059,96.936 58.6658824,97.304 58.5070588,97.652 C58.4047059,97.856 58.3129412,98.06 58.2176471,98.26 C58.0164706,98.66 57.8258824,99.056 57.6176471,99.464 C56.7635294,101.136 55.8105882,102.892 54.7694118,105.3 C52.4047059,110.752 55.8988235,116.228 60.54,116.228 C65.1705882,116.228 68.6682353,110.752 66.3105882,105.3 C64.2352941,100.5 62.5129412,98.288 61.1823529,94.108 Z" id="Shape"></path>
                        <path d="M44.9223529,88.272 C44.7070588,89.132 44.4776471,89.844 44.2305882,90.516 C44.1882353,90.608 44.1564706,90.728 44.1176471,90.836 C43.8741176,91.452 43.6129412,92.024 43.3411765,92.588 C43.2741176,92.712 43.2211765,92.836 43.1541176,92.956 C42.5682353,94.12 41.9152941,95.3 41.1882353,96.972 C39.6635294,100.496 41.9258824,104.036 44.9188235,104.036 C47.9117647,104.036 50.1635294,100.496 48.6494118,96.972 C47.0788235,93.344 45.8223529,92.016 44.9223529,88.272 Z" id="Shape"></path>
                    </g>
                </g>
            </g>
            <rect id="矩形" stroke="#979797" stroke-width="3" transform="translate(142.000000, 142.000000) rotate(45.000000) translate(-142.000000, -142.000000) " x="51.5" y="51.5" width="181" height="181"></rect>
            <rect id="矩形" stroke="#979797" stroke-width="1" transform="translate(142.000000, 142.000000) rotate(45.000000) translate(-142.000000, -142.000000) " x="42.5" y="42.5" width="199" height="199"></rect>
        </g>
    </g>
</svg>