<?xml version="1.0" encoding="UTF-8"?>
<svg width="283px" height="283px" viewBox="0 0 283 283" version="1.1" xmlns="http://www.w3.org/2000/svg" xmlns:xlink="http://www.w3.org/1999/xlink">
    <!-- Generator: Sketch 55.2 (78181) - https://sketchapp.com -->
    <title>编组 2</title>
    <desc>Created with Sketch.</desc>
    <g id="Page-1" stroke="none" stroke-width="1" fill="none" fill-rule="evenodd">
        <g id="编组-2" transform="translate(-0.578644, -0.578644)">
            <g id="saw" transform="translate(81.578644, 76.578644)" fill="#000000" fill-rule="nonzero">
                <g id="Capa_1">
                    <g id="Group">
                        <path d="M53.0398725,63.209083 C52.538576,62.7863319 51.8067163,62.8249782 51.3480128,63.2960699 L31.9393836,83.2345415 C31.5772157,83.6065939 31.8964081,84.2452402 32.3996174,84.1475109 C34.3490755,83.7695633 37.7537088,81.689869 38.6912646,82.4462882 C39.9109033,83.430393 37.7129012,89.4695633 39.0145377,90.2791703 C40.3375983,91.1022707 44.5289267,86.2999127 45.920085,86.9428821 C47.3275664,87.5933188 46.6099894,93.9986463 48.0697556,94.4646288 C49.5407439,94.9341485 52.485526,89.2378166 53.9920935,89.520262 C55.5050372,89.8034934 56.3015515,96.2001747 57.8324761,96.2948908 C59.365441,96.389607 60.9029968,90.1368996 62.4359617,90.0421834 C63.9667588,89.9474672 66.2232944,95.9660699 67.7361105,95.6828384 C69.242678,95.400655 69.2843783,88.9524891 70.7553666,88.4829694 C72.2153879,88.0169869 75.8085016,93.3060262 77.215983,92.6559825 C78.6070138,92.0130131 77.138576,85.7444541 78.4616366,84.9216157 C79.7632731,84.1117467 84.4903294,88.3572052 85.7098406,87.3728384 C86.9030818,86.4099563 84.0144102,80.6859825 85.1143039,79.5560699 C86.2139426,78.4264192 91.7860999,81.3939301 92.7234006,80.1681223 C93.6813603,78.9151965 89.5486929,74.0589956 90.3370457,72.7220961 C91.1382784,71.3629258 97.2400425,72.8718341 97.8659299,71.4424454 C98.4990861,69.9968122 93.3503082,66.3051092 93.8040383,64.8055022 C94.261084,63.2946288 100.537683,63.2519214 100.812625,61.7041048 C101.088332,60.15 95.2297556,57.8318777 95.3218278,56.2591703 C95.4140276,54.6843668 101.500489,53.1048472 101.408417,51.5299127 C101.316217,49.9572052 95.0897343,49.138952 94.8140276,47.5848472 C94.5393411,46.0371616 100.084081,43.0120087 99.6270351,41.5008734 C99.1734325,40.0011354 92.9382784,40.7381659 92.3051222,39.2922707 C91.6794899,37.8631441 96.3540064,33.5574236 95.5530287,32.1981223 C94.7646759,30.8610917 88.8862062,33.118952 87.9282465,31.8660262 C87.191796,30.9028821 89.216238,27.4053275 89.584017,25.4026638 C89.6791498,24.8855895 89.0574708,24.5578166 88.6953029,24.929869 L69.2865462,44.8680786 C68.8279702,45.3391703 68.7903507,46.0911354 69.2018704,46.6059825 C72.9060574,51.240131 72.6512646,58.0954585 68.4377471,62.4242358 C64.2242295,66.7526201 57.5509033,67.0143668 53.0398725,63.209083 Z" id="Shape"></path>
                        <path d="M13.5142189,59.9148472 L3.77700319,69.9179476 C1.29730074,72.4653275 0.0413177471,75.7919214 0.00369819341,79.1304367 L0.000127523911,79.1304367 L0.000127523911,99.6172926 L22.5158767,99.6172926 L22.5158767,88.1362009 L41.2546227,68.8860262 C41.7059299,68.4224017 42.1151541,67.9321834 42.485356,67.4213974 L101.806929,6.48104803 C102.375303,5.89703057 102.375303,4.950131 101.806929,4.36611354 L98.1084803,0.566855895 C97.8242295,0.274847162 97.4517322,0.128777293 97.0791073,0.128777293 C96.7064825,0.128777293 96.3341126,0.274847162 96.0497343,0.566855895 L85.8223167,11.0731441 C77.4025505,3.8458952 66.8862912,0.138471616 56.4465462,0.138471616 C44.9435069,0.138471616 33.5338151,4.64043668 25.1273114,13.8960262 C13.0042508,27.2431441 9.16284803,44.7514847 13.5142189,59.9148472 Z M10.9729224,83.4748035 C8.75451647,83.4748035 6.95617428,81.6271179 6.95617428,79.3484279 C6.95617428,77.069476 8.75451647,75.2220524 10.9729224,75.2220524 C13.1913284,75.2220524 14.9896706,77.069476 14.9896706,79.3484279 C14.9896706,81.6272489 13.1913284,83.4748035 10.9729224,83.4748035 Z M40.5633156,30.7264192 C47.816238,23.2755459 59.2862487,22.7975109 67.080255,29.2923144 C67.9499681,30.0170306 68.013475,31.3587773 67.2216791,32.1721834 L61.9781509,37.558952 C57.9601275,36.0328821 53.2150903,36.9695633 49.9276514,40.3465939 C46.6402125,43.7236245 45.7285441,48.5981659 47.2140701,52.7259825 L41.970542,58.1126201 C41.178746,58.9260262 39.8727736,58.860917 39.1673114,57.9675983 C32.8450584,49.9604803 33.3103932,38.1771616 40.5633156,30.7264192 Z" id="Shape"></path>
                        <path d="M111.471838,119.908952 L118.626567,119.908952 C119.334963,119.908952 119.909075,119.31917 119.909075,118.591441 L119.909075,115.577555 L119.909075,110.332533 L119.909075,104.210175 C119.909075,103.482445 119.334963,102.892664 118.626567,102.892664 L25.703847,102.892664 L24.1097981,102.892664 L22.5157492,102.892664 L0,102.892664 L0,105.593581 L0,107.231135 L0,108.86869 L0,110.332533 L0,115.577555 L0,118.591441 C0,119.318908 0.57424017,119.908952 1.28250797,119.908952 L8.43749203,119.908952 C9.14575983,119.908952 9.72,119.318908 9.72,118.591441 L9.72,116.060437 C20.421169,118.153231 38.922848,119.536376 59.9546015,119.536376 C80.9863549,119.536376 99.488034,118.1531 110.189075,116.060437 L110.189075,118.591441 C110.189075,119.31917 110.763443,119.908952 111.471838,119.908952 Z" id="Shape"></path>
                    </g>
                </g>
            </g>
            <rect id="矩形" stroke="#979797" stroke-width="3" transform="translate(142.000000, 142.000000) rotate(45.000000) translate(-142.000000, -142.000000) " x="51.5" y="51.5" width="181" height="181"></rect>
            <rect id="矩形" stroke="#979797" transform="translate(142.000000, 142.000000) rotate(45.000000) translate(-142.000000, -142.000000) " x="42.5" y="42.5" width="199" height="199"></rect>
        </g>
    </g>
</svg>