<?xml version="1.0" encoding="UTF-8"?>
<svg width="283px" height="283px" viewBox="0 0 283 283" version="1.1" xmlns="http://www.w3.org/2000/svg" xmlns:xlink="http://www.w3.org/1999/xlink">
    <!-- Generator: Sketch 55.2 (78181) - https://sketchapp.com -->
    <title>编组 4</title>
    <desc>Created with Sketch.</desc>
    <g id="Page-1" stroke="none" stroke-width="1" fill="none" fill-rule="evenodd">
        <g id="编组-4" transform="translate(-0.578644, -0.578644)">
            <rect id="矩形" stroke="#979797" stroke-width="3" transform="translate(142.000000, 142.000000) rotate(45.000000) translate(-142.000000, -142.000000) " x="51.5" y="51.5" width="181" height="181"></rect>
            <rect id="矩形" stroke="#979797" transform="translate(142.000000, 142.000000) rotate(45.000000) translate(-142.000000, -142.000000) " x="42.5" y="42.5" width="199" height="199"></rect>
            <g id="paint-brush" transform="translate(83.578644, 72.578644)" fill="#000000" fill-rule="nonzero">
                <path d="M15.3371732,118.70627 C17.1443146,120.513284 20.290457,120.297386 22.3641233,118.223592 L44.3057598,96.2819554 L60.2647396,112.240935 C62.3385335,114.314474 65.7005739,114.314474 67.7744952,112.240935 L73.9931987,106.022104 C76.066865,103.948565 76.066865,100.586397 73.9931987,98.5126036 L21.4201913,45.9394687 C19.346525,43.8658023 15.9843571,43.8658023 13.9105632,45.9394687 L7.69185972,52.1581722 C5.61819341,54.2318385 5.61819341,57.5940064 7.69185972,59.6678002 L23.6508395,75.62678 L1.70907545,97.5687991 C-0.364590861,99.6423379 -0.580743889,102.788608 1.22639745,104.595622 L15.3371732,118.70627 Z M13.3330074,98.8119022 C15.4835707,96.6612115 18.970457,96.6612115 21.1210202,98.8119022 C23.2717109,100.962338 23.2717109,104.449352 21.1210202,106.599787 C18.970457,108.750223 15.4835707,108.750223 13.3330074,106.599787 C11.1823167,104.449352 11.1823167,100.962338 13.3330074,98.8119022 Z" id="Shape"></path>
                <path d="M23.322848,39.285271 C23.3339426,39.3622954 23.3469501,39.4390648 23.3617428,39.5155792 C23.3797237,39.6082891 23.4012752,39.7004888 23.4247396,39.7923061 C23.6329862,40.6089692 24.0557279,41.3821467 24.6947503,42.0212965 L37.9989373,55.3254835 L77.9116259,95.2381722 C78.2671626,95.5935813 78.6638895,95.8825505 79.0867588,96.1046971 C79.2275452,96.178661 79.3713921,96.2454835 79.5175345,96.3046546 C79.7367481,96.3935388 79.9610627,96.4655898 80.1885654,96.5213177 C80.349373,96.5604676 80.5118385,96.5908183 80.6751966,96.6135175 C80.8097343,96.632136 80.9447821,96.6448884 81.0803401,96.6524123 C81.0943677,96.6531775 81.1083953,96.6541977 81.1225505,96.6549628 C81.1965143,96.658406 81.2703507,96.6604463 81.3443146,96.6604463 C81.3467375,96.6604463 81.3490329,96.6604463 81.3513284,96.6604463 C81.4521998,96.6604463 81.5529437,96.6557279 81.6536876,96.6492242 C81.6804676,96.6474389 81.7072476,96.645526 81.7339001,96.6434857 C81.8365569,96.6353241 81.9390861,96.6249947 82.0411052,96.6103294 C82.4260999,96.554729 82.8057386,96.4529649 83.1708395,96.3047821 C83.3169819,96.2454835 83.4607014,96.1790436 83.6016153,96.1048247 C83.672136,96.0679702 83.7420191,96.0290755 83.810882,95.9882678 C84.0695005,95.8356217 84.3168969,95.6567056 84.5495005,95.4517747 C84.6269075,95.3838045 84.7029118,95.3125186 84.7768757,95.2382997 L100.374708,79.6405951 L115.972795,64.0423804 L118.510266,61.5049097 C118.587035,61.4281403 118.660361,61.3497131 118.730755,61.2695005 C119.223124,60.7078852 119.563231,60.0592986 119.752986,59.3778108 C120.207226,57.7456323 119.793794,55.9225505 118.510393,54.6390223 L117.899681,54.0284378 L69.8996812,6.02767269 L65.2939001,1.4218916 C65.1754304,1.30342189 65.0521148,1.19234857 64.9252285,1.08867163 C64.7982147,0.984994687 64.6669926,0.888714134 64.5323273,0.799829968 C64.330457,0.666567481 64.1206801,0.549883103 63.9052922,0.449904357 C63.7617003,0.383209352 63.6154304,0.324038257 63.4669926,0.272136026 C63.3186823,0.220233794 63.1684591,0.175855473 63.0167056,0.138873539 C62.7893305,0.0832731137 62.5583847,0.0445058448 62.3262912,0.0221891605 C62.253475,0.0151753454 62.1804038,0.0102019129 62.1073326,0.00650371945 C62.0833581,0.00522848034 62.0593836,0.00497343252 62.0355367,0.00420828905 C61.9860574,0.0024229543 61.9368332,0 61.8873539,0 C61.8785547,0 61.8697556,0 61.8609564,0 C61.8471838,0 61.8334113,0.0011477152 61.8196387,0.00127523911 C61.7501382,0.00191285866 61.6806376,0.00395324123 61.6112646,0.00752391073 C61.5900956,0.00867162593 61.5689267,0.00943676939 61.5477577,0.0107120085 C61.4621892,0.0161955367 61.3766206,0.0237194474 61.2913071,0.0336663124 C61.2760043,0.0354516472 61.2607014,0.0380021254 61.245271,0.0399149841 C61.17322,0.0490967056 61.1012965,0.059936238 61.0296281,0.0723060574 C61.0064187,0.0762592986 60.9834644,0.0803400638 60.9601275,0.0846758767 C60.874814,0.100743889 60.7896281,0.118214665 60.7050797,0.138873539 C60.6496068,0.152391073 60.594644,0.168076514 60.5394261,0.183634431 C59.7663762,0.401572795 59.0364293,0.81360255 58.4280128,1.42201913 L57.8246971,2.02533475 L24.6947503,35.1554091 C24.2387248,35.6114346 23.8935175,36.136068 23.6569607,36.6955154 C23.6360468,36.7449947 23.616153,36.794729 23.5968969,36.8447184 C23.530457,37.0176408 23.4740914,37.1933688 23.4281828,37.3713921 C23.3817641,37.5512009 23.3452922,37.7330499 23.3197875,37.9161743 C23.2995112,38.0620616 23.285356,38.2085866 23.2783422,38.3553666 C23.274644,38.4329012 23.2727311,38.5105632 23.2727311,38.5882253 C23.2727311,38.6658874 23.2745165,38.7435494 23.2783422,38.821084 C23.2857386,38.9762806 23.3005313,39.1312221 23.322848,39.285271 Z M61.1334325,4.12705632 C61.3826142,3.87800213 61.66661,3.82571732 61.861084,3.82571732 C62.0555579,3.82571732 62.3396812,3.87800213 62.5887354,4.12705632 L115.805611,57.3440595 C116.054793,57.5929862 116.107078,57.877237 116.107078,58.0717109 C116.107078,58.2660574 116.054793,58.5501807 115.805611,58.7992349 L111.245356,63.3594899 C108.402976,63.0309883 105.50627,63.082763 102.786312,63.9458448 C100.598895,64.6399575 98.8774495,65.9080553 97.1580446,67.3931987 C95.3458023,68.9582997 93.3647184,70.6176408 90.925441,71.0338789 C88.8614665,71.3858448 86.4641445,71.1185547 84.9986397,69.4348565 C83.4645271,67.671966 82.9685866,65.2422529 83.5522635,62.9824017 C84.1483103,60.6749841 85.5205951,58.735983 86.8955579,56.8315409 C88.3225505,54.8553029 89.8116472,52.9022742 91.0093518,50.7737726 C92.1659936,48.7179596 94.7881403,44.765356 93.3325824,42.3686716 C91.8061211,39.856068 87.9969819,40.9263762 85.941169,42.0802125 C81.7026567,44.464017 78.6707758,48.3211052 75.7668013,52.1231031 C74.941594,53.2034857 74.1314346,54.2996812 73.2697556,55.3514984 C72.4887991,56.3048672 71.584017,57.1738151 70.3970244,57.5852072 C67.9726674,58.4255898 65.6449734,56.9533262 65.3218278,54.4326886 C65.0055685,51.9644633 66.9086079,50.0655048 68.5391286,48.5015515 C70.3766206,46.7392986 72.3237832,45.0943677 74.1481403,43.3183422 C75.8731562,41.6391073 77.5823592,39.8403826 78.743847,37.7109883 C79.1433794,36.978491 79.5277365,36.1267588 79.661509,35.2687779 C76.2100744,35.3472051 72.7405313,35.4202763 69.4732412,34.1061424 C67.3854198,33.2663974 65.4960255,31.8844208 64.3704995,29.8932625 C63.3922635,28.1626355 62.981509,26.2006801 62.9409564,24.2246971 C62.8597237,20.2756642 63.9236557,16.3578746 63.1833794,12.4199362 C62.6831031,9.75825717 61.6868863,7.25381509 60.2324761,5.02763018 L61.1334325,4.12705632 Z" id="Shape"></path>
            </g>
        </g>
    </g>
</svg>