<svg xmlns="http://www.w3.org/2000/svg" xmlns:xlink="http://www.w3.org/1999/xlink" viewBox="0 0 140.6 95.75"><defs><style>.cls-1,.cls-10,.cls-2,.cls-3,.cls-4,.cls-5,.cls-6,.cls-7,.cls-8,.cls-9{stroke:#231815;}.cls-1{fill:url(#linear-gradient);}.cls-2{fill:url(#linear-gradient-2);}.cls-3{fill:#dcdddd;}.cls-12,.cls-4{fill:none;}.cls-5{fill:#b5b5b6;}.cls-6{fill:url(#linear-gradient-3);}.cls-7{fill:url(#linear-gradient-4);}.cls-8{fill:url(#linear-gradient-5);}.cls-9{fill:url(#linear-gradient-6);}.cls-10{fill:url(#linear-gradient-7);}.cls-11,.cls-13,.cls-16{fill:#fff;}.cls-11,.cls-12{stroke:#b5b5b6;}.cls-12,.cls-13{opacity:0.5;}.cls-14,.cls-15,.cls-17,.cls-18,.cls-19,.cls-21{fill:#231815;}.cls-15,.cls-16{font-size:10px;}.cls-15,.cls-16,.cls-17,.cls-18,.cls-20,.cls-21{font-family:PingFangTC-Regular-B5pc-H, PingFang TC;}.cls-16{writing-mode:tb;text-orientation:upright;glyph-orientation-vertical:0deg;}.cls-17,.cls-18,.cls-19,.cls-21{font-size:5px;}.cls-17{letter-spacing:0.2em;}.cls-19,.cls-22{font-family:ArialMT, Arial;}.cls-19,.cls-21{letter-spacing:-0.05em;}.cls-23{letter-spacing:-0.1em;}</style><linearGradient id="linear-gradient" x1="54.02" y1="73.78" x2="101.34" y2="26.46" gradientUnits="userSpaceOnUse"><stop offset="0" stop-color="#dcdddd"/><stop offset="0.48" stop-color="#fff"/><stop offset="1" stop-color="#231815"/></linearGradient><linearGradient id="linear-gradient-2" x1="53.71" y1="67.42" x2="97.92" y2="23.21" xlink:href="#linear-gradient"/><linearGradient id="linear-gradient-3" x1="54.09" y1="105.71" x2="101.26" y2="58.54" xlink:href="#linear-gradient"/><linearGradient id="linear-gradient-4" x1="53.71" y1="99.57" x2="97.92" y2="55.36" xlink:href="#linear-gradient"/><linearGradient id="linear-gradient-5" x1="56.26" y1="62.24" x2="94.44" y2="88.98" gradientUnits="userSpaceOnUse"><stop offset="0" stop-color="#dcdddd"/><stop offset="0.54" stop-color="#fff"/><stop offset="0.61" stop-color="#dcdddd"/><stop offset="0.67" stop-color="#fff"/><stop offset="0.73" stop-color="#dcdddd"/><stop offset="0.8" stop-color="#fff"/><stop offset="0.87" stop-color="#dcdddd"/><stop offset="0.94" stop-color="#fff"/><stop offset="1" stop-color="#dcdddd"/></linearGradient><linearGradient id="linear-gradient-6" x1="55.33" y1="41.59" x2="102.79" y2="-5.87" xlink:href="#linear-gradient"/><linearGradient id="linear-gradient-7" x1="55.09" y1="35.01" x2="99.3" y2="-9.2" xlink:href="#linear-gradient"/></defs><title>資產 1</title><g id="圖層_2" data-name="圖層 2"><g id="レイヤ_x005B__1" data-name="レイヤ＼x005B__1"><polygon class="cls-1" points="98.83 61.06 41.08 60.85 40.92 54.79 111.13 36.25 110.96 43.77 98.83 61.06"/><polygon class="cls-2" points="97.33 54.59 40.88 54.59 54.3 36.04 110.75 36.04 97.33 54.59"/><path class="cls-3" d="M69.36,45.42c0,1.2-1.64,2.19-3.65,2.19s-3.64-1-3.64-2.19,1.63-2.19,3.64-2.19S69.36,44.21,69.36,45.42Z"/><path class="cls-4" d="M63.2,47.06c0-.84,1.13-1.51,2.51-1.51s2.51.67,2.51,1.51"/><path class="cls-3" d="M58.94,48.44c0,1-1.4,1.87-3.13,1.87s-3.12-.84-3.12-1.87,1.4-1.88,3.12-1.88S58.94,47.4,58.94,48.44Z"/><path class="cls-4" d="M53.83,49.76c0-.83,1-1.5,2.19-1.5s2.2.67,2.2,1.5"/><path class="cls-3" d="M68.94,39.44c0,.72-1,1.31-2.19,1.31s-2.18-.59-2.18-1.31,1-1.32,2.18-1.32S68.94,38.71,68.94,39.44Z"/><path class="cls-4" d="M65.25,40.42c0-.5.67-.91,1.5-.91s1.51.41,1.51.91"/><path class="cls-3" d="M81.12,49.18c0,.65-.88,1.18-2,1.18s-2-.53-2-1.18.88-1.17,2-1.17S81.12,48.53,81.12,49.18Z"/><path class="cls-4" d="M77.81,50.06c0-.44.6-.81,1.35-.81s1.34.37,1.34.81"/><path class="cls-3" d="M74.06,51c0,.79-1,1.42-2.35,1.42s-2.35-.63-2.35-1.42,1-1.41,2.35-1.41S74.06,50.21,74.06,51Z"/><path class="cls-4" d="M70.21,52c0-.62.74-1.13,1.65-1.13s1.66.51,1.66,1.13"/><path class="cls-5" d="M83.31,44.68c0,.54-.73,1-1.64,1s-1.65-.45-1.65-1,.74-1,1.65-1S83.31,44.13,83.31,44.68Z"/><path class="cls-4" d="M80.53,45.42c0-.38.51-.68,1.14-.68s1.13.3,1.13.68"/><path class="cls-5" d="M97.72,40.68c0,.91-1.23,1.65-2.74,1.65s-2.75-.74-2.75-1.65S93.46,39,95,39,97.72,39.77,97.72,40.68Z"/><path class="cls-4" d="M93.09,41.92c0-.63.84-1.13,1.89-1.13s1.88.5,1.88,1.13"/><path class="cls-5" d="M100.7,43.35c0,.65-.88,1.18-2,1.18s-2-.53-2-1.18.88-1.18,2-1.18S100.7,42.7,100.7,43.35Z"/><path class="cls-4" d="M97.39,44.23c0-.45.61-.81,1.35-.81s1.35.36,1.35.81"/><path class="cls-5" d="M93.64,45.15c0,.78-1,1.41-2.35,1.41s-2.35-.63-2.35-1.41,1-1.41,2.35-1.41S93.64,44.37,93.64,45.15Z"/><path class="cls-4" d="M89.8,46.15c0-.62.74-1.13,1.65-1.13s1.65.51,1.65,1.13"/><path class="cls-5" d="M102.9,38.84c0,.55-.74,1-1.65,1s-1.65-.44-1.65-1,.74-1,1.65-1S102.9,38.3,102.9,38.84Z"/><path class="cls-4" d="M100.12,39.59c0-.38.51-.69,1.13-.69s1.13.31,1.13.69"/><polygon class="cls-6" points="98.83 92.91 41.08 92.7 40.92 86.94 111.13 68.4 110.96 75.62 98.83 92.91"/><polygon class="cls-7" points="97.33 86.73 40.88 86.73 54.3 68.19 110.75 68.19 97.33 86.73"/><polygon class="cls-8" points="96.87 84.88 40.41 84.88 53.83 66.34 110.29 66.34 96.87 84.88"/><polygon class="cls-9" points="100.22 28.94 42.47 28.73 42.3 22.38 112.51 3.84 112.34 11.66 100.22 28.94"/><polygon class="cls-10" points="98.71 22.17 42.26 22.17 55.68 3.63 112.13 3.63 98.71 22.17"/><path class="cls-3" d="M70.74,13c0,1.21-1.63,2.19-3.65,2.19s-3.64-1-3.64-2.19,1.63-2.19,3.64-2.19S70.74,11.8,70.74,13Z"/><path class="cls-4" d="M64.58,14.65c0-.83,1.13-1.51,2.51-1.51s2.51.68,2.51,1.51"/><path class="cls-3" d="M60.32,16c0,1-1.4,1.87-3.12,1.87s-3.13-.83-3.13-1.87,1.4-1.88,3.13-1.88S60.32,15,60.32,16Z"/><path class="cls-4" d="M55.21,17.36c0-.83,1-1.51,2.2-1.51s2.19.68,2.19,1.51"/><path class="cls-3" d="M70.32,7c0,.72-1,1.31-2.19,1.31S66,7.75,66,7s1-1.32,2.18-1.32S70.32,6.3,70.32,7Z"/><path class="cls-4" d="M66.63,8c0-.5.67-.9,1.5-.9s1.51.4,1.51.9"/><ellipse class="cls-3" cx="80.54" cy="16.77" rx="1.96" ry="1.18"/><path class="cls-4" d="M79.19,17.65c0-.44.61-.8,1.35-.8s1.35.36,1.35.8"/><path class="cls-3" d="M75.44,18.58c0,.77-1,1.41-2.35,1.41s-2.35-.64-2.35-1.41,1.05-1.42,2.35-1.42S75.44,17.79,75.44,18.58Z"/><path class="cls-4" d="M71.6,19.57c0-.62.73-1.13,1.65-1.13s1.65.51,1.65,1.13"/><path class="cls-5" d="M84.7,12.27c0,.54-.74,1-1.65,1s-1.65-.45-1.65-1,.74-1,1.65-1S84.7,11.73,84.7,12.27Z"/><path class="cls-4" d="M81.92,13c0-.38.5-.68,1.13-.68s1.13.3,1.13.68"/><path class="cls-5" d="M99.1,8.28c0,.91-1.23,1.64-2.74,1.64s-2.75-.73-2.75-1.64,1.23-1.65,2.75-1.65S99.1,7.37,99.1,8.28Z"/><path class="cls-4" d="M94.47,9.51c0-.63.85-1.13,1.89-1.13s1.89.5,1.89,1.13"/><path class="cls-5" d="M102.08,10.94c0,.65-.88,1.18-2,1.18s-2-.53-2-1.18.88-1.17,2-1.17S102.08,10.29,102.08,10.94Z"/><path class="cls-4" d="M98.78,11.82c0-.44.6-.81,1.34-.81s1.35.37,1.35.81"/><path class="cls-5" d="M95,12.75c0,.77-1.06,1.4-2.36,1.4s-2.35-.63-2.35-1.4,1.05-1.42,2.35-1.42S95,12,95,12.75Z"/><path class="cls-4" d="M91.18,13.74c0-.62.74-1.13,1.65-1.13s1.65.51,1.65,1.13"/><path class="cls-5" d="M104.28,6.44c0,.54-.74,1-1.65,1S101,7,101,6.44s.73-1,1.64-1S104.28,5.89,104.28,6.44Z"/><path class="cls-4" d="M101.5,7.18c0-.38.51-.68,1.13-.68s1.13.3,1.13.68"/><path class="cls-11" d="M13.22,45.59A2.55,2.55,0,1,1,10.67,43,2.55,2.55,0,0,1,13.22,45.59Z"/><path class="cls-11" d="M16.28,41.06a2.55,2.55,0,1,1-2.55-2.55A2.55,2.55,0,0,1,16.28,41.06Z"/><path class="cls-11" d="M19.32,36.7a2.55,2.55,0,1,1-2.55-2.55A2.55,2.55,0,0,1,19.32,36.7Z"/><path class="cls-11" d="M18.7,45.59A2.55,2.55,0,1,1,16.15,43,2.55,2.55,0,0,1,18.7,45.59Z"/><path class="cls-11" d="M21.76,41.06a2.55,2.55,0,1,1-2.55-2.55A2.55,2.55,0,0,1,21.76,41.06Z"/><path class="cls-11" d="M24.8,36.7a2.55,2.55,0,1,1-2.55-2.55A2.55,2.55,0,0,1,24.8,36.7Z"/><path class="cls-11" d="M24,45.59A2.55,2.55,0,1,1,21.48,43,2.55,2.55,0,0,1,24,45.59Z"/><path class="cls-11" d="M27.09,41.06a2.55,2.55,0,1,1-2.55-2.55A2.55,2.55,0,0,1,27.09,41.06Z"/><path class="cls-11" d="M30.13,36.7a2.55,2.55,0,1,1-2.55-2.55A2.55,2.55,0,0,1,30.13,36.7Z"/><path class="cls-11" d="M29.52,45.59A2.56,2.56,0,1,1,27,43,2.56,2.56,0,0,1,29.52,45.59Z"/><path class="cls-11" d="M32.58,41.06A2.56,2.56,0,1,1,30,38.51,2.55,2.55,0,0,1,32.58,41.06Z"/><path class="cls-11" d="M35.61,36.7a2.55,2.55,0,1,1-2.55-2.55A2.55,2.55,0,0,1,35.61,36.7Z"/><path class="cls-11" d="M35.15,45.59A2.56,2.56,0,1,1,32.59,43,2.56,2.56,0,0,1,35.15,45.59Z"/><path class="cls-11" d="M38.21,41.06a2.56,2.56,0,1,1-2.55-2.55A2.55,2.55,0,0,1,38.21,41.06Z"/><path class="cls-11" d="M41.25,36.7a2.56,2.56,0,1,1-2.56-2.55A2.56,2.56,0,0,1,41.25,36.7Z"/><path class="cls-11" d="M40.63,45.59A2.55,2.55,0,1,1,38.08,43,2.55,2.55,0,0,1,40.63,45.59Z"/><path class="cls-11" d="M43.69,41.06a2.55,2.55,0,1,1-2.55-2.55A2.55,2.55,0,0,1,43.69,41.06Z"/><path class="cls-11" d="M46.73,36.7a2.56,2.56,0,1,1-2.55-2.55A2.55,2.55,0,0,1,46.73,36.7Z"/><path class="cls-11" d="M46,45.59A2.55,2.55,0,1,1,43.41,43,2.55,2.55,0,0,1,46,45.59Z"/><path class="cls-11" d="M49,41.06a2.55,2.55,0,1,1-2.55-2.55A2.55,2.55,0,0,1,49,41.06Z"/><path class="cls-11" d="M52.06,36.7a2.55,2.55,0,1,1-2.55-2.55A2.55,2.55,0,0,1,52.06,36.7Z"/><path class="cls-11" d="M10.63,50.13a2.56,2.56,0,1,1-2.55-2.55A2.55,2.55,0,0,1,10.63,50.13Z"/><path class="cls-11" d="M16.11,50.13a2.55,2.55,0,1,1-2.55-2.55A2.55,2.55,0,0,1,16.11,50.13Z"/><path class="cls-11" d="M21.44,50.13a2.55,2.55,0,1,1-2.55-2.55A2.55,2.55,0,0,1,21.44,50.13Z"/><path class="cls-11" d="M26.92,50.13a2.55,2.55,0,1,1-2.55-2.55A2.55,2.55,0,0,1,26.92,50.13Z"/><path class="cls-11" d="M32.55,50.13A2.55,2.55,0,1,1,30,47.58,2.55,2.55,0,0,1,32.55,50.13Z"/><path class="cls-11" d="M38,50.13a2.55,2.55,0,1,1-2.55-2.55A2.55,2.55,0,0,1,38,50.13Z"/><path class="cls-11" d="M43.37,50.13a2.55,2.55,0,1,1-2.55-2.55A2.55,2.55,0,0,1,43.37,50.13Z"/><path class="cls-11" d="M48.13,50a2.56,2.56,0,1,1-2.55-2.55A2.56,2.56,0,0,1,48.13,50Z"/><path class="cls-11" d="M51.44,45.59A2.55,2.55,0,1,1,48.89,43,2.55,2.55,0,0,1,51.44,45.59Z"/><path class="cls-11" d="M54.5,41.06A2.55,2.55,0,1,1,52,38.51,2.55,2.55,0,0,1,54.5,41.06Z"/><path class="cls-11" d="M57.54,36.7A2.55,2.55,0,1,1,55,34.15,2.55,2.55,0,0,1,57.54,36.7Z"/><path class="cls-11" d="M53.51,50A2.55,2.55,0,1,1,51,47.41,2.55,2.55,0,0,1,53.51,50Z"/><path class="cls-11" d="M56.83,45.59A2.56,2.56,0,1,1,54.27,43,2.56,2.56,0,0,1,56.83,45.59Z"/><path class="cls-11" d="M59.89,41.06a2.56,2.56,0,1,1-2.55-2.55A2.55,2.55,0,0,1,59.89,41.06Z"/><path class="cls-11" d="M62.92,36.7a2.55,2.55,0,1,1-2.55-2.55A2.55,2.55,0,0,1,62.92,36.7Z"/><path class="cls-11" d="M59,50a2.55,2.55,0,1,1-2.55-2.55A2.55,2.55,0,0,1,59,50Z"/><path class="cls-11" d="M62.31,45.59A2.56,2.56,0,1,1,59.76,43,2.56,2.56,0,0,1,62.31,45.59Z"/><path class="cls-11" d="M65.37,41.06a2.55,2.55,0,1,1-2.55-2.55A2.55,2.55,0,0,1,65.37,41.06Z"/><path class="cls-11" d="M68.41,36.7a2.55,2.55,0,1,1-2.55-2.55A2.55,2.55,0,0,1,68.41,36.7Z"/><path class="cls-12" d="M48.22,82a2.6,2.6,0,1,1-2.6-2.55A2.57,2.57,0,0,1,48.22,82Z"/><path class="cls-12" d="M51.6,77.61A2.6,2.6,0,1,1,49,75.06,2.57,2.57,0,0,1,51.6,77.61Z"/><path class="cls-12" d="M54.72,73.09a2.6,2.6,0,1,1-2.6-2.55A2.57,2.57,0,0,1,54.72,73.09Z"/><path class="cls-12" d="M57.81,68.73a2.6,2.6,0,1,1-2.6-2.55A2.57,2.57,0,0,1,57.81,68.73Z"/><path class="cls-12" d="M53.7,82a2.6,2.6,0,1,1-2.59-2.55A2.57,2.57,0,0,1,53.7,82Z"/><path class="cls-12" d="M57.08,77.61a2.6,2.6,0,1,1-2.6-2.55A2.57,2.57,0,0,1,57.08,77.61Z"/><path class="cls-12" d="M60.2,73.09a2.6,2.6,0,1,1-2.6-2.55A2.57,2.57,0,0,1,60.2,73.09Z"/><path class="cls-12" d="M63.3,68.73a2.6,2.6,0,1,1-2.6-2.55A2.58,2.58,0,0,1,63.3,68.73Z"/><path class="cls-12" d="M59.29,82a2.6,2.6,0,1,1-2.6-2.55A2.57,2.57,0,0,1,59.29,82Z"/><path class="cls-12" d="M62.67,77.61a2.6,2.6,0,1,1-2.6-2.55A2.58,2.58,0,0,1,62.67,77.61Z"/><path class="cls-12" d="M65.79,73.09a2.6,2.6,0,1,1-2.6-2.55A2.58,2.58,0,0,1,65.79,73.09Z"/><path class="cls-12" d="M68.88,68.73a2.6,2.6,0,1,1-2.6-2.55A2.57,2.57,0,0,1,68.88,68.73Z"/><path class="cls-12" d="M64.32,82a2.6,2.6,0,1,1-2.6-2.55A2.57,2.57,0,0,1,64.32,82Z"/><path class="cls-12" d="M67.7,77.61a2.6,2.6,0,1,1-2.6-2.55A2.57,2.57,0,0,1,67.7,77.61Z"/><path class="cls-12" d="M70.82,73.09a2.6,2.6,0,1,1-2.6-2.55A2.57,2.57,0,0,1,70.82,73.09Z"/><path class="cls-12" d="M73.91,68.73a2.6,2.6,0,1,1-2.6-2.55A2.57,2.57,0,0,1,73.91,68.73Z"/><path class="cls-12" d="M69.8,82a2.6,2.6,0,1,1-2.59-2.55A2.57,2.57,0,0,1,69.8,82Z"/><path class="cls-12" d="M73.18,77.61a2.6,2.6,0,1,1-2.6-2.55A2.57,2.57,0,0,1,73.18,77.61Z"/><path class="cls-12" d="M76.3,73.09a2.6,2.6,0,1,1-2.6-2.55A2.57,2.57,0,0,1,76.3,73.09Z"/><path class="cls-12" d="M79.4,68.73a2.6,2.6,0,1,1-2.6-2.55A2.58,2.58,0,0,1,79.4,68.73Z"/><path class="cls-12" d="M75.39,82a2.6,2.6,0,1,1-2.6-2.55A2.58,2.58,0,0,1,75.39,82Z"/><path class="cls-12" d="M78.77,77.61a2.6,2.6,0,1,1-2.6-2.55A2.58,2.58,0,0,1,78.77,77.61Z"/><path class="cls-12" d="M81.89,73.09a2.6,2.6,0,1,1-2.6-2.55A2.58,2.58,0,0,1,81.89,73.09Z"/><path class="cls-12" d="M85,68.73a2.6,2.6,0,1,1-2.6-2.55A2.57,2.57,0,0,1,85,68.73Z"/><path class="cls-12" d="M80.82,82a2.6,2.6,0,1,1-2.6-2.55A2.57,2.57,0,0,1,80.82,82Z"/><path class="cls-12" d="M84.2,77.61a2.6,2.6,0,1,1-2.6-2.55A2.57,2.57,0,0,1,84.2,77.61Z"/><path class="cls-12" d="M87.32,73.09a2.6,2.6,0,1,1-2.6-2.55A2.57,2.57,0,0,1,87.32,73.09Z"/><path class="cls-12" d="M90.41,68.73a2.6,2.6,0,1,1-2.6-2.55A2.57,2.57,0,0,1,90.41,68.73Z"/><path class="cls-12" d="M86.31,82a2.6,2.6,0,1,1-2.6-2.55A2.58,2.58,0,0,1,86.31,82Z"/><path class="cls-12" d="M89.68,77.61a2.6,2.6,0,1,1-2.6-2.55A2.57,2.57,0,0,1,89.68,77.61Z"/><path class="cls-12" d="M92.8,73.09a2.6,2.6,0,1,1-2.6-2.55A2.57,2.57,0,0,1,92.8,73.09Z"/><path class="cls-12" d="M95.9,68.73a2.6,2.6,0,1,1-2.6-2.55A2.58,2.58,0,0,1,95.9,68.73Z"/><path class="cls-12" d="M91.89,82a2.6,2.6,0,1,1-2.6-2.55A2.57,2.57,0,0,1,91.89,82Z"/><path class="cls-12" d="M95.27,77.61a2.6,2.6,0,1,1-2.6-2.55A2.58,2.58,0,0,1,95.27,77.61Z"/><path class="cls-12" d="M98.39,73.09a2.6,2.6,0,1,1-2.6-2.55A2.58,2.58,0,0,1,98.39,73.09Z"/><path class="cls-12" d="M101.48,68.73a2.6,2.6,0,1,1-2.6-2.55A2.57,2.57,0,0,1,101.48,68.73Z"/><path class="cls-12" d="M97.93,82a2.6,2.6,0,1,1-2.6-2.55A2.57,2.57,0,0,1,97.93,82Z"/><path class="cls-12" d="M101.31,77.61a2.6,2.6,0,1,1-2.6-2.55A2.57,2.57,0,0,1,101.31,77.61Z"/><path class="cls-12" d="M104.43,73.09a2.6,2.6,0,1,1-2.6-2.55A2.57,2.57,0,0,1,104.43,73.09Z"/><path class="cls-12" d="M107.52,68.73a2.6,2.6,0,1,1-2.59-2.55A2.57,2.57,0,0,1,107.52,68.73Z"/><rect class="cls-13" x="15.32" y="37.46" width="37.93" height="11.46"/><rect class="cls-4" x="0.5" y="0.5" width="139.6" height="94.75"/><rect class="cls-14" x="114.46" y="14.85" width="23.18" height="78.7"/><path class="cls-14" d="M138,93.28V2.54H114.12v91H138Zm-.68-.23h-22.5V3h22.5Z"/></g><g id="圖層_2-2" data-name="圖層 2"><text class="cls-15" transform="translate(116.17 12.9)">克<tspan x="10" y="0">服</tspan></text><text class="cls-16" transform="translate(126.32 18.99) scale(1.1 1)">電鍍最大的弱點</text><text class="cls-17" transform="translate(62.36 27.25)">電鍍層</text><text class="cls-17" transform="translate(62.36 59.41)">電鍍層</text><text class="cls-17" transform="translate(62.36 91.44)">電鍍層</text><polygon class="cls-14" points="42.59 45.55 39.24 47.86 39.24 43.25 42.59 45.55"/><polygon class="cls-14" points="38.08 45.55 34.73 47.86 34.73 43.25 38.08 45.55"/><polygon class="cls-14" points="46.81 45.55 43.46 47.86 43.46 43.25 46.81 45.55"/><polygon class="cls-14" points="51.32 45.55 47.97 47.86 47.97 43.25 51.32 45.55"/><text class="cls-18" transform="translate(3.64 8.34) scale(0.9)">※鍍鉻有著肉眼看不<tspan x="0" y="6.67" xml:space="preserve">   到的無數細孔</tspan></text><text class="cls-19" transform="translate(16.77 42.33) scale(0.9)">MEKKING<tspan class="cls-20" x="21.31" y="0">(粒子)</tspan></text><text class="cls-21" transform="translate(19.32 47.41) scale(0.9)">塗抹入</text><text class="cls-18" transform="translate(7.1 70.54) scale(0.9)">※完全硬化後，<tspan class="cls-22"><tspan class="cls-23" x="0" y="6.67">MEKKING</tspan><tspan class="cls-20" x="19.56" y="6.67">形成</tspan></tspan><tspan x="0" y="13.33">保護層，覆蓋這</tspan><tspan x="0" y="20">些無數細孔</tspan></text></g></g></svg>