<svg xmlns="http://www.w3.org/2000/svg" xmlns:xlink="http://www.w3.org/1999/xlink" viewBox="0 0 140.6 95.75"><defs><style>.cls-1,.cls-73,.cls-74,.cls-75,.cls-76{fill:#231815;}.cls-19,.cls-2,.cls-20,.cls-3,.cls-4,.cls-5,.cls-6,.cls-7,.cls-8{stroke:#231815;}.cls-2{fill:url(#linear-gradient);}.cls-3{fill:url(#新規グラデーションスウォッ_9);}.cls-4{fill:#d5d8dd;}.cls-5{fill:none;}.cls-6{fill:#aaaeb3;}.cls-7{fill:url(#linear-gradient-2);}.cls-8{fill:url(#新規グラデーションスウォッ_8);}.cls-10,.cls-11,.cls-12,.cls-13,.cls-14,.cls-15,.cls-16,.cls-17,.cls-18,.cls-21,.cls-22,.cls-23,.cls-24,.cls-25,.cls-26,.cls-27,.cls-28,.cls-29,.cls-30,.cls-9{stroke:#641610;}.cls-10,.cls-11,.cls-12,.cls-13,.cls-14,.cls-15,.cls-16,.cls-17,.cls-18,.cls-21,.cls-22,.cls-23,.cls-24,.cls-25,.cls-26,.cls-27,.cls-28,.cls-29,.cls-30,.cls-31,.cls-32,.cls-33,.cls-34,.cls-35,.cls-36,.cls-37,.cls-38,.cls-39,.cls-40,.cls-41,.cls-42,.cls-43,.cls-44,.cls-45,.cls-46,.cls-47,.cls-48,.cls-49,.cls-50,.cls-51,.cls-52,.cls-53,.cls-54,.cls-55,.cls-56,.cls-57,.cls-58,.cls-59,.cls-60,.cls-61,.cls-62,.cls-63,.cls-64,.cls-65,.cls-66,.cls-67,.cls-68,.cls-69,.cls-70,.cls-9{stroke-width:0.5px;}.cls-9{fill:url(#新規グラデーションスウォッ_7);}.cls-10{fill:url(#新規グラデーションスウォッ_7-2);}.cls-11{fill:url(#新規グラデーションスウォッ_7-3);}.cls-12{fill:url(#新規グラデーションスウォッ_7-4);}.cls-13{fill:url(#新規グラデーションスウォッ_7-5);}.cls-14{fill:url(#新規グラデーションスウォッ_7-6);}.cls-15{fill:url(#新規グラデーションスウォッ_7-7);}.cls-16{fill:url(#新規グラデーションスウォッ_7-8);}.cls-17{fill:url(#新規グラデーションスウォッ_7-9);}.cls-18{fill:url(#新規グラデーションスウォッ_7-10);}.cls-19{fill:url(#linear-gradient-3);}.cls-20{fill:url(#新規グラデーションスウォッ_8-2);}.cls-21{fill:url(#新規グラデーションスウォッ_7-11);}.cls-22{fill:url(#新規グラデーションスウォッ_7-12);}.cls-23{fill:url(#新規グラデーションスウォッ_7-13);}.cls-24{fill:url(#新規グラデーションスウォッ_7-14);}.cls-25{fill:url(#新規グラデーションスウォッ_7-15);}.cls-26{fill:url(#新規グラデーションスウォッ_7-16);}.cls-27{fill:url(#新規グラデーションスウォッ_7-17);}.cls-28{fill:url(#新規グラデーションスウォッ_7-18);}.cls-29{fill:url(#新規グラデーションスウォッ_7-19);}.cls-30{fill:url(#新規グラデーションスウォッ_7-20);}.cls-31,.cls-32,.cls-33,.cls-34,.cls-35,.cls-36,.cls-37,.cls-38,.cls-39,.cls-40,.cls-41,.cls-42,.cls-43,.cls-44,.cls-45,.cls-46,.cls-47,.cls-48,.cls-49,.cls-50,.cls-51,.cls-52,.cls-53,.cls-54,.cls-55,.cls-56,.cls-57,.cls-58,.cls-59,.cls-60,.cls-61,.cls-62,.cls-63,.cls-64,.cls-65,.cls-66,.cls-67,.cls-68,.cls-69,.cls-70{stroke:#fff;}.cls-31{fill:url(#radial-gradient);}.cls-32{fill:url(#radial-gradient-2);}.cls-33{fill:url(#radial-gradient-3);}.cls-34{fill:url(#radial-gradient-4);}.cls-35{fill:url(#radial-gradient-5);}.cls-36{fill:url(#radial-gradient-6);}.cls-37{fill:url(#radial-gradient-7);}.cls-38{fill:url(#radial-gradient-8);}.cls-39{fill:url(#radial-gradient-9);}.cls-40{fill:url(#radial-gradient-10);}.cls-41{fill:url(#radial-gradient-11);}.cls-42{fill:url(#radial-gradient-12);}.cls-43{fill:url(#radial-gradient-13);}.cls-44{fill:url(#radial-gradient-14);}.cls-45{fill:url(#radial-gradient-15);}.cls-46{fill:url(#radial-gradient-16);}.cls-47{fill:url(#radial-gradient-17);}.cls-48{fill:url(#radial-gradient-18);}.cls-49{fill:url(#radial-gradient-19);}.cls-50{fill:url(#radial-gradient-20);}.cls-51{fill:url(#radial-gradient-21);}.cls-52{fill:url(#radial-gradient-22);}.cls-53{fill:url(#radial-gradient-23);}.cls-54{fill:url(#radial-gradient-24);}.cls-55{fill:url(#radial-gradient-25);}.cls-56{fill:url(#radial-gradient-26);}.cls-57{fill:url(#radial-gradient-27);}.cls-58{fill:url(#radial-gradient-28);}.cls-59{fill:url(#radial-gradient-29);}.cls-60{fill:url(#radial-gradient-30);}.cls-61{fill:url(#radial-gradient-31);}.cls-62{fill:url(#radial-gradient-32);}.cls-63{fill:url(#radial-gradient-33);}.cls-64{fill:url(#radial-gradient-34);}.cls-65{fill:url(#radial-gradient-35);}.cls-66{fill:url(#radial-gradient-36);}.cls-67{fill:url(#radial-gradient-37);}.cls-68{fill:url(#radial-gradient-38);}.cls-69{fill:url(#radial-gradient-39);}.cls-70{fill:url(#radial-gradient-40);}.cls-71,.cls-72{fill:#fff;}.cls-71{opacity:0.5;}.cls-72{writing-mode:tb;text-orientation:upright;glyph-orientation-vertical:0deg;}.cls-72,.cls-73{font-size:10px;}.cls-72,.cls-73,.cls-74,.cls-75,.cls-76,.cls-79{font-family:PingFangTC-Regular-B5pc-H, PingFang TC;}.cls-74{font-size:4px;letter-spacing:0.2em;}.cls-75,.cls-76{font-size:5px;}.cls-76{letter-spacing:-0.05em;}.cls-77{font-family:ArialMT, Arial;}.cls-78{letter-spacing:-0.07em;}.cls-79{font-size:5.5px;fill:#e60012;}</style><linearGradient id="linear-gradient" x1="14.19" y1="89.06" x2="57.21" y2="46.05" gradientUnits="userSpaceOnUse"><stop offset="0" stop-color="#d5d8dd"/><stop offset="0.48" stop-color="#fff"/><stop offset="1" stop-color="#231815"/></linearGradient><linearGradient id="新規グラデーションスウォッ_9" x1="16.72" y1="50.95" x2="51.31" y2="75.17" gradientUnits="userSpaceOnUse"><stop offset="0" stop-color="#d5d8dd"/><stop offset="0.54" stop-color="#fff"/><stop offset="0.61" stop-color="#d5d8dd"/><stop offset="0.67" stop-color="#fff"/><stop offset="0.73" stop-color="#d5d8dd"/><stop offset="0.8" stop-color="#fff"/><stop offset="0.87" stop-color="#d5d8dd"/><stop offset="0.94" stop-color="#fff"/><stop offset="1" stop-color="#d5d8dd"/></linearGradient><linearGradient id="linear-gradient-2" x1="14.15" y1="37.37" x2="57.17" y2="-5.64" xlink:href="#linear-gradient"/><linearGradient id="新規グラデーションスウォッ_8" x1="13.94" y1="31.4" x2="54" y2="-8.66" gradientUnits="userSpaceOnUse"><stop offset="0" stop-color="#aa5520"/><stop offset="0.05" stop-color="#ac5d2b"/><stop offset="0.14" stop-color="#b37148"/><stop offset="0.26" stop-color="#be9177"/><stop offset="0.4" stop-color="#cdbeb8"/><stop offset="0.48" stop-color="#d5d8dd"/><stop offset="0.6" stop-color="#b9a8ab"/><stop offset="0.88" stop-color="#7c403c"/><stop offset="1" stop-color="#641610"/></linearGradient><linearGradient id="新規グラデーションスウォッ_7" x1="14.93" y1="15.93" x2="16.98" y2="11.54" gradientUnits="userSpaceOnUse"><stop offset="0" stop-color="#d2844c"/><stop offset="0.13" stop-color="#cd7e46"/><stop offset="0.3" stop-color="#be6d36"/><stop offset="0.47" stop-color="#aa5520"/><stop offset="0.53" stop-color="#99451c"/><stop offset="0.63" stop-color="#813017"/><stop offset="0.73" stop-color="#712213"/><stop offset="0.85" stop-color="#671911"/><stop offset="1" stop-color="#641610"/></linearGradient><linearGradient id="新規グラデーションスウォッ_7-2" x1="25.13" y1="7.39" x2="26.6" y2="4.24" xlink:href="#新規グラデーションスウォッ_7"/><linearGradient id="新規グラデーションスウォッ_7-3" x1="50.53" y1="8.62" x2="52.2" y2="5.04" xlink:href="#新規グラデーションスウォッ_7"/><linearGradient id="新規グラデーションスウォッ_7-4" x1="29.53" y1="17.86" x2="31.12" y2="14.45" xlink:href="#新規グラデーションスウォッ_7"/><linearGradient id="新規グラデーションスウォッ_7-5" x1="36.35" y1="15.86" x2="37.67" y2="13.03" xlink:href="#新規グラデーションスウォッ_7"/><linearGradient id="新規グラデーションスウォッ_7-6" x1="38.81" y1="11.62" x2="39.97" y2="9.14" xlink:href="#新規グラデーションスウォッ_7"/><linearGradient id="新規グラデーションスウォッ_7-7" x1="56.55" y1="6.4" x2="57.69" y2="3.96" xlink:href="#新規グラデーションスウォッ_7"/><linearGradient id="新規グラデーションスウォッ_7-8" x1="23.78" y1="13.5" x2="26.02" y2="8.71" xlink:href="#新規グラデーションスウォッ_7"/><linearGradient id="新規グラデーションスウォッ_7-9" x1="54.07" y1="10.64" x2="55.44" y2="7.71" xlink:href="#新規グラデーションスウォッ_7"/><linearGradient id="新規グラデーションスウォッ_7-10" x1="47.36" y1="12.25" x2="48.85" y2="9.07" xlink:href="#新規グラデーションスウォッ_7"/><linearGradient id="linear-gradient-3" x1="50.57" y1="63.58" x2="93.59" y2="20.56" xlink:href="#linear-gradient"/><linearGradient id="新規グラデーションスウォッ_8-2" x1="50.36" y1="57.61" x2="90.42" y2="17.54" xlink:href="#新規グラデーションスウォッ_8"/><linearGradient id="新規グラデーションスウォッ_7-11" x1="51.35" y1="42.13" x2="53.4" y2="37.74" xlink:href="#新規グラデーションスウォッ_7"/><linearGradient id="新規グラデーションスウォッ_7-12" x1="61.55" y1="33.59" x2="63.02" y2="30.44" xlink:href="#新規グラデーションスウォッ_7"/><linearGradient id="新規グラデーションスウォッ_7-13" x1="86.95" y1="34.81" x2="88.62" y2="31.23" xlink:href="#新規グラデーションスウォッ_7"/><linearGradient id="新規グラデーションスウォッ_7-14" x1="65.95" y1="44.06" x2="67.54" y2="40.65" xlink:href="#新規グラデーションスウォッ_7"/><linearGradient id="新規グラデーションスウォッ_7-15" x1="72.76" y1="42.06" x2="74.08" y2="39.23" xlink:href="#新規グラデーションスウォッ_7"/><linearGradient id="新規グラデーションスウォッ_7-16" x1="75.23" y1="37.82" x2="76.39" y2="35.34" xlink:href="#新規グラデーションスウォッ_7"/><linearGradient id="新規グラデーションスウォッ_7-17" x1="92.97" y1="32.6" x2="94.11" y2="30.16" xlink:href="#新規グラデーションスウォッ_7"/><linearGradient id="新規グラデーションスウォッ_7-18" x1="60.2" y1="39.7" x2="62.43" y2="34.91" xlink:href="#新規グラデーションスウォッ_7"/><linearGradient id="新規グラデーションスウォッ_7-19" x1="90.49" y1="36.84" x2="91.85" y2="33.91" xlink:href="#新規グラデーションスウォッ_7"/><linearGradient id="新規グラデーションスウォッ_7-20" x1="83.78" y1="38.45" x2="85.26" y2="35.27" xlink:href="#新規グラデーションスウォッ_7"/><radialGradient id="radial-gradient" cx="11.27" cy="38.72" r="2.31" gradientUnits="userSpaceOnUse"><stop offset="0" stop-color="#f2ad7d"/><stop offset="1" stop-color="#aa5520"/></radialGradient><radialGradient id="radial-gradient-2" cx="14.04" cy="34.61" r="2.31" xlink:href="#radial-gradient"/><radialGradient id="radial-gradient-3" cx="16.8" cy="30.66" r="2.31" xlink:href="#radial-gradient"/><radialGradient id="radial-gradient-4" cx="16.24" cy="38.72" r="2.31" xlink:href="#radial-gradient"/><radialGradient id="radial-gradient-5" cx="19.01" cy="34.61" r="2.31" xlink:href="#radial-gradient"/><radialGradient id="radial-gradient-6" cx="21.77" cy="30.66" r="2.31" xlink:href="#radial-gradient"/><radialGradient id="radial-gradient-7" cx="21.07" cy="38.72" r="2.31" xlink:href="#radial-gradient"/><radialGradient id="radial-gradient-8" cx="23.85" cy="34.61" r="2.31" xlink:href="#radial-gradient"/><radialGradient id="radial-gradient-9" cx="26.6" cy="30.66" r="2.31" xlink:href="#radial-gradient"/><radialGradient id="radial-gradient-10" cx="26.04" cy="38.72" r="2.31" xlink:href="#radial-gradient"/><radialGradient id="radial-gradient-11" cx="28.81" cy="34.61" r="2.31" xlink:href="#radial-gradient"/><radialGradient id="radial-gradient-12" cx="31.57" cy="30.66" r="2.31" xlink:href="#radial-gradient"/><radialGradient id="radial-gradient-13" cx="31.14" cy="38.72" r="2.31" xlink:href="#radial-gradient"/><radialGradient id="radial-gradient-14" cx="33.91" cy="34.61" r="2.31" xlink:href="#radial-gradient"/><radialGradient id="radial-gradient-15" cx="36.67" cy="30.66" r="2.31" xlink:href="#radial-gradient"/><radialGradient id="radial-gradient-16" cx="36.11" cy="38.72" r="2.31" xlink:href="#radial-gradient"/><radialGradient id="radial-gradient-17" cx="38.88" cy="34.61" r="2.31" xlink:href="#radial-gradient"/><radialGradient id="radial-gradient-18" cx="41.64" cy="30.66" r="2.31" xlink:href="#radial-gradient"/><radialGradient id="radial-gradient-19" cx="40.94" cy="38.72" r="2.31" xlink:href="#radial-gradient"/><radialGradient id="radial-gradient-20" cx="43.72" cy="34.61" r="2.31" xlink:href="#radial-gradient"/><radialGradient id="radial-gradient-21" cx="46.47" cy="30.66" r="2.31" gradientTransform="translate(0.07 -0.1) rotate(0.12)" xlink:href="#radial-gradient"/><radialGradient id="radial-gradient-22" cx="8.92" cy="42.83" r="2.31" xlink:href="#radial-gradient"/><radialGradient id="radial-gradient-23" cx="13.89" cy="42.83" r="2.31" xlink:href="#radial-gradient"/><radialGradient id="radial-gradient-24" cx="18.72" cy="42.83" r="2.31" xlink:href="#radial-gradient"/><radialGradient id="radial-gradient-25" cx="23.69" cy="42.83" r="2.31" xlink:href="#radial-gradient"/><radialGradient id="radial-gradient-26" cx="28.79" cy="42.83" r="2.31" xlink:href="#radial-gradient"/><radialGradient id="radial-gradient-27" cx="33.76" cy="42.83" r="2.31" xlink:href="#radial-gradient"/><radialGradient id="radial-gradient-28" cx="38.59" cy="42.83" r="2.31" xlink:href="#radial-gradient"/><radialGradient id="radial-gradient-29" cx="42.9" cy="42.68" r="2.31" xlink:href="#radial-gradient"/><radialGradient id="radial-gradient-30" cx="45.91" cy="38.72" r="2.31" xlink:href="#radial-gradient"/><radialGradient id="radial-gradient-31" cx="48.68" cy="34.61" r="2.31" xlink:href="#radial-gradient"/><radialGradient id="radial-gradient-32" cx="51.44" cy="30.66" r="2.31" xlink:href="#radial-gradient"/><radialGradient id="radial-gradient-33" cx="47.78" cy="42.68" r="2.31" xlink:href="#radial-gradient"/><radialGradient id="radial-gradient-34" cx="50.79" cy="38.72" r="2.31" xlink:href="#radial-gradient"/><radialGradient id="radial-gradient-35" cx="53.56" cy="34.61" r="2.31" xlink:href="#radial-gradient"/><radialGradient id="radial-gradient-36" cx="56.32" cy="30.66" r="2.31" xlink:href="#radial-gradient"/><radialGradient id="radial-gradient-37" cx="52.75" cy="42.68" r="2.31" xlink:href="#radial-gradient"/><radialGradient id="radial-gradient-38" cx="55.76" cy="38.72" r="2.31" xlink:href="#radial-gradient"/><radialGradient id="radial-gradient-39" cx="58.53" cy="34.61" r="2.31" xlink:href="#radial-gradient"/><radialGradient id="radial-gradient-40" cx="61.28" cy="30.66" r="2.31" xlink:href="#radial-gradient"/></defs><title>資產 5</title><g id="圖層_2" data-name="圖層 2"><g id="レイヤ_x005B__1" data-name="レイヤ＼x005B__1"><path class="cls-1" d="M20.46,2.35A8.33,8.33,0,0,1,22,3.85l-.64.6a7.1,7.1,0,0,0-1.47-1.56Z"/><polygon class="cls-2" points="54.88 77.6 2.54 77.41 2.39 71.65 66.01 54.85 65.86 61.93 54.88 77.6"/><polygon class="cls-3" points="53.51 71.47 2.35 71.47 14.51 54.66 65.68 54.66 53.51 71.47"/><path class="cls-4" d="M28.16,63.16c0,1.09-1.48,2-3.3,2s-3.31-.89-3.31-2,1.48-2,3.31-2S28.16,62.06,28.16,63.16Z"/><path class="cls-5" d="M22.59,64.64c0-.75,1-1.36,2.27-1.36s2.27.61,2.27,1.36"/><path class="cls-4" d="M18.72,65.89c0,.94-1.27,1.7-2.83,1.7s-2.83-.76-2.83-1.7,1.27-1.7,2.83-1.7S18.72,65,18.72,65.89Z"/><path class="cls-5" d="M14.09,67.09c0-.75.89-1.36,2-1.36s2,.61,2,1.36"/><path class="cls-4" d="M27.78,57.73c0,.66-.88,1.19-2,1.19s-2-.53-2-1.19.89-1.19,2-1.19S27.78,57.07,27.78,57.73Z"/><path class="cls-5" d="M24.44,58.62c0-.45.61-.82,1.36-.82s1.37.37,1.37.82"/><path class="cls-4" d="M38.82,66.57c0,.59-.79,1.06-1.77,1.06s-1.78-.47-1.78-1.06.79-1.07,1.78-1.07S38.82,66,38.82,66.57Z"/><path class="cls-5" d="M35.82,67.37c0-.41.55-.74,1.23-.74s1.22.33,1.22.74"/><path class="cls-4" d="M32.43,68.2c0,.71-1,1.28-2.14,1.28s-2.13-.57-2.13-1.28,1-1.28,2.13-1.28S32.43,67.5,32.43,68.2Z"/><path class="cls-5" d="M28.94,69.11c0-.57.67-1,1.5-1s1.49.46,1.49,1"/><path class="cls-6" d="M40.81,62.48c0,.5-.67.9-1.49.9s-1.49-.4-1.49-.9.67-.89,1.49-.89S40.81,62,40.81,62.48Z"/><path class="cls-5" d="M38.29,63.16c0-.34.46-.62,1-.62s1,.28,1,.62"/><path class="cls-6" d="M53.87,58.87c0,.82-1.12,1.49-2.49,1.49s-2.49-.67-2.49-1.49,1.12-1.5,2.49-1.5S53.87,58,53.87,58.87Z"/><path class="cls-5" d="M49.67,60c0-.57.77-1,1.71-1s1.71.45,1.71,1"/><path class="cls-6" d="M56.57,61.28c0,.59-.8,1.07-1.78,1.07S53,61.87,53,61.28s.8-1.07,1.78-1.07S56.57,60.69,56.57,61.28Z"/><path class="cls-5" d="M53.57,62.08c0-.41.55-.73,1.22-.73s1.22.32,1.22.73"/><path class="cls-6" d="M50.17,62.92c0,.7-1,1.27-2.13,1.27s-2.13-.57-2.13-1.27,1-1.29,2.13-1.29S50.17,62.21,50.17,62.92Z"/><path class="cls-5" d="M46.69,63.82c0-.57.67-1,1.49-1s1.5.46,1.5,1"/><path class="cls-6" d="M58.56,57.2c0,.49-.67.89-1.49.89s-1.5-.4-1.5-.89.67-.9,1.5-.9S58.56,56.7,58.56,57.2Z"/><path class="cls-5" d="M56,57.87c0-.34.46-.62,1-.62s1,.28,1,.62"/><polygon class="cls-7" points="54.83 25.9 2.5 25.71 2.35 19.96 65.97 3.16 65.82 10.24 54.83 25.9"/><polygon class="cls-8" points="53.47 19.77 2.31 19.77 14.47 2.97 65.64 2.97 53.47 19.77"/><path class="cls-9" d="M18.68,14.21c0,.93-1.27,1.69-2.83,1.69S13,15.14,13,14.21v-.09a2.83,2.83,0,0,1,5.66,0Z"/><path class="cls-10" d="M28,6.07c0,.71-1,1.29-2.15,1.29s-2.15-.58-2.15-1.29V6a2,2,0,0,1,2.15-1.84A2,2,0,0,1,28,6Z"/><path class="cls-11" d="M53.7,7.15c0,.8-1.08,1.44-2.4,1.44S48.9,8,48.9,7.15V7a2.42,2.42,0,0,1,4.8,0Z"/><path class="cls-12" d="M32.43,16.53c0,.72-1,1.31-2.18,1.31s-2.19-.59-2.19-1.31V16.4a2.19,2.19,0,0,1,4.37,0Z"/><path class="cls-13" d="M38.77,14.76c0,.6-.82,1.09-1.82,1.09s-1.82-.49-1.82-1.09v-.17a1.82,1.82,0,0,1,3.64,0Z"/><path class="cls-14" d="M40.83,10.69c0,.52-.67.93-1.5.93s-1.5-.41-1.5-.93v-.12a1.5,1.5,0,1,1,3,0Z"/><path class="cls-15" d="M58.56,5.48c0,.51-.67.93-1.5.93s-1.5-.42-1.5-.93V5.35a1.5,1.5,0,1,1,3,0Z"/><path class="cls-16" d="M28.12,11.47c0,1.09-1.48,2-3.3,2s-3.31-.89-3.31-2v-.1a3.09,3.09,0,0,1,3.31-2.82,3.09,3.09,0,0,1,3.3,2.82Z"/><path class="cls-17" d="M56.5,9.55c0,.6-.81,1.09-1.82,1.09s-1.82-.49-1.82-1.09V9.37a1.82,1.82,0,0,1,3.64,0Z"/><path class="cls-18" d="M50,11.06c0,.65-.88,1.18-2,1.18s-2-.53-2-1.18v-.13a2,2,0,1,1,3.94,0Z"/><polygon class="cls-19" points="91.25 52.11 38.91 51.92 38.76 46.16 102.39 29.36 102.24 36.44 91.25 52.11"/><polygon class="cls-20" points="89.89 45.98 38.73 45.98 50.89 29.17 102.05 29.17 89.89 45.98"/><path class="cls-21" d="M55.09,40.41c0,.93-1.26,1.69-2.83,1.69s-2.83-.76-2.83-1.69v-.09a2.83,2.83,0,0,1,5.66,0Z"/><path class="cls-22" d="M64.38,32.27c0,.71-1,1.29-2.15,1.29s-2.16-.58-2.16-1.29v-.1a2.18,2.18,0,0,1,4.31,0Z"/><path class="cls-23" d="M90.11,33.35c0,.79-1.07,1.44-2.39,1.44s-2.4-.65-2.4-1.44v-.13a2.41,2.41,0,0,1,4.79,0Z"/><path class="cls-24" d="M68.85,42.73c0,.73-1,1.31-2.19,1.31s-2.18-.58-2.18-1.31V42.6a2.19,2.19,0,0,1,4.37,0Z"/><path class="cls-25" d="M75.18,41c0,.6-.81,1.09-1.82,1.09s-1.82-.49-1.82-1.09v-.17a1.82,1.82,0,0,1,3.64,0Z"/><path class="cls-26" d="M77.24,36.89c0,.52-.67.93-1.5.93s-1.49-.41-1.49-.93v-.13a1.5,1.5,0,1,1,3,0Z"/><path class="cls-27" d="M95,31.68c0,.51-.67.93-1.5.93s-1.5-.42-1.5-.93v-.13a1.5,1.5,0,1,1,3,0Z"/><path class="cls-28" d="M64.54,37.67c0,1.09-1.48,2-3.31,2s-3.3-.89-3.3-2v-.1a3.35,3.35,0,0,1,6.61,0Z"/><path class="cls-29" d="M92.92,35.75c0,.6-.82,1.09-1.82,1.09s-1.82-.49-1.82-1.09v-.18a1.82,1.82,0,0,1,3.64,0Z"/><path class="cls-30" d="M86.41,37.26c0,.65-.88,1.18-2,1.18s-2-.53-2-1.18v-.13a2,2,0,1,1,4,0Z"/><path class="cls-31" d="M13.58,38.71a2.31,2.31,0,1,1-2.31-2.31A2.31,2.31,0,0,1,13.58,38.71Z"/><path class="cls-32" d="M16.36,34.61A2.32,2.32,0,1,1,14,32.3,2.32,2.32,0,0,1,16.36,34.61Z"/><path class="cls-33" d="M19.11,30.66a2.32,2.32,0,1,1-2.31-2.31A2.31,2.31,0,0,1,19.11,30.66Z"/><path class="cls-34" d="M18.55,38.71a2.31,2.31,0,1,1-2.31-2.31A2.31,2.31,0,0,1,18.55,38.71Z"/><path class="cls-35" d="M21.32,34.61A2.31,2.31,0,1,1,19,32.3,2.31,2.31,0,0,1,21.32,34.61Z"/><path class="cls-36" d="M24.08,30.66a2.32,2.32,0,1,1-2.31-2.31A2.31,2.31,0,0,1,24.08,30.66Z"/><path class="cls-37" d="M23.38,38.71a2.31,2.31,0,1,1-2.31-2.31A2.31,2.31,0,0,1,23.38,38.71Z"/><circle class="cls-38" cx="23.85" cy="34.61" r="2.31"/><path class="cls-39" d="M28.91,30.66a2.31,2.31,0,1,1-2.31-2.31A2.3,2.3,0,0,1,28.91,30.66Z"/><path class="cls-40" d="M28.35,38.71A2.31,2.31,0,1,1,26,36.4,2.31,2.31,0,0,1,28.35,38.71Z"/><path class="cls-41" d="M31.12,34.61a2.31,2.31,0,1,1-2.31-2.31A2.31,2.31,0,0,1,31.12,34.61Z"/><path class="cls-42" d="M33.88,30.66a2.32,2.32,0,1,1-2.31-2.31A2.31,2.31,0,0,1,33.88,30.66Z"/><path class="cls-43" d="M33.45,38.71a2.31,2.31,0,1,1-2.31-2.31A2.31,2.31,0,0,1,33.45,38.71Z"/><path class="cls-44" d="M36.23,34.61a2.32,2.32,0,1,1-2.31-2.31A2.32,2.32,0,0,1,36.23,34.61Z"/><path class="cls-45" d="M39,30.66a2.31,2.31,0,1,1-2.31-2.31A2.3,2.3,0,0,1,39,30.66Z"/><path class="cls-46" d="M38.42,38.71a2.31,2.31,0,1,1-2.31-2.31A2.31,2.31,0,0,1,38.42,38.71Z"/><path class="cls-47" d="M41.2,34.61a2.32,2.32,0,1,1-2.32-2.31A2.32,2.32,0,0,1,41.2,34.61Z"/><circle class="cls-48" cx="41.64" cy="30.66" r="2.31"/><path class="cls-49" d="M43.26,38.71a2.32,2.32,0,1,1-2.32-2.31A2.32,2.32,0,0,1,43.26,38.71Z"/><path class="cls-50" d="M46,34.61a2.31,2.31,0,1,1-2.31-2.31A2.32,2.32,0,0,1,46,34.61Z"/><circle class="cls-51" cx="46.47" cy="30.66" r="2.31" transform="translate(-0.06 0.1) rotate(-0.12)"/><circle class="cls-52" cx="8.92" cy="42.83" r="2.31"/><path class="cls-53" d="M16.2,42.83a2.31,2.31,0,1,1-2.31-2.31A2.31,2.31,0,0,1,16.2,42.83Z"/><path class="cls-54" d="M21,42.83a2.32,2.32,0,1,1-2.32-2.31A2.32,2.32,0,0,1,21,42.83Z"/><path class="cls-55" d="M26,42.83a2.31,2.31,0,1,1-2.31-2.31A2.31,2.31,0,0,1,26,42.83Z"/><circle class="cls-56" cx="28.79" cy="42.83" r="2.31"/><path class="cls-57" d="M36.07,42.83a2.31,2.31,0,1,1-2.31-2.31A2.31,2.31,0,0,1,36.07,42.83Z"/><path class="cls-58" d="M40.91,42.83a2.32,2.32,0,1,1-2.32-2.31A2.32,2.32,0,0,1,40.91,42.83Z"/><circle class="cls-59" cx="42.9" cy="42.68" r="2.31"/><path class="cls-60" d="M48.22,38.71a2.31,2.31,0,1,1-2.31-2.31A2.31,2.31,0,0,1,48.22,38.71Z"/><path class="cls-61" d="M51,34.61a2.32,2.32,0,1,1-2.31-2.31A2.32,2.32,0,0,1,51,34.61Z"/><path class="cls-62" d="M53.75,30.66a2.31,2.31,0,1,1-2.31-2.31A2.31,2.31,0,0,1,53.75,30.66Z"/><circle class="cls-63" cx="47.78" cy="42.68" r="2.31"/><path class="cls-64" d="M53.1,38.71a2.31,2.31,0,1,1-2.31-2.31A2.31,2.31,0,0,1,53.1,38.71Z"/><path class="cls-65" d="M55.87,34.61a2.31,2.31,0,1,1-2.31-2.31A2.31,2.31,0,0,1,55.87,34.61Z"/><circle class="cls-66" cx="56.32" cy="30.66" r="2.31"/><path class="cls-67" d="M55.06,42.68a2.31,2.31,0,1,1-2.31-2.31A2.31,2.31,0,0,1,55.06,42.68Z"/><path class="cls-68" d="M58.07,38.71a2.32,2.32,0,1,1-2.31-2.31A2.32,2.32,0,0,1,58.07,38.71Z"/><path class="cls-69" d="M60.84,34.61a2.31,2.31,0,1,1-2.31-2.31A2.31,2.31,0,0,1,60.84,34.61Z"/><path class="cls-70" d="M63.6,30.66a2.32,2.32,0,1,1-2.32-2.31A2.31,2.31,0,0,1,63.6,30.66Z"/><rect class="cls-71" x="3.75" y="27.93" width="45.38" height="18.04"/><polygon class="cls-1" points="45.31 35.29 42.12 37.49 42.12 33.09 45.31 35.29"/><polygon class="cls-1" points="49.38 35.29 46.19 37.49 46.19 33.09 49.38 35.29"/><rect class="cls-5" x="0.5" y="0.5" width="139.6" height="94.75"/><rect class="cls-1" x="114.46" y="14.85" width="23.18" height="78.7"/><path class="cls-1" d="M138,93.28V2.54H114.12v91H138Zm-.68-.23h-22.5V3h22.5Z"/></g><g id="圖層_2-2" data-name="圖層 2"><text class="cls-72" transform="translate(131.23 21.07) scale(0.9)">不產生刮痕！<tspan x="-11.11" y="0">不造成剝落！</tspan></text><text class="cls-73" transform="translate(115.78 12.51)">克<tspan x="10" y="0">服</tspan></text><text class="cls-74" transform="translate(20.21 76.12)">電鍍層</text><text class="cls-74" transform="translate(58.56 50.31)">電鍍層</text><text class="cls-74" transform="translate(20.21 24.25)">電鍍層</text><text class="cls-75" transform="translate(70.3 8.11) scale(0.9)">※腐蝕從氣孔部分<tspan x="0" y="6.67">開始，且向外延伸</tspan></text><text class="cls-76" transform="translate(4.8 31.94) scale(0.9)">史上最強除鏽劑<tspan class="cls-77"><tspan x="0" y="6.67">SABI</tspan><tspan class="cls-78" x="10.39" y="6.67">T</tspan><tspan x="13.11" y="6.67">ORI KING</tspan></tspan><tspan x="0" y="13.33">配合専用擦拭布使用</tspan></text><text class="cls-75" transform="translate(68.85 62.08) scale(0.9)">※在保護鍍鉻層的同<tspan x="0" y="6.67">時，有效去除鐵鏽並</tspan><tspan x="0" y="13.33">將其恢復到原來的狀</tspan><tspan x="0" y="20">態</tspan></text><text class="cls-79" transform="translate(3.71 90.23) scale(0.85 0.9)">※請注意，如果您擦得太用力，可能會造照成刮痕</text></g></g></svg>