<svg id="圖層_1" data-name="圖層 1" xmlns="http://www.w3.org/2000/svg" viewBox="0 0 228.04 53.18"><defs><style>.cls-1{fill:#fff;}.cls-2{fill:#231815;}.cls-3{fill:#e60012;}</style></defs><polygon class="cls-1" points="32.01 11.16 31.25 11.15 25.24 11.12 24.47 11.11 24.59 10.35 24.91 8.4 22.31 8.92 21.52 9.08 21.52 8.27 21.54 2.88 21.54 2.08 22.34 2.23 24.68 2.7 24.52 1.98 24.33 1.17 25.16 1.17 31.33 1.16 32.13 1.15 31.98 1.95 31.81 2.86 34.23 2.47 35 2.34 35 3.12 34.96 8.25 34.96 9.06 34.16 8.9 31.64 8.37 31.91 10.4 32.01 11.16"/><path class="cls-1" d="M326.94,281.16H317.7l.28,1.2-.61-.12-2.16-.42V284l0,5.39v2.21l3.14-.62c0,.08-.39,2.4-.39,2.4h2.12l6.77,0h1.32l-.28-2.06-.05-.43.93.2,2.17.45,0-2.22,0-5.91v-1.36l-2.12.34-.79.13s.28-1.46.28-1.46Zm-1.38,2.3c0,.18-.37,2-.37,2l3.47-.57c0,.79,0,3.15,0,4l-3.53-.73s.33,2.5.41,3.08l-4.88,0c.1-.58.49-3,.49-3l-3.63.72c0-.82,0-3.38,0-4.2l3.52.69-.43-1.85h5" transform="translate(-294.81 -281.15)"/><polygon class="cls-1" points="30.64 3.94 34.02 3.37 34.06 7.97 30.51 7.24 30.96 10.22 25.56 10.26 26 7.24 22.5 8.01 22.54 3.29 25.88 3.86 25.48 2 31.04 2.04 30.64 3.94"/><path class="cls-1" d="M319.17,283.4s0,.16,0,.19l-3-.5-.07,7.5,3.29-.72-.4,2.7,8.06-.05s-.3-2-.39-2.67l3.32.68-.06-7.36-3.05.51c0-.06.35-1.62.35-1.62l-8.4-.07Zm2.65,1.37s-.06-.29-.1-.45l2.71,0c0,.2-.46,2.16-.46,2.16l3.72-.62c0,.76,0,1.05,0,1.83l-3.76-.77s.37,2.47.49,3.29l-2.74,0c.13-.83.49-3.33.49-3.33l-3.72.81c0-.82,0-1.14,0-1.93l3.68.63Z" transform="translate(-294.81 -281.15)"/><path class="cls-1" d="M343.59,298c-5.49-2.82-10.91,1-13.26,8.47a19.79,19.79,0,0,0,.33-2.9v-.22c0-4.23-3.21-8.29-7.71-8.29-5,0-7.76,4.93-8,8.4v.11a17.38,17.38,0,0,0,.24,2.31c-2.44-7-7.73-10.62-13.06-7.88-10.9,5.6,6.59,22.57,8.37,28.61l8.79-.55s0,0,0-.15c1.15,0,2.33-.1,3.55-.1s2.51.08,3.72.12c0,.12,0,.13,0,.13l9.14.55c2-6.95,19.12-22.87,8-28.61" transform="translate(-294.81 -281.15)"/><path class="cls-1" d="M316.26,297.22a11.82,11.82,0,0,0-2.07,4,11.7,11.7,0,0,0-5.34-4.68,8.51,8.51,0,0,0-7.27.44,7.16,7.16,0,0,0-3.95,4.63c-1.34,5.3,3.59,12.52,7.55,18.31,1.92,2.81,3.74,5.46,4.19,7l.26.88,11-.69a1,1,0,0,0,0-.11c.71,0,1.43-.05,2.16-.05s1.62,0,2.4.07c0,0,0,.16,0,.16l1.25,0,10.06.6.26-.88c.55-1.88,2.46-4.71,4.49-7.71,3.43-5.08,7.27-10.75,7.27-15.51a7.67,7.67,0,0,0-.24-1.93,7.47,7.47,0,0,0-4.15-4.8,8.53,8.53,0,0,0-7.38-.39,11.78,11.78,0,0,0-5.18,4.59,10,10,0,0,0-2.19-4.32,8.49,8.49,0,0,0-6.41-2.95,8.39,8.39,0,0,0-6.69,3.33m6.69-1c3.93,0,6.56,3.7,6.56,7.14v.22a22,22,0,0,1-.31,2.72l2.23.53c1.28-4.05,3.53-7,6.19-8.11a6.19,6.19,0,0,1,5.44.32h0a5.2,5.2,0,0,1,3,3.32,5.43,5.43,0,0,1,.16,1.35c0,4.06-3.77,9.65-6.87,14.23a46.69,46.69,0,0,0-4.48,7.48l-7-.42s0-.15,0-.15l-1.3-.06-1,0c-.87,0-1.77-.08-2.72-.08s-1.93,0-2.85.08l-2.1.08,0,.17-6.62.42a46.81,46.81,0,0,0-4.17-6.79c-3.32-4.86-7.38-10.79-7.38-15.06a5.61,5.61,0,0,1,.16-1.38,4.89,4.89,0,0,1,2.77-3.15,6.25,6.25,0,0,1,5.37-.36c2.55,1,4.77,3.8,6.08,7.59l2.23-.55a16.13,16.13,0,0,1-.22-2.14v-.05c.22-3,2.55-7.31,6.86-7.31m21.16.77Z" transform="translate(-294.81 -281.15)"/><path class="cls-1" d="M338,328.77l-1.32-.12c-.1,0-10.18-.94-13.73-.94s-13.86.86-14,.86l-1.08.09v-1.08c0-1.51-2.09-4.49-4.31-7.65-3.82-5.43-8.57-12.2-7.52-17.95a9.31,9.31,0,0,1,4.22-6.06,10.86,10.86,0,0,1,6.13-2.08,9.34,9.34,0,0,1,7.64,4.22c.19-.39.38-.72.51-.93a9.8,9.8,0,0,1,17.25,1.05,12.4,12.4,0,0,1,1-1.14,9.63,9.63,0,0,1,6.84-3.12,10.67,10.67,0,0,1,5.65,1.79,9,9,0,0,1,4.41,5.9c1.18,5.84-3.78,12.85-7.77,18.48-2.07,2.92-4.41,6.23-4.19,7.38Z" transform="translate(-294.81 -281.15)"/><path class="cls-1" d="M313.94,296.06a10.15,10.15,0,0,0-7.48-3.37,12,12,0,0,0-6.78,2.29,10.39,10.39,0,0,0-4.7,6.79c-1.13,6.23,3.77,13.21,7.7,18.82,1.74,2.47,4.11,5.84,4.11,7v2.34l2.33-.2h0l.21,0c3.14-.25,10.77-.84,13.69-.84,3.32,0,12.56.83,13.6.93l2.87.27s-.52-2.7-.54-2.77c0-1,2.6-4.58,4-6.53,3.68-5.2,8.16-11.53,8.16-17.33a9.8,9.8,0,0,0-5.14-8.7,11.8,11.8,0,0,0-6.26-2,10.71,10.71,0,0,0-7.62,3.43,10.53,10.53,0,0,0-9-4.88,10.69,10.69,0,0,0-9.11,4.74m1.2,2.5a8.26,8.26,0,0,1,.45-.83,8.65,8.65,0,0,1,15.23.94l.8,1.72,1.15-1.51a10.19,10.19,0,0,1,.9-1,8.48,8.48,0,0,1,6-2.77,9.54,9.54,0,0,1,5.05,1.61,7.92,7.92,0,0,1,3.9,5.16,8.43,8.43,0,0,1,.15,1.6c0,5.06-4.25,11.07-7.74,16-2.93,4.13-4.41,6.4-4.41,7.88,0,.06,0,.11,0,.17-1.6-.14-10.36-.92-13.65-.92-3,0-10.7.6-13.87.85h0c-.1-1.77-1.8-4.27-4.51-8.14-3.36-4.78-7.46-10.62-7.46-15.61a8.14,8.14,0,0,1,.13-1.48,8.24,8.24,0,0,1,3.73-5.31,9.81,9.81,0,0,1,5.49-1.88,8.26,8.26,0,0,1,6.71,3.74l1.13,1.57Z" transform="translate(-294.81 -281.15)"/><path class="cls-1" d="M344.8,296.55c-8.29-5.15-13.26,3.49-13.25,4.15a8.71,8.71,0,0,0-8.5-7.24c-6.94,0-8.86,6.6-8.67,7-2.66-5.39-8-7.48-13.49-3.71-12.25,8.35,8.05,25.14,8.05,30.83,0,0,10.41-.86,14.05-.86s13.82.93,13.82.93c-.94-4.81,21-23,8-31.1m-28.13,28.74-4.7.31c-1.29-6.9-18.36-21.14-8.79-26.5,5-2.8,9.59,2.5,10.83,10.21,2.43,15,2.64,15.94,2.66,16h0m12.27-20c-.46,3.52-2.88,19.88-2.88,19.88-1.21,0-1.82-.17-3.12-.17s-1.92.08-3.13.11L317,305.33c-.51-4.38,2.42-9,6.09-9s6.46,4.28,5.86,8.92m.25,20s.56-3.61,2.57-15.84c1.18-7.17,5.81-13.44,10.89-10.44,9.5,5.6-6.88,19-8.82,26.63Z" transform="translate(-294.81 -281.15)"/><path class="cls-1" d="M314.49,297a8.17,8.17,0,0,0-.42.73,9.94,9.94,0,0,0-5.38-3.8,10.24,10.24,0,0,0-8.45,1.83A9.45,9.45,0,0,0,296,302c-1.06,5.82,3.71,12.61,7.54,18.07,2.11,3,4.29,6.1,4.29,7.56v1.25l1.24-.1c.1,0,10.41-.86,14-.86s13.61.92,13.71.93l1.53.14-.3-1.51c-.2-1.08,2.22-4.5,4.17-7.25,4-5.66,9-12.7,7.8-18.6a9.19,9.19,0,0,0-4.49-6c-4.45-2.77-8-1.85-10.2-.59a12,12,0,0,0-3.33,2.9,9.94,9.94,0,0,0-17.39-.85m2.7.18a7.4,7.4,0,0,1,5.86-2.61,7.64,7.64,0,0,1,7.36,6.12l2.3-.06,0,.24a9.32,9.32,0,0,1,4.78-4.44c2.09-.77,4.36-.42,6.73,1.06a6.84,6.84,0,0,1,3.45,4.5,7.35,7.35,0,0,1,.14,1.42c0,4.73-4.16,10.6-7.56,15.4-2.24,3.17-4,5.65-4.46,7.56-2.79-.25-9.82-.85-12.77-.85s-10.34.57-13.1.79c-.56-2-2.34-4.57-4.51-7.65-3.27-4.66-7.27-10.36-7.27-15a8.17,8.17,0,0,1,.11-1.31,7.13,7.13,0,0,1,3.31-4.66,8,8,0,0,1,6.57-1.5,8.54,8.54,0,0,1,5.25,4.77l2.07-1a1,1,0,0,1,.1.44,7.47,7.47,0,0,1,1.67-3.18" transform="translate(-294.81 -281.15)"/><path class="cls-1" d="M302.61,298.1a6.31,6.31,0,0,0-3.33,4.15c-1,4.36,2.87,9.78,6.59,15,2.35,3.31,4.57,6.43,5,8.54l.19,1,7.23-.48s-.38-1.08-.48-1.35-.35-1.75-2.63-15.86c-.9-5.52-3.35-9.75-6.57-11.31a6.26,6.26,0,0,0-6,.28m5.14,17.84c-3-4.19-6.32-8.9-6.32-12.25a4.17,4.17,0,0,1,.1-.94,4.06,4.06,0,0,1,2.21-2.65,4,4,0,0,1,3.84-.21c2.47,1.19,4.55,5,5.3,9.61,1.45,9,2.11,12.95,2.43,14.73l-2.48.16c-.81-2.43-2.89-5.37-5.08-8.45" transform="translate(-294.81 -281.15)"/><path class="cls-1" d="M318.29,297.55a10.47,10.47,0,0,0-2.45,7.92v0l3,20.8,2.28-.1c.56,0,1.08-.06,1.84-.06s1.17,0,1.68.08.85.07,1.41.08l1,0,.15-1c0-.16,2.42-16.4,2.88-19.89a10.81,10.81,0,0,0,.09-1.39,9.92,9.92,0,0,0-2.33-6.51,6.38,6.38,0,0,0-4.76-2.32,6.46,6.46,0,0,0-4.79,2.34m-.21,6.78a8,8,0,0,1,1.93-5.25,4.21,4.21,0,0,1,3.07-1.57,4.11,4.11,0,0,1,3,1.54,7.69,7.69,0,0,1,1.75,5,9.46,9.46,0,0,1-.06,1.07c-.39,3-2.18,15.17-2.72,18.82l-.28,0a18.46,18.46,0,0,0-1.86-.09c-.82,0-1.38,0-2,.06h-.18c-.26-1.86-2.66-18.66-2.67-18.71a8.46,8.46,0,0,1-.05-.87m12,1.1" transform="translate(-294.81 -281.15)"/><path class="cls-1" d="M337.5,297.69c-3.27,1.53-6,6.08-6.87,11.59-2,12.1-2.57,15.81-2.58,15.85l-.19,1.23,6.84.52.24-.94c.6-2.35,2.82-5.46,5.16-8.76,3.65-5.14,7.43-10.45,6.5-14.81a6.6,6.6,0,0,0-3.36-4.33,5.92,5.92,0,0,0-5.74-.35m-4.61,12c.78-4.7,3-8.68,5.58-9.87a3.64,3.64,0,0,1,3.6.24,4.35,4.35,0,0,1,2.28,2.82,4.63,4.63,0,0,1,.1.92c0,3.34-3.29,8-6.22,12.09-2.2,3.09-4.29,6-5.22,8.59l-2.49-.19c.3-1.9,1-6.25,2.37-14.6" transform="translate(-294.81 -281.15)"/><path class="cls-1" d="M344.56,297c-7-4.65-12.33,1.83-13.2,5.67v.05A8.49,8.49,0,0,0,323,294a8.37,8.37,0,0,0-8.36,8.59v.1c-.87-3.84-6.22-10.31-13.22-5.66-11.83,7.85,7.06,23.11,8.06,30,0,0,9.8-.83,13.28-.83s13.47.89,13.47.89c1-6.93,20.14-22.25,8.31-30.1m-33,29.11c-2.07-8.08-18.77-21.53-8.73-27.45,5.15-3,10.24,2,11.71,10.82,2.62,15.8,2.69,16.18,2.69,16.18Zm11.36-.69c-1.24,0-2.43.09-3.58.12,0,0-.61-4.11-2.33-15.95a51.73,51.73,0,0,1-.68-5.57v-.11c.21-3.33,2.51-8.08,6.72-8.08,3.77,0,6.47,3.91,6.47,8V304a51.13,51.13,0,0,1-.67,5.57c-1.73,11.84-2.36,16-2.36,16-1.16,0-2.31-.14-3.56-.14m11.35.67-5.65-.43s0-.38,2.63-16.18c1.46-8.86,6.56-13.85,11.7-10.82,10,5.92-6.62,19.36-8.68,27.43" transform="translate(-294.81 -281.15)"/><path class="cls-1" d="M314.18,298.9a11,11,0,0,0-4.84-4.06c-1.91-.77-4.94-1.18-8.54,1.21a9.09,9.09,0,0,0-4.24,5.92c-1,5.42,3.31,11.58,7.12,17,2.27,3.22,4.4,6.26,4.68,8.21l.16,1.07,1.08-.09c.1,0,9.79-.82,13.18-.82s13.27.87,13.36.88l1.09.1.15-1.08c.29-1.95,2.46-5,4.77-8.26,3.49-4.92,7.4-10.43,7.4-15.44a8.9,8.9,0,0,0-.14-1.63,9,9,0,0,0-4.22-5.89c-3.58-2.38-6.61-2-8.51-1.21A10.94,10.94,0,0,0,331.8,299a9.89,9.89,0,0,0-2.07-3.26,9.25,9.25,0,0,0-6.71-2.87,9.41,9.41,0,0,0-8.84,6.07m8.84-3.78a7.33,7.33,0,0,1,7.18,7.61l2.28.2h0a9.17,9.17,0,0,1,5-5.95,7.83,7.83,0,0,1,9.62,5.39,7,7,0,0,1,.11,1.22c0,4.27-3.7,9.46-7,14.1-2.22,3.13-4.18,5.89-4.91,8.2-2.62-.23-9.7-.81-12.58-.81s-9.81.54-12.39.75c-.72-2.3-2.64-5-4.82-8.15-3.24-4.6-6.86-9.77-6.86-14a6.53,6.53,0,0,1,.11-1.25,6.78,6.78,0,0,1,3.26-4.42,6.67,6.67,0,0,1,6.41-1,9.18,9.18,0,0,1,5.05,5.95l2.26-.35h0v0a7.26,7.26,0,0,1,7.22-7.42" transform="translate(-294.81 -281.15)"/><path class="cls-1" d="M302.27,297.68a7.08,7.08,0,0,0-3.61,4.6c-1,4.47,2.84,9.84,6.51,15,2.39,3.39,4.65,6.59,5.29,9.09l.24.94,7.91-.63-.23-1.25s-.17-.94-2.69-16.16c-1-5.94-3.6-10.44-7-12a6.64,6.64,0,0,0-6.4.42m4.78,18.3c-2.94-4.15-6.24-8.81-6.24-12.25a5.15,5.15,0,0,1,.1-1,4.79,4.79,0,0,1,2.53-3.1,4.33,4.33,0,0,1,4.26-.31c2.68,1.25,4.88,5.21,5.73,10.33,1.53,9.28,2.19,13.24,2.48,14.94l-3.51.28c-1-2.7-3.1-5.73-5.35-8.92" transform="translate(-294.81 -281.15)"/><path class="cls-1" d="M317.27,298a11.87,11.87,0,0,0-2.06,5.88V304a39.09,39.09,0,0,0,.55,4.8l.14.94,2.48,17,1-.05,1.32-.05c.73,0,1.48-.07,2.23-.07s1.46,0,2.17.08l2.39.1.14-1s.65-4.27,2.35-16l.14-.91a39.87,39.87,0,0,0,.55-4.83v-.2h0c0-4.39-2.91-9.12-7.61-9.12a7.09,7.09,0,0,0-5.8,3.27m5.8-1c3.18,0,5.31,3.53,5.32,6.82,0,0,0,.1,0,.1V304a40.84,40.84,0,0,1-.52,4.49l-.14.92c-1.24,8.53-1.92,13.08-2.2,14.93h-.29c-.73,0-1.49-.08-2.29-.08s-1.58,0-2.33.07l-.27,0c-.26-1.8-2.17-14.93-2.17-14.93l-.14-.95a40.81,40.81,0,0,1-.53-4.46V304c.18-2.82,2.08-7,5.57-7" transform="translate(-294.81 -281.15)"/><path class="cls-1" d="M337.15,297.26c-3.41,1.6-6,6.1-7,12-1.21,7.25-2.64,16-2.65,16.33l0,1.1,7.71.59.24-.93c.65-2.51,2.9-5.7,5.28-9.08,3.66-5.19,7.45-10.56,6.49-15a7.1,7.1,0,0,0-3.61-4.6,6.65,6.65,0,0,0-6.41-.42m-4.75,12.42c.85-5.12,3-9.08,5.73-10.33a4.33,4.33,0,0,1,4.26.31,4.84,4.84,0,0,1,2.53,3.11,4.43,4.43,0,0,1,.1,1c0,3.43-3.29,8.09-6.22,12.25-2.25,3.18-4.38,6.21-5.33,8.9l-3.51-.27c.26-1.65.89-5.58,2.44-14.94" transform="translate(-294.81 -281.15)"/><path class="cls-1" d="M315.62,305.14a.68.68,0,1,1-.68-.68.68.68,0,0,1,.68.68" transform="translate(-294.81 -281.15)"/><path class="cls-1" d="M313.11,305.14a1.83,1.83,0,1,0,1.83-1.83,1.83,1.83,0,0,0-1.83,1.83m1.36,0a.47.47,0,1,1,.47.47.48.48,0,0,1-.47-.47" transform="translate(-294.81 -281.15)"/><path class="cls-1" d="M316.1,307.43a.68.68,0,1,1-.67-.68.68.68,0,0,1,.67.68" transform="translate(-294.81 -281.15)"/><path class="cls-1" d="M313.6,307.43a1.83,1.83,0,1,0,1.83-1.83,1.83,1.83,0,0,0-1.83,1.83m1.35,0a.48.48,0,1,1,.48.47.47.47,0,0,1-.48-.47" transform="translate(-294.81 -281.15)"/><path class="cls-1" d="M316.52,309.86a.68.68,0,1,1-1.36,0,.68.68,0,0,1,1.36,0" transform="translate(-294.81 -281.15)"/><path class="cls-1" d="M314,309.86a1.83,1.83,0,1,0,1.83-1.83,1.83,1.83,0,0,0-1.83,1.83m1.36,0a.47.47,0,1,1,.47.47.47.47,0,0,1-.47-.47" transform="translate(-294.81 -281.15)"/><path class="cls-1" d="M316.94,312.29a.68.68,0,0,1-1.36,0,.68.68,0,0,1,1.36,0" transform="translate(-294.81 -281.15)"/><path class="cls-1" d="M314.43,312.29a1.83,1.83,0,1,0,1.83-1.82,1.83,1.83,0,0,0-1.83,1.82m1.36,0a.47.47,0,1,1,.94,0,.47.47,0,1,1-.94,0" transform="translate(-294.81 -281.15)"/><path class="cls-1" d="M317.28,314.66a.68.68,0,1,1-.67-.68.68.68,0,0,1,.67.68" transform="translate(-294.81 -281.15)"/><path class="cls-1" d="M314.78,314.66a1.83,1.83,0,1,0,1.83-1.83,1.83,1.83,0,0,0-1.83,1.83m1.36,0a.47.47,0,1,1,.47.47.46.46,0,0,1-.47-.47" transform="translate(-294.81 -281.15)"/><path class="cls-1" d="M317.62,317.09a.68.68,0,0,1-.69.68.68.68,0,0,1,0-1.36.69.69,0,0,1,.69.68" transform="translate(-294.81 -281.15)"/><path class="cls-1" d="M315.11,317.09a1.83,1.83,0,1,0,1.83-1.83,1.83,1.83,0,0,0-1.83,1.83m1.36,0a.47.47,0,1,1,.47.47.47.47,0,0,1-.47-.47" transform="translate(-294.81 -281.15)"/><path class="cls-1" d="M318,319.31a.68.68,0,0,1-1.36,0,.68.68,0,0,1,1.36,0" transform="translate(-294.81 -281.15)"/><path class="cls-1" d="M315.47,319.31a1.83,1.83,0,1,0,1.83-1.83,1.83,1.83,0,0,0-1.83,1.83m1.36,0a.47.47,0,1,1,.47.47.47.47,0,0,1-.47-.47" transform="translate(-294.81 -281.15)"/><path class="cls-1" d="M318.33,321.61a.68.68,0,1,1-1.36,0,.68.68,0,0,1,1.36,0" transform="translate(-294.81 -281.15)"/><path class="cls-1" d="M315.82,321.61a1.83,1.83,0,1,0,1.83-1.83,1.84,1.84,0,0,0-1.83,1.83m1.36,0a.47.47,0,1,1,.47.47.47.47,0,0,1-.47-.47" transform="translate(-294.81 -281.15)"/><path class="cls-1" d="M318.67,323.9a.68.68,0,1,1-.68-.68.67.67,0,0,1,.68.68" transform="translate(-294.81 -281.15)"/><path class="cls-1" d="M316.17,323.9a1.83,1.83,0,1,0,1.82-1.83,1.83,1.83,0,0,0-1.82,1.83m1.36,0a.47.47,0,1,1,.46.47.47.47,0,0,1-.46-.47" transform="translate(-294.81 -281.15)"/><path class="cls-1" d="M314.37,303a.68.68,0,0,1-.69.68.68.68,0,0,1,0-1.36.69.69,0,0,1,.69.68" transform="translate(-294.81 -281.15)"/><path class="cls-1" d="M311.86,303a1.83,1.83,0,1,0,1.83-1.83,1.83,1.83,0,0,0-1.83,1.83m1.36,0a.47.47,0,1,1,.47.47.47.47,0,0,1-.47-.47" transform="translate(-294.81 -281.15)"/><path class="cls-1" d="M313.19,300.83a.68.68,0,0,1-1.36,0,.68.68,0,0,1,1.36,0" transform="translate(-294.81 -281.15)"/><path class="cls-1" d="M310.68,300.83a1.83,1.83,0,1,0,1.83-1.83,1.83,1.83,0,0,0-1.83,1.83m1.35,0a.47.47,0,1,1,.48.47.48.48,0,0,1-.48-.47" transform="translate(-294.81 -281.15)"/><path class="cls-1" d="M311.8,299a.68.68,0,1,1-.68-.68.68.68,0,0,1,.68.68" transform="translate(-294.81 -281.15)"/><path class="cls-1" d="M309.29,299a1.83,1.83,0,1,0,1.83-1.83,1.83,1.83,0,0,0-1.83,1.83m1.35,0a.48.48,0,0,1,.48-.47.47.47,0,0,1,0,.94.48.48,0,0,1-.48-.47" transform="translate(-294.81 -281.15)"/><path class="cls-1" d="M309.78,297.42a.68.68,0,0,1-1.36,0,.68.68,0,0,1,1.36,0" transform="translate(-294.81 -281.15)"/><path class="cls-1" d="M307.27,297.42a1.83,1.83,0,1,0,1.83-1.83,1.83,1.83,0,0,0-1.83,1.83m1.36,0a.47.47,0,1,1,.47.47.47.47,0,0,1-.47-.47" transform="translate(-294.81 -281.15)"/><path class="cls-1" d="M307.35,296.66a.68.68,0,0,1-1.36,0,.68.68,0,0,1,1.36,0" transform="translate(-294.81 -281.15)"/><path class="cls-1" d="M304.84,296.66a1.83,1.83,0,1,0,1.83-1.83,1.82,1.82,0,0,0-1.83,1.83m1.36,0a.47.47,0,1,1,.47.47.47.47,0,0,1-.47-.47" transform="translate(-294.81 -281.15)"/><path class="cls-1" d="M304.71,296.94a.68.68,0,1,1-.68-.69.69.69,0,0,1,.68.69" transform="translate(-294.81 -281.15)"/><path class="cls-1" d="M302.2,296.94A1.83,1.83,0,1,0,304,295.1a1.83,1.83,0,0,0-1.83,1.84m1.36,0a.47.47,0,1,1,.47.47.48.48,0,0,1-.47-.47" transform="translate(-294.81 -281.15)"/><path class="cls-1" d="M302.41,298.12a.68.68,0,1,1-.68-.68.68.68,0,0,1,.68.68" transform="translate(-294.81 -281.15)"/><path class="cls-1" d="M299.91,298.12a1.83,1.83,0,1,0,1.82-1.83,1.83,1.83,0,0,0-1.82,1.83m1.35,0a.47.47,0,0,1,.47-.47.47.47,0,1,1,0,.94.47.47,0,0,1-.47-.47" transform="translate(-294.81 -281.15)"/><path class="cls-1" d="M300.68,299.65A.68.68,0,1,1,300,299a.68.68,0,0,1,.68.68" transform="translate(-294.81 -281.15)"/><path class="cls-1" d="M298.17,299.65a1.83,1.83,0,1,0,1.83-1.83,1.84,1.84,0,0,0-1.83,1.83m1.36,0a.47.47,0,1,1,.47.47.47.47,0,0,1-.47-.47" transform="translate(-294.81 -281.15)"/><path class="cls-1" d="M299.63,301.66A.68.68,0,1,1,299,301a.67.67,0,0,1,.68.68" transform="translate(-294.81 -281.15)"/><path class="cls-1" d="M297.13,301.66a1.83,1.83,0,1,0,1.82-1.83,1.83,1.83,0,0,0-1.82,1.83m1.35,0a.47.47,0,0,1,.47-.47.47.47,0,1,1,0,.94.47.47,0,0,1-.47-.47" transform="translate(-294.81 -281.15)"/><path class="cls-1" d="M330.69,300.62a.68.68,0,1,1-1.35,0,.68.68,0,1,1,1.35,0" transform="translate(-294.81 -281.15)"/><path class="cls-1" d="M328.19,300.62a1.83,1.83,0,1,0,1.82-1.83,1.82,1.82,0,0,0-1.82,1.83m1.35,0a.48.48,0,0,1,.47-.47.47.47,0,1,1,0,.94.48.48,0,0,1-.47-.47" transform="translate(-294.81 -281.15)"/><path class="cls-1" d="M329.72,298.46a.68.68,0,1,1-.68-.67.67.67,0,0,1,.68.67" transform="translate(-294.81 -281.15)"/><path class="cls-1" d="M327.21,298.46a1.83,1.83,0,1,0,1.83-1.82,1.83,1.83,0,0,0-1.83,1.82m1.36,0a.47.47,0,0,1,.94,0,.47.47,0,1,1-.94,0" transform="translate(-294.81 -281.15)"/><path class="cls-1" d="M328.33,296.87a.68.68,0,1,1-.67-.68.67.67,0,0,1,.67.68" transform="translate(-294.81 -281.15)"/><path class="cls-1" d="M325.82,296.87a1.83,1.83,0,1,0,1.83-1.83,1.84,1.84,0,0,0-1.83,1.83m1.36,0a.47.47,0,1,1,.94,0,.47.47,0,0,1-.94,0" transform="translate(-294.81 -281.15)"/><path class="cls-1" d="M326.32,295.48a.68.68,0,0,1-1.36,0,.68.68,0,0,1,1.36,0" transform="translate(-294.81 -281.15)"/><path class="cls-1" d="M323.81,295.48a1.83,1.83,0,1,0,1.83-1.83,1.82,1.82,0,0,0-1.83,1.83m1.36,0a.47.47,0,1,1,.94,0,.47.47,0,0,1-.94,0" transform="translate(-294.81 -281.15)"/><path class="cls-1" d="M323.88,294.92a.68.68,0,1,1-1.35,0,.68.68,0,1,1,1.35,0" transform="translate(-294.81 -281.15)"/><path class="cls-1" d="M321.38,294.92a1.83,1.83,0,1,0,1.82-1.83,1.83,1.83,0,0,0-1.82,1.83m1.35,0a.47.47,0,0,1,.47-.47.47.47,0,1,1,0,.94.47.47,0,0,1-.47-.47" transform="translate(-294.81 -281.15)"/><path class="cls-1" d="M321.24,295.41a.68.68,0,1,1-.67-.68.68.68,0,0,1,.67.68" transform="translate(-294.81 -281.15)"/><path class="cls-1" d="M318.74,295.41a1.83,1.83,0,1,0,1.83-1.83,1.83,1.83,0,0,0-1.83,1.83m1.35,0a.48.48,0,0,1,.48-.47.47.47,0,1,1,0,.94.48.48,0,0,1-.48-.47" transform="translate(-294.81 -281.15)"/><path class="cls-1" d="M319.16,296.59a.68.68,0,0,1-1.36,0,.68.68,0,1,1,1.36,0" transform="translate(-294.81 -281.15)"/><path class="cls-1" d="M316.65,296.59a1.83,1.83,0,1,0,1.83-1.83,1.84,1.84,0,0,0-1.83,1.83m1.36,0a.47.47,0,0,1,.47-.47.47.47,0,1,1,0,.94.47.47,0,0,1-.47-.47" transform="translate(-294.81 -281.15)"/><path class="cls-1" d="M317.63,298.32a.68.68,0,1,1-.68-.67.67.67,0,0,1,.68.67" transform="translate(-294.81 -281.15)"/><path class="cls-1" d="M315.12,298.32A1.83,1.83,0,1,0,317,296.5a1.84,1.84,0,0,0-1.83,1.82m1.36,0a.47.47,0,0,1,.94,0,.47.47,0,1,1-.94,0" transform="translate(-294.81 -281.15)"/><path class="cls-1" d="M316.66,300.55a.68.68,0,1,1-.68-.68.69.69,0,0,1,.68.68" transform="translate(-294.81 -281.15)"/><path class="cls-1" d="M314.15,300.55a1.83,1.83,0,1,0,1.83-1.83,1.83,1.83,0,0,0-1.83,1.83m1.36,0a.47.47,0,1,1,.47.47.47.47,0,0,1-.47-.47" transform="translate(-294.81 -281.15)"/><path class="cls-1" d="M316.24,302.84a.68.68,0,1,1-.68-.68.67.67,0,0,1,.68.68" transform="translate(-294.81 -281.15)"/><path class="cls-1" d="M313.73,302.84a1.83,1.83,0,1,0,1.83-1.82,1.84,1.84,0,0,0-1.83,1.82m1.36,0a.47.47,0,0,1,.94,0,.47.47,0,1,1-.94,0" transform="translate(-294.81 -281.15)"/><path class="cls-1" d="M331,302.84a.68.68,0,0,1-1.36,0,.68.68,0,1,1,1.36,0" transform="translate(-294.81 -281.15)"/><path class="cls-1" d="M328.54,302.84a1.83,1.83,0,1,0,1.82-1.82,1.83,1.83,0,0,0-1.82,1.82m1.35,0a.47.47,0,0,1,.94,0,.47.47,0,1,1-.94,0" transform="translate(-294.81 -281.15)"/><path class="cls-1" d="M299.22,304.16a.68.68,0,0,1-.69.68.68.68,0,0,1,0-1.36.69.69,0,0,1,.69.68" transform="translate(-294.81 -281.15)"/><path class="cls-1" d="M296.71,304.16a1.83,1.83,0,1,0,1.82-1.83,1.83,1.83,0,0,0-1.82,1.83m1.36,0a.47.47,0,1,1,.46.47.47.47,0,0,1-.46-.47" transform="translate(-294.81 -281.15)"/><path class="cls-1" d="M299.7,306.66A.68.68,0,1,1,299,306a.67.67,0,0,1,.68.67" transform="translate(-294.81 -281.15)"/><path class="cls-1" d="M297.19,306.66a1.83,1.83,0,1,0,1.83-1.82,1.84,1.84,0,0,0-1.83,1.82m1.36,0a.47.47,0,1,1,.47.48.48.48,0,0,1-.47-.48" transform="translate(-294.81 -281.15)"/><path class="cls-1" d="M300.68,308.82a.68.68,0,1,1-.68-.68.68.68,0,0,1,.68.68" transform="translate(-294.81 -281.15)"/><path class="cls-1" d="M298.17,308.82A1.83,1.83,0,1,0,300,307a1.83,1.83,0,0,0-1.83,1.83m1.36,0a.47.47,0,1,1,.47.47.47.47,0,0,1-.47-.47" transform="translate(-294.81 -281.15)"/><path class="cls-1" d="M301.65,311a.68.68,0,1,1-1.36,0,.68.68,0,0,1,1.36,0" transform="translate(-294.81 -281.15)"/><path class="cls-1" d="M299.14,311a1.83,1.83,0,1,0,1.83-1.84,1.83,1.83,0,0,0-1.83,1.84m1.36,0a.47.47,0,1,1,.94,0,.47.47,0,0,1-.94,0" transform="translate(-294.81 -281.15)"/><path class="cls-1" d="M303,313a.68.68,0,1,1-1.36,0,.68.68,0,1,1,1.36,0" transform="translate(-294.81 -281.15)"/><path class="cls-1" d="M300.46,313a1.83,1.83,0,1,0,1.83-1.83,1.83,1.83,0,0,0-1.83,1.83m1.36,0a.47.47,0,1,1,.47.47.47.47,0,0,1-.47-.47" transform="translate(-294.81 -281.15)"/><path class="cls-1" d="M304.43,315.14a.68.68,0,1,1-.68-.68.68.68,0,0,1,.68.68" transform="translate(-294.81 -281.15)"/><path class="cls-1" d="M301.92,315.14a1.83,1.83,0,1,0,1.83-1.82,1.83,1.83,0,0,0-1.83,1.82m1.36,0a.47.47,0,1,1,.47.48.48.48,0,0,1-.47-.48" transform="translate(-294.81 -281.15)"/><path class="cls-1" d="M305.75,317a.68.68,0,1,1-.68-.68.68.68,0,0,1,.68.68" transform="translate(-294.81 -281.15)"/><path class="cls-1" d="M303.24,317a1.83,1.83,0,1,0,1.83-1.83,1.83,1.83,0,0,0-1.83,1.83m1.36,0a.47.47,0,1,1,.47.47.47.47,0,0,1-.47-.47" transform="translate(-294.81 -281.15)"/><path class="cls-1" d="M307.07,319a.68.68,0,1,1-.68-.68.68.68,0,0,1,.68.68" transform="translate(-294.81 -281.15)"/><path class="cls-1" d="M304.56,319a1.83,1.83,0,1,0,1.83-1.83,1.83,1.83,0,0,0-1.83,1.83m1.36,0a.47.47,0,1,1,.47.47.47.47,0,0,1-.47-.47" transform="translate(-294.81 -281.15)"/><path class="cls-1" d="M308.39,320.91a.68.68,0,0,1-1.36,0,.68.68,0,0,1,1.36,0" transform="translate(-294.81 -281.15)"/><path class="cls-1" d="M305.88,320.91a1.83,1.83,0,1,0,1.83-1.83,1.83,1.83,0,0,0-1.83,1.83m1.36,0a.47.47,0,1,1,.47.47.47.47,0,0,1-.47-.47" transform="translate(-294.81 -281.15)"/><path class="cls-1" d="M309.64,322.93a.68.68,0,1,1-.68-.68.68.68,0,0,1,.68.68" transform="translate(-294.81 -281.15)"/><path class="cls-1" d="M307.13,322.93A1.83,1.83,0,1,0,309,321.1a1.83,1.83,0,0,0-1.83,1.83m1.36,0a.47.47,0,1,1,.47.47.47.47,0,0,1-.47-.47" transform="translate(-294.81 -281.15)"/><path class="cls-1" d="M310.75,325.08a.68.68,0,0,1-1.36,0,.68.68,0,0,1,1.36,0" transform="translate(-294.81 -281.15)"/><path class="cls-1" d="M308.24,325.08a1.83,1.83,0,1,0,1.83-1.83,1.84,1.84,0,0,0-1.83,1.83m1.36,0a.47.47,0,1,1,.47.47.47.47,0,0,1-.47-.47" transform="translate(-294.81 -281.15)"/><path class="cls-1" d="M330.26,305.14a.68.68,0,1,0,.67-.68.67.67,0,0,0-.67.68" transform="translate(-294.81 -281.15)"/><path class="cls-1" d="M329.11,305.14a1.83,1.83,0,1,0,1.82-1.83,1.83,1.83,0,0,0-1.82,1.83m1.35,0a.48.48,0,1,1,.47.47.48.48,0,0,1-.47-.47" transform="translate(-294.81 -281.15)"/><path class="cls-1" d="M329.77,307.43a.68.68,0,1,0,.68-.68.68.68,0,0,0-.68.68" transform="translate(-294.81 -281.15)"/><path class="cls-1" d="M328.62,307.43a1.83,1.83,0,1,0,1.83-1.83,1.83,1.83,0,0,0-1.83,1.83m1.36,0a.47.47,0,1,1,.47.47.47.47,0,0,1-.47-.47" transform="translate(-294.81 -281.15)"/><path class="cls-1" d="M329.35,309.86a.68.68,0,1,0,.68-.68.68.68,0,0,0-.68.68" transform="translate(-294.81 -281.15)"/><path class="cls-1" d="M328.2,309.86A1.83,1.83,0,1,0,330,308a1.83,1.83,0,0,0-1.83,1.83m1.36,0a.47.47,0,1,1,.47.47.47.47,0,0,1-.47-.47" transform="translate(-294.81 -281.15)"/><path class="cls-1" d="M328.94,312.29a.68.68,0,1,0,.68-.67.67.67,0,0,0-.68.67" transform="translate(-294.81 -281.15)"/><path class="cls-1" d="M327.78,312.29a1.83,1.83,0,1,0,3.66,0,1.83,1.83,0,0,0-3.66,0m1.36,0a.47.47,0,1,1,.48.48.48.48,0,0,1-.48-.48" transform="translate(-294.81 -281.15)"/><path class="cls-1" d="M328.59,314.66a.68.68,0,1,0,.68-.68.68.68,0,0,0-.68.68" transform="translate(-294.81 -281.15)"/><path class="cls-1" d="M327.44,314.66a1.83,1.83,0,1,0,1.83-1.83,1.83,1.83,0,0,0-1.83,1.83m1.35,0a.48.48,0,1,1,.48.47.47.47,0,0,1-.48-.47" transform="translate(-294.81 -281.15)"/><path class="cls-1" d="M328.26,317.09a.68.68,0,0,0,1.36,0,.68.68,0,1,0-1.36,0" transform="translate(-294.81 -281.15)"/><path class="cls-1" d="M327.11,317.09a1.83,1.83,0,1,0,1.83-1.83,1.83,1.83,0,0,0-1.83,1.83m1.36,0a.47.47,0,1,1,.47.47.47.47,0,0,1-.47-.47" transform="translate(-294.81 -281.15)"/><path class="cls-1" d="M327.89,319.31a.68.68,0,1,0,.68-.68.68.68,0,0,0-.68.68" transform="translate(-294.81 -281.15)"/><path class="cls-1" d="M326.74,319.31a1.83,1.83,0,1,0,1.83-1.83,1.83,1.83,0,0,0-1.83,1.83m1.36,0a.47.47,0,1,1,.47.47.47.47,0,0,1-.47-.47" transform="translate(-294.81 -281.15)"/><path class="cls-1" d="M327.55,321.61a.68.68,0,1,0,1.35,0,.68.68,0,1,0-1.35,0" transform="translate(-294.81 -281.15)"/><path class="cls-1" d="M326.39,321.61a1.83,1.83,0,1,0,1.84-1.83,1.84,1.84,0,0,0-1.84,1.83m1.36,0a.47.47,0,1,1,.48.47.47.47,0,0,1-.48-.47" transform="translate(-294.81 -281.15)"/><path class="cls-1" d="M327.2,323.9a.68.68,0,1,0,.68-.68.67.67,0,0,0-.68.68" transform="translate(-294.81 -281.15)"/><path class="cls-1" d="M326.05,323.9a1.83,1.83,0,1,0,1.83-1.83,1.83,1.83,0,0,0-1.83,1.83m1.36,0a.47.47,0,0,1,.47-.47.47.47,0,1,1,0,.94.47.47,0,0,1-.47-.47" transform="translate(-294.81 -281.15)"/><path class="cls-1" d="M331.51,303a.68.68,0,1,0,.68-.68.67.67,0,0,0-.68.68" transform="translate(-294.81 -281.15)"/><path class="cls-1" d="M330.36,303a1.83,1.83,0,1,0,1.83-1.83,1.83,1.83,0,0,0-1.83,1.83m1.35,0a.48.48,0,0,1,.48-.47.47.47,0,1,1,0,.94.48.48,0,0,1-.48-.47" transform="translate(-294.81 -281.15)"/><path class="cls-1" d="M332.69,300.83a.68.68,0,1,0,.68-.68.68.68,0,0,0-.68.68" transform="translate(-294.81 -281.15)"/><path class="cls-1" d="M331.54,300.83a1.83,1.83,0,1,0,1.83-1.83,1.83,1.83,0,0,0-1.83,1.83m1.36,0a.47.47,0,1,1,.47.47.47.47,0,0,1-.47-.47" transform="translate(-294.81 -281.15)"/><path class="cls-1" d="M334.08,299a.68.68,0,1,0,.68-.68.67.67,0,0,0-.68.68" transform="translate(-294.81 -281.15)"/><path class="cls-1" d="M332.93,299a1.83,1.83,0,1,0,1.83-1.83,1.83,1.83,0,0,0-1.83,1.83m1.36,0a.47.47,0,1,1,.47.47.47.47,0,0,1-.47-.47" transform="translate(-294.81 -281.15)"/><path class="cls-1" d="M336.09,297.42a.68.68,0,1,0,.68-.68.68.68,0,0,0-.68.68" transform="translate(-294.81 -281.15)"/><path class="cls-1" d="M334.94,297.42a1.83,1.83,0,1,0,1.83-1.83,1.83,1.83,0,0,0-1.83,1.83m1.36,0a.47.47,0,1,1,.47.47.47.47,0,0,1-.47-.47" transform="translate(-294.81 -281.15)"/><path class="cls-1" d="M338.52,296.66a.69.69,0,0,0,.69.68.68.68,0,1,0-.69-.68" transform="translate(-294.81 -281.15)"/><path class="cls-1" d="M337.38,296.66a1.83,1.83,0,1,0,1.83-1.83,1.82,1.82,0,0,0-1.83,1.83m1.35,0a.48.48,0,1,1,.48.47.47.47,0,0,1-.48-.47" transform="translate(-294.81 -281.15)"/><path class="cls-1" d="M341.16,296.94a.68.68,0,0,0,.69.67.67.67,0,0,0,.67-.67.68.68,0,0,0-.67-.69.69.69,0,0,0-.69.69" transform="translate(-294.81 -281.15)"/><path class="cls-1" d="M340,296.94a1.83,1.83,0,1,0,1.83-1.84,1.83,1.83,0,0,0-1.83,1.84m1.35,0a.48.48,0,1,1,.48.47.49.49,0,0,1-.48-.47" transform="translate(-294.81 -281.15)"/><path class="cls-1" d="M343.46,298.12a.68.68,0,1,0,.68-.68.68.68,0,0,0-.68.68" transform="translate(-294.81 -281.15)"/><path class="cls-1" d="M342.31,298.12a1.83,1.83,0,1,0,1.83-1.83,1.83,1.83,0,0,0-1.83,1.83m1.36,0a.47.47,0,1,1,.47.47.47.47,0,0,1-.47-.47" transform="translate(-294.81 -281.15)"/><path class="cls-1" d="M345.2,299.65a.68.68,0,0,0,1.36,0,.68.68,0,1,0-1.36,0" transform="translate(-294.81 -281.15)"/><path class="cls-1" d="M344.05,299.65a1.83,1.83,0,1,0,1.83-1.83,1.84,1.84,0,0,0-1.83,1.83m1.36,0a.47.47,0,1,1,.47.47.47.47,0,0,1-.47-.47" transform="translate(-294.81 -281.15)"/><path class="cls-1" d="M346.24,301.66a.68.68,0,1,0,.68-.68.67.67,0,0,0-.68.68" transform="translate(-294.81 -281.15)"/><path class="cls-1" d="M345.09,301.66a1.83,1.83,0,1,0,1.83-1.83,1.83,1.83,0,0,0-1.83,1.83m1.36,0a.47.47,0,1,1,.47.47.47.47,0,0,1-.47-.47" transform="translate(-294.81 -281.15)"/><path class="cls-1" d="M346.66,304.16a.67.67,0,0,0,.67.68.68.68,0,1,0-.67-.68" transform="translate(-294.81 -281.15)"/><path class="cls-1" d="M345.51,304.16a1.83,1.83,0,1,0,1.82-1.83,1.83,1.83,0,0,0-1.82,1.83m1.36,0a.47.47,0,1,1,.46.47.47.47,0,0,1-.46-.47" transform="translate(-294.81 -281.15)"/><path class="cls-1" d="M346.17,306.66a.68.68,0,1,0,.68-.67.68.68,0,0,0-.68.67" transform="translate(-294.81 -281.15)"/><path class="cls-1" d="M345,306.66a1.83,1.83,0,1,0,1.83-1.82,1.83,1.83,0,0,0-1.83,1.82m1.36,0a.47.47,0,1,1,.47.48.48.48,0,0,1-.47-.48" transform="translate(-294.81 -281.15)"/><path class="cls-1" d="M345.2,308.82a.68.68,0,1,0,.68-.68.67.67,0,0,0-.68.68" transform="translate(-294.81 -281.15)"/><path class="cls-1" d="M344.05,308.82a1.83,1.83,0,1,0,1.83-1.83,1.83,1.83,0,0,0-1.83,1.83m1.36,0a.47.47,0,1,1,.47.47.47.47,0,0,1-.47-.47" transform="translate(-294.81 -281.15)"/><path class="cls-1" d="M344.22,311a.68.68,0,1,0,1.36,0,.68.68,0,1,0-1.36,0" transform="translate(-294.81 -281.15)"/><path class="cls-1" d="M343.07,311a1.83,1.83,0,1,0,1.83-1.84,1.84,1.84,0,0,0-1.83,1.84m1.36,0a.47.47,0,0,1,.47-.48.48.48,0,0,1,.48.48.47.47,0,0,1-.48.46.46.46,0,0,1-.47-.46" transform="translate(-294.81 -281.15)"/><path class="cls-1" d="M342.9,313a.68.68,0,1,0,1.36,0,.68.68,0,1,0-1.36,0" transform="translate(-294.81 -281.15)"/><path class="cls-1" d="M341.76,313a1.83,1.83,0,1,0,1.82-1.83,1.82,1.82,0,0,0-1.82,1.83m1.35,0a.47.47,0,1,1,.47.47.47.47,0,0,1-.47-.47" transform="translate(-294.81 -281.15)"/><path class="cls-1" d="M341.45,315.14a.68.68,0,1,0,1.35,0,.68.68,0,1,0-1.35,0" transform="translate(-294.81 -281.15)"/><path class="cls-1" d="M340.3,315.14a1.83,1.83,0,1,0,1.82-1.82,1.83,1.83,0,0,0-1.82,1.82m1.35,0a.48.48,0,0,1,.47-.47.48.48,0,1,1,0,.95.48.48,0,0,1-.47-.48" transform="translate(-294.81 -281.15)"/><path class="cls-1" d="M340.12,317a.68.68,0,1,0,.68-.68.68.68,0,0,0-.68.68" transform="translate(-294.81 -281.15)"/><path class="cls-1" d="M339,317a1.83,1.83,0,1,0,1.83-1.83A1.83,1.83,0,0,0,339,317m1.36,0a.47.47,0,1,1,.47.47.47.47,0,0,1-.47-.47" transform="translate(-294.81 -281.15)"/><path class="cls-1" d="M338.8,319a.68.68,0,1,0,.68-.68.68.68,0,0,0-.68.68" transform="translate(-294.81 -281.15)"/><path class="cls-1" d="M337.65,319a1.83,1.83,0,1,0,1.83-1.83,1.83,1.83,0,0,0-1.83,1.83m1.36,0a.47.47,0,1,1,.47.47A.47.47,0,0,1,339,319" transform="translate(-294.81 -281.15)"/><path class="cls-1" d="M337.48,320.91a.68.68,0,1,0,.68-.68.68.68,0,0,0-.68.68" transform="translate(-294.81 -281.15)"/><path class="cls-1" d="M336.33,320.91a1.83,1.83,0,1,0,1.83-1.83,1.83,1.83,0,0,0-1.83,1.83m1.36,0a.47.47,0,1,1,.47.47.47.47,0,0,1-.47-.47" transform="translate(-294.81 -281.15)"/><path class="cls-1" d="M336.23,322.93a.68.68,0,1,0,.68-.68.69.69,0,0,0-.68.68" transform="translate(-294.81 -281.15)"/><path class="cls-1" d="M335.08,322.93a1.83,1.83,0,1,0,1.83-1.83,1.83,1.83,0,0,0-1.83,1.83m1.36,0a.47.47,0,1,1,.47.47.47.47,0,0,1-.47-.47" transform="translate(-294.81 -281.15)"/><path class="cls-1" d="M335.12,325.08a.68.68,0,1,0,.68-.68.68.68,0,0,0-.68.68" transform="translate(-294.81 -281.15)"/><path class="cls-1" d="M334,325.08a1.83,1.83,0,1,0,1.83-1.83,1.83,1.83,0,0,0-1.83,1.83m1.36,0a.47.47,0,1,1,.47.47.47.47,0,0,1-.47-.47" transform="translate(-294.81 -281.15)"/><polygon class="cls-1" points="26.46 43.56 24.86 40.79 26.46 38.02 29.66 38.02 31.26 40.79 29.66 43.56 26.46 43.56"/><path class="cls-1" d="M324.47,318h-3.86l-2.26,3.92,2.26,3.92h4.52l2.27-3.92L325.13,318Zm-.67,2.3.94,1.62-.94,1.62h-1.86l-.94-1.62.94-1.62Z" transform="translate(-294.81 -281.15)"/><polygon class="cls-1" points="27.54 41.68 27.02 40.79 27.54 39.89 28.57 39.89 29.09 40.79 28.57 41.68 27.54 41.68"/><polygon class="cls-1" points="28.57 38.74 26.88 38.74 25.69 40.79 26.88 42.83 29.24 42.83 30.42 40.79 29.24 38.74 28.57 38.74"/><polygon class="cls-1" points="29.16 43.07 28.61 42.12 27.51 42.12 26.96 43.07 29.16 43.07"/><polygon class="cls-1" points="28.61 40.97 26.84 40.97 24.96 44.22 31.14 44.22 29.27 40.97 28.61 40.97"/><polygon class="cls-1" points="26.64 42.88 27.2 41.93 26.64 40.98 25.55 40.97 26.64 42.88"/><polygon class="cls-1" points="24.55 41.55 26.64 45.18 28.52 41.93 27.31 39.83 23.56 39.82 24.55 41.55"/><polygon class="cls-1" points="25.51 40.6 26.61 40.6 27.16 39.65 26.62 38.69 25.51 40.6"/><polygon class="cls-1" points="25.62 38.12 23.52 41.74 27.28 41.75 28.49 39.65 26.62 36.39 25.62 38.12"/><polygon class="cls-1" points="29.44 38.69 28.89 39.64 29.44 40.6 30.54 40.6 29.44 38.69"/><polygon class="cls-1" points="28.44 38.12 27.56 39.64 28.77 41.75 32.53 41.75 29.44 36.4 28.44 38.12"/><polygon class="cls-1" points="30.57 40.98 29.47 40.98 28.92 41.93 29.47 42.88 30.57 40.98"/><polygon class="cls-1" points="28.48 40.4 27.59 41.93 29.46 45.18 32.56 39.84 28.81 39.82 28.48 40.4"/><polygon class="cls-1" points="26.95 38.52 27.5 39.46 28.6 39.45 29.14 38.5 26.95 38.52"/><polygon class="cls-1" points="29.13 37.35 24.95 37.38 26.85 40.62 29.27 40.6 31.12 37.33 29.13 37.35"/><polygon class="cls-1" points="29.41 4.94 32.91 4.4 32.95 6.7 29.41 6.07 29.77 9.43 26.69 9.43 27.09 6.07 23.58 6.68 23.61 4.42 27.09 4.94 26.69 2.74 29.77 2.74 29.41 4.94"/><path class="cls-1" d="M324.58,282.75h-4.46s.32,1.72.36,2l-3.19-.48-.07,5,3.36-.58c-.11.9-.37,3.11-.37,3.11h5.65s-.23-2.2-.33-3.11l3.4.61-.07-5-3.25.51c.05-.27.33-2,.33-2Zm-1.35,2.3c-.06.38-.12.75-.13.8H323s-.07-.42-.14-.79Zm-.15,2.38h0c0,.11.11,1.06.21,2h-.5c.11-.94.22-1.89.23-2h.05" transform="translate(-294.81 -281.15)"/><path class="cls-1" d="M329.15,284.27l-3.36.55.35-1.84H320l.39,1.71L317,284l0,5.38,3.53-.7-.47,2.89,6,0-.39-3,3.43.72Zm-4.1,3.8.42,3.19h-4.83l.47-3.15-3.58.73,0-4.17,3.51.62-.47-2h4.92l-.43,2,3.49-.64,0,4.09Z" transform="translate(-294.81 -281.15)"/><path class="cls-1" d="M326.14,281.82l-7.6,0s.31,1.37.32,1.39l-3-.59,0,8.19,3.29-.66-.42,2.58,8.67.05s-.26-2-.35-2.66l3.22.68.05-7.9-3.07.5.3-1.6Zm-1.39,2.31c0,.18-.39,2.09-.39,2.09l3.63-.59c0,.92,0,1.42,0,2.36l-3.65-.77s.33,2.45.43,3.27l-3.34,0c.13-.77.52-3.19.52-3.19l-3.78.75c0-1,0-1.59,0-2.58l3.73.73s-.44-1.94-.47-2h3.33" transform="translate(-294.81 -281.15)"/><path class="cls-1" d="M325.52,282.2h-6.38s.38,1.6.4,1.65l-3.11-.55-.07,6.94,3.37-.67c-.11.76-.43,2.84-.43,2.84h7.49s-.28-2.09-.38-2.88l3.37.71-.06-6.89-3.15.58.36-1.73ZM318.7,286l3.69.65-3.7.74c0-.62,0-.78,0-1.39m5.4-1.55c-.05.28-.48,2.32-.48,2.32h.1c0,.28.32,2.4.44,3.31H322c.13-.89.5-3.34.51-3.41l.11,0-.54-2.23Zm1.2,2,2.15-.39c0,.58,0,.7,0,1.29l-3.29-.69,1.13-.21" transform="translate(-294.81 -281.15)"/><path class="cls-1" d="M325.67,286.73a2.6,2.6,0,1,1-2.6-2.6,2.6,2.6,0,0,1,2.6,2.6" transform="translate(-294.81 -281.15)"/><path class="cls-1" d="M319.32,286.73a3.75,3.75,0,1,0,3.75-3.75,3.76,3.76,0,0,0-3.75,3.75m2.3,0a1.45,1.45,0,1,1,1.45,1.45,1.45,1.45,0,0,1-1.45-1.45" transform="translate(-294.81 -281.15)"/><path class="cls-1" d="M325.2,286.73a2.13,2.13,0,1,1-2.13-2.13,2.13,2.13,0,0,1,2.13,2.13" transform="translate(-294.81 -281.15)"/><path class="cls-1" d="M319.79,286.73a3.28,3.28,0,1,0,3.28-3.28,3.28,3.28,0,0,0-3.28,3.28m2.3,0a1,1,0,1,1,1,1,1,1,0,0,1-1-1" transform="translate(-294.81 -281.15)"/><path class="cls-1" d="M324.27,286.73a1.2,1.2,0,1,1-1.2-1.2,1.2,1.2,0,0,1,1.2,1.2" transform="translate(-294.81 -281.15)"/><path class="cls-1" d="M320.73,286.73a2.35,2.35,0,1,0,2.34-2.35,2.35,2.35,0,0,0-2.34,2.35m2.29,0a.06.06,0,0,1,.05-.05.05.05,0,0,1,.05.05,0,0,0,0,1-.05,0,.05.05,0,0,1-.05,0" transform="translate(-294.81 -281.15)"/><path class="cls-1" d="M337.17,333.09s-10.48-1-14.35-1-14.26.94-14.26.94l-.4-3.59s10.78-.91,14.65-.91,14.91,1,14.91,1Z" transform="translate(-294.81 -281.15)"/><path class="cls-1" d="M308.07,328.3l-1.18.1.65,5.88,1.12-.1c.11,0,10.39-.93,14.16-.93s14.14,1,14.24,1l1.08.11.91-5.85-1.22-.11c-.46,0-11.15-1-15-1s-14.3.88-14.74.92m14.74,1.38c3,0,10.62.62,13.59.88-.09.58-.12.75-.2,1.28-2.79-.25-10.2-.89-13.38-.89s-10.43.6-13.24.84c-.06-.56-.08-.73-.14-1.3,2.89-.23,10.34-.81,13.37-.81" transform="translate(-294.81 -281.15)"/><path class="cls-1" d="M313.05,330.34l.11,1.76a.15.15,0,0,0,0,.1.19.19,0,0,0,.1,0v.07l-.85.06v-.07l.1-.06a.12.12,0,0,0,0-.1l-.15-2.46a.13.13,0,0,0,0-.09l-.11-.06v-.06l1-.06v.06a.11.11,0,0,0-.08.11.13.13,0,0,0,.07.1l1.7,1.57-.11-1.72a.13.13,0,0,0,0-.1.28.28,0,0,0-.11-.05v-.07l.85-.05v.07l-.11.06a.16.16,0,0,0,0,.1l.16,2.45a.13.13,0,0,0,0,.1.23.23,0,0,0,.12,0v.07l-.91.06v-.07c.06,0,.09,0,.09-.1a.38.38,0,0,0-.12-.14Z" transform="translate(-294.81 -281.15)"/><path class="cls-1" d="M311.77,328.35l-.72,0,.13,1.83.13.07c0,.39.05.66.08,1.16l-.14,0,.13,2.1,2.44-.16,1.7-.1.76.69s0-.46,0-.74l.67,0-.07-2.11-.17,0c0-.41,0-.54-.06-.94l.16-.06-.19-2.06-3.15.2h0l-.92.05-.8-.72,0,.77m2.75.35h0Zm-1,4.23-.05.06,0,0,0,0m-1.08.09h0a0,0,0,0,0,0,0Z" transform="translate(-294.81 -281.15)"/><path class="cls-1" d="M317.86,331.29l-1.31.1-.16.42c0,.07,0,.11,0,.14s.05.1.15.12v.07l-1,.07v-.07a.2.2,0,0,0,.12-.07.57.57,0,0,0,.1-.17l.9-2.3a.49.49,0,0,0,0-.18.17.17,0,0,0-.14-.13v-.07l1-.07v.07c-.08,0-.12.07-.12.13a.48.48,0,0,0,0,.14l1.27,2.15a.84.84,0,0,0,.13.18.2.2,0,0,0,.15.06V332L318,332V332c.1,0,.14-.07.13-.14a.24.24,0,0,0-.05-.13Zm-.21-.38-.54-1-.4,1.06Z" transform="translate(-294.81 -281.15)"/><path class="cls-1" d="M317.51,328l-2.16.16s.08,1.34.09,1.42l-.62,1.58-.48.15.14,2.13,3.27-.24h0l2.58-.19-.17-2.16-.53-.06-.87-1.49c0-.05-.1-1.38-.1-1.38Zm-1,2.07,0,0,0,.1Zm2.75,1.63v.09h0v-.08m-1.1,1Z" transform="translate(-294.81 -281.15)"/><polygon class="cls-1" points="21.22 48.36 20.18 51.11 24.7 50.77 22.11 46.02 21.22 48.36"/><path class="cls-1" d="M320.11,330.52l-.41.38.06.78a.12.12,0,0,0,0,.09.19.19,0,0,0,.11.05v.07L319,332v-.07a.21.21,0,0,0,.1-.06.12.12,0,0,0,0-.1l-.18-2.46a.19.19,0,0,0,0-.09.23.23,0,0,0-.11-.05v-.06l.9-.07v.06a.26.26,0,0,0-.1.07.2.2,0,0,0,0,.09l.08,1,1.11-1.06c.05-.05.08-.09.08-.12s0-.06-.13-.07v-.07l1.19-.09v.07a.19.19,0,0,0-.1,0l-.17.16-.16.15-.92.86,1.21,1.26a2.53,2.53,0,0,0,.25.22.42.42,0,0,0,.18.06v.07l-1.13.08v-.07c.07,0,.1-.05.1-.08s0-.07-.11-.15Z" transform="translate(-294.81 -281.15)"/><path class="cls-1" d="M321.8,327.68l-1.63.13-2.59.19.1,1.86.16.07c0,.38,0,.6.08,1.08a.62.62,0,0,0-.14,0l.18,2.14,2-.16h0l3.45-.26-.18-2.2-.7-.05-.36-.38.08-.08.17-.16.52-.21.09-.87-.07-1.24ZM322,329v0h0Zm.36,1-.16.06.16-.06m0,1.58v.06h0v-.05m-3.34,1h0s0,0,0,0Z" transform="translate(-294.81 -281.15)"/><path class="cls-1" d="M324.41,331l-1.31,0-.21.41a.46.46,0,0,0,0,.13c0,.06,0,.11.14.13v.07l-1,0v-.07a.32.32,0,0,0,.13-.05.57.57,0,0,0,.1-.17l1.12-2.2a.38.38,0,0,0,.06-.17c0-.07,0-.11-.12-.15v-.06l1,0v.07c-.09,0-.13.06-.13.12a.27.27,0,0,0,0,.14l1.05,2.26a.64.64,0,0,0,.12.2.21.21,0,0,0,.14.07v.07l-1.07,0v-.07c.09,0,.14-.06.14-.13a.45.45,0,0,0,0-.13Zm-.17-.4-.45-1-.49,1Z" transform="translate(-294.81 -281.15)"/><path class="cls-1" d="M322.17,328.83v.23l-.78,1.53-.49.09,0,2.14,2.46.06h0l3.37.08.07-2.19-.53-.1c-.19-.39-.51-1.1-.73-1.56,0-.05,0-1.39,0-1.39l-3.35-.07Zm1.05.85-1.52,1.8v0l0,.11Z" transform="translate(-294.81 -281.15)"/><polygon class="cls-1" points="27.95 47.91 26.66 50.54 31.19 50.65 29.05 45.67 27.95 47.91"/><path class="cls-1" d="M326.38,330.69l-.08,1a.11.11,0,0,0,0,.1.14.14,0,0,0,.1.06v.07l-.9-.08v-.06a.27.27,0,0,0,.12-.05.13.13,0,0,0,0-.1l.22-2.44a.18.18,0,0,0,0-.11.21.21,0,0,0-.1-.06v-.07l1.81.16a2.86,2.86,0,0,1,.52.08,1.07,1.07,0,0,1,.32.16.66.66,0,0,1,.23.32,1.07,1.07,0,0,1,0,.4c0,.47-.32.72-.86.76l.5.85a2.91,2.91,0,0,0,.19.29.34.34,0,0,0,.17.08v.07l-1-.09v-.07c.07,0,.11,0,.12-.07a.65.65,0,0,0-.09-.19l-.51-.91Zm0-.48,1,.09a1.79,1.79,0,0,0,.31,0,.33.33,0,0,0,.17,0,.32.32,0,0,0,.19-.3.35.35,0,0,0-.14-.33.69.69,0,0,0-.15-.07l-.31,0-1-.08Z" transform="translate(-294.81 -281.15)"/><path class="cls-1" d="M324.62,328.8l-.07.68.13.1c0,.34-.06.79-.1,1.17l-.14,0-.17,2.08,3.19.28h0l2.25.19.21-2.24-.37-.07a2.12,2.12,0,0,0,.28-.88c0-.06,0-.13,0-.19a2.19,2.19,0,0,0-.11-.67,1.8,1.8,0,0,0-.59-.85,1.91,1.91,0,0,0-.74-.37,4.42,4.42,0,0,0-.71-.13h0l-2.94-.25Zm.74,3.58h0l.1.14Zm3-4.33h0m1.33,1.22h0v0h0" transform="translate(-294.81 -281.15)"/><path class="cls-1" d="M325.34,329.35l-.17,1.91,2.12.18.61,0h-.1l.61-.14h-.08a1.46,1.46,0,0,0,.87-1.26.71.71,0,0,0,0-.14,1.48,1.48,0,0,0-.64-1.24,1.56,1.56,0,0,0-.56-.24l-.46-.06h0l-2.12-.18Zm1.57.57v0a.9.9,0,0,1,.08-.25c.11.14.13.15.23.27-.13.1-.14.12-.27.23a.52.52,0,0,1,0-.21m1.09-1.47h0m0,0h0" transform="translate(-294.81 -281.15)"/><path class="cls-1" d="M331.08,331.57l-1.31-.1-.23.39a.79.79,0,0,0-.05.13c0,.06,0,.11.13.14v.07l-1-.07v-.07a.32.32,0,0,0,.13-.05.59.59,0,0,0,.12-.16l1.23-2.14a.38.38,0,0,0,.06-.17c0-.06,0-.11-.11-.15v-.07l1,.08v.07c-.09,0-.13.06-.14.12a.44.44,0,0,0,0,.14l.94,2.32a1.21,1.21,0,0,0,.1.2.37.37,0,0,0,.14.08v.07l-1.07-.09v-.06q.15,0,.15-.12a.44.44,0,0,0,0-.14Zm-.15-.42-.39-1-.55,1Z" transform="translate(-294.81 -281.15)"/><path class="cls-1" d="M329,329.18s0,.23-.05.35c-.24.43-.62,1.08-.83,1.46l-.5.08-.16,2.11,3.27.26h0l2.6.21.08-2.18-.47-.13-.64-1.58c0-.1.05-1.41.05-1.41l-3.22-.24Zm-.62,2.71v.05h0Zm2.83,1.1h0l0,0Z" transform="translate(-294.81 -281.15)"/><polygon class="cls-1" points="34.73 48.38 33.3 50.94 37.81 51.28 35.95 46.2 34.73 48.38"/><path class="cls-1" d="M332.5,332.23l.32-2.44a.16.16,0,0,0,0-.1l-.1-.07v-.07l.9.12v.07a.23.23,0,0,0-.11,0,.13.13,0,0,0,0,.1l-.32,2.43a.13.13,0,0,0,0,.11s0,.05.09.07v.06l-.9-.11v-.07a.34.34,0,0,0,.12,0,.23.23,0,0,0,0-.1" transform="translate(-294.81 -281.15)"/><path class="cls-1" d="M331.57,329.4l-.09.68.13.11c-.05.32-.1.74-.15,1.11h-.11l-.34,2.11,3.19.42.27-1.83-.13-.1c.08-.59.18-1.4.22-1.67l.18-.37.14-1.19-3.16-.41Zm2.63,1.28-.36.18.36-.18m-1,2.48,0,0h0" transform="translate(-294.81 -281.15)"/><path class="cls-1" d="M322.93,305.36,321.12,302v3a.24.24,0,0,0,0,.16.39.39,0,0,0,.18.1v.12H319.9v-.12a.39.39,0,0,0,.18-.1.23.23,0,0,0,.05-.16v-4.16a.29.29,0,0,0-.05-.17.5.5,0,0,0-.18-.09v-.12h1.9v.12a.19.19,0,0,0-.17.2.27.27,0,0,0,.05.16l1.34,2.53,1.36-2.48a.63.63,0,0,0,.09-.25c0-.09-.06-.15-.18-.16v-.12h1.85v.12a.5.5,0,0,0-.18.09.29.29,0,0,0,0,.17V305a.24.24,0,0,0,0,.16.39.39,0,0,0,.18.1v.12h-1.53v-.12a.3.3,0,0,0,.18-.09.23.23,0,0,0,0-.17v-3Z" transform="translate(-294.81 -281.15)"/><path class="cls-1" d="M320,299.29h-1.22v2.14l.23.07v2.8l-.23.06v2.15h3.49l.66,1.24.7-1.24h3.69v-2.14l-.22-.07v-2.81l.22-.06v-2.14H326V297.6l-.95,1.69h-1.9v1.55L323,301l-.08-.16v-1.57h-2l-1-1.92Zm5.11,6.59h0l0,0Z" transform="translate(-294.81 -281.15)"/><path class="cls-1" d="M308.83,316.28c-.41,0-.94-1.83-.94-1.83-.37,6.8,5.35,6.42,5.49,5.83,0-.19-3.31.13-3.21-2.78,0-.26.63,2.34,1.46,1.36s-1.4-1.53-1.3-2.54c.51-5-3.26-4.52-3.14-6.87,0,0-1.57.85,1.65,4,1,1,1.05,2.88,0,2.79" transform="translate(-294.81 -281.15)"/><path class="cls-1" d="M306.65,308.44a2,2,0,0,0-1,1.47c0,.11,0,.23,0,.35,0,1.12.76,2.43,2.31,4l-1.23.15c0,.22,0,.43,0,.64,0,4.36,2.46,6.29,4.85,6.64,1.25.18,2.67,0,2.93-1.13l.12-.49-.3-.44a1.46,1.46,0,0,0-1.13-.56l-.34-.05a1.67,1.67,0,0,0,.08-.49,1.76,1.76,0,0,0-.24-.87,4,4,0,0,0-.8-.92,4,4,0,0,1-.41-.42c0-.31,0-.6,0-.87a5.65,5.65,0,0,0-2.38-4.86c-.66-.56-.8-.72-.8-1v-.05l.11-2.05Zm2.08,9" transform="translate(-294.81 -281.15)"/><path class="cls-1" d="M313.91,319.71c-4.63-4.7-1.66-6.84-5-9.4-1.76-1.36-2.17-4.89-2.65-7.09a4.65,4.65,0,0,0-1-1.85c2.09.09,2.93,8.86,4.66,7.26.77-.72-1.18-3.18-1.85-3.69a5.76,5.76,0,0,1,3.23,3.22c1.09,2.3,0,5,1.17,5.55s.89-1.32.51-2.55c0,0,1.73,2.3,1.28,3.73a9,9,0,0,0-.39,4.82" transform="translate(-294.81 -281.15)"/><path class="cls-1" d="M304.44,302.14a3.39,3.39,0,0,1,.7,1.33l.23,1.12c.46,2.33,1,5.23,2.85,6.63a3.64,3.64,0,0,1,1.52,2.88,10.45,10.45,0,0,0,3.35,6.41l3.11,3.15L315,319.39a8.06,8.06,0,0,1,.38-4.16c.6-1.89-1.11-4.3-1.46-4.76l-.91.47a7.74,7.74,0,0,0-.65-3.27,6.94,6.94,0,0,0-4-3.84l0,.08c-.72-2-1.53-3.62-3-3.69l-2.72-.12Zm6.16,7.44a8,8,0,0,1,.11.84,7.27,7.27,0,0,0-.55-.57,1.94,1.94,0,0,0,.44-.27m1.63,5.24a1.73,1.73,0,0,0,.87.1,12.38,12.38,0,0,0-.32,1.39,6.51,6.51,0,0,1-.55-1.49" transform="translate(-294.81 -281.15)"/><path class="cls-1" d="M337,316.28c.41,0,.94-1.83.94-1.83.36,6.8-5.35,6.42-5.49,5.83-.05-.19,3.3.13,3.2-2.78,0-.26-.63,2.34-1.46,1.36s1.41-1.53,1.31-2.54c-.52-5,3.25-4.52,3.13-6.87,0,0,1.58.85-1.64,4-1,1-1.06,2.88,0,2.79" transform="translate(-294.81 -281.15)"/><path class="cls-1" d="M337.51,309.51a.09.09,0,0,1,0,.05c0,.29-.14.45-.81,1a5.65,5.65,0,0,0-2.38,4.86c0,.27,0,.57,0,.87a4,4,0,0,1-.41.42,4,4,0,0,0-.8.92,1.75,1.75,0,0,0-.23.87,1.62,1.62,0,0,0,.08.49l-.34.05a1.47,1.47,0,0,0-1.14.56l-.29.42.12.52c.26,1.1,1.75,1.29,2.93,1.12,2.39-.35,4.85-2.28,4.85-6.63,0-.22,0-.43,0-.65l-1.23-.15c1.54-1.55,2.31-2.86,2.31-4a2,2,0,0,0,0-.34,2,2,0,0,0-1-1.47l-1.8-1Z" transform="translate(-294.81 -281.15)"/><path class="cls-1" d="M332,319.71c4.62-4.7,1.66-6.84,5-9.4,1.76-1.36,2.16-4.89,2.65-7.09a4.65,4.65,0,0,1,1-1.85c-2.09.09-2.93,8.86-4.67,7.26-.77-.72,1.19-3.18,1.86-3.69a5.76,5.76,0,0,0-3.23,3.22c-1.1,2.3,0,5-1.18,5.55s-.89-1.32-.51-2.55c0,0-1.73,2.3-1.28,3.73a9,9,0,0,1,.4,4.82" transform="translate(-294.81 -281.15)"/><path class="cls-1" d="M340.5,300.22c-1.5.07-2.3,1.71-3,3.69l0-.08a6.94,6.94,0,0,0-4,3.84,7.72,7.72,0,0,0-.65,3.27l-.92-.47c-.34.46-2.05,2.87-1.46,4.77a8.11,8.11,0,0,1,.39,4.15l-1.17,4.26,3.09-3.14a10.39,10.39,0,0,0,3.35-6.41,3.68,3.68,0,0,1,1.53-2.88c1.81-1.4,2.38-4.29,2.84-6.61l.23-1.14a3.54,3.54,0,0,1,.7-1.33l1.8-2Zm-5.24,9.36a1.94,1.94,0,0,0,.44.27,5.81,5.81,0,0,0-.55.57,6,6,0,0,1,.11-.84m-1.63,5.24a7,7,0,0,1-.55,1.49,12.53,12.53,0,0,0-.33-1.39,1.77,1.77,0,0,0,.88-.1" transform="translate(-294.81 -281.15)"/><polygon class="cls-2" points="32.01 11.13 31.25 11.13 25.24 11.09 24.47 11.08 24.59 10.32 24.91 8.38 22.31 8.89 21.52 9.05 21.52 8.24 21.54 2.85 21.54 2.05 22.34 2.21 24.68 2.67 24.52 1.95 24.33 1.14 25.16 1.14 31.33 1.13 32.13 1.13 31.98 1.92 31.81 2.83 34.23 2.44 35 2.31 35 3.1 34.96 8.22 34.96 9.04 34.16 8.87 31.64 8.34 31.91 10.37 32.01 11.13"/><polygon class="cls-1" points="30.64 3.91 34.02 3.35 34.06 7.94 30.51 7.21 30.96 10.19 25.56 10.23 26 7.21 22.5 7.98 22.54 3.27 25.88 3.83 25.48 1.97 31.04 2.01 30.64 3.91"/><path class="cls-2" d="M343.59,298c-5.49-2.81-10.91,1-13.26,8.47a19.79,19.79,0,0,0,.33-2.9v-.22c0-4.22-3.21-8.29-7.71-8.29-5,0-7.76,4.94-8,8.4v.11a17.38,17.38,0,0,0,.24,2.31c-2.44-7-7.73-10.62-13.06-7.88-10.9,5.6,6.59,22.57,8.37,28.61l8.79-.55,0-.14c1.15,0,2.33-.11,3.55-.11s2.51.08,3.72.12l0,.13,9.14.55c2-6.95,19.12-22.87,8-28.61" transform="translate(-294.81 -281.15)"/><path class="cls-2" d="M338,328.74l-1.32-.12c-.1,0-10.18-.94-13.73-.94s-13.86.86-14,.86l-1.08.1v-1.09c0-1.5-2.09-4.49-4.31-7.65-3.82-5.43-8.57-12.2-7.52-17.95a9.26,9.26,0,0,1,4.22-6.05,10.8,10.8,0,0,1,6.13-2.09A9.34,9.34,0,0,1,314.1,298c.19-.39.38-.71.51-.93a9.8,9.8,0,0,1,17.25,1,13.89,13.89,0,0,1,1-1.14,9.63,9.63,0,0,1,6.84-3.12,10.67,10.67,0,0,1,5.65,1.79,9,9,0,0,1,4.41,5.9c1.18,5.84-3.78,12.85-7.77,18.49-2.07,2.91-4.41,6.22-4.19,7.37Z" transform="translate(-294.81 -281.15)"/><path class="cls-2" d="M344.8,296.52c-8.29-5.15-13.26,3.49-13.25,4.15a8.71,8.71,0,0,0-8.5-7.23c-6.94,0-8.86,6.6-8.67,7-2.66-5.38-8-7.48-13.49-3.71-12.25,8.35,8.05,25.14,8.05,30.83,0,0,10.41-.86,14.05-.86s13.82.94,13.82.94c-.94-4.82,21-23,8-31.11m-28.13,28.74-4.7.31c-1.29-6.89-18.36-21.13-8.79-26.5,5-2.8,9.59,2.5,10.83,10.22,2.43,15,2.64,15.93,2.66,16h0m12.27-20c-.46,3.52-2.88,19.88-2.88,19.88-1.21,0-1.82-.17-3.12-.17s-1.92.08-3.13.12L317,305.31c-.51-4.39,2.42-9,6.09-9s6.46,4.28,5.86,8.91m.25,20s.56-3.61,2.57-15.84c1.18-7.17,5.81-13.44,10.89-10.44,9.5,5.6-6.88,19-8.82,26.63Z" transform="translate(-294.81 -281.15)"/><path class="cls-1" d="M344.56,297c-7-4.65-12.33,1.83-13.2,5.67v.05A8.49,8.49,0,0,0,323,294a8.37,8.37,0,0,0-8.36,8.59v.1c-.87-3.84-6.22-10.31-13.22-5.66-11.83,7.85,7.06,23.11,8.06,30,0,0,9.8-.83,13.28-.83s13.47.89,13.47.89c1-6.93,20.14-22.25,8.31-30.1m-33,29.11c-2.07-8.08-18.77-21.53-8.73-27.45,5.15-3,10.24,2,11.71,10.82,2.62,15.8,2.69,16.18,2.69,16.18Zm11.36-.68c-1.24,0-2.43.08-3.58.12,0,0-.61-4.12-2.33-15.95a52.15,52.15,0,0,1-.68-5.58v-.11c.21-3.33,2.51-8.07,6.72-8.07,3.77,0,6.47,3.9,6.47,8V304a51.53,51.53,0,0,1-.67,5.58c-1.73,11.83-2.36,16-2.36,16-1.16,0-2.31-.13-3.56-.13m11.35.66-5.65-.43s0-.38,2.63-16.18c1.46-8.86,6.56-13.85,11.7-10.82,10,5.92-6.62,19.36-8.68,27.43" transform="translate(-294.81 -281.15)"/><path class="cls-2" d="M315.62,305.11a.68.68,0,1,1-.68-.68.68.68,0,0,1,.68.68" transform="translate(-294.81 -281.15)"/><path class="cls-2" d="M316.1,307.4a.68.68,0,1,1-1.35,0,.68.68,0,1,1,1.35,0" transform="translate(-294.81 -281.15)"/><path class="cls-2" d="M316.52,309.83a.68.68,0,1,1-.68-.67.67.67,0,0,1,.68.67" transform="translate(-294.81 -281.15)"/><path class="cls-2" d="M316.94,312.26a.68.68,0,0,1-1.36,0,.68.68,0,0,1,1.36,0" transform="translate(-294.81 -281.15)"/><path class="cls-2" d="M317.28,314.63a.68.68,0,1,1-.67-.68.68.68,0,0,1,.67.68" transform="translate(-294.81 -281.15)"/><path class="cls-2" d="M317.62,317.06a.68.68,0,0,1-.69.68.68.68,0,0,1,0-1.36.69.69,0,0,1,.69.68" transform="translate(-294.81 -281.15)"/><path class="cls-2" d="M318,319.28a.68.68,0,1,1-1.36,0,.68.68,0,1,1,1.36,0" transform="translate(-294.81 -281.15)"/><path class="cls-2" d="M318.33,321.58a.68.68,0,1,1-1.36,0,.68.68,0,0,1,1.36,0" transform="translate(-294.81 -281.15)"/><path class="cls-2" d="M318.67,323.87a.68.68,0,1,1-.68-.68.67.67,0,0,1,.68.68" transform="translate(-294.81 -281.15)"/><path class="cls-2" d="M314.37,303a.68.68,0,0,1-.69.68.68.68,0,0,1,0-1.35.68.68,0,0,1,.69.67" transform="translate(-294.81 -281.15)"/><path class="cls-2" d="M313.19,300.8a.68.68,0,0,1-1.36,0,.68.68,0,0,1,1.36,0" transform="translate(-294.81 -281.15)"/><path class="cls-2" d="M311.8,299a.68.68,0,1,1-.68-.68.68.68,0,0,1,.68.68" transform="translate(-294.81 -281.15)"/><path class="cls-2" d="M309.78,297.39a.68.68,0,1,1-1.36,0,.68.68,0,0,1,1.36,0" transform="translate(-294.81 -281.15)"/><path class="cls-2" d="M307.35,296.63a.68.68,0,1,1-1.36,0,.68.68,0,1,1,1.36,0" transform="translate(-294.81 -281.15)"/><path class="cls-2" d="M304.71,296.91a.68.68,0,0,1-1.36,0,.68.68,0,0,1,1.36,0" transform="translate(-294.81 -281.15)"/><path class="cls-2" d="M302.41,298.09a.68.68,0,1,1-.68-.68.68.68,0,0,1,.68.68" transform="translate(-294.81 -281.15)"/><path class="cls-2" d="M300.68,299.62a.68.68,0,1,1-.68-.68.68.68,0,0,1,.68.68" transform="translate(-294.81 -281.15)"/><path class="cls-2" d="M299.63,301.63A.68.68,0,1,1,299,301a.67.67,0,0,1,.68.68" transform="translate(-294.81 -281.15)"/><path class="cls-2" d="M330.69,300.59a.68.68,0,1,1-1.35,0,.68.68,0,1,1,1.35,0" transform="translate(-294.81 -281.15)"/><path class="cls-2" d="M329.72,298.44a.68.68,0,1,1-.68-.68.68.68,0,0,1,.68.68" transform="translate(-294.81 -281.15)"/><path class="cls-2" d="M328.33,296.84a.68.68,0,1,1-.67-.68.68.68,0,0,1,.67.68" transform="translate(-294.81 -281.15)"/><path class="cls-2" d="M326.32,295.45a.68.68,0,0,1-1.36,0,.68.68,0,0,1,1.36,0" transform="translate(-294.81 -281.15)"/><path class="cls-2" d="M323.88,294.89a.68.68,0,1,1-.68-.68.67.67,0,0,1,.68.68" transform="translate(-294.81 -281.15)"/><path class="cls-2" d="M321.24,295.38a.68.68,0,1,1-.67-.68.68.68,0,0,1,.67.68" transform="translate(-294.81 -281.15)"/><path class="cls-2" d="M319.16,296.56a.68.68,0,0,1-1.36,0,.68.68,0,0,1,1.36,0" transform="translate(-294.81 -281.15)"/><path class="cls-2" d="M317.63,298.3a.68.68,0,1,1-.68-.68.68.68,0,0,1,.68.68" transform="translate(-294.81 -281.15)"/><path class="cls-2" d="M316.66,300.52a.68.68,0,1,1-.68-.68.68.68,0,0,1,.68.68" transform="translate(-294.81 -281.15)"/><path class="cls-2" d="M316.24,302.82a.68.68,0,1,1-1.35,0,.68.68,0,1,1,1.35,0" transform="translate(-294.81 -281.15)"/><path class="cls-2" d="M331,302.82a.68.68,0,1,1-.68-.68.68.68,0,0,1,.68.68" transform="translate(-294.81 -281.15)"/><path class="cls-2" d="M299.22,304.13a.68.68,0,0,1-.69.68.68.68,0,0,1,0-1.35.68.68,0,0,1,.69.67" transform="translate(-294.81 -281.15)"/><path class="cls-2" d="M299.7,306.64A.68.68,0,1,1,299,306a.68.68,0,0,1,.68.68" transform="translate(-294.81 -281.15)"/><path class="cls-2" d="M300.68,308.79a.68.68,0,1,1-.68-.68.68.68,0,0,1,.68.68" transform="translate(-294.81 -281.15)"/><path class="cls-2" d="M301.65,311a.68.68,0,1,1-.68-.68.68.68,0,0,1,.68.68" transform="translate(-294.81 -281.15)"/><path class="cls-2" d="M303,313a.68.68,0,1,1-.68-.68.68.68,0,0,1,.68.68" transform="translate(-294.81 -281.15)"/><path class="cls-2" d="M304.43,315.12a.68.68,0,1,1-.68-.68.68.68,0,0,1,.68.68" transform="translate(-294.81 -281.15)"/><path class="cls-2" d="M305.75,317a.68.68,0,1,1-.68-.68.68.68,0,0,1,.68.68" transform="translate(-294.81 -281.15)"/><path class="cls-2" d="M307.07,319a.68.68,0,1,1-.68-.68.68.68,0,0,1,.68.68" transform="translate(-294.81 -281.15)"/><path class="cls-2" d="M308.39,320.88a.68.68,0,1,1-1.36,0,.68.68,0,1,1,1.36,0" transform="translate(-294.81 -281.15)"/><path class="cls-2" d="M309.64,322.9a.68.68,0,1,1-.68-.68.68.68,0,0,1,.68.68" transform="translate(-294.81 -281.15)"/><path class="cls-2" d="M310.75,325.05a.68.68,0,0,1-1.36,0,.68.68,0,0,1,1.36,0" transform="translate(-294.81 -281.15)"/><path class="cls-2" d="M330.26,305.11a.68.68,0,1,0,.67-.68.67.67,0,0,0-.67.68" transform="translate(-294.81 -281.15)"/><path class="cls-2" d="M329.77,307.4a.68.68,0,1,0,1.36,0,.68.68,0,1,0-1.36,0" transform="translate(-294.81 -281.15)"/><path class="cls-2" d="M329.35,309.83a.68.68,0,1,0,1.36,0,.68.68,0,0,0-1.36,0" transform="translate(-294.81 -281.15)"/><path class="cls-2" d="M328.94,312.26a.68.68,0,1,0,.68-.67.67.67,0,0,0-.68.67" transform="translate(-294.81 -281.15)"/><path class="cls-2" d="M328.59,314.63a.68.68,0,1,0,.68-.68.68.68,0,0,0-.68.68" transform="translate(-294.81 -281.15)"/><path class="cls-2" d="M328.26,317.06a.68.68,0,0,0,1.36,0,.68.68,0,0,0-1.36,0" transform="translate(-294.81 -281.15)"/><path class="cls-2" d="M327.89,319.28a.68.68,0,1,0,.68-.68.68.68,0,0,0-.68.68" transform="translate(-294.81 -281.15)"/><path class="cls-2" d="M327.55,321.58a.68.68,0,1,0,1.35,0,.68.68,0,1,0-1.35,0" transform="translate(-294.81 -281.15)"/><path class="cls-2" d="M327.2,323.87a.68.68,0,1,0,.68-.68.67.67,0,0,0-.68.68" transform="translate(-294.81 -281.15)"/><path class="cls-2" d="M331.51,303a.68.68,0,1,0,.68-.67.67.67,0,0,0-.68.67" transform="translate(-294.81 -281.15)"/><path class="cls-2" d="M332.69,300.8a.68.68,0,1,0,.68-.68.68.68,0,0,0-.68.68" transform="translate(-294.81 -281.15)"/><path class="cls-2" d="M334.08,299a.68.68,0,0,0,1.36,0,.68.68,0,0,0-1.36,0" transform="translate(-294.81 -281.15)"/><path class="cls-2" d="M336.09,297.39a.68.68,0,1,0,.68-.68.68.68,0,0,0-.68.68" transform="translate(-294.81 -281.15)"/><path class="cls-2" d="M338.52,296.63a.69.69,0,0,0,.69.68.68.68,0,1,0-.69-.68" transform="translate(-294.81 -281.15)"/><path class="cls-2" d="M341.16,296.91a.69.69,0,0,0,.69.68.68.68,0,1,0-.69-.68" transform="translate(-294.81 -281.15)"/><path class="cls-2" d="M343.46,298.09a.68.68,0,1,0,.68-.68.68.68,0,0,0-.68.68" transform="translate(-294.81 -281.15)"/><path class="cls-2" d="M345.2,299.62a.68.68,0,0,0,1.36,0,.68.68,0,0,0-1.36,0" transform="translate(-294.81 -281.15)"/><path class="cls-2" d="M346.24,301.63a.68.68,0,1,0,.68-.68.67.67,0,0,0-.68.68" transform="translate(-294.81 -281.15)"/><path class="cls-2" d="M346.66,304.13a.67.67,0,0,0,.67.68.68.68,0,1,0,0-1.35.67.67,0,0,0-.67.67" transform="translate(-294.81 -281.15)"/><path class="cls-2" d="M346.17,306.64a.68.68,0,1,0,.68-.68.69.69,0,0,0-.68.68" transform="translate(-294.81 -281.15)"/><path class="cls-2" d="M345.2,308.79a.68.68,0,0,0,1.36,0,.68.68,0,0,0-1.36,0" transform="translate(-294.81 -281.15)"/><path class="cls-2" d="M344.22,311a.68.68,0,1,0,.68-.68.68.68,0,0,0-.68.68" transform="translate(-294.81 -281.15)"/><path class="cls-2" d="M342.9,313a.68.68,0,1,0,.68-.68.68.68,0,0,0-.68.68" transform="translate(-294.81 -281.15)"/><path class="cls-2" d="M341.45,315.12a.68.68,0,1,0,.67-.68.67.67,0,0,0-.67.68" transform="translate(-294.81 -281.15)"/><path class="cls-2" d="M340.12,317a.68.68,0,1,0,.68-.68.68.68,0,0,0-.68.68" transform="translate(-294.81 -281.15)"/><path class="cls-2" d="M338.8,319a.68.68,0,1,0,.68-.68.68.68,0,0,0-.68.68" transform="translate(-294.81 -281.15)"/><path class="cls-2" d="M337.48,320.88a.68.68,0,1,0,.68-.68.68.68,0,0,0-.68.68" transform="translate(-294.81 -281.15)"/><path class="cls-2" d="M336.23,322.9a.68.68,0,1,0,.68-.68.69.69,0,0,0-.68.68" transform="translate(-294.81 -281.15)"/><path class="cls-2" d="M335.12,325.05a.68.68,0,1,0,.68-.68.68.68,0,0,0-.68.68" transform="translate(-294.81 -281.15)"/><polygon class="cls-1" points="26.46 43.53 24.86 40.76 26.46 37.99 29.66 37.99 31.26 40.76 29.66 43.53 26.46 43.53"/><polygon class="cls-3" points="27.54 41.65 27.02 40.76 27.54 39.86 28.57 39.86 29.09 40.76 28.57 41.65 27.54 41.65"/><polygon class="cls-3" points="29.16 43.05 28.61 42.09 27.51 42.09 26.96 43.05 29.16 43.05"/><polygon class="cls-3" points="26.64 42.85 27.2 41.9 26.64 40.95 25.55 40.95 26.64 42.85"/><polygon class="cls-3" points="25.51 40.57 26.61 40.57 27.16 39.62 26.62 38.66 25.51 40.57"/><polygon class="cls-3" points="29.44 38.66 28.89 39.62 29.44 40.57 30.54 40.57 29.44 38.66"/><polygon class="cls-3" points="30.57 40.95 29.47 40.95 28.92 41.9 29.47 42.85 30.57 40.95"/><polygon class="cls-3" points="26.95 38.49 27.5 39.43 28.6 39.43 29.14 38.47 26.95 38.49"/><polygon class="cls-2" points="29.41 4.91 32.91 4.37 32.95 6.67 29.41 6.04 29.77 9.4 26.69 9.4 27.09 6.04 23.58 6.65 23.61 4.39 27.09 4.91 26.69 2.71 29.77 2.71 29.41 4.91"/><path class="cls-2" d="M329.15,284.25l-3.36.54.35-1.84H320l.39,1.71L317,284l0,5.38,3.53-.7-.47,2.89,6,0-.39-3,3.43.72Zm-4.1,3.79.42,3.19h-4.83l.47-3.14-3.58.72,0-4.17,3.51.62-.47-1.94h4.92l-.43,2,3.49-.65,0,4.09Z" transform="translate(-294.81 -281.15)"/><path class="cls-2" d="M325.67,286.7a2.6,2.6,0,1,1-2.6-2.6,2.6,2.6,0,0,1,2.6,2.6" transform="translate(-294.81 -281.15)"/><path class="cls-1" d="M325.2,286.7a2.13,2.13,0,1,1-2.13-2.13,2.13,2.13,0,0,1,2.13,2.13" transform="translate(-294.81 -281.15)"/><path class="cls-2" d="M324.27,286.7a1.2,1.2,0,1,1-1.2-1.2,1.2,1.2,0,0,1,1.2,1.2" transform="translate(-294.81 -281.15)"/><path class="cls-2" d="M337.17,333.06s-10.48-1-14.35-1-14.26.94-14.26.94l-.4-3.6s10.78-.91,14.65-.91,14.91,1,14.91,1Z" transform="translate(-294.81 -281.15)"/><path class="cls-1" d="M313.05,330.31l.11,1.76a.15.15,0,0,0,0,.1.13.13,0,0,0,.1,0v.07l-.85.06v-.07l.1-.06a.11.11,0,0,0,0-.1l-.15-2.46a.13.13,0,0,0,0-.09.23.23,0,0,0-.11-.05v-.07l1-.06v.06c-.06,0-.08.06-.08.11a.16.16,0,0,0,.07.11l1.7,1.56-.11-1.72a.13.13,0,0,0,0-.1.28.28,0,0,0-.11,0v-.06l.85-.06v.07l-.11.06a.16.16,0,0,0,0,.1l.16,2.46a.12.12,0,0,0,0,.09.23.23,0,0,0,.12.05v.07l-.91.06v-.07c.06,0,.09-.05.09-.1a.49.49,0,0,0-.12-.14Z" transform="translate(-294.81 -281.15)"/><path class="cls-1" d="M317.86,331.27l-1.31.09-.16.43a.27.27,0,0,0,0,.14c0,.06.05.09.15.11v.07l-1,.07v-.07a.2.2,0,0,0,.12-.06.88.88,0,0,0,.1-.18l.9-2.3a.49.49,0,0,0,0-.18c0-.06-.06-.1-.14-.13v-.06l1-.08v.07c-.08,0-.12.07-.12.13a.48.48,0,0,0,0,.14l1.27,2.15a1.46,1.46,0,0,0,.13.19.25.25,0,0,0,.15.05v.07L318,332v-.07c.1,0,.14-.07.13-.14a.24.24,0,0,0-.05-.13Zm-.21-.39-.54-1-.4,1.05Z" transform="translate(-294.81 -281.15)"/><path class="cls-1" d="M320.11,330.49l-.41.38.06.78s0,.08,0,.09a.19.19,0,0,0,.11.05v.07l-.91.07v-.07a.16.16,0,0,0,.1-.06.11.11,0,0,0,0-.1l-.18-2.45a.19.19,0,0,0,0-.1.23.23,0,0,0-.11,0V329l.9-.07V329a.26.26,0,0,0-.1.07.22.22,0,0,0,0,.1l.08,1,1.11-1.06c.05,0,.08-.09.08-.12s0-.06-.13-.07v-.07l1.19-.09v.07a.34.34,0,0,0-.1,0l-.17.16-.16.15-.92.86,1.21,1.26a1.63,1.63,0,0,0,.25.22.32.32,0,0,0,.18.06v.07l-1.13.09v-.07c.07,0,.1,0,.1-.09s0-.07-.11-.15Z" transform="translate(-294.81 -281.15)"/><path class="cls-1" d="M324.41,331l-1.31,0-.21.4a.58.58,0,0,0,0,.13c0,.06,0,.11.14.13v.07l-1,0v-.07a.22.22,0,0,0,.13-.05.57.57,0,0,0,.1-.17l1.12-2.2a.38.38,0,0,0,.06-.17c0-.07,0-.11-.12-.15v-.06l1,0v.07c-.09,0-.13.06-.13.12a.27.27,0,0,0,0,.14l1.05,2.27a.69.69,0,0,0,.12.19.21.21,0,0,0,.14.07v.07l-1.07,0v-.07c.09,0,.14-.06.14-.13a.45.45,0,0,0,0-.13Zm-.17-.4-.45-1-.49,1Z" transform="translate(-294.81 -281.15)"/><path class="cls-1" d="M326.38,330.66l-.08,1a.11.11,0,0,0,0,.1.14.14,0,0,0,.1.06v.07l-.9-.07v-.07a.27.27,0,0,0,.12,0,.12.12,0,0,0,0-.09l.22-2.45a.18.18,0,0,0,0-.11.21.21,0,0,0-.1-.06v-.07l1.81.16a2.13,2.13,0,0,1,.52.09.86.86,0,0,1,.32.15.64.64,0,0,1,.23.33,1,1,0,0,1,0,.39.79.79,0,0,1-.86.76l.5.85a2.91,2.91,0,0,0,.19.29.34.34,0,0,0,.17.08v.07l-1-.09v-.07c.07,0,.11,0,.12-.06a.57.57,0,0,0-.09-.2l-.51-.9Zm0-.47,1,.08a1.79,1.79,0,0,0,.31,0,.47.47,0,0,0,.17,0,.33.33,0,0,0,.19-.31.35.35,0,0,0-.14-.33.39.39,0,0,0-.15-.06,2.19,2.19,0,0,0-.31-.05l-1-.08Z" transform="translate(-294.81 -281.15)"/><path class="cls-1" d="M331.08,331.54l-1.31-.1-.23.39a.79.79,0,0,0-.05.13c0,.06,0,.11.13.14v.07l-1-.07V332a.22.22,0,0,0,.13,0,.59.59,0,0,0,.12-.16l1.23-2.14a.35.35,0,0,0,.06-.17c0-.06,0-.11-.11-.15v-.06l1,.07v.07c-.09,0-.13.06-.14.12a.44.44,0,0,0,0,.14L332,332a.9.9,0,0,0,.1.2.27.27,0,0,0,.14.08v.07l-1.07-.09v-.06q.15,0,.15-.12a.5.5,0,0,0,0-.14Zm-.15-.41-.39-1.06-.55,1Z" transform="translate(-294.81 -281.15)"/><path class="cls-1" d="M332.5,332.2l.32-2.43a.2.2,0,0,0,0-.11l-.1-.06v-.07l.9.12v.06l-.11,0a.13.13,0,0,0,0,.1l-.32,2.43a.13.13,0,0,0,0,.11s0,.05.09.07v.07l-.9-.12v-.07l.12,0a.19.19,0,0,0,0-.1" transform="translate(-294.81 -281.15)"/><path class="cls-1" d="M322.93,305.33l-1.81-3.39v3a.29.29,0,0,0,0,.17.38.38,0,0,0,.18.09v.12H319.9v-.12a.38.38,0,0,0,.18-.09.29.29,0,0,0,.05-.17v-4.16a.29.29,0,0,0-.05-.17.5.5,0,0,0-.18-.09v-.12h1.9v.12a.19.19,0,0,0-.17.2.27.27,0,0,0,.05.16l1.34,2.53,1.36-2.48a.66.66,0,0,0,.09-.24c0-.1-.06-.16-.18-.17v-.12h1.85v.12a.5.5,0,0,0-.18.09.29.29,0,0,0,0,.17V305a.29.29,0,0,0,0,.17.38.38,0,0,0,.18.09v.12h-1.53v-.12a.3.3,0,0,0,.18-.09.23.23,0,0,0,0-.17v-3Z" transform="translate(-294.81 -281.15)"/><path class="cls-3" d="M308.83,316.25c-.41,0-.94-1.83-.94-1.83-.37,6.8,5.35,6.42,5.49,5.83,0-.19-3.31.13-3.21-2.78,0-.26.63,2.35,1.46,1.36.71-.84-1.4-1.53-1.3-2.54.51-5-3.26-4.52-3.14-6.87,0,0-1.57.85,1.65,4,1,1,1.05,2.88,0,2.79" transform="translate(-294.81 -281.15)"/><path class="cls-3" d="M313.91,319.68c-4.63-4.7-1.66-6.84-5-9.4-1.76-1.35-2.17-4.89-2.65-7.08a4.65,4.65,0,0,0-1-1.86c2.09.1,2.93,8.86,4.66,7.26.77-.71-1.18-3.18-1.85-3.69a5.76,5.76,0,0,1,3.23,3.22c1.09,2.3,0,5,1.17,5.55s.89-1.32.51-2.55c0,0,1.73,2.3,1.28,3.73a9,9,0,0,0-.39,4.82" transform="translate(-294.81 -281.15)"/><path class="cls-3" d="M337,316.25c.41,0,.94-1.83.94-1.83.36,6.8-5.35,6.42-5.49,5.83-.05-.19,3.3.13,3.2-2.78,0-.26-.63,2.35-1.46,1.36-.7-.84,1.41-1.53,1.31-2.54-.52-5,3.25-4.52,3.13-6.87,0,0,1.58.85-1.64,4-1,1-1.06,2.88,0,2.79" transform="translate(-294.81 -281.15)"/><path class="cls-3" d="M332,319.68c4.62-4.7,1.66-6.84,5-9.4,1.76-1.35,2.16-4.89,2.65-7.08a4.65,4.65,0,0,1,1-1.86c-2.09.1-2.93,8.86-4.67,7.26-.77-.71,1.19-3.18,1.86-3.69a5.76,5.76,0,0,0-3.23,3.22c-1.1,2.3,0,5-1.18,5.55s-.89-1.32-.51-2.55c0,0-1.73,2.3-1.28,3.73a9,9,0,0,1,.4,4.82" transform="translate(-294.81 -281.15)"/><rect class="cls-1" x="64.25" y="41.78" width="48.19" height="9.01"/><path class="cls-1" d="M407.25,322H358.12v10.89H408.2V322Zm-.94,1.89,0,7.12H360v-7.12h46.31Z" transform="translate(-294.81 -281.15)"/><rect class="cls-1" x="177.75" y="41.78" width="48.19" height="9.01"/><path class="cls-1" d="M520.75,322H471.62v10.89h50.07V322Zm-.94,1.89,0,7.12H473.5v-7.12h46.31Z" transform="translate(-294.81 -281.15)"/><polygon class="cls-1" points="64.28 13.3 74.31 13.3 78.18 28.32 82.02 13.3 92.04 13.3 92.04 37.98 85.79 37.98 85.79 19.16 80.98 37.98 75.33 37.98 70.53 19.16 70.53 37.98 64.28 37.98 64.28 13.3"/><path class="cls-1" d="M386.85,293.52H376.1L373,305.68l-3.14-12.16h-11.7v26.56h8.13V307.81l3.13,12.27h7.12l3.14-12.28v12.28h8.12V293.52Zm-.94,1.88v22.79h-4.36V300.31l-1.86-.23s-4.29,16.8-4.63,18.11h-4.19c-.33-1.31-4.62-18.11-4.62-18.11l-1.85.23v17.88H360V295.4h8.35l4.6,17.86,4.57-17.86Z" transform="translate(-294.81 -281.15)"/><polygon class="cls-1" points="96.89 13.3 117.32 13.3 117.32 18.57 104.53 18.57 104.53 22.49 116.4 22.49 116.4 27.52 104.53 27.52 104.53 32.39 117.69 32.39 117.69 37.98 96.89 37.98 96.89 13.3"/><path class="cls-1" d="M412.13,293.52H390.76v26.56h22.69V312.6H400.28v-3h11.87v-6.91H400.28v-2h12.8v-7.15Zm-.94,1.88v3.38H398.4v5.81h11.87v3.15H398.4v6.75h13.16v3.7H392.64V295.4Z" transform="translate(-294.81 -281.15)"/><polygon class="cls-1" points="156.97 37.26 149.31 37.26 144.3 27.5 143.84 26.6 143.15 27.34 139.21 31.46 139.01 31.67 139.01 31.96 139.01 37.26 132.82 37.26 132.82 14.02 139.01 14.02 139.01 22.63 139.01 24.57 140.27 23.1 148.04 14.02 156.16 14.02 148.33 22.11 147.94 22.52 148.23 22.99 156.97 37.26"/><path class="cls-1" d="M451,294.23h-8.55l-7.66,8.95v-8.95h-8.07v25.13h8.07V313.2l3.66-3.83,5.12,10h9.93l-9.53-15.56,9.25-9.57Zm-2.22,1.89-6.28,6.49-.89.93.66,1.09,7.86,12.85h-5.4L440,308.23l-1.07-2.09-1.61,1.7L433.34,312l-.46.49v5h-4.3V296.12h4.3v12.15l2.92-3.41,7.49-8.74Z" transform="translate(-294.81 -281.15)"/><path class="cls-1" d="M452.66,294.46l-9,9.31,9.41,15.36h-9.39L438.48,309l-3.94,4.13v6h-7.63V294.46h7.63v9.32l8-9.32Zm-3.39,1.44h-6.08l-7.56,8.82-2.53,2.95V295.9h-4.75v21.8h4.75v-5.17l.4-.41,3.94-4.13,1.4-1.47.92,1.81,4.8,9.37h5.94l-8.07-13.18-.58-.95.78-.8Z" transform="translate(-294.81 -281.15)"/><path class="cls-1" d="M452.67,293.52H442.09l-6.61,7.71v-7.71H426v26.56h9.51v-6.59l2.77-2.9c.94,1.85,4.85,9.49,4.85,9.49h11.65l-9.91-16.18,10.05-10.38Zm-2.22,1.88-8,8.24,8.91,14.55h-7.13c-.48-.92-5.55-10.81-5.55-10.81l-5.11,5.35v5.46h-5.74V295.4h5.74v10.93L443,295.4Z" transform="translate(-294.81 -281.15)"/><path class="cls-1" d="M449.27,295h-6.52L434,305.13V295h-6.63v23.69H434v-5.73l.14-.14,4.42-4.64c.14.29.32.63.32.63l5.06,9.88h8.2L443,303.7l.27-.28,8.19-8.47Zm-2.22,1.89-5.1,5.28-1.28,1.32s6.75,11,8.15,13.31h-3.69l-4.53-8.85-1.53-3-2.31,2.43-3.94,4.13-.4.41-.26.28v4.59H429.3V296.84h2.86v13.38l4.19-4.89,7.27-8.49Z" transform="translate(-294.81 -281.15)"/><rect class="cls-1" x="161.8" y="14.02" width="6.2" height="23.24"/><path class="cls-1" d="M462.82,294.23h-7.15v25.13h8.09V294.23Zm-.94,1.89,0,21.36h-4.32V296.12h4.32Z" transform="translate(-294.81 -281.15)"/><path class="cls-1" d="M463.54,319.14H455.9V294.46h7.64ZM462.1,295.9h-4.76v21.79h4.76Z" transform="translate(-294.81 -281.15)"/><path class="cls-1" d="M463.54,293.52H455v26.56h9.52V293.52Zm-.94,1.88,0,22.79h-5.76V295.4h5.76Z" transform="translate(-294.81 -281.15)"/><path class="cls-1" d="M462.1,295h-5.7v23.69H463V295Zm-.94,1.89,0,19.91h-2.88V296.84h2.88Z" transform="translate(-294.81 -281.15)"/><polygon class="cls-1" points="197.13 37.26 191.04 37.26 182.01 24.02 180.7 22.09 180.7 24.43 180.7 37.26 174.97 37.26 174.97 14.02 180.99 14.02 190.06 27.36 191.38 29.29 191.38 26.95 191.38 14.02 197.13 14.02 197.13 37.26"/><path class="cls-1" d="M491.94,294.23h-6.69v13.16l-8.95-13.16h-7.46v25.13h7.61V306.3l8.91,13.06h7.52V294.23Zm-.94,1.89v21.36h-4.65c-.52-.78-11.78-17.28-11.78-17.28v17.28h-3.85V296.12h4.58l8.8,12.93,3,4.45V296.12Z" transform="translate(-294.81 -281.15)"/><path class="cls-1" d="M492.66,294.46v24.67h-7.19l-9.24-13.55v13.55h-7.17V294.46h7.12l9.29,13.65V294.46Zm-1.44,1.44h-4.31v16.88l-2.63-3.86-8.86-13H470.5v21.8h4.29V300.92l2.63,3.85,8.81,12.93h5Z" transform="translate(-294.81 -281.15)"/><path class="cls-1" d="M492.66,293.52h-8.13v11.53l-7.85-11.53h-8.56v26.56h9.05V308.64L485,320.08h8.62V293.52Zm-.94,1.88v22.79H486l-10.68-15.66v15.66H470V295.4h5.68l10.74,15.76V295.4Z" transform="translate(-294.81 -281.15)"/><path class="cls-1" d="M491.22,295H486v14.77l-.91-1.33L475.92,295h-6.36v23.69h6.17V304l.91,1.33,9.1,13.34h6.42V295Zm-.94,1.89v19.91h-3.55l-8.53-12.51-4.35-6.38v18.89h-2.41V296.84h3.48l8.58,12.61,4.35,6.39v-19Z" transform="translate(-294.81 -281.15)"/><path class="cls-1" d="M509.76,318.84a14.36,14.36,0,0,1-6.82-1.42,9.54,9.54,0,0,1-4-4.15,14,14,0,0,1-1.45-6.48,13.59,13.59,0,0,1,1.58-6.67,10.09,10.09,0,0,1,4.56-4.24,15.26,15.26,0,0,1,6.44-1.12,18.48,18.48,0,0,1,5.87.69,7.32,7.32,0,0,1,3.07,2.09,9,9,0,0,1,1.63,2.92l-6,1.06a4.54,4.54,0,0,0-1.59-1.92,5.57,5.57,0,0,0-3.18-.86,5.67,5.67,0,0,0-4.54,2c-1.1,1.3-1.66,3.31-1.66,6,0,2.88.55,4.91,1.68,6.2a6,6,0,0,0,4.74,2,9,9,0,0,0,2.66-.4,14.13,14.13,0,0,0,2.81-1.33l.35-.21v-3.45h-5.1v-3.7H521.2v9.42a23.12,23.12,0,0,1-5.49,2.84,19.7,19.7,0,0,1-6,.8" transform="translate(-294.81 -281.15)"/><path class="cls-1" d="M503.24,295a11,11,0,0,0-5,4.63,14.38,14.38,0,0,0-1.7,7.13,14.93,14.93,0,0,0,1.55,6.91,10.48,10.48,0,0,0,4.38,4.55,15.22,15.22,0,0,0,7.27,1.53,20.65,20.65,0,0,0,6.24-.85,23.51,23.51,0,0,0,5.72-2.95l.42-.28V304.84H509.91v5.58H515v2a13.24,13.24,0,0,1-2.5,1.18,7.89,7.89,0,0,1-2.38.36,5.09,5.09,0,0,1-4-1.64c-1-1.12-1.45-2.94-1.45-5.58,0-2.44.48-4.25,1.43-5.37a4.74,4.74,0,0,1,3.83-1.66,4.66,4.66,0,0,1,2.65.7,3.66,3.66,0,0,1,1.26,1.53l.3.66,7.78-1.38-.36-1.05a10.07,10.07,0,0,0-1.81-3.21,8.08,8.08,0,0,0-3.45-2.36,19.27,19.27,0,0,0-6.2-.76,16.11,16.11,0,0,0-6.84,1.22m.15,21.57a8.7,8.7,0,0,1-3.61-3.76,13.25,13.25,0,0,1-1.34-6,12.67,12.67,0,0,1,1.46-6.21,9.18,9.18,0,0,1,4.15-3.85,14.32,14.32,0,0,1,6-1,17.8,17.8,0,0,1,5.55.64,6.25,6.25,0,0,1,2.68,1.82,7.69,7.69,0,0,1,1,1.57l-4.13.74a5.49,5.49,0,0,0-1.57-1.65,6.48,6.48,0,0,0-3.71-1,6.61,6.61,0,0,0-5.26,2.32c-1.25,1.47-1.89,3.69-1.89,6.59,0,3.12.63,5.35,1.92,6.82a6.93,6.93,0,0,0,5.45,2.28,9.67,9.67,0,0,0,3-.45,14.83,14.83,0,0,0,3-1.41l.81-.49v-4.93h-5.1v-1.81h8.46v8a20.89,20.89,0,0,1-4.83,2.45,18.73,18.73,0,0,1-5.66.76,13.51,13.51,0,0,1-6.37-1.3" transform="translate(-294.81 -281.15)"/><path class="cls-1" d="M510.08,294a18.78,18.78,0,0,1,6.12.74,8,8,0,0,1,3.37,2.29,10.3,10.3,0,0,1,2,3.95l-7.36,1.31a3.91,3.91,0,0,0-1.54-2.13,4.74,4.74,0,0,0-2.77-.74,5,5,0,0,0-4,1.74c-1,1.16-1.49,3-1.49,5.51q0,4,1.5,5.73a5.32,5.32,0,0,0,4.2,1.71,7.84,7.84,0,0,0,2.44-.37,13.49,13.49,0,0,0,2.66-1.26V310.2h-5.1v-5.14h11.79v10.52a23.87,23.87,0,0,1-6,3.14,20.14,20.14,0,0,1-6.17.84,15.1,15.1,0,0,1-7.16-1.5,10.28,10.28,0,0,1-4.29-4.46,14.66,14.66,0,0,1-1.53-6.81,14.18,14.18,0,0,1,1.67-7,10.75,10.75,0,0,1,4.88-4.54,15.89,15.89,0,0,1,6.75-1.19m0,1.43a14.61,14.61,0,0,0-6.13,1.06,9.33,9.33,0,0,0-4.24,3.94,12.76,12.76,0,0,0-1.49,6.32,13.27,13.27,0,0,0,1.37,6.15,8.73,8.73,0,0,0,3.7,3.85,13.63,13.63,0,0,0,6.47,1.33,18.87,18.87,0,0,0,5.73-.77,21.36,21.36,0,0,0,5-2.54V306.5h-8.91v2.26h5.1v4.58l-.7.42a14.42,14.42,0,0,1-3,1.39,9.48,9.48,0,0,1-2.88.44,6.68,6.68,0,0,1-5.28-2.21c-1.25-1.42-1.86-3.61-1.86-6.67,0-2.89.6-5,1.83-6.45a6.4,6.4,0,0,1,5.09-2.24,6.28,6.28,0,0,1,3.58,1,5.23,5.23,0,0,1,1.59,1.72l4.57-.82a8.06,8.06,0,0,0-1.17-1.89,6.51,6.51,0,0,0-2.77-1.88,17.58,17.58,0,0,0-5.63-.66" transform="translate(-294.81 -281.15)"/><path class="cls-1" d="M502.93,294.38a11.8,11.8,0,0,0-5.3,4.93,15.11,15.11,0,0,0-1.79,7.48,15.69,15.69,0,0,0,1.63,7.24,11.2,11.2,0,0,0,4.68,4.85,15.86,15.86,0,0,0,7.61,1.62,21.52,21.52,0,0,0,6.46-.88,25.25,25.25,0,0,0,6.23-3.26l.41-.28v-12H509.19v7h5.1V312a10.82,10.82,0,0,1-2,.91,7,7,0,0,1-2.16.33,4.37,4.37,0,0,1-3.49-1.4c-.84-1-1.27-2.67-1.27-5.1,0-2.27.42-3.92,1.26-4.9a4.06,4.06,0,0,1,3.28-1.41,4,4,0,0,1,2.25.57,3.08,3.08,0,0,1,1.17,1.65l.25.79,9.19-1.64-.28-1a11.27,11.27,0,0,0-2.21-4.31,8.85,8.85,0,0,0-3.75-2.57,19.64,19.64,0,0,0-6.45-.8,16.9,16.9,0,0,0-7.15,1.29m.12,22.85a9.37,9.37,0,0,1-3.9-4.07,13.68,13.68,0,0,1-1.43-6.37,13.39,13.39,0,0,1,1.55-6.56,9.84,9.84,0,0,1,4.47-4.15,15.1,15.1,0,0,1,6.34-1.1,18.38,18.38,0,0,1,5.8.68,6.93,6.93,0,0,1,3,2,8.52,8.52,0,0,1,1.49,2.6l-5.53,1a4.77,4.77,0,0,0-1.59-1.85,5.81,5.81,0,0,0-3.31-.91,5.9,5.9,0,0,0-4.71,2.08c-1.15,1.35-1.72,3.35-1.72,6.12,0,2.94.57,5,1.74,6.35a6.23,6.23,0,0,0,4.91,2,9.11,9.11,0,0,0,2.73-.41,14.28,14.28,0,0,0,2.85-1.35l.46-.28v-3.8h-5.1V306H521v9.08a22.5,22.5,0,0,1-5.34,2.75,19.57,19.57,0,0,1-5.88.78,14.15,14.15,0,0,1-6.71-1.38" transform="translate(-294.81 -281.15)"/><path class="cls-1" d="M503.54,295.68a10.19,10.19,0,0,0-4.65,4.33,13.71,13.71,0,0,0-1.61,6.78,14.33,14.33,0,0,0,1.47,6.58,9.67,9.67,0,0,0,4.09,4.25,14.61,14.61,0,0,0,6.92,1.44,19.84,19.84,0,0,0,6-.81A22.66,22.66,0,0,0,521,315.6l.43-.28v-9.76H510.63v4.14h5.1v3.1l-.24.15a13.1,13.1,0,0,1-2.77,1.3,8.26,8.26,0,0,1-2.59.4,5.8,5.8,0,0,1-4.57-1.89c-1.1-1.24-1.63-3.23-1.63-6.05,0-2.66.52-4.57,1.61-5.84a5.48,5.48,0,0,1,4.37-1.91,5.37,5.37,0,0,1,3.05.82,4.28,4.28,0,0,1,1.3,1.41l.33.57,6.42-1.14-.5-1.1a8.46,8.46,0,0,0-1.32-2.12,7.45,7.45,0,0,0-3.16-2.16,18.64,18.64,0,0,0-5.95-.71,15.53,15.53,0,0,0-6.54,1.15m.19,20.28a7.82,7.82,0,0,1-3.3-3.45,12.36,12.36,0,0,1-1.26-5.72,11.94,11.94,0,0,1,1.36-5.86,8.37,8.37,0,0,1,3.83-3.55,13.69,13.69,0,0,1,5.72-1,16.48,16.48,0,0,1,5.3.59,5.59,5.59,0,0,1,2.38,1.62,4.36,4.36,0,0,1,.43.58l-2.67.47a6.09,6.09,0,0,0-1.5-1.45,7.13,7.13,0,0,0-4.11-1.16,7.28,7.28,0,0,0-5.8,2.58c-1.39,1.62-2.07,3.93-2.07,7.06,0,3.3.69,5.69,2.1,7.29a7.59,7.59,0,0,0,6,2.53,10.34,10.34,0,0,0,3.16-.48,14.91,14.91,0,0,0,3.16-1.49l1.16-.69v-6.06h-5.09v-.37h7v6.86a19.33,19.33,0,0,1-4.32,2.15,18.09,18.09,0,0,1-5.45.72,12.73,12.73,0,0,1-6-1.21" transform="translate(-294.81 -281.15)"/><polygon class="cls-1" points="121.83 13.3 129.46 13.3 129.46 22.63 137.45 13.3 147.58 13.3 138.58 22.62 147.99 37.98 138.6 37.98 133.4 27.83 129.46 31.96 129.46 37.98 121.83 37.98 121.83 13.3"/><path class="cls-1" d="M442.4,293.52H431.83l-6.62,7.71v-7.71H415.7v26.56h9.51v-6.59l2.77-2.9c.94,1.85,4.86,9.49,4.86,9.49h11.64l-9.9-16.18,10-10.38Zm-2.22,1.88-8,8.24,8.91,14.55H434c-.48-.92-5.54-10.81-5.54-10.81l-5.12,5.35v5.46h-5.74V295.4h5.74v10.93l9.36-10.93Z" transform="translate(-294.81 -281.15)"/><path class="cls-1" d="M420.6,323.23c0,.1-.1.16-.3.2q-.15.7-.51,1.86a9.38,9.38,0,0,1-.75,1.91,11.62,11.62,0,0,1,2.11,1.48l-.8,1.15a17.54,17.54,0,0,0-2-1.44,14.08,14.08,0,0,1-4.58,4.11l-1.1-1a15.84,15.84,0,0,0,2.61-1.82,10,10,0,0,0,1.81-2.05,15.93,15.93,0,0,0-2.41-1.24l.55-1.1c.4.16.87.37,1.41.62l1.15.57a14,14,0,0,0,1.21-3.91l1.26.38c.23.06.35.16.35.28" transform="translate(-294.81 -281.15)"/><path class="cls-1" d="M418.07,322.38a20,20,0,0,1-.74,2.82l-.3-.14c-.54-.26-1-.47-1.46-.65l-.8-.32-1.4,2.77.93.39c.5.21,1,.44,1.39.66a11.38,11.38,0,0,1-1,1.06,14.8,14.8,0,0,1-2.44,1.7l-1.16.64,2.6,2.36.6-.36a15.8,15.8,0,0,0,4.31-3.65c.38.27.78.56,1.19.9l.79.64,1.85-2.65-.59-.55a10.54,10.54,0,0,0-1.55-1.17,12.88,12.88,0,0,0,.45-1.28v0c.18-.58.32-1.07.42-1.49a1,1,0,0,0,.43-.85,1.23,1.23,0,0,0-1.05-1.19h0l-2.25-.69Z" transform="translate(-294.81 -281.15)"/><path class="cls-1" d="M423.76,328.92a17.8,17.8,0,0,0-1.3-2.58l1.15-.57A16.08,16.08,0,0,1,425,328.2Zm7.24-3c0,.09-.08.14-.25.14-.3,2.29-.92,3.89-1.86,4.78a11.37,11.37,0,0,1-3.92,2.29l-.9-1.24a11.14,11.14,0,0,0,3.77-1.91c.87-.83,1.35-2.39,1.46-4.68l1.3.34c.27.06.4.15.4.28m-3.47,1.72-1.3.57c-.44-.92-.87-1.76-1.31-2.53l1.16-.57a12,12,0,0,1,1.45,2.53" transform="translate(-294.81 -281.15)"/><path class="cls-1" d="M423.2,324.92l-2.07,1,.52.88a17.11,17.11,0,0,1,1.24,2.45l.4,1,2.88-1.71-.34-.77a17,17,0,0,0-1.43-2.57l-.46-.7Z" transform="translate(-294.81 -281.15)"/><path class="cls-1" d="M428.35,325.25c-.11,2.49-.68,3.56-1.14,4a10.15,10.15,0,0,1-3.43,1.71l-1.25.4,2.1,2.87.66-.24a12.58,12.58,0,0,0,4.24-2.49h0a8.23,8.23,0,0,0,2.06-4.82,1,1,0,0,0,.35-.78c0-.28-.12-1-1.13-1.2h0l-2.43-.62Z" transform="translate(-294.81 -281.15)"/><path class="cls-1" d="M425.66,324.26l-2.05,1,.49.87c.42.73.85,1.56,1.28,2.47l.39.82,3-1.32-.39-.86a13.07,13.07,0,0,0-1.57-2.74l-.48-.6Z" transform="translate(-294.81 -281.15)"/><path class="cls-1" d="M437.89,322.47q0,.15-.21.24l.41,1.81,3.72-.42.2,1.33-3.57.43.45,1.86,4.78-.52.2,1.34-4.63.52,1,3.87-1.56.24-.9-3.92-5.18.53-.15-1.39,5-.48-.45-1.86-3.46.34-.21-1.39,3.27-.28-.45-2.25,1.3-.14c.27,0,.42,0,.46.14" transform="translate(-294.81 -281.15)"/><path class="cls-1" d="M437.33,321.39l-2.33.26.45,2.22-3.21.28.47,3.26,3.55-.34h0l-4.89.47.36,3.26,5.27-.54c.24,1,.92,4,.92,4l3.44-.52s-.67-2.72-.95-3.83l4.53-.52-.48-3.19-4.85.53a0,0,0,0,0,0,0l3.48-.42-.48-3.19-3.78.43-.1-.48a1.11,1.11,0,0,0,.12-.49,1.13,1.13,0,0,0-.06-.36,1.24,1.24,0,0,0-1.45-.77m1.45.77,0,.07,0-.07h0" transform="translate(-294.81 -281.15)"/><path class="cls-1" d="M451.81,330.73a13.79,13.79,0,0,1-5.88,1.63.31.31,0,0,1-.36.24c-.13,0-.21-.16-.25-.39l-.2-1.33a14,14,0,0,0,5.58-1.29,7.09,7.09,0,0,0,3.42-4l1.26.87a8.37,8.37,0,0,1-3.57,4.29m-2.57-5.11-1.05,1.05c-.4-.38-.89-.79-1.46-1.24l-1.3-.95.9-1a13.26,13.26,0,0,1,2.91,2.15" transform="translate(-294.81 -281.15)"/><path class="cls-1" d="M453.24,325.23a6,6,0,0,1-3,3.51,13,13,0,0,1-5.2,1.2L444,330l.36,2.38a1.28,1.28,0,0,0,1,1.15h0a1.15,1.15,0,0,0,1-.27,14.46,14.46,0,0,0,5.85-1.7,9.22,9.22,0,0,0,4-4.76l.28-.7-2.86-2Zm-1,6.32h0" transform="translate(-294.81 -281.15)"/><path class="cls-1" d="M445.63,322.84l-1.6,1.78,2.13,1.56c.56.44,1,.83,1.38,1.18l.66.63,2.39-2.38-.7-.67a14.26,14.26,0,0,0-3.12-2.3l-.65-.34Z" transform="translate(-294.81 -281.15)"/><path class="cls-1" d="M461.56,323.28c0,.1-.14.15-.3.15-.17.31-.32.62-.45.9H464l.5-.19,1,.81c.17.16.15.31-.05.43a8.59,8.59,0,0,1-2.21,4.73,12.21,12.21,0,0,1-4.23,3.06l-.9-1.24A12,12,0,0,0,462,329.4a7,7,0,0,0,1.86-3.73H460.1c-.23.38-.57.86-1,1.43a15.58,15.58,0,0,1-1.51,1.63l-1.11-.91a13.49,13.49,0,0,0,2.26-2.53,14.88,14.88,0,0,0,1.41-2.91l1.16.57c.2.09.28.21.25.33m4.07,1.34a9.78,9.78,0,0,0-1.76-1.91l.85-.67a15.57,15.57,0,0,1,1.81,1.82Zm2.31-1.39-.85.77a7.8,7.8,0,0,0-1.66-1.72l.8-.62a8.61,8.61,0,0,1,1.71,1.57" transform="translate(-294.81 -281.15)"/><path class="cls-1" d="M459.26,322.06a14,14,0,0,1-1.31,2.71,12.48,12.48,0,0,1-2.09,2.34l-.83.73,2.6,2.15.61-.58a16.08,16.08,0,0,0,1.59-1.72l0,0c.3-.4.55-.75.76-1.06h2a6,6,0,0,1-1.32,2.13,11,11,0,0,1-3.57,2.32l-1.09.47,2.05,2.81.69-.31a13.3,13.3,0,0,0,4.55-3.28,9.65,9.65,0,0,0,2.39-4.91,1.15,1.15,0,0,0,.22-.57v-.1a1.21,1.21,0,0,0-.4-.9h0l-1.4-1.2-.86.33h-1.36c0-.05,0-.11,0-.16a1.25,1.25,0,0,0-.79-1.13l-1.15-.57-1-.47Z" transform="translate(-294.81 -281.15)"/><path class="cls-1" d="M464.14,321.3l-1.75,1.37.86.75a8.77,8.77,0,0,1,1.59,1.71l.58.9,2.45-2.07-.62-.72a17.38,17.38,0,0,0-1.92-1.92l-.58-.49Z" transform="translate(-294.81 -281.15)"/><path class="cls-1" d="M465.66,320.91l-1.79,1.39,1,.74a6.55,6.55,0,0,1,1.45,1.51l.61.85,2.32-2.08-.59-.69a10,10,0,0,0-1.89-1.75l-.57-.39Z" transform="translate(-294.81 -281.15)"/><path class="cls-1" d="M358.61,332.78h49V322.42h-49Zm48-1.12h-47v-8.11h47Z" transform="translate(-294.81 -281.15)"/><path class="cls-1" d="M472.18,332.78h49V322.42h-49Zm48-1.12h-47v-8.11h47Z" transform="translate(-294.81 -281.15)"/><rect class="cls-1" x="64.25" y="41.76" width="48.19" height="9.01"/><rect class="cls-1" x="177.75" y="41.76" width="48.19" height="9.01"/><polygon class="cls-2" points="64.28 13.28 74.31 13.28 78.18 28.29 82.02 13.28 92.04 13.28 92.04 37.96 85.79 37.96 85.79 19.14 80.98 37.96 75.33 37.96 70.53 19.14 70.53 37.96 64.28 37.96 64.28 13.28"/><polygon class="cls-2" points="96.89 13.28 117.32 13.28 117.32 18.55 104.53 18.55 104.53 22.47 116.4 22.47 116.4 27.5 104.53 27.5 104.53 32.37 117.69 32.37 117.69 37.96 96.89 37.96 96.89 13.28"/><polygon class="cls-1" points="156.97 37.24 149.31 37.24 144.3 27.48 143.84 26.58 143.15 27.31 139.21 31.44 139.01 31.64 139.01 31.93 139.01 37.24 132.82 37.24 132.82 14 139.01 14 139.01 22.6 139.01 24.55 140.27 23.07 148.04 14 156.16 14 148.33 22.09 147.94 22.49 148.23 22.97 156.97 37.24"/><path class="cls-2" d="M452.66,294.43l-9,9.32,9.41,15.36h-9.39L438.48,309l-3.94,4.13v6h-7.63V294.43h7.63v9.33l8-9.33Zm-3.39,1.44h-6.08l-7.56,8.82-2.53,3V295.87h-4.75v21.8h4.75v-5.16l.4-.42,3.94-4.12,1.4-1.47.92,1.8,4.8,9.37h5.94l-8.07-13.17-.58-.95.78-.8Z" transform="translate(-294.81 -281.15)"/><rect class="cls-1" x="161.8" y="14" width="6.2" height="23.24"/><path class="cls-2" d="M463.54,319.11H455.9V294.43h7.64Zm-1.44-23.24h-4.76v21.8h4.76Z" transform="translate(-294.81 -281.15)"/><polygon class="cls-1" points="197.13 37.24 191.04 37.24 182.01 24 180.7 22.07 180.7 24.41 180.7 37.24 174.97 37.24 174.97 14 180.99 14 190.06 27.34 191.38 29.27 191.38 26.93 191.38 14 197.13 14 197.13 37.24"/><path class="cls-2" d="M492.66,294.43v24.68h-7.19l-9.24-13.55v13.55h-7.17V294.43h7.12l9.29,13.65V294.43Zm-1.44,1.44h-4.31v16.89l-2.63-3.87-8.86-13H470.5v21.8h4.29V300.89l2.63,3.86,8.81,12.92h5Z" transform="translate(-294.81 -281.15)"/><path class="cls-1" d="M509.76,318.81a14.37,14.37,0,0,1-6.82-1.41,9.51,9.51,0,0,1-4-4.16,14,14,0,0,1-1.45-6.47,13.56,13.56,0,0,1,1.58-6.67,10.17,10.17,0,0,1,4.56-4.25,15.42,15.42,0,0,1,6.44-1.12,18.43,18.43,0,0,1,5.87.7,7.23,7.23,0,0,1,3.07,2.09,9,9,0,0,1,1.63,2.91l-6,1.06a4.52,4.52,0,0,0-1.59-1.91,5.49,5.49,0,0,0-3.18-.87,5.68,5.68,0,0,0-4.54,2c-1.1,1.29-1.66,3.3-1.66,6,0,2.88.55,4.9,1.68,6.2a6,6,0,0,0,4.74,2,8.7,8.7,0,0,0,2.66-.41,14,14,0,0,0,2.81-1.32l.35-.22v-3.45h-5.1v-3.69H521.2v9.42a22.67,22.67,0,0,1-5.49,2.83,19.7,19.7,0,0,1-6,.8" transform="translate(-294.81 -281.15)"/><path class="cls-2" d="M510.08,294a19.06,19.06,0,0,1,6.12.74,8,8,0,0,1,3.37,2.3,10.23,10.23,0,0,1,2,3.95l-7.36,1.31a4,4,0,0,0-1.54-2.14,4.82,4.82,0,0,0-2.77-.74,5,5,0,0,0-4,1.74c-1,1.17-1.49,3-1.49,5.52q0,4,1.5,5.72a5.29,5.29,0,0,0,4.2,1.72,8.14,8.14,0,0,0,2.44-.37,13.49,13.49,0,0,0,2.66-1.26v-2.33h-5.1V305h11.79v10.52a24.2,24.2,0,0,1-6,3.14,20.47,20.47,0,0,1-6.17.83,15,15,0,0,1-7.16-1.5,10.23,10.23,0,0,1-4.29-4.46,14.59,14.59,0,0,1-1.53-6.8,14.22,14.22,0,0,1,1.67-7,10.79,10.79,0,0,1,4.88-4.53,15.88,15.88,0,0,1,6.75-1.2m0,1.44a14.61,14.61,0,0,0-6.13,1.06,9.22,9.22,0,0,0-4.24,3.94,12.76,12.76,0,0,0-1.49,6.32,13.3,13.3,0,0,0,1.37,6.15,8.78,8.78,0,0,0,3.7,3.85,13.63,13.63,0,0,0,6.47,1.32,18.89,18.89,0,0,0,5.73-.76,21.75,21.75,0,0,0,5-2.54v-8.31h-8.91v2.25h5.1v4.58l-.7.42a14.52,14.52,0,0,1-3,1.4,9.48,9.48,0,0,1-2.88.44,6.68,6.68,0,0,1-5.28-2.21c-1.25-1.43-1.86-3.61-1.86-6.67,0-2.9.6-5,1.83-6.45a6.41,6.41,0,0,1,5.09-2.25,6.28,6.28,0,0,1,3.58,1,5.23,5.23,0,0,1,1.59,1.72l4.57-.82a7.66,7.66,0,0,0-1.17-1.89,6.53,6.53,0,0,0-2.77-1.89,17.93,17.93,0,0,0-5.63-.65" transform="translate(-294.81 -281.15)"/><polygon class="cls-2" points="121.83 13.28 129.46 13.28 129.46 22.6 137.45 13.28 147.58 13.28 138.58 22.59 147.99 37.96 138.6 37.96 133.4 27.81 129.46 31.93 129.46 37.96 121.83 37.96 121.83 13.28"/><path class="cls-2" d="M420.6,323.21c0,.1-.1.16-.3.19q-.15.72-.51,1.86a9.48,9.48,0,0,1-.75,1.92,11.14,11.14,0,0,1,2.11,1.48l-.8,1.14a18.67,18.67,0,0,0-2-1.43,14.3,14.3,0,0,1-4.58,4.11l-1.1-1a15.76,15.76,0,0,0,2.61-1.81,10,10,0,0,0,1.81-2.05,16.9,16.9,0,0,0-2.41-1.25l.55-1.1c.4.17.87.37,1.41.63s.92.45,1.15.57a14.14,14.14,0,0,0,1.21-3.92l1.26.38c.23.07.35.17.35.29" transform="translate(-294.81 -281.15)"/><path class="cls-2" d="M423.76,328.9a17.31,17.31,0,0,0-1.3-2.58l1.15-.58a16.14,16.14,0,0,1,1.36,2.44Zm7.24-3c0,.09-.08.14-.25.14-.3,2.29-.92,3.89-1.86,4.78A11.53,11.53,0,0,1,425,333.1l-.9-1.25a11,11,0,0,0,3.77-1.9c.87-.83,1.35-2.39,1.46-4.68l1.3.33c.27.07.4.16.4.29m-3.47,1.72-1.3.57c-.44-.92-.87-1.77-1.31-2.53l1.16-.58a12.38,12.38,0,0,1,1.45,2.54" transform="translate(-294.81 -281.15)"/><path class="cls-2" d="M437.89,322.45q0,.14-.21.24l.41,1.81,3.72-.43.2,1.34-3.57.43.45,1.86,4.78-.52.2,1.33-4.63.53,1,3.87-1.56.24-.9-3.92-5.18.53-.15-1.39,5-.48L437,326l-3.46.33-.21-1.38,3.27-.29-.45-2.24,1.3-.15c.27,0,.42,0,.46.15" transform="translate(-294.81 -281.15)"/><path class="cls-2" d="M451.81,330.71a14.09,14.09,0,0,1-5.88,1.63.31.31,0,0,1-.36.24c-.13,0-.21-.17-.25-.39l-.2-1.33a13.81,13.81,0,0,0,5.58-1.3,7.07,7.07,0,0,0,3.42-4l1.26.86a8.35,8.35,0,0,1-3.57,4.3m-2.57-5.11-1.05,1c-.4-.38-.89-.79-1.46-1.24s-1-.76-1.3-1l.9-1a13.26,13.26,0,0,1,2.91,2.15" transform="translate(-294.81 -281.15)"/><path class="cls-2" d="M461.56,323.26c0,.1-.14.14-.3.14-.17.32-.32.63-.45.91H464l.5-.19,1,.81c.17.16.15.3-.05.43a8.59,8.59,0,0,1-2.21,4.73,12.21,12.21,0,0,1-4.23,3.06l-.9-1.24a12,12,0,0,0,3.87-2.54,7,7,0,0,0,1.86-3.72H460.1c-.23.38-.57.86-1,1.43a17.88,17.88,0,0,1-1.51,1.63l-1.11-.91a13.54,13.54,0,0,0,2.26-2.54,14.36,14.36,0,0,0,1.41-2.91l1.16.57c.2.1.28.21.25.34m4.07,1.34a9.78,9.78,0,0,0-1.76-1.91l.85-.67a15.45,15.45,0,0,1,1.81,1.81Zm2.31-1.39-.85.77a7.58,7.58,0,0,0-1.66-1.72l.8-.63a9,9,0,0,1,1.71,1.58" transform="translate(-294.81 -281.15)"/><path class="cls-2" d="M358.61,332.76h49V322.4h-49Zm48-1.13h-47v-8.1h47Z" transform="translate(-294.81 -281.15)"/><path class="cls-2" d="M472.18,332.76h49V322.4h-49Zm48-1.13h-47v-8.1h47Z" transform="translate(-294.81 -281.15)"/></svg>