<svg xmlns="http://www.w3.org/2000/svg" viewBox="0 0 120.43 61.38"><defs><style>.cls-1{fill:#fff;}.cls-2{fill:#231815;}.cls-3{fill:#e60012;}</style></defs><title>資產 2</title><g id="圖層_2" data-name="圖層 2"><g id="圖層_1-2" data-name="圖層 1"><rect class="cls-1" x="0.69" y="53.04" width="35.23" height="6.58"/><path class="cls-1" d="M35.92,52.35H0v8H36.61v-8Zm-.69,6.59H1.38V53.73H35.23Z"/><rect class="cls-1" x="83.66" y="53.04" width="35.23" height="6.58"/><path class="cls-1" d="M118.89,52.35H83v8h36.61v-8Zm-.69,6.59H84.35V53.73H118.2Z"/><polygon class="cls-1" points="0.71 32.22 8.04 32.22 10.87 43.2 13.68 32.22 21 32.22 21 50.26 16.44 50.26 16.44 36.5 12.92 50.26 8.79 50.26 5.28 36.5 5.28 50.26 0.71 50.26 0.71 32.22"/><path class="cls-1" d="M21,31.53H13.14s-1.5,5.87-2.27,8.9l-2.29-8.9H0V51H6V42l2.28,9h5.21l2.29-9v9h5.94V31.53Zm-.69,1.38V49.58H17.13V36.5l-1.36-.17s-3.14,12.29-3.38,13.25H9.32C9.08,48.62,6,36.33,6,36.33l-1.36.17V49.58H1.4V32.91H7.51L10.87,46l3.34-13.06Z"/><polygon class="cls-1" points="24.55 32.22 39.49 32.22 39.49 36.07 30.14 36.07 30.14 38.94 38.81 38.94 38.81 42.62 30.14 42.62 30.14 46.18 39.76 46.18 39.76 50.26 24.55 50.26 24.55 32.22"/><path class="cls-1" d="M39.49,31.53H23.86V51H40.45V45.49H30.83V43.31H39.5V38.25H30.83V36.76h9.35V31.53Zm-.69,1.38v2.48H29.45v4.24h8.67v2.3H29.45v4.94h9.62v2.71H25.24V32.91Z"/><polygon class="cls-1" points="68.47 49.74 62.87 49.74 59.21 42.6 58.88 41.95 58.37 42.48 55.49 45.5 55.34 45.65 55.34 45.86 55.34 49.74 50.82 49.74 50.82 32.75 55.34 32.75 55.34 39.04 55.34 40.46 56.27 39.38 61.95 32.75 67.88 32.75 62.16 38.66 61.87 38.96 62.09 39.3 68.47 49.74"/><path class="cls-1" d="M67.88,32.06H61.63L56,38.6V32.06h-5.9V50.43H56v-4.5l2.68-2.81,3.74,7.31H69.7l-7-11.38,6.76-7Zm-1.63,1.38-4.59,4.75-.65.67.49.8,5.75,9.39h-4l-3.46-6.76-.78-1.52L57.87,42,55,45l-.34.35v3.68H51.51V33.44h3.14v8.88l2.14-2.49,5.47-6.39Z"/><path class="cls-1" d="M69.12,32.22,62.53,39l6.88,11.23H62.55l-3.8-7.42-2.88,3v4.4H50.29v-18h5.58V39l5.83-6.82Zm-2.48,1.06H62.19l-5.52,6.44-1.85,2.17V33.28H51.34V49.21h3.48V45.44l.29-.31,2.88-3L59,41l.67,1.32,3.51,6.85h4.34l-5.89-9.63-.43-.69.57-.59Z"/><path class="cls-1" d="M69.12,31.53H61.39l-4.83,5.65V31.53h-7V51h7V46.14c.25-.27,1.29-1.37,2-2.12L62.13,51h8.51L63.4,39.13l7.34-7.6ZM67.5,32.91l-5.83,6s5.46,8.91,6.51,10.64H63l-4-7.91-3.74,3.91v4H51V32.91h4.2v8l6.84-8Z"/><path class="cls-1" d="M66.64,32.59H61.87L55.5,40V32.59H50.66V49.9H55.5V45.71l.1-.1,3.24-3.39c.1.21.23.46.23.46l3.7,7.22h6L62.08,39l.19-.2,6-6.19ZM65,34l-3.73,3.86-.93,1,6,9.73h-2.7L60.3,42.05l-1.12-2.18-1.69,1.77-2.88,3-.29.3-.19.2v3.36H52V34h2.1v9.79l3.06-3.58L62.51,34Z"/><rect class="cls-1" x="72.01" y="32.75" width="4.54" height="16.99"/><path class="cls-1" d="M76.54,32.06H71.32V50.43h5.91V32.06Zm-.69,17H72.7V33.44h3.15Z"/><path class="cls-1" d="M77.07,50.26H71.48v-18h5.59Zm-1-17H72.53V49.21H76Z"/><path class="cls-1" d="M77.07,31.53H70.79V51h7V31.53Zm-.69,18H72.17V32.91h4.21Z"/><path class="cls-1" d="M76,32.59H71.85V49.9H76.7V32.59Zm-.69,15.93H73.22V34h2.11Z"/><polygon class="cls-1" points="97.83 49.74 93.38 49.74 86.78 40.06 85.82 38.65 85.82 40.36 85.82 49.74 81.63 49.74 81.63 32.75 86.03 32.75 92.67 42.5 93.63 43.91 93.63 42.2 93.63 32.75 97.83 32.75 97.83 49.74"/><path class="cls-1" d="M97.83,32.06H92.94v9.62l-6.55-9.62H80.94V50.43h5.57V40.88L93,50.43h5.5V32.06Zm-.69,1.38V49.05H93.75L85.13,36.42V49.05H82.32V33.44h3.35l6.43,9.45,2.22,3.26V33.44Z"/><path class="cls-1" d="M98.36,32.22v18H93.1l-6.75-9.9v9.9H81.1v-18h5.21l6.79,10v-10ZM97.3,33.28H94.15V45.62l-1.92-2.83-6.48-9.51H82.16V49.21h3.13V36.94l1.93,2.82,6.44,9.45H97.3Z"/><path class="cls-1" d="M98.36,31.53h-6V40l-5.74-8.44H80.42V51H87V42.59L92.74,51H99V31.53Zm-.69,1.38V49.58h-4.2L85.66,38.12V49.58H81.79V32.91h4.15l7.85,11.53V32.91Z"/><path class="cls-1" d="M97.3,32.59H93.47V43.38l-.67-1-6.68-9.82H81.47V49.9H86V39.18l.67,1,6.64,9.75H98V32.59ZM96.62,34V48.52H94l-6.24-9.14-3.17-4.67V48.52H82.84V34h2.55c.38.57,6.27,9.22,6.27,9.22l3.18,4.67V34Z"/><path class="cls-1" d="M110.86,50a10.48,10.48,0,0,1-5-1A7,7,0,0,1,103,46a10.23,10.23,0,0,1-1-4.73,10,10,0,0,1,1.15-4.88,7.42,7.42,0,0,1,3.33-3.1,11.31,11.31,0,0,1,4.71-.82,13.33,13.33,0,0,1,4.29.51,5.32,5.32,0,0,1,2.25,1.53,6.71,6.71,0,0,1,1.19,2.13l-4.37.77a3.31,3.31,0,0,0-1.16-1.4,4.06,4.06,0,0,0-2.32-.63,4.16,4.16,0,0,0-3.32,1.46,6.64,6.64,0,0,0-1.22,4.37c0,2.11.4,3.59,1.23,4.53a4.42,4.42,0,0,0,3.47,1.44,6.25,6.25,0,0,0,1.94-.3,10.57,10.57,0,0,0,2.06-1l.25-.15V43.2h-3.72V40.5h7.56v6.89a16.72,16.72,0,0,1-4,2.07,14.37,14.37,0,0,1-4.35.58"/><path class="cls-1" d="M106.09,32.64A8,8,0,0,0,102.45,36a10.57,10.57,0,0,0-1.24,5.21,11,11,0,0,0,1.13,5,7.64,7.64,0,0,0,3.2,3.33,11.23,11.23,0,0,0,5.32,1.11,15.07,15.07,0,0,0,4.56-.61A17.43,17.43,0,0,0,119.6,48l.31-.21V39.81H111v4.08h3.73v1.44a8.8,8.8,0,0,1-1.83.86,5.65,5.65,0,0,1-1.74.27,3.75,3.75,0,0,1-2.95-1.2,6.16,6.16,0,0,1-1.06-4.08,6,6,0,0,1,1-3.93A3.49,3.49,0,0,1,111,36a3.38,3.38,0,0,1,1.93.51,2.77,2.77,0,0,1,.93,1.12l.22.49,5.68-1-.26-.76A7.41,7.41,0,0,0,118.15,34a6.09,6.09,0,0,0-2.53-1.73,14.22,14.22,0,0,0-4.53-.55,11.81,11.81,0,0,0-5,.89m.11,15.77a6.44,6.44,0,0,1-2.64-2.75,9.69,9.69,0,0,1-1-4.42,9.15,9.15,0,0,1,1.07-4.54,6.75,6.75,0,0,1,3-2.82,10.55,10.55,0,0,1,4.41-.75,12.93,12.93,0,0,1,4.06.47,4.56,4.56,0,0,1,1.95,1.33,5.31,5.31,0,0,1,.75,1.15l-3,.54a4,4,0,0,0-1.14-1.21,4.77,4.77,0,0,0-2.71-.75,4.84,4.84,0,0,0-3.85,1.7,7.35,7.35,0,0,0-1.38,4.82c0,2.28.46,3.91,1.4,5a5.1,5.1,0,0,0,4,1.67,7.37,7.37,0,0,0,2.15-.33,11.75,11.75,0,0,0,2.2-1l.59-.35V42.51h-3.73V41.19h6.19V47A14.82,14.82,0,0,1,115,48.8a13.64,13.64,0,0,1-4.14.56,9.86,9.86,0,0,1-4.66-1"/><path class="cls-1" d="M111.09,31.92a13.92,13.92,0,0,1,4.48.54A5.82,5.82,0,0,1,118,34.14,7.46,7.46,0,0,1,119.5,37l-5.38,1A2.9,2.9,0,0,0,113,36.42a3.49,3.49,0,0,0-2-.54,3.63,3.63,0,0,0-2.92,1.27,6.11,6.11,0,0,0-1.09,4,6.32,6.32,0,0,0,1.1,4.19,3.89,3.89,0,0,0,3.07,1.25,5.81,5.81,0,0,0,1.78-.27,9.77,9.77,0,0,0,2-.92v-1.7h-3.73V40h8.61v7.7A17.49,17.49,0,0,1,115.37,50a14.73,14.73,0,0,1-4.51.61,11.11,11.11,0,0,1-5.24-1.09,7.58,7.58,0,0,1-3.14-3.27,10.73,10.73,0,0,1-1.11-5,10.42,10.42,0,0,1,1.22-5.14,7.86,7.86,0,0,1,3.57-3.31,11.65,11.65,0,0,1,4.93-.87m0,1a10.68,10.68,0,0,0-4.48.77,6.73,6.73,0,0,0-3.1,2.88,9.37,9.37,0,0,0-1.09,4.62,9.74,9.74,0,0,0,1,4.49,6.41,6.41,0,0,0,2.7,2.82,10.07,10.07,0,0,0,4.74,1,13.94,13.94,0,0,0,4.19-.56,15.69,15.69,0,0,0,3.64-1.86V41h-6.51v1.65h3.73V46l-.51.31a10.3,10.3,0,0,1-2.17,1,6.93,6.93,0,0,1-2.1.32,4.89,4.89,0,0,1-3.86-1.61c-.92-1-1.37-2.64-1.37-4.88a7,7,0,0,1,1.35-4.71A4.66,4.66,0,0,1,111,34.83a4.53,4.53,0,0,1,2.61.72,3.66,3.66,0,0,1,1.16,1.25l3.35-.6a5.88,5.88,0,0,0-.86-1.38,4.87,4.87,0,0,0-2-1.38,13.21,13.21,0,0,0-4.11-.47"/><path class="cls-1" d="M105.86,32.17a8.61,8.61,0,0,0-3.87,3.6,11,11,0,0,0-1.31,5.47,11.48,11.48,0,0,0,1.19,5.29,8.23,8.23,0,0,0,3.43,3.55,11.66,11.66,0,0,0,5.56,1.18,15.85,15.85,0,0,0,4.72-.64,18.75,18.75,0,0,0,4.55-2.38l.3-.21V39.29h-10v5.13h3.73V45a8.4,8.4,0,0,1-1.46.66,5.17,5.17,0,0,1-1.58.24,3.16,3.16,0,0,1-2.55-1,5.72,5.72,0,0,1-.93-3.73,5.55,5.55,0,0,1,.92-3.58,3,3,0,0,1,2.4-1,2.89,2.89,0,0,1,1.64.42,2.19,2.19,0,0,1,.85,1.2l.19.58,6.72-1.2-.21-.74a8.19,8.19,0,0,0-1.61-3.14,6.48,6.48,0,0,0-2.75-1.88,14.47,14.47,0,0,0-4.71-.58,12.24,12.24,0,0,0-5.23.94m.09,16.7a6.83,6.83,0,0,1-2.85-3,10.09,10.09,0,0,1-1-4.66,9.76,9.76,0,0,1,1.13-4.8,7.18,7.18,0,0,1,3.27-3,10.89,10.89,0,0,1,4.63-.81,13.41,13.41,0,0,1,4.24.5,5.07,5.07,0,0,1,2.17,1.48,6.26,6.26,0,0,1,1.09,1.9l-4,.73a3.52,3.52,0,0,0-1.17-1.36,4.19,4.19,0,0,0-2.41-.66,4.34,4.34,0,0,0-3.45,1.51,6.75,6.75,0,0,0-1.25,4.48c0,2.15.42,3.67,1.27,4.64a4.55,4.55,0,0,0,3.59,1.49,6.57,6.57,0,0,0,2-.3,10.67,10.67,0,0,0,2.09-1l.34-.2V43h-3.73V40.66h7.24V47.3a16.7,16.7,0,0,1-3.9,2,14.36,14.36,0,0,1-4.3.57,10.36,10.36,0,0,1-4.91-1"/><path class="cls-1" d="M106.31,33.12a7.46,7.46,0,0,0-3.4,3.16,10.08,10.08,0,0,0-1.18,5,10.48,10.48,0,0,0,1.08,4.81,7.09,7.09,0,0,0,3,3.11,10.74,10.74,0,0,0,5.06,1.05,14.36,14.36,0,0,0,4.4-.6,16.23,16.23,0,0,0,3.81-1.93l.31-.2V40.34h-7.89v3h3.73v2.26l-.18.11a10,10,0,0,1-2,1,6.23,6.23,0,0,1-1.89.29,4.27,4.27,0,0,1-3.35-1.38c-.8-.92-1.19-2.36-1.19-4.43a6.44,6.44,0,0,1,1.18-4.27,4,4,0,0,1,3.2-1.4,3.91,3.91,0,0,1,2.23.61,3.09,3.09,0,0,1,1,1l.24.42,4.69-.83-.36-.81a6.48,6.48,0,0,0-1-1.55,5.44,5.44,0,0,0-2.31-1.57,13.45,13.45,0,0,0-4.35-.52,11.29,11.29,0,0,0-4.78.84m.14,14.82A5.79,5.79,0,0,1,104,45.42a9.1,9.1,0,0,1-.92-4.18,8.75,8.75,0,0,1,1-4.29,6.13,6.13,0,0,1,2.8-2.59,10,10,0,0,1,4.18-.7,12,12,0,0,1,3.88.43,4.12,4.12,0,0,1,1.74,1.18,4.56,4.56,0,0,1,.31.42l-2,.35A4.44,4.44,0,0,0,114,35a5.21,5.21,0,0,0-3-.84A5.34,5.34,0,0,0,106.72,36a7.69,7.69,0,0,0-1.5,5.16c0,2.42.5,4.16,1.53,5.33a5.55,5.55,0,0,0,4.38,1.85,7.69,7.69,0,0,0,2.31-.35,11.18,11.18,0,0,0,2.31-1.09l.85-.5V42h-3.73v-.27H118v5a14.36,14.36,0,0,1-3.16,1.57,13.18,13.18,0,0,1-4,.53,9.32,9.32,0,0,1-4.41-.89"/><polygon class="cls-1" points="42.79 32.22 48.36 32.22 48.36 39.04 54.2 32.22 61.61 32.22 55.03 39.03 61.91 50.26 55.04 50.26 51.24 42.84 48.36 45.86 48.36 50.26 42.79 50.26 42.79 32.22"/><path class="cls-1" d="M61.61,31.53H53.88l-4.83,5.65V31.53H42.1V51h6.95V46.14l2-2.12L54.62,51h8.52L55.9,39.13l7.33-7.6ZM60,32.91l-5.82,6,6.51,10.64H55.47l-4.06-7.91-3.74,3.91v4h-4.2V32.91h4.2v8l6.85-8Z"/><path class="cls-1" d="M45.68,53.26c0,.07-.08.12-.23.14-.07.35-.19.8-.36,1.36a7.7,7.7,0,0,1-.55,1.4,8.44,8.44,0,0,1,1.54,1.08l-.59.84A12,12,0,0,0,44,57a10.47,10.47,0,0,1-3.34,3l-.81-.74A11.6,11.6,0,0,0,41.78,58a7.15,7.15,0,0,0,1.32-1.5,11.55,11.55,0,0,0-1.76-.9l.4-.81c.3.12.64.27,1,.46l.85.41a10.23,10.23,0,0,0,.88-2.86l.92.28c.17.05.26.12.26.21"/><path class="cls-1" d="M43.83,52.64a15,15,0,0,1-.55,2.06l-.21-.11L42,54.12l-.59-.23-1,2,.68.29q.54.22,1,.48c-.22.25-.47.51-.76.78a11.8,11.8,0,0,1-1.79,1.24l-.85.46,1.9,1.73.44-.26A11.67,11.67,0,0,0,44.19,58c.28.19.57.41.87.65l.57.47L47,57.15l-.43-.41a7.34,7.34,0,0,0-1.13-.85,7,7,0,0,0,.33-.94v0c.13-.43.23-.78.3-1.09a.8.8,0,0,0,.32-.62.91.91,0,0,0-.77-.87h0L44,51.89Z"/><path class="cls-1" d="M48,57.42a13.9,13.9,0,0,0-1-1.89l.84-.42a11.21,11.21,0,0,1,1,1.78Zm5.29-2.2c0,.07-.06.1-.18.1a5.84,5.84,0,0,1-1.36,3.49,8.47,8.47,0,0,1-2.87,1.68l-.66-.91A8.07,8.07,0,0,0,51,58.19,5.06,5.06,0,0,0,52,54.76L53,55c.19,0,.29.11.29.21m-2.53,1.25-1,.42c-.32-.67-.64-1.29-.95-1.85l.84-.42a9.33,9.33,0,0,1,1.07,1.85"/><path class="cls-1" d="M47.58,54.49l-1.52.75.38.64a12.12,12.12,0,0,1,.91,1.79l.29.75,2.11-1.25-.25-.56a13.07,13.07,0,0,0-1-1.88l-.33-.51Z"/><path class="cls-1" d="M51.34,54.73c-.08,1.83-.49,2.61-.83,2.94A7.08,7.08,0,0,1,48,58.92l-.91.29,1.53,2.1.49-.17a9.1,9.1,0,0,0,3.09-1.82h0a6,6,0,0,0,1.51-3.53.73.73,0,0,0,.25-.56c0-.21-.08-.71-.82-.88h0l-1.78-.46Z"/><path class="cls-1" d="M49.38,54l-1.5.74.36.63c.3.54.62,1.14.93,1.81l.29.6,2.2-1-.28-.64a9.87,9.87,0,0,0-1.16-2l-.34-.44Z"/><path class="cls-1" d="M58.31,52.7c0,.07,0,.13-.14.18l.29,1.32,2.72-.31.15,1-2.61.31.33,1.36,3.49-.38.15,1-3.38.38L60,60.35l-1.13.17-.67-2.86L54.42,58l-.11-1L58,56.68l-.33-1.36-2.53.25-.15-1,2.39-.21L57,52.7l.95-.1c.2,0,.31,0,.33.1"/><path class="cls-1" d="M57.91,51.91l-1.7.19s.23,1.19.32,1.63l-2.34.2.34,2.38,2.6-.25h0l-3.58.34.26,2.39,3.86-.39.67,2.89,2.51-.38-.69-2.8,3.31-.38-.35-2.34-3.55.39v0l2.54-.31-.35-2.33L59,53.45l-.08-.35a.8.8,0,0,0,.09-.36.75.75,0,0,0,0-.26.88.88,0,0,0-1.05-.57m1.05.57,0,.05,0-.06h0"/><path class="cls-1" d="M68.49,58.74a10,10,0,0,1-4.3,1.19c0,.14-.13.2-.26.18s-.15-.12-.18-.28l-.15-1a10.05,10.05,0,0,0,4.08-1A5.12,5.12,0,0,0,70.18,55l.92.63a6.1,6.1,0,0,1-2.61,3.14M66.62,55l-.77.76c-.3-.27-.65-.58-1.07-.9l-1-.7.66-.73A9.37,9.37,0,0,1,66.62,55"/><path class="cls-1" d="M69.54,54.72a4.5,4.5,0,0,1-2.16,2.57,9.68,9.68,0,0,1-3.81.87l-.76,0,.26,1.74a1,1,0,0,0,.7.85h0a.88.88,0,0,0,.75-.19,10.63,10.63,0,0,0,4.27-1.25,6.85,6.85,0,0,0,2.91-3.48l.21-.51-2.1-1.44Zm-.71,4.62h0"/><path class="cls-1" d="M64,53l-1.17,1.3,1.56,1.14c.41.33.74.61,1,.86l.49.47L67.6,55l-.51-.49a10.4,10.4,0,0,0-2.28-1.68l-.48-.25Z"/><path class="cls-1" d="M75.62,53.3c0,.07-.1.1-.22.1-.12.23-.24.46-.33.66h2.35l.37-.14.7.6c.12.11.11.22,0,.31a6.22,6.22,0,0,1-1.62,3.46,8.8,8.8,0,0,1-3.09,2.23l-.66-.9a8.6,8.6,0,0,0,2.83-1.86A4.94,4.94,0,0,0,77.27,55H74.55a12.44,12.44,0,0,1-.73,1.05,12.68,12.68,0,0,1-1.1,1.19l-.81-.67a10,10,0,0,0,1.65-1.85,11.51,11.51,0,0,0,1-2.13l.84.42c.15.07.21.15.19.25m3,1a7.14,7.14,0,0,0-1.29-1.39l.62-.49a11.78,11.78,0,0,1,1.33,1.32Zm1.69-1-.63.56a5.83,5.83,0,0,0-1.21-1.26l.59-.45a6.66,6.66,0,0,1,1.25,1.15"/><path class="cls-1" d="M73.94,52.4a10.62,10.62,0,0,1-1,2,9.09,9.09,0,0,1-1.53,1.7l-.61.54,1.91,1.57.44-.42a13,13,0,0,0,1.17-1.26h0l.56-.78h1.45a4.28,4.28,0,0,1-1,1.55A7.93,7.93,0,0,1,72.81,59l-.79.34,1.49,2.06.51-.23a9.42,9.42,0,0,0,3.32-2.4,6.94,6.94,0,0,0,1.75-3.59.77.77,0,0,0,.16-.41.19.19,0,0,0,0-.08A.89.89,0,0,0,79,54h0l-1-.88-.63.25h-1s0-.08,0-.12a.91.91,0,0,0-.57-.83L74.9,52l-.7-.35Z"/><path class="cls-1" d="M77.51,51.85l-1.28,1,.63.55A6.35,6.35,0,0,1,78,54.65l.42.65,1.79-1.51-.45-.52a12.45,12.45,0,0,0-1.4-1.41L78,51.5Z"/><path class="cls-1" d="M78.61,51.56l-1.3,1,.73.55a4.85,4.85,0,0,1,1.06,1.1l.45.62,1.69-1.51-.43-.51a6.88,6.88,0,0,0-1.38-1.28L79,51.25Z"/><polygon class="cls-1" points="62.4 6.68 61.94 6.68 58.35 6.66 57.88 6.65 57.96 6.2 58.15 5.03 56.59 5.34 56.12 5.44 56.12 4.95 56.13 1.73 56.13 1.25 56.61 1.34 58.01 1.62 57.91 1.19 57.8 0.7 58.3 0.7 61.99 0.69 62.47 0.69 62.38 1.17 62.28 1.71 63.73 1.48 64.19 1.4 64.19 1.87 64.17 4.94 64.17 5.43 63.69 5.33 62.18 5.01 62.34 6.23 62.4 6.68"/><path class="cls-1" d="M62.47,0H56.94s.12.55.17.72L56.74.66,55.45.41V6.28l1.88-.38s-.23,1.44-.23,1.44h1.26l4.06,0h.79L63,6.14s0-.11,0-.26l.56.12,1.3.28V4.94l0-3.54V.59L63.62.8l-.48.07s.17-.87.17-.87Zm-.83,1.38-.22,1.17,2.08-.34c0,.47,0,1.88,0,2.37l-2.11-.44s.2,1.5.25,1.85L58.69,6c.06-.34.3-1.81.3-1.81l-2.18.44c0-.5,0-2,0-2.52l2.1.42s-.25-1.09-.25-1.11h3"/><polygon class="cls-1" points="61.58 2.36 63.6 2.02 63.63 4.77 61.5 4.33 61.77 6.12 58.54 6.14 58.8 4.33 56.7 4.79 56.73 1.97 58.73 2.31 58.49 1.2 61.82 1.22 61.58 2.36"/><path class="cls-1" d="M57.82,1.34s0,.1,0,.12l-1.79-.3,0,4.49,2-.43-.24,1.62,4.83,0-.24-1.59,2,.4,0-4.4-1.82.3s.21-1,.21-1l-5,0Zm1.58.82s0-.17-.06-.27l1.63,0c0,.12-.28,1.29-.28,1.29l2.23-.37c0,.45,0,.63,0,1.1l-2.25-.47s.22,1.48.29,2H59.33c.08-.5.3-2,.3-2l-2.23.49c0-.49,0-.69,0-1.16l2.21.38Z"/><path class="cls-1" d="M72.44,10.08c-3.29-1.69-6.54.62-7.94,5.07a12,12,0,0,0,.2-1.74v-.13a4.83,4.83,0,0,0-4.62-5c-3,0-4.65,2.95-4.8,5v.06a10.84,10.84,0,0,0,.14,1.38C54,10.58,50.79,8.43,47.6,10.08c-6.52,3.35,3.95,13.51,5,17.13l5.27-.33,0-.09c.69,0,1.39-.06,2.13-.06s1.5.05,2.22.07v.08l5.48.33C68.9,23,79.12,13.51,72.44,10.08"/><path class="cls-1" d="M56.07,9.62A7.1,7.1,0,0,0,54.84,12a7.09,7.09,0,0,0-3.2-2.8,5.11,5.11,0,0,0-4.36.26,4.3,4.3,0,0,0-2.36,2.78c-.8,3.17,2.15,7.49,4.52,11A21,21,0,0,1,52,27.4l.16.53,6.6-.42a.42.42,0,0,1,0-.06c.43,0,.86,0,1.3,0s1,0,1.43,0c0,0,0,.09,0,.09h.75l6,.36.16-.52A22,22,0,0,1,71,22.78c2.06-3,4.36-6.44,4.36-9.29a4.89,4.89,0,0,0-.14-1.15,4.52,4.52,0,0,0-2.49-2.88,5.1,5.1,0,0,0-4.42-.23A7.08,7.08,0,0,0,65.23,12a6,6,0,0,0-1.31-2.59,5.05,5.05,0,0,0-7.85.23m4-.61A4.18,4.18,0,0,1,64,13.28v.13A12,12,0,0,1,63.82,15l1.34.31c.76-2.42,2.11-4.19,3.7-4.85a3.72,3.72,0,0,1,3.26.19h0A3,3,0,0,1,74,13.49c0,2.43-2.26,5.78-4.12,8.52a27.69,27.69,0,0,0-2.68,4.48L63,26.23s0-.08,0-.08l-.77,0-.63,0c-.52,0-1-.05-1.62-.05s-1.16,0-1.71.05l-1.26,0,0,.11-4,.25a29.11,29.11,0,0,0-2.5-4.07c-2-2.91-4.42-6.46-4.42-9a3.12,3.12,0,0,1,.1-.82,2.9,2.9,0,0,1,1.65-1.89,3.74,3.74,0,0,1,3.22-.21c1.53.61,2.86,2.27,3.64,4.54l1.33-.33A9.45,9.45,0,0,1,56,13.41v0C56.11,11.61,57.5,9,60.08,9m12.67.45Z"/><path class="cls-1" d="M69.12,28.51l-.8-.07c-.06,0-6.09-.56-8.22-.56s-8.3.51-8.36.51l-.65.06V27.8c0-.9-1.25-2.69-2.58-4.58C46.22,20,43.38,15.92,44,12.47a5.58,5.58,0,0,1,2.52-3.63A6.57,6.57,0,0,1,50.21,7.6a5.59,5.59,0,0,1,4.57,2.52,6.07,6.07,0,0,1,.31-.56,5.86,5.86,0,0,1,10.32.64A8.18,8.18,0,0,1,66,9.51a5.77,5.77,0,0,1,4.1-1.86,6.39,6.39,0,0,1,3.38,1.06,5.37,5.37,0,0,1,2.64,3.54c.71,3.49-2.26,7.69-4.65,11.07C70.23,25.06,68.83,27,69,27.73Z"/><path class="cls-1" d="M54.69,8.92a6.1,6.1,0,0,0-4.48-2,7.12,7.12,0,0,0-4.06,1.37,6.2,6.2,0,0,0-2.82,4.07c-.68,3.73,2.26,7.91,4.62,11.26,1,1.48,2.45,3.5,2.45,4.19v1.4l1.4-.12h.11c1.88-.15,6.44-.5,8.19-.5,2,0,7.52.49,8.15.55l1.72.16s-.32-1.61-.32-1.66c0-.57,1.55-2.74,2.38-3.91,2.2-3.11,4.89-6.9,4.89-10.37a6.26,6.26,0,0,0-.12-1.23,6,6,0,0,0-3-4A7.06,7.06,0,0,0,70.09,7,6.4,6.4,0,0,0,65.53,9a6.31,6.31,0,0,0-5.39-2.92,6.38,6.38,0,0,0-5.45,2.83m.71,1.5a4.46,4.46,0,0,1,.27-.49,5.17,5.17,0,0,1,9.12.56l.48,1,.69-.91A8,8,0,0,1,66.5,10a5.08,5.08,0,0,1,3.59-1.66,5.77,5.77,0,0,1,3,1,4.73,4.73,0,0,1,2.33,3.08,5.2,5.2,0,0,1,.09,1c0,3-2.55,6.63-4.63,9.58-1.76,2.47-2.64,3.83-2.64,4.72,0,0,0,.07,0,.1-1-.09-6.2-.55-8.18-.55-1.8,0-6.4.36-8.3.51h0c-.06-1.06-1.08-2.56-2.71-4.88-2-2.86-4.46-6.35-4.46-9.34a4.4,4.4,0,0,1,.08-.89,4.94,4.94,0,0,1,2.23-3.18,5.9,5.9,0,0,1,3.29-1.13,5,5,0,0,1,4,2.24l.67.94Z"/><path class="cls-1" d="M73.17,9.22c-5-3.09-8,2.09-7.94,2.48A5.23,5.23,0,0,0,55,11.56c-1.59-3.23-4.78-4.48-8.08-2.22-7.33,5,4.82,15.05,4.82,18.46,0,0,6.24-.52,8.41-.52s8.28.56,8.28.56C67.82,25,80.94,14.05,73.17,9.22M56.32,26.43l-2.82.18c-.77-4.13-11-12.65-5.26-15.86,3-1.68,5.74,1.49,6.49,6.11,1.45,9,1.58,9.54,1.59,9.57h0m7.35-12c-.28,2.11-1.73,11.9-1.73,11.9-.72,0-1.09-.1-1.87-.1s-1.15,0-1.87.07L56.51,14.48c-.3-2.63,1.45-5.37,3.65-5.37s3.87,2.56,3.51,5.34m.15,12s.33-2.16,1.54-9.49c.7-4.29,3.47-8,6.52-6.25,5.69,3.35-4.12,11.39-5.29,16Z"/><path class="cls-1" d="M55,9.51s-.12.19-.24.44a5.9,5.9,0,0,0-3.23-2.27,6.09,6.09,0,0,0-5.06,1.09,5.66,5.66,0,0,0-2.56,3.68c-.64,3.49,2.22,7.55,4.51,10.82C49.7,25.07,51,26.93,51,27.8v.75l.75-.06c.06,0,6.23-.52,8.35-.52s8.15.55,8.21.56l.92.08-.18-.9c-.12-.65,1.33-2.69,2.5-4.34,2.39-3.39,5.38-7.6,4.67-11.14a5.49,5.49,0,0,0-2.69-3.59,5.65,5.65,0,0,0-6.11-.36,7.4,7.4,0,0,0-2,1.74A6,6,0,0,0,55,9.51m1.62.11a4.41,4.41,0,0,1,3.51-1.56,4.58,4.58,0,0,1,4.41,3.66l1.37,0v.15a5.56,5.56,0,0,1,2.86-2.66,4.5,4.5,0,0,1,4,.63,4.12,4.12,0,0,1,2.06,2.7,4,4,0,0,1,.09.85c0,2.83-2.49,6.35-4.53,9.22a16.92,16.92,0,0,0-2.67,4.53c-1.67-.15-5.88-.51-7.65-.51s-6.19.34-7.84.47a18.15,18.15,0,0,0-2.7-4.58c-2-2.79-4.35-6.2-4.35-9a5,5,0,0,1,.06-.78,4.27,4.27,0,0,1,2-2.79A4.73,4.73,0,0,1,51.19,9a5.08,5.08,0,0,1,3.14,2.86l1.24-.61a.57.57,0,0,1,.06.27,4.49,4.49,0,0,1,1-1.91"/><path class="cls-1" d="M47.9,10.15a3.75,3.75,0,0,0-2,2.48c-.59,2.62,1.72,5.86,3.94,9,1.41,2,2.74,3.86,3,5.12l.11.6,4.33-.28s-.23-.65-.28-.81-.21-1.05-1.58-9.5c-.54-3.31-2-5.84-3.94-6.77a3.73,3.73,0,0,0-3.57.17M51,20.83c-1.79-2.51-3.79-5.33-3.79-7.33a2.62,2.62,0,0,1,.06-.57,2.42,2.42,0,0,1,1.33-1.58,2.35,2.35,0,0,1,2.29-.13c1.48.71,2.73,3,3.18,5.75.87,5.38,1.26,7.76,1.45,8.82l-1.48.1a22.63,22.63,0,0,0-3-5.06"/><path class="cls-1" d="M57.29,9.82a6.21,6.21,0,0,0-1.46,4.74v0L57.61,27,59,27c.34,0,.65,0,1.1,0s.7,0,1,0l.84.06h.61l.09-.6c0-.1,1.46-9.82,1.73-11.91a7.89,7.89,0,0,0,.05-.84A6,6,0,0,0,63,9.81a3.8,3.8,0,0,0-2.85-1.39,3.88,3.88,0,0,0-2.87,1.4m-.13,4a4.84,4.84,0,0,1,1.16-3.14,2.52,2.52,0,0,1,1.84-.93,2.44,2.44,0,0,1,1.81.91,4.65,4.65,0,0,1,1.05,3,4.58,4.58,0,0,1,0,.64c-.23,1.77-1.3,9.08-1.63,11.26h-.16c-.32,0-.65-.05-1.12-.05s-.82,0-1.17,0h-.11c-.16-1.11-1.59-11.17-1.6-11.2a4.71,4.71,0,0,1,0-.53"/><path class="cls-1" d="M68.79,9.9c-2,.92-3.57,3.64-4.11,6.94-1.19,7.24-1.54,9.47-1.54,9.49l-.12.74,4.1.31.14-.56c.36-1.41,1.69-3.27,3.09-5.25,2.19-3.08,4.45-6.26,3.89-8.87a3.92,3.92,0,0,0-2-2.59,3.58,3.58,0,0,0-3.44-.21M66,17.07c.46-2.82,1.8-5.2,3.34-5.92a2.16,2.16,0,0,1,2.15.15A2.62,2.62,0,0,1,72.9,13a3.21,3.21,0,0,1,0,.55c0,2-2,4.77-3.72,7.23a25.24,25.24,0,0,0-3.13,5.15l-1.49-.11c.19-1.14.61-3.75,1.43-8.74"/><path class="cls-1" d="M73,9.49c-4.19-2.78-7.38,1.1-7.91,3.4v0a5.08,5.08,0,0,0-5-5.24,5,5,0,0,0-5,5.14v.06c-.53-2.3-3.73-6.17-7.92-3.39-7.08,4.7,4.23,13.84,4.83,18,0,0,5.87-.5,7.95-.5s8.06.54,8.06.54c.6-4.15,12.06-13.33,5-18M53.27,26.92C52,22.09,42,14,48.05,10.49c3.08-1.82,6.13,1.17,7,6.48,1.56,9.46,1.61,9.69,1.61,9.69Zm6.8-.41c-.74,0-1.45.06-2.14.08,0,0-.36-2.47-1.4-9.55-.2-1.44-.4-2.66-.4-3.34v-.07c.12-2,1.5-4.83,4-4.83,2.26,0,3.87,2.34,3.87,4.77v.13a31,31,0,0,1-.4,3.34c-1,7.08-1.41,9.55-1.41,9.55-.7,0-1.39-.08-2.14-.08m6.8.41-3.38-.26s0-.23,1.57-9.69c.88-5.31,3.93-8.3,7-6.48,6,3.54-4,11.59-5.2,16.43"/><path class="cls-1" d="M54.83,10.63a6.61,6.61,0,0,0-2.9-2.44,5.34,5.34,0,0,0-5.11.73,5.44,5.44,0,0,0-2.54,3.54c-.61,3.25,2,6.94,4.26,10.2,1.36,1.93,2.64,3.75,2.81,4.92l.09.64.65,0s5.86-.5,7.89-.5,7.94.53,8,.53l.65.06.09-.65c.17-1.16,1.48-3,2.86-4.94,2.09-3,4.43-6.25,4.43-9.25a5.23,5.23,0,0,0-.09-1A5.42,5.42,0,0,0,73.4,8.92a5.32,5.32,0,0,0-5.1-.73,6.6,6.6,0,0,0-2.92,2.47,5.89,5.89,0,0,0-1.24-1.95,5.53,5.53,0,0,0-4-1.72,5.63,5.63,0,0,0-5.29,3.64m5.29-2.26a4.38,4.38,0,0,1,4.3,4.55l1.37.12h0a5.49,5.49,0,0,1,3-3.56,4,4,0,0,1,3.83.6,4,4,0,0,1,1.93,2.63,4.4,4.4,0,0,1,.06.73c0,2.55-2.21,5.66-4.18,8.44a21.15,21.15,0,0,0-2.94,4.91c-1.57-.14-5.81-.48-7.53-.48s-5.87.32-7.42.45a20.74,20.74,0,0,0-2.89-4.88c-1.94-2.76-4.1-5.85-4.1-8.4a4.56,4.56,0,0,1,.06-.75,4.09,4.09,0,0,1,1.95-2.65,4,4,0,0,1,3.84-.6,5.5,5.5,0,0,1,3,3.57l1.35-.22h0v0a4.34,4.34,0,0,1,4.32-4.43"/><path class="cls-1" d="M47.7,9.9a4.2,4.2,0,0,0-2.16,2.75c-.58,2.68,1.7,5.89,3.89,9,1.44,2,2.79,3.94,3.17,5.44l.15.56,4.73-.37-.14-.75s-.1-.56-1.6-9.67c-.59-3.57-2.17-6.26-4.21-7.21a3.92,3.92,0,0,0-3.83.25m2.86,11c-1.76-2.49-3.73-5.28-3.73-7.34a2.72,2.72,0,0,1,.05-.58,2.89,2.89,0,0,1,1.52-1.86A2.63,2.63,0,0,1,51,10.89c1.61.75,2.92,3.12,3.43,6.19.92,5.55,1.31,7.93,1.48,9l-2.1.16a25,25,0,0,0-3.2-5.33"/><path class="cls-1" d="M56.68,10.07a7.18,7.18,0,0,0-1.24,3.52v.11a24.6,24.6,0,0,0,.33,2.87l.08.57L57.34,27.3l.61,0,.79,0c.44,0,.88,0,1.33,0s.88,0,1.3.05l1.43.06.09-.61s.39-2.56,1.41-9.57l.08-.54a23,23,0,0,0,.33-2.89v-.12h0c0-2.63-1.74-5.46-4.56-5.46a4.22,4.22,0,0,0-3.47,2m3.47-.58c1.91,0,3.18,2.11,3.18,4.08v.13A24,24,0,0,1,63,16.39l-.08.55c-.75,5.1-1.15,7.83-1.32,8.94h-.18c-.43,0-.89,0-1.37,0s-.94,0-1.39,0h-.16c-.16-1.07-1.3-8.93-1.3-8.93l-.09-.57a23.47,23.47,0,0,1-.31-2.67v0c.11-1.69,1.24-4.17,3.33-4.17"/><path class="cls-1" d="M68.59,9.65c-2,.95-3.62,3.64-4.21,7.21-.72,4.33-1.57,9.55-1.58,9.77l0,.66,4.62.36.15-.56c.38-1.51,1.73-3.42,3.16-5.44,2.19-3.11,4.46-6.32,3.88-9A4.2,4.2,0,0,0,72.42,9.9a3.92,3.92,0,0,0-3.83-.25m-2.85,7.43c.51-3.07,1.82-5.44,3.43-6.19a2.63,2.63,0,0,1,2.55.19,2.94,2.94,0,0,1,1.52,1.86,2.82,2.82,0,0,1,.05.59c0,2.05-2,4.84-3.72,7.33a25.08,25.08,0,0,0-3.19,5.33L64.28,26c.15-1,.53-3.33,1.46-8.94"/><path class="cls-1" d="M55.69,14.36a.41.41,0,1,1-.41-.41.41.41,0,0,1,.41.41"/><path class="cls-1" d="M54.19,14.36a1.1,1.1,0,1,0,1.09-1.1,1.1,1.1,0,0,0-1.09,1.1m.81,0a.29.29,0,0,1,.57,0,.29.29,0,0,1-.57,0"/><path class="cls-1" d="M56,15.73a.41.41,0,1,1-.4-.4.4.4,0,0,1,.4.4"/><path class="cls-1" d="M54.48,15.73a1.1,1.1,0,1,0,1.1-1.09,1.1,1.1,0,0,0-1.1,1.09m.81,0a.29.29,0,1,1,.29.29.29.29,0,0,1-.29-.29"/><path class="cls-1" d="M56.23,17.19a.41.41,0,1,1-.41-.41.41.41,0,0,1,.41.41"/><path class="cls-1" d="M54.73,17.19a1.1,1.1,0,1,0,1.09-1.09,1.1,1.1,0,0,0-1.09,1.09m.81,0a.29.29,0,1,1,.28.28.28.28,0,0,1-.28-.28"/><path class="cls-1" d="M56.48,18.65a.41.41,0,1,1-.41-.41.4.4,0,0,1,.41.41"/><path class="cls-1" d="M55,18.65a1.1,1.1,0,1,0,1.09-1.1A1.09,1.09,0,0,0,55,18.65m.81,0a.29.29,0,1,1,.28.28.29.29,0,0,1-.28-.28"/><path class="cls-1" d="M56.69,20.06a.41.41,0,0,1-.41.41.41.41,0,0,1,0-.81.41.41,0,0,1,.41.4"/><path class="cls-1" d="M55.19,20.06A1.1,1.1,0,1,0,56.28,19a1.09,1.09,0,0,0-1.09,1.09m.81,0a.29.29,0,0,1,.28-.28.28.28,0,0,1,.28.28.28.28,0,1,1-.56,0"/><path class="cls-1" d="M56.89,21.52a.41.41,0,0,1-.41.4.41.41,0,1,1,0-.81.41.41,0,0,1,.41.41"/><path class="cls-1" d="M55.38,21.52a1.1,1.1,0,1,0,1.1-1.1,1.1,1.1,0,0,0-1.1,1.1m.82,0a.27.27,0,0,1,.28-.28.28.28,0,0,1,.28.28.29.29,0,0,1-.28.28.28.28,0,0,1-.28-.28"/><path class="cls-1" d="M57.1,22.85a.41.41,0,0,1-.81,0,.41.41,0,1,1,.81,0"/><path class="cls-1" d="M55.6,22.85a1.1,1.1,0,1,0,1.1-1.1,1.09,1.09,0,0,0-1.1,1.1m.82,0a.27.27,0,0,1,.28-.28.28.28,0,0,1,.28.28.29.29,0,0,1-.28.28.28.28,0,0,1-.28-.28"/><path class="cls-1" d="M57.31,24.22a.41.41,0,1,1-.4-.4.4.4,0,0,1,.4.4"/><path class="cls-1" d="M55.81,24.22a1.1,1.1,0,1,0,1.09-1.09,1.09,1.09,0,0,0-1.09,1.09m.81,0a.29.29,0,0,1,.57,0,.29.29,0,1,1-.57,0"/><path class="cls-1" d="M57.52,25.6a.41.41,0,1,1-.41-.41.4.4,0,0,1,.41.41"/><path class="cls-1" d="M56,25.6a1.1,1.1,0,1,0,1.09-1.1A1.09,1.09,0,0,0,56,25.6m.81,0a.29.29,0,1,1,.28.28.29.29,0,0,1-.28-.28"/><path class="cls-1" d="M54.94,13.07a.41.41,0,1,1-.41-.41.41.41,0,0,1,.41.41"/><path class="cls-1" d="M53.44,13.07A1.1,1.1,0,1,0,54.53,12a1.1,1.1,0,0,0-1.09,1.09m.81,0a.29.29,0,1,1,.28.28.29.29,0,0,1-.28-.28"/><path class="cls-1" d="M54.23,11.78a.41.41,0,1,1-.4-.41.41.41,0,0,1,.4.41"/><path class="cls-1" d="M52.73,11.78a1.1,1.1,0,1,0,1.1-1.09,1.09,1.09,0,0,0-1.1,1.09m.81,0a.29.29,0,1,1,.29.28.28.28,0,0,1-.29-.28"/><path class="cls-1" d="M53.4,10.7a.41.41,0,1,1-.41-.41.4.4,0,0,1,.41.41"/><path class="cls-1" d="M51.9,10.7A1.1,1.1,0,1,0,53,9.6a1.09,1.09,0,0,0-1.09,1.1m.81,0a.29.29,0,0,1,.57,0,.29.29,0,0,1-.57,0"/><path class="cls-1" d="M52.19,9.74a.4.4,0,0,1-.4.41.41.41,0,0,1-.41-.41.42.42,0,0,1,.41-.41.41.41,0,0,1,.4.41"/><path class="cls-1" d="M50.69,9.74a1.1,1.1,0,1,0,1.1-1.09,1.1,1.1,0,0,0-1.1,1.09m.82,0a.28.28,0,0,1,.28-.28.29.29,0,0,1,.28.28.28.28,0,0,1-.28.28.27.27,0,0,1-.28-.28"/><path class="cls-1" d="M50.74,9.28a.41.41,0,1,1-.81,0,.41.41,0,0,1,.81,0"/><path class="cls-1" d="M49.24,9.28a1.1,1.1,0,1,0,1.09-1.09,1.09,1.09,0,0,0-1.09,1.09m.81,0a.28.28,0,1,1,.28.29.28.28,0,0,1-.28-.29"/><path class="cls-1" d="M49.16,9.45A.41.41,0,1,1,48.75,9a.42.42,0,0,1,.41.41"/><path class="cls-1" d="M47.65,9.45a1.1,1.1,0,1,0,1.1-1.1,1.1,1.1,0,0,0-1.1,1.1m.82,0a.27.27,0,0,1,.28-.28.28.28,0,0,1,.28.28.29.29,0,0,1-.28.28.28.28,0,0,1-.28-.28"/><path class="cls-1" d="M47.78,10.16a.41.41,0,0,1-.81,0,.41.41,0,1,1,.81,0"/><path class="cls-1" d="M46.28,10.16a1.1,1.1,0,1,0,1.1-1.1,1.09,1.09,0,0,0-1.1,1.1m.81,0a.29.29,0,0,1,.57,0,.29.29,0,0,1-.57,0"/><path class="cls-1" d="M46.74,11.07a.41.41,0,1,1-.4-.4.4.4,0,0,1,.4.4"/><path class="cls-1" d="M45.24,11.07A1.1,1.1,0,1,0,46.34,10a1.1,1.1,0,0,0-1.1,1.09m.81,0a.29.29,0,1,1,.29.29.29.29,0,0,1-.29-.29"/><path class="cls-1" d="M46.12,12.28a.41.41,0,1,1-.41-.41.41.41,0,0,1,.41.41"/><path class="cls-1" d="M44.62,12.28a1.1,1.1,0,1,0,1.09-1.09,1.1,1.1,0,0,0-1.09,1.09m.81,0a.28.28,0,0,1,.28-.28.28.28,0,0,1,0,.56.28.28,0,0,1-.28-.28"/><path class="cls-1" d="M64.72,11.66a.4.4,0,0,1-.41.4.41.41,0,1,1,0-.81.41.41,0,0,1,.41.41"/><path class="cls-1" d="M63.22,11.66a1.1,1.1,0,1,0,1.09-1.1,1.09,1.09,0,0,0-1.09,1.1m.81,0a.29.29,0,0,1,.28-.29.29.29,0,0,1,0,.57.29.29,0,0,1-.28-.28"/><path class="cls-1" d="M64.14,10.37a.41.41,0,0,1-.41.4.41.41,0,1,1,0-.81.41.41,0,0,1,.41.41"/><path class="cls-1" d="M62.63,10.37a1.1,1.1,0,1,0,1.1-1.1,1.09,1.09,0,0,0-1.1,1.1m.82,0a.28.28,0,0,1,.28-.29.29.29,0,0,1,0,.57.28.28,0,0,1-.28-.28"/><path class="cls-1" d="M63.3,9.41a.41.41,0,0,1-.81,0,.41.41,0,1,1,.81,0"/><path class="cls-1" d="M61.8,9.41a1.1,1.1,0,1,0,1.1-1.1,1.09,1.09,0,0,0-1.1,1.1m.81,0a.29.29,0,0,1,.57,0,.29.29,0,0,1-.57,0"/><path class="cls-1" d="M62.1,8.58a.4.4,0,0,1-.41.4.41.41,0,1,1,0-.81.41.41,0,0,1,.41.41"/><path class="cls-1" d="M60.6,8.58a1.09,1.09,0,1,0,1.09-1.1,1.09,1.09,0,0,0-1.09,1.1m.81,0a.28.28,0,1,1,.28.28.28.28,0,0,1-.28-.28"/><path class="cls-1" d="M60.64,8.24a.41.41,0,1,1-.81,0,.41.41,0,0,1,.81,0"/><path class="cls-1" d="M59.14,8.24a1.1,1.1,0,1,0,1.09-1.09,1.09,1.09,0,0,0-1.09,1.09m.81,0A.29.29,0,0,1,60.23,8a.29.29,0,0,1,0,.57A.29.29,0,0,1,60,8.24"/><path class="cls-1" d="M59.06,8.53a.41.41,0,1,1-.81,0,.41.41,0,0,1,.81,0"/><path class="cls-1" d="M57.56,8.53a1.1,1.1,0,1,0,1.09-1.09,1.09,1.09,0,0,0-1.09,1.09m.81,0a.29.29,0,0,1,.28-.28.29.29,0,0,1,0,.57.29.29,0,0,1-.28-.29"/><path class="cls-1" d="M57.81,9.24a.41.41,0,1,1-.81,0,.41.41,0,1,1,.81,0"/><path class="cls-1" d="M56.31,9.24a1.1,1.1,0,1,0,1.1-1.09,1.1,1.1,0,0,0-1.1,1.09m.81,0a.29.29,0,0,1,.57,0,.29.29,0,0,1-.57,0"/><path class="cls-1" d="M56.9,10.28a.41.41,0,0,1-.41.41.41.41,0,1,1,0-.81.4.4,0,0,1,.41.4"/><path class="cls-1" d="M55.39,10.28a1.1,1.1,0,1,0,1.1-1.09,1.1,1.1,0,0,0-1.1,1.09m.82,0a.28.28,0,1,1,.28.29.28.28,0,0,1-.28-.29"/><path class="cls-1" d="M56.31,11.61a.41.41,0,1,1-.4-.4.4.4,0,0,1,.4.4"/><path class="cls-1" d="M54.81,11.61a1.1,1.1,0,1,0,1.1-1.09,1.1,1.1,0,0,0-1.1,1.09m.82,0a.28.28,0,0,1,.28-.28.29.29,0,0,1,0,.57.28.28,0,0,1-.28-.29"/><path class="cls-1" d="M56.06,13a.41.41,0,0,1-.81,0,.41.41,0,1,1,.81,0"/><path class="cls-1" d="M54.56,13a1.1,1.1,0,1,0,1.1-1.1,1.09,1.09,0,0,0-1.1,1.1m.82,0a.28.28,0,0,1,.28-.29.29.29,0,0,1,0,.57.28.28,0,0,1-.28-.28"/><path class="cls-1" d="M64.93,13a.4.4,0,0,1-.41.4.41.41,0,1,1,0-.81.41.41,0,0,1,.41.41"/><path class="cls-1" d="M63.42,13a1.1,1.1,0,1,0,1.1-1.1,1.1,1.1,0,0,0-1.1,1.1m.82,0a.28.28,0,0,1,.28-.29.29.29,0,0,1,0,.57.28.28,0,0,1-.28-.28"/><path class="cls-1" d="M45.87,13.78a.41.41,0,1,1-.41-.41.4.4,0,0,1,.41.41"/><path class="cls-1" d="M44.37,13.78a1.1,1.1,0,1,0,1.09-1.1,1.09,1.09,0,0,0-1.09,1.1m.81,0a.28.28,0,0,1,.28-.28.27.27,0,0,1,.28.28.28.28,0,0,1-.28.28.29.29,0,0,1-.28-.28"/><path class="cls-1" d="M46.16,15.28a.41.41,0,1,1-.41-.41.4.4,0,0,1,.41.41"/><path class="cls-1" d="M44.66,15.28a1.1,1.1,0,1,0,1.09-1.1,1.09,1.09,0,0,0-1.09,1.1m.81,0a.29.29,0,0,1,.28-.29.29.29,0,0,1,0,.57.29.29,0,0,1-.28-.28"/><path class="cls-1" d="M46.74,16.57a.41.41,0,0,1-.81,0,.41.41,0,1,1,.81,0"/><path class="cls-1" d="M45.24,16.57a1.1,1.1,0,1,0,1.1-1.1,1.09,1.09,0,0,0-1.1,1.1m.81,0a.29.29,0,1,1,.57,0,.29.29,0,0,1-.57,0"/><path class="cls-1" d="M47.32,17.86a.41.41,0,0,1-.81,0,.41.41,0,1,1,.81,0"/><path class="cls-1" d="M45.82,17.86a1.1,1.1,0,1,0,1.1-1.1,1.1,1.1,0,0,0-1.1,1.1m.82,0a.28.28,0,0,1,.28-.29.29.29,0,0,1,0,.57.28.28,0,0,1-.28-.28"/><path class="cls-1" d="M48.12,19.06a.41.41,0,0,1-.41.41.41.41,0,1,1,0-.81.41.41,0,0,1,.41.4"/><path class="cls-1" d="M46.61,19.06A1.1,1.1,0,1,0,47.71,18a1.1,1.1,0,0,0-1.1,1.09m.82,0a.28.28,0,1,1,.28.29.28.28,0,0,1-.28-.29"/><path class="cls-1" d="M49,20.35a.41.41,0,1,1-.81,0,.41.41,0,0,1,.81,0"/><path class="cls-1" d="M47.49,20.35a1.1,1.1,0,1,0,1.09-1.09,1.09,1.09,0,0,0-1.09,1.09m.81,0a.29.29,0,0,1,.28-.28.29.29,0,0,1,0,.57.29.29,0,0,1-.28-.29"/><path class="cls-1" d="M49.78,21.48a.41.41,0,1,1-.41-.41.4.4,0,0,1,.41.41"/><path class="cls-1" d="M48.28,21.48a1.1,1.1,0,1,0,1.09-1.1,1.09,1.09,0,0,0-1.09,1.1m.81,0a.29.29,0,1,1,.28.28.29.29,0,0,1-.28-.28"/><path class="cls-1" d="M50.57,22.68a.41.41,0,1,1-.81,0,.41.41,0,0,1,.81,0"/><path class="cls-1" d="M49.07,22.68a1.1,1.1,0,1,0,1.1-1.09,1.1,1.1,0,0,0-1.1,1.09m.81,0a.29.29,0,0,1,.57,0,.29.29,0,0,1-.57,0"/><path class="cls-1" d="M51.36,23.81a.41.41,0,0,1-.81,0,.41.41,0,1,1,.81,0"/><path class="cls-1" d="M49.86,23.81a1.1,1.1,0,1,0,1.1-1.1,1.09,1.09,0,0,0-1.1,1.1m.81,0a.29.29,0,1,1,.57,0,.29.29,0,0,1-.57,0"/><path class="cls-1" d="M52.11,25a.41.41,0,1,1-.81,0,.41.41,0,0,1,.81,0"/><path class="cls-1" d="M50.61,25a1.1,1.1,0,1,0,1.09-1.09A1.09,1.09,0,0,0,50.61,25m.81,0A.29.29,0,0,1,52,25a.29.29,0,1,1-.57,0"/><path class="cls-1" d="M52.78,26.3a.41.41,0,1,1-.41-.4.41.41,0,0,1,.41.4"/><path class="cls-1" d="M51.27,26.3a1.1,1.1,0,1,0,1.1-1.09,1.1,1.1,0,0,0-1.1,1.09m.82,0a.28.28,0,0,1,.56,0,.28.28,0,1,1-.56,0"/><path class="cls-1" d="M64.46,14.36a.41.41,0,1,0,.4-.41.41.41,0,0,0-.4.41"/><path class="cls-1" d="M63.77,14.36a1.1,1.1,0,1,0,1.09-1.1,1.1,1.1,0,0,0-1.09,1.1m.81,0a.28.28,0,0,1,.28-.28.27.27,0,0,1,.28.28.28.28,0,0,1-.28.28.29.29,0,0,1-.28-.28"/><path class="cls-1" d="M64.16,15.73a.41.41,0,1,0,.41-.4.41.41,0,0,0-.41.4"/><path class="cls-1" d="M63.48,15.73a1.09,1.09,0,1,0,1.09-1.09,1.09,1.09,0,0,0-1.09,1.09m.81,0a.28.28,0,1,1,.28.29.28.28,0,0,1-.28-.29"/><path class="cls-1" d="M63.91,17.19a.41.41,0,0,0,.41.41.41.41,0,0,0,0-.82.41.41,0,0,0-.41.41"/><path class="cls-1" d="M63.23,17.19a1.1,1.1,0,1,0,1.09-1.09,1.1,1.1,0,0,0-1.09,1.09m.81,0a.28.28,0,0,1,.28-.28.28.28,0,0,1,0,.56.28.28,0,0,1-.28-.28"/><path class="cls-1" d="M63.67,18.65a.41.41,0,0,0,.81,0,.41.41,0,1,0-.81,0"/><path class="cls-1" d="M63,18.65a1.1,1.1,0,1,0,1.09-1.1A1.09,1.09,0,0,0,63,18.65m.81,0a.28.28,0,1,1,.28.28.28.28,0,0,1-.28-.28"/><path class="cls-1" d="M63.46,20.06a.41.41,0,1,0,.4-.4.4.4,0,0,0-.4.4"/><path class="cls-1" d="M62.77,20.06A1.1,1.1,0,1,0,63.86,19a1.09,1.09,0,0,0-1.09,1.09m.81,0a.29.29,0,0,1,.28-.28.28.28,0,0,1,.28.28.27.27,0,0,1-.28.28.28.28,0,0,1-.28-.28"/><path class="cls-1" d="M63.26,21.52a.41.41,0,1,0,.41-.41.4.4,0,0,0-.41.41"/><path class="cls-1" d="M62.57,21.52a1.1,1.1,0,1,0,1.1-1.1,1.09,1.09,0,0,0-1.1,1.1m.81,0a.29.29,0,0,1,.57,0,.29.29,0,0,1-.57,0"/><path class="cls-1" d="M63,22.85a.41.41,0,1,0,.41-.41.4.4,0,0,0-.41.41"/><path class="cls-1" d="M62.35,22.85a1.1,1.1,0,1,0,1.1-1.1,1.09,1.09,0,0,0-1.1,1.1m.82,0a.27.27,0,0,1,.28-.28.28.28,0,0,1,.28.28.29.29,0,0,1-.28.28.28.28,0,0,1-.28-.28"/><path class="cls-1" d="M62.83,24.22a.41.41,0,1,0,.41-.4.41.41,0,0,0-.41.4"/><path class="cls-1" d="M62.14,24.22a1.1,1.1,0,1,0,1.1-1.09,1.1,1.1,0,0,0-1.1,1.09m.82,0a.28.28,0,0,1,.28-.28.29.29,0,0,1,0,.57.28.28,0,0,1-.28-.29"/><path class="cls-1" d="M62.62,25.6A.41.41,0,0,0,63,26a.41.41,0,1,0,0-.81.41.41,0,0,0-.41.41"/><path class="cls-1" d="M61.94,25.6A1.09,1.09,0,1,0,63,24.5a1.09,1.09,0,0,0-1.09,1.1m.81,0a.28.28,0,1,1,.28.28.28.28,0,0,1-.28-.28"/><path class="cls-1" d="M65.21,13.07a.41.41,0,0,0,.4.41.41.41,0,1,0,0-.82.41.41,0,0,0-.4.41"/><path class="cls-1" d="M64.52,13.07A1.09,1.09,0,1,0,65.61,12a1.1,1.1,0,0,0-1.09,1.09m.81,0a.28.28,0,1,1,.28.28.28.28,0,0,1-.28-.28"/><path class="cls-1" d="M65.91,11.78a.41.41,0,1,0,.41-.41.41.41,0,0,0-.41.41"/><path class="cls-1" d="M65.22,11.78a1.1,1.1,0,1,0,1.1-1.09,1.09,1.09,0,0,0-1.1,1.09m.82,0a.27.27,0,0,1,.28-.28.28.28,0,1,1,0,.56.27.27,0,0,1-.28-.28"/><path class="cls-1" d="M66.74,10.7a.41.41,0,1,0,.41-.41.41.41,0,0,0-.41.41"/><path class="cls-1" d="M66.06,10.7a1.1,1.1,0,1,0,1.09-1.1,1.09,1.09,0,0,0-1.09,1.1m.81,0a.28.28,0,0,1,.56,0,.28.28,0,1,1-.56,0"/><path class="cls-1" d="M68,9.74a.41.41,0,1,0,.81,0,.41.41,0,1,0-.81,0"/><path class="cls-1" d="M67.26,9.74a1.1,1.1,0,1,0,1.1-1.09,1.1,1.1,0,0,0-1.1,1.09m.81,0a.29.29,0,0,1,.57,0,.29.29,0,0,1-.57,0"/><path class="cls-1" d="M69.41,9.28a.41.41,0,1,0,.4-.4.4.4,0,0,0-.4.4"/><path class="cls-1" d="M68.72,9.28a1.1,1.1,0,1,0,1.09-1.09,1.09,1.09,0,0,0-1.09,1.09m.81,0a.29.29,0,0,1,.57,0,.29.29,0,1,1-.57,0"/><path class="cls-1" d="M71,9.45A.41.41,0,1,0,71.4,9a.41.41,0,0,0-.41.41"/><path class="cls-1" d="M70.3,9.45a1.1,1.1,0,1,0,1.09-1.1,1.09,1.09,0,0,0-1.09,1.1m.81,0a.29.29,0,0,1,.57,0,.29.29,0,0,1-.57,0"/><path class="cls-1" d="M72.36,10.16a.41.41,0,1,0,.41-.41.4.4,0,0,0-.41.41"/><path class="cls-1" d="M71.67,10.16a1.1,1.1,0,1,0,1.1-1.1,1.09,1.09,0,0,0-1.1,1.1m.82,0a.27.27,0,0,1,.28-.28.28.28,0,0,1,.28.28.29.29,0,0,1-.28.28.28.28,0,0,1-.28-.28"/><path class="cls-1" d="M73.4,11.07a.41.41,0,1,0,.81,0,.41.41,0,0,0-.81,0"/><path class="cls-1" d="M72.71,11.07A1.1,1.1,0,1,0,73.81,10a1.1,1.1,0,0,0-1.1,1.09m.82,0a.28.28,0,0,1,.28-.28.29.29,0,0,1,0,.57.28.28,0,0,1-.28-.29"/><path class="cls-1" d="M74,12.28a.41.41,0,1,0,.4-.41.41.41,0,0,0-.4.41"/><path class="cls-1" d="M73.34,12.28a1.1,1.1,0,1,0,1.09-1.09,1.1,1.1,0,0,0-1.09,1.09m.81,0a.28.28,0,0,1,.28-.28.28.28,0,0,1,0,.56.28.28,0,0,1-.28-.28"/><path class="cls-1" d="M74.28,13.78a.41.41,0,0,0,.81,0,.41.41,0,1,0-.81,0"/><path class="cls-1" d="M73.59,13.78a1.1,1.1,0,1,0,1.09-1.1,1.09,1.09,0,0,0-1.09,1.1m.81,0a.28.28,0,0,1,.28-.28.27.27,0,0,1,.28.28.28.28,0,0,1-.28.28.29.29,0,0,1-.28-.28"/><path class="cls-1" d="M74,15.28a.41.41,0,0,0,.41.4.41.41,0,1,0,0-.81.41.41,0,0,0-.41.41"/><path class="cls-1" d="M73.3,15.28a1.1,1.1,0,1,0,1.09-1.1,1.09,1.09,0,0,0-1.09,1.1m.81,0a.29.29,0,0,1,.28-.29.29.29,0,0,1,0,.57.29.29,0,0,1-.28-.28"/><path class="cls-1" d="M73.4,16.57a.41.41,0,1,0,.41-.41.4.4,0,0,0-.41.41"/><path class="cls-1" d="M72.71,16.57a1.1,1.1,0,1,0,1.1-1.1,1.1,1.1,0,0,0-1.1,1.1m.82,0a.28.28,0,0,1,.28-.29.29.29,0,0,1,0,.57.28.28,0,0,1-.28-.28"/><path class="cls-1" d="M72.82,17.86a.41.41,0,1,0,.41-.41.4.4,0,0,0-.41.41"/><path class="cls-1" d="M72.13,17.86a1.1,1.1,0,1,0,1.1-1.1,1.09,1.09,0,0,0-1.1,1.1m.81,0a.29.29,0,1,1,.57,0,.29.29,0,0,1-.57,0"/><path class="cls-1" d="M72,19.06a.41.41,0,1,0,.81,0,.41.41,0,0,0-.81,0"/><path class="cls-1" d="M71.34,19.06A1.1,1.1,0,1,0,72.44,18a1.1,1.1,0,0,0-1.1,1.09m.81,0a.29.29,0,1,1,.29.29.29.29,0,0,1-.29-.29"/><path class="cls-1" d="M71.16,20.35a.41.41,0,1,0,.4-.4.4.4,0,0,0-.4.4"/><path class="cls-1" d="M70.47,20.35a1.09,1.09,0,1,0,1.09-1.09,1.09,1.09,0,0,0-1.09,1.09m.81,0a.29.29,0,0,1,.28-.28.29.29,0,0,1,0,.57.29.29,0,0,1-.28-.29"/><path class="cls-1" d="M70.36,21.48a.41.41,0,0,0,.41.4.41.41,0,1,0,0-.81.41.41,0,0,0-.41.41"/><path class="cls-1" d="M69.67,21.48a1.1,1.1,0,0,0,1.1,1.09,1.1,1.1,0,0,0,0-2.19,1.1,1.1,0,0,0-1.1,1.1m.82,0a.28.28,0,1,1,.28.28.28.28,0,0,1-.28-.28"/><path class="cls-1" d="M69.57,22.68a.41.41,0,1,0,.41-.4.41.41,0,0,0-.41.4"/><path class="cls-1" d="M68.89,22.68A1.09,1.09,0,1,0,70,21.59a1.09,1.09,0,0,0-1.09,1.09m.81,0a.28.28,0,1,1,.56,0,.28.28,0,0,1-.56,0"/><path class="cls-1" d="M68.78,23.81a.4.4,0,0,0,.41.4.41.41,0,1,0,0-.81.41.41,0,0,0-.41.41"/><path class="cls-1" d="M68.09,23.81a1.1,1.1,0,1,0,1.1-1.1,1.1,1.1,0,0,0-1.1,1.1m.82,0a.28.28,0,0,1,.28-.29.29.29,0,0,1,0,.57.28.28,0,0,1-.28-.28"/><path class="cls-1" d="M68,25a.41.41,0,1,0,.41-.4A.41.41,0,0,0,68,25"/><path class="cls-1" d="M67.34,25a1.1,1.1,0,1,0,1.1-1.09A1.1,1.1,0,0,0,67.34,25m.82,0a.28.28,0,1,1,.28.29.28.28,0,0,1-.28-.29"/><path class="cls-1" d="M67.37,26.3a.41.41,0,1,0,.4-.4.4.4,0,0,0-.4.4"/><path class="cls-1" d="M66.68,26.3a1.1,1.1,0,1,0,1.1-1.09,1.1,1.1,0,0,0-1.1,1.09m.81,0a.29.29,0,0,1,.57,0,.29.29,0,0,1-.57,0"/><polygon class="cls-1" points="59.08 26.08 58.12 24.42 59.08 22.77 60.99 22.77 61.95 24.42 60.99 26.08 59.08 26.08"/><path class="cls-1" d="M61,22.08H58.68l-1.36,2.34,1.36,2.35h2.71l1.35-2.35-1.35-2.34Zm-.4,1.37.56,1-.56,1H59.47l-.56-1,.56-1Z"/><polygon class="cls-1" points="59.72 24.96 59.41 24.42 59.72 23.89 60.34 23.89 60.65 24.42 60.34 24.96 59.72 24.96"/><polygon class="cls-1" points="60.34 23.2 59.33 23.2 58.61 24.42 59.33 25.65 60.74 25.65 61.45 24.42 60.74 23.2 60.34 23.2"/><polygon class="cls-1" points="60.69 25.79 60.36 25.22 59.7 25.22 59.37 25.79 60.69 25.79"/><polygon class="cls-1" points="60.36 24.53 59.31 24.53 58.18 26.48 61.88 26.48 60.76 24.53 60.36 24.53"/><polygon class="cls-1" points="59.19 25.68 59.52 25.11 59.19 24.54 58.53 24.54 59.19 25.68"/><polygon class="cls-1" points="57.93 24.88 59.19 27.05 60.31 25.11 59.59 23.85 57.34 23.84 57.93 24.88"/><polygon class="cls-1" points="58.51 24.31 59.17 24.31 59.5 23.74 59.17 23.17 58.51 24.31"/><polygon class="cls-1" points="58.57 22.82 57.32 24.99 59.56 25 60.29 23.74 59.17 21.79 58.57 22.82"/><polygon class="cls-1" points="60.86 23.17 60.53 23.74 60.86 24.31 61.52 24.31 60.86 23.17"/><polygon class="cls-1" points="60.27 22.82 59.74 23.74 60.46 25 62.71 25 60.86 21.79 60.27 22.82"/><polygon class="cls-1" points="61.54 24.54 60.88 24.54 60.55 25.11 60.88 25.68 61.54 24.54"/><polygon class="cls-1" points="60.28 24.19 59.76 25.11 60.88 27.05 62.73 23.85 60.48 23.85 60.28 24.19"/><polygon class="cls-1" points="59.37 23.06 59.7 23.63 60.36 23.63 60.68 23.05 59.37 23.06"/><polygon class="cls-1" points="60.68 22.36 58.17 22.38 59.31 24.32 60.76 24.31 61.87 22.35 60.68 22.36"/><polygon class="cls-1" points="60.84 2.96 62.94 2.63 62.96 4.01 60.84 3.63 61.06 5.64 59.21 5.64 59.45 3.63 57.35 4 57.37 2.65 59.45 2.96 59.21 1.64 61.06 1.64 60.84 2.96"/><path class="cls-1" d="M61.06,1H58.39s.19,1,.21,1.18l-1.91-.28,0,3,2-.35c-.07.54-.22,1.86-.22,1.86h3.38l-.2-1.86,2,.37,0-3-1.94.3c0-.15.19-1.18.19-1.18Zm-.81,1.38c0,.23-.08.45-.08.48h-.05s0-.25-.08-.47Zm-.09,1.43h0c0,.06.07.63.13,1.2H60c.06-.57.13-1.14.14-1.2h0"/><path class="cls-1" d="M63.79,1.87l-2,.32L62,1.09H58.3l.24,1-2-.39V5l2.11-.42-.28,1.73,3.6,0-.24-1.77,2.06.43ZM61.34,4.14l.25,1.91H58.7L59,4.17l-2.15.43,0-2.49L59,2.47l-.28-1.16h2.95l-.26,1.22,2.09-.39,0,2.45Z"/><path class="cls-1" d="M62,.4H57.44s.19.82.19.83L55.84.89v4.9l2-.39-.25,1.54,5.19,0s-.15-1.19-.21-1.59l1.93.41,0-4.73-1.84.3s.18-1,.18-1Zm-.83,1.38L60.92,3l2.18-.35c0,.55,0,.85,0,1.41L60.9,3.63s.2,1.47.26,2l-2,0,.31-1.91-2.26.45V2.57L59.45,3s-.27-1.17-.28-1.23h2"/><path class="cls-1" d="M61.62.62H57.8s.23,1,.24,1l-1.87-.32,0,4.15,2-.4c-.06.45-.25,1.7-.25,1.7h4.48S62.21,5.49,62.15,5l2,.42,0-4.12-1.88.34c0-.06.22-1,.22-1ZM57.54,2.93l2.21.38-2.22.45c0-.38,0-.47,0-.83M60.77,2c0,.17-.29,1.39-.29,1.39h.06c0,.17.19,1.44.27,2H59.5c.08-.53.3-2,.3-2h.07L59.55,2Zm.72,1.2L62.77,3c0,.34,0,.42,0,.77l-2-.41.68-.13"/><path class="cls-1" d="M61.71,3.34a1.56,1.56,0,1,1-1.56-1.56,1.56,1.56,0,0,1,1.56,1.56"/><path class="cls-1" d="M57.91,3.34a2.25,2.25,0,1,0,2.24-2.25,2.25,2.25,0,0,0-2.24,2.25m1.38,0a.87.87,0,1,1,.86.87.87.87,0,0,1-.86-.87"/><path class="cls-1" d="M61.43,3.34a1.28,1.28,0,1,1-1.28-1.28,1.27,1.27,0,0,1,1.28,1.28"/><path class="cls-1" d="M58.19,3.34a2,2,0,1,0,2-2,2,2,0,0,0-2,2m1.38,0a.59.59,0,1,1,.58.59.59.59,0,0,1-.58-.59"/><path class="cls-1" d="M60.87,3.34a.72.72,0,1,1-.72-.72.72.72,0,0,1,.72.72"/><path class="cls-1" d="M58.75,3.34a1.41,1.41,0,1,0,1.4-1.41,1.41,1.41,0,0,0-1.4,1.41m1.37,0a0,0,0,0,1,0,0,0,0,0,1,1,0,.06,0,0,0,0,1,0,0"/><path class="cls-1" d="M68.6,31.1s-6.28-.6-8.6-.6-8.54.57-8.54.57l-.23-2.16s6.45-.54,8.76-.54,8.94.59,8.94.59Z"/><path class="cls-1" d="M51.17,28.23l-.71.06.39,3.52.67-.06c.07,0,6.23-.56,8.48-.56s8.47.59,8.53.59l.65.06.54-3.5L69,28.28c-.27,0-6.67-.6-9-.6s-8.57.53-8.83.55m8.83.82c1.8,0,6.35.38,8.13.53,0,.35-.06.45-.11.77-1.68-.15-6.11-.54-8-.54s-6.24.37-7.93.51c0-.33,0-.44-.08-.78,1.73-.14,6.19-.49,8-.49"/><path class="cls-1" d="M54.15,29.45l.07,1.05a.08.08,0,0,0,0,.06s0,0,.07,0v0l-.51,0v-.05l.06,0a.13.13,0,0,0,0-.06l-.09-1.47a.08.08,0,0,0,0-.06l-.07,0v0l.59,0v0s-.05,0-.05.07a.07.07,0,0,0,0,.06l1,.94-.06-1s0,0,0-.06a.09.09,0,0,0-.07,0v0l.5,0v.05l-.06,0a.07.07,0,0,0,0,.06l.09,1.47s0,.05,0,.06l.06,0v0l-.55,0v0s0,0,0-.05,0-.05-.07-.09Z"/><path class="cls-1" d="M53.39,28.26l-.44,0L53,29.38l.08,0c0,.24,0,.4,0,.69l-.08,0,.08,1.26,1.46-.1,1-.06.46.41s0-.27,0-.44l.41,0,0-1.26-.1,0c0-.25,0-.33,0-.57l.09,0-.11-1.23-1.89.12h0l-.55,0-.47-.43s0,.28,0,.46m1.65.21h0ZM54.41,31l0,0v0a0,0,0,0,0,0,0m-.65.06h0Z"/><path class="cls-1" d="M57,30l-.78.06-.1.25a.51.51,0,0,0,0,.09.11.11,0,0,0,.09.07v0l-.58,0v0s.06,0,.07,0a.27.27,0,0,0,.06-.11L56.32,29a.26.26,0,0,0,0-.11s0-.06-.08-.07v0l.61,0v0c-.05,0-.08,0-.07.08a.16.16,0,0,0,0,.08l.75,1.29a.59.59,0,0,0,.09.11.19.19,0,0,0,.09,0v0l-.64,0v0c.06,0,.09,0,.08-.08a.16.16,0,0,0,0-.08Zm-.12-.23-.33-.59-.23.64Z"/><path class="cls-1" d="M56.82,28.05l-1.29.1s0,.8,0,.85c-.1.27-.27.7-.37.94l-.28.09L55,31.31l2-.14h0l1.54-.12-.1-1.29-.31,0c-.12-.19-.37-.62-.53-.89,0,0-.06-.83-.06-.83Zm-.58,1.24v0l0,.06Zm1.65,1v.06h0v0m-.66.6Z"/><polygon class="cls-1" points="55.94 28.96 55.32 30.61 58.02 30.4 56.47 27.56 55.94 28.96"/><path class="cls-1" d="M58.38,29.56l-.25.23,0,.46a.08.08,0,0,0,0,.06l.07,0v0l-.54,0v0s.06,0,.07,0,0,0,0-.06l-.11-1.47a.14.14,0,0,0,0-.06l-.07,0v0l.54,0v0l-.06,0a.13.13,0,0,0,0,.06l0,.61.66-.64,0-.06s0,0-.08-.05v0l.71-.05v0l-.07,0-.1.1-.09.09-.55.51.72.76.15.13.11,0v0l-.68,0v0s.06,0,.06-.06a.3.3,0,0,0-.06-.09Z"/><path class="cls-1" d="M59.39,27.86l-1,.07-1.56.12.06,1.12.1,0c0,.23,0,.36,0,.64l-.09,0,.11,1.29,1.21-.09h0l2.06-.16-.1-1.31-.42,0-.22-.22s.05-.05.05-.05l.1-.09.31-.13.05-.52,0-.74Zm.11.76v0h0Zm.21.6-.09,0,.09,0m0,1v0h0v0m-2,.61h0s0,0,0,0Z"/><path class="cls-1" d="M61,29.85h-.79l-.12.24a.16.16,0,0,0,0,.08s0,.06.09.08v0h-.57v-.05a.11.11,0,0,0,.08,0,.29.29,0,0,0,.06-.1l.67-1.32a.22.22,0,0,0,0-.1s0-.07-.07-.09v0h.62v0c-.05,0-.08,0-.08.07a.29.29,0,0,0,0,.09l.64,1.35a.22.22,0,0,0,.07.12.1.1,0,0,0,.08,0v0H61v0c.05,0,.08,0,.08-.08l0-.08Zm-.11-.24L60.59,29l-.3.61Z"/><path class="cls-1" d="M59.61,28.55v.14l-.46.91-.29.06,0,1.28,1.47,0h0l2,.05,0-1.31L62,29.65l-.44-.93s0-.83,0-.83l-2-.05Zm-.28,1.58v0Z"/><polygon class="cls-1" points="59.97 28.69 59.2 30.26 61.91 30.33 60.63 27.34 59.97 28.69"/><path class="cls-1" d="M62.13,29.66l-.05.58a.14.14,0,0,0,0,.06l.06,0v.05l-.54-.05v0l.06,0a.08.08,0,0,0,0-.06l.13-1.46a.15.15,0,0,0,0-.07l-.06,0v0l1.09.09a1.82,1.82,0,0,1,.31,0,.44.44,0,0,1,.19.1.45.45,0,0,1,.14.19.62.62,0,0,1,0,.24q0,.42-.51.45l.3.51a1,1,0,0,0,.11.17.19.19,0,0,0,.1.05v0l-.63,0v0s.07,0,.07,0a.24.24,0,0,0-.05-.12l-.31-.54Zm0-.28.58.05h.19l.1,0a.21.21,0,0,0,.11-.18.21.21,0,0,0-.08-.2L63,29l-.18,0-.58,0Z"/><path class="cls-1" d="M61.08,28.53l0,.41.08.06c0,.2,0,.47-.06.69l-.09,0L60.87,31l1.91.17h0l1.35.11.12-1.34-.22,0a1.28,1.28,0,0,0,.17-.52v-.12a1.34,1.34,0,0,0-.06-.4,1.14,1.14,0,0,0-.36-.51,1.1,1.1,0,0,0-.43-.22,3.25,3.25,0,0,0-.43-.08h0l-1.75-.15Zm.44,2.14h0l.06.08Zm1.83-2.59h0m.79.73h0"/><path class="cls-1" d="M61.51,28.86,61.41,30l1.27.11.37,0H63l.37-.08H63.3a.86.86,0,0,0,.52-.75.28.28,0,0,0,0-.09.87.87,0,0,0-.38-.73,1,1,0,0,0-.34-.15l-.28,0h0l-1.27-.1Zm.94.34v0a.44.44,0,0,1,0-.15l.14.16-.17.14a.69.69,0,0,1,0-.13m.65-.88h0m0,0h0"/><path class="cls-1" d="M65,30.19l-.78-.06-.14.23a.2.2,0,0,0,0,.08s0,.06.08.08v0l-.58,0v0a.1.1,0,0,0,.08,0,.23.23,0,0,0,.07-.09l.74-1.29a.16.16,0,0,0,0-.1.1.1,0,0,0-.07-.09v0l.61.05v0s-.08,0-.08.07a.16.16,0,0,0,0,.09l.55,1.38a.54.54,0,0,0,.07.12.11.11,0,0,0,.08.05v0L65,30.63v0c.06,0,.09,0,.09-.07a.45.45,0,0,0,0-.08Zm-.09-.25-.23-.63-.33.59Z"/><path class="cls-1" d="M63.68,28.76s0,.13,0,.21c-.15.25-.37.64-.5.87l-.3.05-.1,1.26,2,.16h0l1.56.13,0-1.31L66,30.05c-.09-.24-.27-.67-.38-.95,0-.06,0-.85,0-.85l-1.92-.14Zm-.37,1.62v0h0ZM65,31h0v0Z"/><polygon class="cls-1" points="64.03 28.97 63.17 30.5 65.88 30.71 64.76 27.66 64.03 28.97"/><path class="cls-1" d="M65.8,30.58,66,29.13a.15.15,0,0,0,0-.07l-.06,0v0l.54.07v0l-.07,0,0,.05-.19,1.46a.08.08,0,0,0,0,.07l0,0v0l-.54-.07v0l.06,0a.16.16,0,0,0,0-.06"/><path class="cls-1" d="M65.24,28.89l0,.41.07.06c0,.19-.06.45-.08.66h-.07l-.2,1.27,1.91.25.16-1.1-.08-.06c0-.35.11-.84.13-1s.11-.22.11-.22l.09-.71-1.9-.25Zm1.58.77-.22.1.22-.1m-.58,1.48h0"/><path class="cls-1" d="M60.07,14.49l-1.09-2v1.81a.17.17,0,0,0,0,.1.23.23,0,0,0,.11.05v.07h-.87v-.07a.23.23,0,0,0,.11-.05.17.17,0,0,0,0-.1v-2.5a.12.12,0,0,0,0-.09.17.17,0,0,0-.11-.06v-.07h1.14v.07a.12.12,0,0,0-.1.12.22.22,0,0,0,0,.1l.8,1.51.82-1.49a.39.39,0,0,0,.05-.14c0-.06,0-.09-.11-.1v-.07H62v.07a.14.14,0,0,0-.1.06.12.12,0,0,0,0,.09v2.5a.17.17,0,0,0,0,.1.19.19,0,0,0,.1.05v.07h-.91v-.07a.19.19,0,0,0,.1-.05.17.17,0,0,0,0-.1V12.46Z"/><path class="cls-1" d="M58.29,10.86h-.72v1.28l.13,0v1.68l-.13,0v1.28h2.08l.4.74s.24-.41.42-.74h2.21V13.9l-.14,0V12.18l.14,0V10.86H61.9v-1l-.57,1H60.19v.93l-.06.11-.05-.1v-.94H58.91l-.62-1.15Zm3.07,4h0l0,0Z"/><path class="cls-1" d="M51.62,21c-.24,0-.56-1.1-.56-1.1-.22,4.08,3.21,3.85,3.29,3.5,0-.12-2,.08-1.92-1.67,0-.15.38,1.41.88.82s-.85-.92-.79-1.52c.31-3-2-2.71-1.87-4.12,0,0-.95.51,1,2.42.6.59.63,1.73,0,1.67"/><path class="cls-1" d="M50.32,16.34a1.17,1.17,0,0,0-.58.88,1.41,1.41,0,0,0,0,.21,3.72,3.72,0,0,0,1.38,2.38l-.74.09c0,.13,0,.26,0,.39,0,2.61,1.48,3.76,2.91,4,.74.11,1.59,0,1.75-.68l.07-.29L54.92,23a.9.9,0,0,0-.69-.34l-.2,0a.93.93,0,0,0,0-.29,1.1,1.1,0,0,0-.14-.52,2.56,2.56,0,0,0-.48-.55,2.94,2.94,0,0,1-.25-.26,4.67,4.67,0,0,0,0-.52,3.4,3.4,0,0,0-1.43-2.91c-.39-.33-.48-.43-.48-.6v0l.07-1.23Z"/><path class="cls-1" d="M54.67,23.08c-2.77-2.81-1-4.09-3-5.62-1-.81-1.3-2.93-1.59-4.24a2.73,2.73,0,0,0-.58-1.11c1.25.05,1.76,5.3,2.79,4.34.47-.43-.7-1.9-1.11-2.21a3.47,3.47,0,0,1,1.94,1.93c.65,1.38,0,3,.7,3.32s.53-.79.3-1.52c0,0,1,1.37.77,2.23a5.3,5.3,0,0,0-.23,2.88"/><path class="cls-1" d="M49,12.56a2.38,2.38,0,0,1,.42.8l.14.67c.27,1.4.61,3.13,1.7,4a2.2,2.2,0,0,1,.91,1.73,6.26,6.26,0,0,0,2,3.84L56,25.45l-.71-2.56a4.87,4.87,0,0,1,.23-2.48c.36-1.14-.67-2.58-.87-2.86l-.55.28a4.69,4.69,0,0,0-.39-2,4.18,4.18,0,0,0-2.37-2.29l0,.05c-.44-1.19-.92-2.17-1.82-2.21l-1.63-.08ZM52.68,17a3,3,0,0,1,.07.51c-.1-.12-.21-.23-.33-.35a.92.92,0,0,0,.26-.16m1,3.14a1.11,1.11,0,0,0,.52.06c-.08.29-.14.57-.19.83a4.26,4.26,0,0,1-.33-.89"/><path class="cls-1" d="M68.51,21c.24,0,.56-1.1.56-1.1.22,4.08-3.2,3.85-3.29,3.5,0-.12,2,.08,1.92-1.67,0-.15-.37,1.41-.87.82s.84-.92.78-1.52c-.31-3,2-2.71,1.88-4.12,0,0,.94.51-1,2.42-.6.59-.63,1.73,0,1.67"/><path class="cls-1" d="M68.8,17v0c0,.17-.08.27-.48.6a3.4,3.4,0,0,0-1.43,2.91,4.67,4.67,0,0,0,0,.52,2.94,2.94,0,0,1-.25.26,2.28,2.28,0,0,0-.47.55,1,1,0,0,0-.15.52.93.93,0,0,0,0,.29l-.2,0a.88.88,0,0,0-.68.34l-.18.25.07.31c.16.66,1,.77,1.76.67,1.43-.21,2.9-1.37,2.9-4,0-.13,0-.26,0-.39L69,19.81a3.74,3.74,0,0,0,1.39-2.39,1.36,1.36,0,0,0,0-.2,1.16,1.16,0,0,0-.57-.88l-1.08-.59Z"/><path class="cls-1" d="M65.47,23.08c2.77-2.81,1-4.09,3-5.62,1.06-.81,1.3-2.93,1.59-4.24a2.73,2.73,0,0,1,.58-1.11c-1.25.05-1.75,5.3-2.79,4.34-.46-.43.71-1.9,1.11-2.21A3.44,3.44,0,0,0,67,16.17c-.66,1.38,0,3-.71,3.32S65.77,18.7,66,18c0,0-1,1.37-.77,2.23a5.38,5.38,0,0,1,.24,2.88"/><path class="cls-1" d="M70.59,11.42c-.9,0-1.38,1-1.81,2.21l0-.05a4.18,4.18,0,0,0-2.37,2.29,4.85,4.85,0,0,0-.39,2c-.27-.13-.54-.28-.54-.28-.21.28-1.23,1.72-.88,2.86a4.61,4.61,0,0,1,.23,2.48l-.7,2.55L66,23.57a6.23,6.23,0,0,0,2-3.84A2.23,2.23,0,0,1,68.87,18c1.09-.84,1.43-2.57,1.71-4l.14-.67a2,2,0,0,1,.42-.81l1.07-1.21ZM67.45,17a1.08,1.08,0,0,0,.26.16c-.12.12-.23.23-.33.35,0-.17,0-.34.07-.51m-1,3.14a3.37,3.37,0,0,1-.33.89,5.75,5.75,0,0,0-.19-.83,1.1,1.1,0,0,0,.52-.06"/><path class="cls-1" d="M.36,60.24H36.19V52.67H.36Zm35.1-.82H1.09V53.49H35.46Z"/><path class="cls-1" d="M83.38,60.24h35.84V52.67H83.38Zm35.11-.82H84.11V53.49h34.38Z"/><rect class="cls-1" x="0.69" y="53.02" width="35.23" height="6.58"/><rect class="cls-1" x="83.66" y="53.02" width="35.23" height="6.58"/><polygon class="cls-2" points="0.71 32.2 8.04 32.2 10.87 43.18 13.68 32.2 21 32.2 21 50.25 16.44 50.25 16.44 36.49 12.92 50.25 8.79 50.25 5.28 36.49 5.28 50.25 0.71 50.25 0.71 32.2"/><polygon class="cls-2" points="24.55 32.2 39.49 32.2 39.49 36.06 30.14 36.06 30.14 38.92 38.81 38.92 38.81 42.6 30.14 42.6 30.14 46.16 39.76 46.16 39.76 50.25 24.55 50.25 24.55 32.2"/><polygon class="cls-1" points="68.47 49.72 62.87 49.72 59.21 42.59 58.88 41.93 58.37 42.46 55.49 45.48 55.34 45.63 55.34 45.84 55.34 49.72 50.82 49.72 50.82 32.73 55.34 32.73 55.34 39.02 55.34 40.45 56.27 39.37 61.95 32.73 67.88 32.73 62.16 38.65 61.87 38.94 62.09 39.29 68.47 49.72"/><path class="cls-2" d="M69.12,32.21,62.53,39l6.88,11.24H62.55l-3.8-7.42-2.88,3v4.41H50.29v-18h5.58V39l5.83-6.81Zm-2.48,1H62.19l-5.52,6.45-1.85,2.16V33.26H51.34V49.19h3.48V45.42l.29-.3,2.88-3L59,41l.67,1.32,3.51,6.84h4.34l-5.89-9.63-.43-.69.57-.59Z"/><rect class="cls-1" x="72.01" y="32.73" width="4.54" height="16.99"/><path class="cls-2" d="M77.07,50.25H71.48v-18h5.59Zm-1-17H72.53V49.19H76Z"/><polygon class="cls-1" points="97.83 49.72 93.38 49.72 86.78 40.04 85.82 38.63 85.82 40.34 85.82 49.72 81.63 49.72 81.63 32.73 86.03 32.73 92.67 42.48 93.63 43.89 93.63 42.19 93.63 32.73 97.83 32.73 97.83 49.72"/><path class="cls-2" d="M98.36,32.21v18H93.1l-6.75-9.91v9.91H81.1v-18h5.21l6.79,10v-10Zm-1.06,1H94.15V45.6l-1.92-2.82-6.48-9.52H82.16V49.19h3.13V36.93l1.93,2.82,6.44,9.44H97.3Z"/><path class="cls-1" d="M110.86,50a10.6,10.6,0,0,1-5-1A7,7,0,0,1,103,46a10.31,10.31,0,0,1-1-4.74,9.88,9.88,0,0,1,1.15-4.87,7.39,7.39,0,0,1,3.33-3.11,11.31,11.31,0,0,1,4.71-.82,13.33,13.33,0,0,1,4.29.51,5.41,5.41,0,0,1,2.25,1.53,6.82,6.82,0,0,1,1.19,2.13l-4.37.78a3.2,3.2,0,0,0-1.16-1.4,4.06,4.06,0,0,0-2.32-.64,4.16,4.16,0,0,0-3.32,1.46,6.64,6.64,0,0,0-1.22,4.37c0,2.11.4,3.59,1.23,4.53a4.39,4.39,0,0,0,3.47,1.44,6.25,6.25,0,0,0,1.94-.3,10,10,0,0,0,2.06-1l.25-.15V43.19h-3.72V40.48h7.56v6.89a16.72,16.72,0,0,1-4,2.07,14.35,14.35,0,0,1-4.35.59"/><path class="cls-2" d="M111.09,31.9a13.92,13.92,0,0,1,4.48.54A5.82,5.82,0,0,1,118,34.12,7.53,7.53,0,0,1,119.5,37l-5.38,1A2.9,2.9,0,0,0,113,36.4a3.49,3.49,0,0,0-2-.54,3.63,3.63,0,0,0-2.92,1.27,6.12,6.12,0,0,0-1.09,4c0,2,.36,3.35,1.1,4.19a3.85,3.85,0,0,0,3.07,1.25,5.81,5.81,0,0,0,1.78-.27,9.77,9.77,0,0,0,2-.92v-1.7h-3.73V40h8.61v7.69a17.49,17.49,0,0,1-4.37,2.29,14.73,14.73,0,0,1-4.51.61,11,11,0,0,1-5.24-1.09,7.56,7.56,0,0,1-3.14-3.26,10.8,10.8,0,0,1-1.11-5,10.38,10.38,0,0,1,1.22-5.13,7.88,7.88,0,0,1,3.57-3.32,11.65,11.65,0,0,1,4.93-.87m0,1.05a10.68,10.68,0,0,0-4.48.77,6.78,6.78,0,0,0-3.1,2.88,9.39,9.39,0,0,0-1.09,4.62,9.78,9.78,0,0,0,1,4.5,6.39,6.39,0,0,0,2.7,2.81,10,10,0,0,0,4.74,1,13.94,13.94,0,0,0,4.19-.56,15.6,15.6,0,0,0,3.64-1.85V41h-6.51v1.65h3.73V46l-.51.3a10.4,10.4,0,0,1-2.17,1,6.93,6.93,0,0,1-2.1.32A4.9,4.9,0,0,1,107.27,46c-.92-1-1.37-2.64-1.37-4.88a7,7,0,0,1,1.35-4.71A4.66,4.66,0,0,1,111,34.81a4.53,4.53,0,0,1,2.61.72,3.85,3.85,0,0,1,1.16,1.25l3.35-.59a6,6,0,0,0-.86-1.39,4.76,4.76,0,0,0-2-1.37,12.85,12.85,0,0,0-4.11-.48"/><polygon class="cls-2" points="42.79 32.2 48.36 32.2 48.36 39.02 54.2 32.2 61.61 32.2 55.03 39.01 61.91 50.25 55.04 50.25 51.24 42.83 48.36 45.84 48.36 50.25 42.79 50.25 42.79 32.2"/><path class="cls-2" d="M45.68,53.24c0,.07-.08.12-.23.14-.07.35-.19.81-.36,1.36a7.43,7.43,0,0,1-.55,1.4,9,9,0,0,1,1.54,1.08l-.59.84A12,12,0,0,0,44,57a10.35,10.35,0,0,1-3.34,3l-.81-.74A11.51,11.51,0,0,0,41.78,58a7.68,7.68,0,0,0,1.32-1.5,11.55,11.55,0,0,0-1.76-.91l.4-.81c.3.12.64.27,1,.46l.85.42a10.34,10.34,0,0,0,.88-2.86l.92.27c.17,0,.26.12.26.21"/><path class="cls-2" d="M48,57.4a13.9,13.9,0,0,0-1-1.89l.84-.41a11.14,11.14,0,0,1,1,1.77Zm5.29-2.2c0,.07-.06.1-.18.1a5.87,5.87,0,0,1-1.36,3.5,8.45,8.45,0,0,1-2.87,1.67l-.66-.91A7.9,7.9,0,0,0,51,58.17,5,5,0,0,0,52,54.75L53,55c.19,0,.29.12.29.21m-2.53,1.26-1,.41c-.32-.67-.64-1.29-.95-1.85l.84-.41a8.79,8.79,0,0,1,1.07,1.85"/><path class="cls-2" d="M58.31,52.69c0,.07,0,.12-.14.17l.29,1.33,2.72-.32.15,1-2.61.32.33,1.36,3.49-.39.15,1-3.38.38L60,60.33l-1.13.18-.67-2.87L54.42,58l-.11-1L58,56.67l-.33-1.37-2.53.25-.15-1,2.39-.21L57,52.69l.95-.11c.2,0,.31,0,.33.11"/><path class="cls-2" d="M68.49,58.73a10.17,10.17,0,0,1-4.3,1.18c0,.14-.13.2-.26.18s-.15-.12-.18-.28l-.15-1a10.05,10.05,0,0,0,4.08-.94A5.17,5.17,0,0,0,70.18,55l.92.63a6.13,6.13,0,0,1-2.61,3.15M66.62,55l-.77.77c-.3-.28-.65-.58-1.07-.91l-1-.7.66-.73A9.37,9.37,0,0,1,66.62,55"/><path class="cls-2" d="M75.62,53.28c0,.07-.1.1-.22.1-.12.24-.24.46-.33.67h2.35l.37-.14.7.59c.12.12.11.22,0,.31a6.22,6.22,0,0,1-1.62,3.46,9,9,0,0,1-3.09,2.24l-.66-.91a8.74,8.74,0,0,0,2.83-1.85A5,5,0,0,0,77.27,55H74.55a12.44,12.44,0,0,1-.73,1,11.55,11.55,0,0,1-1.1,1.19l-.81-.66a10,10,0,0,0,1.65-1.86,11.75,11.75,0,0,0,1-2.12l.84.41c.15.07.21.16.19.25m3,1a6.88,6.88,0,0,0-1.29-1.4l.62-.49a11.91,11.91,0,0,1,1.33,1.33Zm1.69-1-.63.56a5.56,5.56,0,0,0-1.21-1.25l.59-.46a7,7,0,0,1,1.25,1.15"/><polygon class="cls-2" points="62.4 6.67 61.94 6.66 58.35 6.64 57.88 6.64 57.96 6.18 58.15 5.02 56.59 5.33 56.12 5.42 56.12 4.93 56.13 1.71 56.13 1.23 56.61 1.32 58.01 1.6 57.91 1.17 57.8 0.69 58.3 0.68 61.99 0.68 62.47 0.68 62.38 1.15 62.28 1.69 63.73 1.46 64.19 1.38 64.19 1.85 64.17 4.92 64.17 5.41 63.69 5.31 62.18 5 62.34 6.21 62.4 6.67"/><polygon class="cls-1" points="61.58 2.34 63.6 2 63.63 4.75 61.5 4.32 61.77 6.1 58.54 6.13 58.8 4.32 56.7 4.78 56.73 1.96 58.73 2.29 58.49 1.18 61.82 1.21 61.58 2.34"/><path class="cls-2" d="M72.44,10.06c-3.29-1.69-6.54.62-7.94,5.07a11.84,11.84,0,0,0,.2-1.74v-.13a4.83,4.83,0,0,0-4.62-5c-3,0-4.65,2.95-4.8,5v.06a11.15,11.15,0,0,0,.14,1.39C54,10.56,50.79,8.42,47.6,10.06c-6.52,3.35,3.95,13.51,5,17.13l5.27-.33,0-.09c.69,0,1.39-.06,2.13-.06s1.5.05,2.22.07v.08l5.48.33C68.9,23,79.12,13.49,72.44,10.06"/><path class="cls-2" d="M69.12,28.49l-.8-.07c-.06,0-6.09-.56-8.22-.56s-8.3.51-8.36.52l-.65.05v-.65c0-.9-1.25-2.69-2.58-4.58C46.22,20,43.38,15.9,44,12.45a5.54,5.54,0,0,1,2.52-3.62,6.51,6.51,0,0,1,3.68-1.25,5.59,5.59,0,0,1,4.57,2.52,5.7,5.7,0,0,1,.31-.55,5.86,5.86,0,0,1,10.32.63A8.18,8.18,0,0,1,66,9.49a5.77,5.77,0,0,1,4.1-1.86A6.41,6.41,0,0,1,73.48,8.7a5.36,5.36,0,0,1,2.64,3.53c.71,3.5-2.26,7.7-4.65,11.07C70.23,25.05,68.83,27,69,27.71Z"/><path class="cls-2" d="M73.17,9.2c-5-3.08-8,2.09-7.94,2.48A5.23,5.23,0,0,0,55,11.54c-1.59-3.22-4.78-4.47-8.08-2.22-7.33,5,4.82,15.05,4.82,18.46,0,0,6.24-.52,8.41-.52s8.28.57,8.28.57C67.82,25,80.94,14,73.17,9.2M56.32,26.41l-2.82.19c-.77-4.13-11-12.66-5.26-15.87,3-1.68,5.74,1.49,6.49,6.12,1.45,9,1.58,9.54,1.59,9.56h0m7.35-12c-.28,2.11-1.73,11.9-1.73,11.9-.72,0-1.09-.1-1.87-.1s-1.15.05-1.87.07L56.51,14.46c-.3-2.62,1.45-5.37,3.65-5.37s3.87,2.56,3.51,5.34m.15,12s.33-2.16,1.54-9.48c.7-4.3,3.47-8,6.52-6.25,5.69,3.35-4.12,11.38-5.29,15.94Z"/><path class="cls-1" d="M73,9.48c-4.19-2.79-7.38,1.09-7.91,3.39v0a5.08,5.08,0,0,0-5-5.24,5,5,0,0,0-5,5.15v0c-.53-2.29-3.73-6.17-7.92-3.38-7.08,4.7,4.23,13.83,4.83,18,0,0,5.87-.49,7.95-.49S68,27.5,68,27.5c.6-4.15,12.06-13.32,5-18M53.27,26.91C52,22.07,42,14,48.05,10.47c3.08-1.81,6.13,1.17,7,6.48,1.56,9.46,1.61,9.69,1.61,9.69Zm6.8-.41c-.74,0-1.45.05-2.14.07,0,0-.36-2.47-1.4-9.55a33.15,33.15,0,0,1-.4-3.34v-.06c.12-2,1.5-4.84,4-4.84,2.26,0,3.87,2.34,3.87,4.77v.13a30.42,30.42,0,0,1-.4,3.34c-1,7.08-1.41,9.56-1.41,9.56-.7,0-1.39-.08-2.14-.08m6.8.4-3.38-.26s0-.23,1.57-9.69c.88-5.31,3.93-8.29,7-6.48,6,3.55-4,11.59-5.2,16.43"/><path class="cls-2" d="M55.69,14.34a.41.41,0,1,1-.81,0,.41.41,0,0,1,.81,0"/><path class="cls-2" d="M56,15.72a.41.41,0,0,1-.81,0,.41.41,0,1,1,.81,0"/><path class="cls-2" d="M56.23,17.17a.41.41,0,1,1-.81,0,.41.41,0,0,1,.81,0"/><path class="cls-2" d="M56.48,18.63a.41.41,0,1,1-.81,0,.41.41,0,1,1,.81,0"/><path class="cls-2" d="M56.69,20a.41.41,0,0,1-.41.41.41.41,0,0,1,0-.81.41.41,0,0,1,.41.4"/><path class="cls-2" d="M56.89,21.5a.41.41,0,0,1-.41.41.41.41,0,0,1-.41-.41.41.41,0,0,1,.41-.41.42.42,0,0,1,.41.41"/><path class="cls-2" d="M57.1,22.83a.41.41,0,1,1-.81,0,.41.41,0,1,1,.81,0"/><path class="cls-2" d="M57.31,24.2a.41.41,0,1,1-.4-.4.4.4,0,0,1,.4.4"/><path class="cls-2" d="M57.52,25.58a.41.41,0,1,1-.41-.41.4.4,0,0,1,.41.41"/><path class="cls-2" d="M54.94,13.05a.41.41,0,1,1-.81,0,.41.41,0,0,1,.81,0"/><path class="cls-2" d="M54.23,11.76a.41.41,0,1,1-.4-.4.4.4,0,0,1,.4.4"/><path class="cls-2" d="M53.4,10.68a.41.41,0,1,1-.81,0,.41.41,0,0,1,.81,0"/><path class="cls-2" d="M52.19,9.72a.4.4,0,0,1-.4.41.41.41,0,1,1,0-.81.4.4,0,0,1,.4.4"/><path class="cls-2" d="M50.74,9.27a.41.41,0,1,1-.41-.41.4.4,0,0,1,.41.41"/><path class="cls-2" d="M49.16,9.43a.41.41,0,1,1-.41-.4.41.41,0,0,1,.41.4"/><path class="cls-2" d="M47.78,10.14a.41.41,0,1,1-.4-.41.41.41,0,0,1,.4.41"/><path class="cls-2" d="M46.74,11.06a.41.41,0,0,1-.81,0,.41.41,0,1,1,.81,0"/><path class="cls-2" d="M46.12,12.26a.41.41,0,1,1-.81,0,.41.41,0,0,1,.81,0"/><path class="cls-2" d="M64.72,11.64a.4.4,0,0,1-.41.4.41.41,0,1,1,0-.81.41.41,0,0,1,.41.41"/><path class="cls-2" d="M64.14,10.35a.41.41,0,0,1-.41.4.41.41,0,1,1,0-.81.41.41,0,0,1,.41.41"/><path class="cls-2" d="M63.3,9.39a.41.41,0,1,1-.81,0,.41.41,0,1,1,.81,0"/><path class="cls-2" d="M62.1,8.56a.41.41,0,0,1-.41.41.42.42,0,0,1-.41-.41.41.41,0,0,1,.41-.41.41.41,0,0,1,.41.41"/><path class="cls-2" d="M60.64,8.22a.41.41,0,1,1-.81,0,.41.41,0,0,1,.81,0"/><path class="cls-2" d="M59.06,8.52a.41.41,0,1,1-.41-.41.4.4,0,0,1,.41.41"/><path class="cls-2" d="M57.81,9.22a.41.41,0,1,1-.4-.4.4.4,0,0,1,.4.4"/><path class="cls-2" d="M56.9,10.26a.41.41,0,0,1-.41.41.41.41,0,1,1,0-.81.4.4,0,0,1,.41.4"/><path class="cls-2" d="M56.31,11.6a.41.41,0,0,1-.81,0,.41.41,0,1,1,.81,0"/><path class="cls-2" d="M56.06,13a.41.41,0,1,1-.81,0,.41.41,0,1,1,.81,0"/><path class="cls-2" d="M64.93,13a.41.41,0,0,1-.41.41.41.41,0,0,1-.41-.41.42.42,0,0,1,.41-.41.41.41,0,0,1,.41.41"/><path class="cls-2" d="M45.87,13.76a.41.41,0,1,1-.41-.41.41.41,0,0,1,.41.41"/><path class="cls-2" d="M46.16,15.26a.41.41,0,1,1-.81,0,.41.41,0,1,1,.81,0"/><path class="cls-2" d="M46.74,16.55a.41.41,0,1,1-.81,0,.41.41,0,1,1,.81,0"/><path class="cls-2" d="M47.32,17.84a.41.41,0,1,1-.81,0,.41.41,0,1,1,.81,0"/><path class="cls-2" d="M48.12,19.05a.41.41,0,0,1-.41.4.41.41,0,1,1,0-.81.41.41,0,0,1,.41.41"/><path class="cls-2" d="M49,20.34a.41.41,0,1,1-.41-.41.4.4,0,0,1,.41.41"/><path class="cls-2" d="M49.78,21.46a.41.41,0,1,1-.81,0,.41.41,0,1,1,.81,0"/><path class="cls-2" d="M50.57,22.67a.41.41,0,1,1-.41-.41.4.4,0,0,1,.41.41"/><path class="cls-2" d="M51.36,23.79a.41.41,0,1,1-.81,0,.41.41,0,1,1,.81,0"/><path class="cls-2" d="M52.11,25a.41.41,0,1,1-.41-.41.4.4,0,0,1,.41.41"/><path class="cls-2" d="M52.78,26.29a.41.41,0,1,1-.41-.41.41.41,0,0,1,.41.41"/><path class="cls-2" d="M64.46,14.34a.41.41,0,1,0,.4-.4.4.4,0,0,0-.4.4"/><path class="cls-2" d="M64.16,15.72a.41.41,0,1,0,.41-.41.41.41,0,0,0-.41.41"/><path class="cls-2" d="M63.91,17.17a.41.41,0,0,0,.41.41.41.41,0,1,0,0-.81.41.41,0,0,0-.41.4"/><path class="cls-2" d="M63.67,18.63a.41.41,0,1,0,.81,0,.41.41,0,1,0-.81,0"/><path class="cls-2" d="M63.46,20a.41.41,0,1,0,.4-.4.4.4,0,0,0-.4.4"/><path class="cls-2" d="M63.26,21.5a.41.41,0,1,0,.81,0,.41.41,0,1,0-.81,0"/><path class="cls-2" d="M63,22.83a.41.41,0,1,0,.81,0,.41.41,0,1,0-.81,0"/><path class="cls-2" d="M62.83,24.2a.41.41,0,1,0,.41-.4.41.41,0,0,0-.41.4"/><path class="cls-2" d="M62.62,25.58A.41.41,0,0,0,63,26a.41.41,0,1,0,0-.81.41.41,0,0,0-.41.41"/><path class="cls-2" d="M65.21,13.05a.4.4,0,0,0,.4.41.41.41,0,1,0,0-.81.4.4,0,0,0-.4.4"/><path class="cls-2" d="M65.91,11.76a.41.41,0,1,0,.81,0,.41.41,0,0,0-.81,0"/><path class="cls-2" d="M66.74,10.68a.41.41,0,1,0,.41-.4.41.41,0,0,0-.41.4"/><path class="cls-2" d="M68,9.72a.41.41,0,1,0,.81,0,.41.41,0,0,0-.81,0"/><path class="cls-2" d="M69.41,9.27a.41.41,0,0,0,.81,0,.41.41,0,1,0-.81,0"/><path class="cls-2" d="M71,9.43a.41.41,0,1,0,.81,0,.41.41,0,0,0-.81,0"/><path class="cls-2" d="M72.36,10.14a.41.41,0,1,0,.41-.41.41.41,0,0,0-.41.41"/><path class="cls-2" d="M73.4,11.06a.41.41,0,1,0,.41-.41.4.4,0,0,0-.41.41"/><path class="cls-2" d="M74,12.26a.41.41,0,1,0,.4-.4.4.4,0,0,0-.4.4"/><path class="cls-2" d="M74.28,13.76a.41.41,0,1,0,.4-.41.41.41,0,0,0-.4.41"/><path class="cls-2" d="M74,15.26a.42.42,0,0,0,.41.41.41.41,0,0,0,.41-.41.41.41,0,0,0-.41-.41.41.41,0,0,0-.41.41"/><path class="cls-2" d="M73.4,16.55a.41.41,0,1,0,.81,0,.41.41,0,1,0-.81,0"/><path class="cls-2" d="M72.82,17.84a.41.41,0,1,0,.81,0,.41.41,0,1,0-.81,0"/><path class="cls-2" d="M72,19.05a.41.41,0,1,0,.41-.41.4.4,0,0,0-.41.41"/><path class="cls-2" d="M71.16,20.34a.41.41,0,0,0,.81,0,.41.41,0,1,0-.81,0"/><path class="cls-2" d="M70.36,21.46a.42.42,0,0,0,.41.41.41.41,0,0,0,.41-.41.41.41,0,0,0-.41-.41.41.41,0,0,0-.41.41"/><path class="cls-2" d="M69.57,22.67a.41.41,0,1,0,.41-.41.41.41,0,0,0-.41.41"/><path class="cls-2" d="M68.78,23.79a.41.41,0,0,0,.41.41.42.42,0,0,0,.41-.41.41.41,0,0,0-.41-.41.41.41,0,0,0-.41.41"/><path class="cls-2" d="M68,25a.41.41,0,1,0,.41-.41A.41.41,0,0,0,68,25"/><path class="cls-2" d="M67.37,26.29a.41.41,0,0,0,.81,0,.41.41,0,1,0-.81,0"/><polygon class="cls-1" points="59.08 26.07 58.12 24.41 59.08 22.75 60.99 22.75 61.95 24.41 60.99 26.07 59.08 26.07"/><polygon class="cls-3" points="59.72 24.94 59.41 24.41 59.72 23.87 60.34 23.87 60.65 24.41 60.34 24.94 59.72 24.94"/><polygon class="cls-3" points="60.69 25.77 60.36 25.2 59.7 25.2 59.37 25.77 60.69 25.77"/><polygon class="cls-3" points="59.19 25.66 59.52 25.09 59.19 24.52 58.53 24.52 59.19 25.66"/><polygon class="cls-3" points="58.51 24.29 59.17 24.29 59.5 23.72 59.17 23.15 58.51 24.29"/><polygon class="cls-3" points="60.86 23.15 60.53 23.72 60.86 24.29 61.52 24.29 60.86 23.15"/><polygon class="cls-3" points="61.54 24.52 60.88 24.52 60.55 25.09 60.88 25.66 61.54 24.52"/><polygon class="cls-3" points="59.37 23.05 59.7 23.61 60.36 23.61 60.68 23.03 59.37 23.05"/><polygon class="cls-2" points="60.84 2.94 62.94 2.62 62.96 4 60.84 3.62 61.06 5.63 59.21 5.63 59.45 3.62 57.35 3.98 57.37 2.63 59.45 2.94 59.21 1.63 61.06 1.63 60.84 2.94"/><path class="cls-2" d="M63.79,1.85l-2,.33L62,1.07H58.3l.24,1-2-.4V4.93l2.11-.42-.28,1.73,3.6,0-.24-1.77,2.06.43ZM61.34,4.12,61.59,6H58.7L59,4.15l-2.15.43,0-2.49L59,2.46l-.28-1.17h2.95l-.26,1.22,2.09-.39,0,2.45Z"/><path class="cls-2" d="M61.71,3.32a1.56,1.56,0,1,1-3.11,0,1.56,1.56,0,0,1,3.11,0"/><path class="cls-1" d="M61.43,3.32a1.28,1.28,0,1,1-1.28-1.27,1.28,1.28,0,0,1,1.28,1.27"/><path class="cls-2" d="M60.87,3.32a.72.72,0,1,1-.72-.72.72.72,0,0,1,.72.72"/><path class="cls-2" d="M68.6,31.08s-6.28-.59-8.6-.59-8.54.56-8.54.56l-.23-2.15s6.45-.55,8.76-.55,8.94.6,8.94.6Z"/><path class="cls-1" d="M54.15,29.43l.07,1.06a.14.14,0,0,0,0,.06.1.1,0,0,0,.07,0v.05l-.51,0v0a.15.15,0,0,0,.06,0s0,0,0-.06L53.78,29a.11.11,0,0,0,0-.06l-.07,0v0l.59,0v0s-.05,0-.05.06a.07.07,0,0,0,0,.06l1,.94-.06-1s0-.05,0-.06l-.07,0v0l.5,0v0a.09.09,0,0,0-.06,0s0,0,0,.06l.09,1.47s0,0,0,.05a.06.06,0,0,0,.06,0v0l-.55,0v0a.06.06,0,0,0,0-.06s0-.05-.07-.09Z"/><path class="cls-1" d="M57,30l-.78.06-.1.25a.31.31,0,0,0,0,.08s0,.06.09.07v0l-.58,0v0s.06,0,.07,0a.29.29,0,0,0,.06-.1L56.32,29a.23.23,0,0,0,0-.11s0-.06-.08-.07v0l.61-.05v0c-.05,0-.08,0-.07.08a.16.16,0,0,0,0,.09l.75,1.28a.37.37,0,0,0,.09.11.13.13,0,0,0,.09,0v0l-.64.05V30.4c.06,0,.09,0,.08-.08a.2.2,0,0,0,0-.08Zm-.12-.23-.33-.59-.23.63Z"/><path class="cls-1" d="M58.38,29.54l-.25.23,0,.46a.08.08,0,0,0,0,.06.09.09,0,0,0,.07,0v0l-.54,0v0l.07,0a.13.13,0,0,0,0-.06l-.11-1.47a.08.08,0,0,0,0-.06l-.07,0v0l.54,0v0a.09.09,0,0,0-.06,0s0,0,0,.06l0,.6.66-.63s0,0,0-.07a.1.1,0,0,0-.08-.05v0l.71,0v0l-.07,0a.84.84,0,0,1-.1.1l-.09.09-.55.52.72.75a.64.64,0,0,0,.15.13l.11,0v0l-.68,0v0s.06,0,.06-.05,0,0-.06-.09Z"/><path class="cls-1" d="M61,29.83h-.79l-.12.24a.2.2,0,0,0,0,.08s0,.07.09.08v0h-.57v0l.08,0a.29.29,0,0,0,.06-.1l.67-1.32a.33.33,0,0,0,0-.1s0-.07-.07-.09v0h.62v0c-.05,0-.08,0-.08.08a.31.31,0,0,0,0,.08l.64,1.36a.23.23,0,0,0,.07.11s0,0,.08.05v0l-.64,0v0c.05,0,.08,0,.08-.07a.31.31,0,0,0,0-.08Zm-.11-.23L60.59,29l-.3.6Z"/><path class="cls-1" d="M62.13,29.64l-.05.58a.11.11,0,0,0,0,.06.09.09,0,0,0,.06,0v0l-.54-.05v0a.06.06,0,0,0,.06,0,.08.08,0,0,0,0,0l.13-1.47s0,0,0-.06a.09.09,0,0,0-.06,0v0l1.09.09.31,0a.57.57,0,0,1,.19.1.45.45,0,0,1,.14.19.65.65,0,0,1,0,.24q0,.42-.51.45l.3.51.11.18a.18.18,0,0,0,.1,0v0l-.63,0v0s.07,0,.07,0a.19.19,0,0,0-.05-.11l-.31-.55Zm0-.28.58.05h.19l.1,0a.22.22,0,0,0,.11-.19.18.18,0,0,0-.08-.19.18.18,0,0,0-.1,0l-.18,0-.58-.05Z"/><path class="cls-1" d="M65,30.17l-.78-.06-.14.23a.2.2,0,0,0,0,.08s0,.07.08.09v0l-.58-.05v0a.1.1,0,0,0,.08,0,.17.17,0,0,0,.07-.09l.74-1.28a.22.22,0,0,0,0-.1.09.09,0,0,0-.07-.09v0l.61,0v0s-.08,0-.08.07a.15.15,0,0,0,0,.09l.55,1.39a.54.54,0,0,0,.07.12.16.16,0,0,0,.08.05v0L65,30.62v0c.06,0,.09,0,.09-.08s0,0,0-.08Zm-.09-.25-.23-.63-.33.59Z"/><path class="cls-1" d="M65.8,30.57,66,29.11A.15.15,0,0,0,66,29l-.06,0V29l.54.08v0l-.07,0a.16.16,0,0,0,0,.06l-.19,1.46s0,0,0,.06a.11.11,0,0,0,0,0v0l-.54-.07v0a.07.07,0,0,0,.06,0l0-.05"/><path class="cls-1" d="M60.07,14.48l-1.09-2v1.8a.15.15,0,0,0,0,.1.23.23,0,0,0,.11.05v.08h-.87V14.4a.23.23,0,0,0,.11-.05.15.15,0,0,0,0-.1V11.76a.13.13,0,0,0,0-.1l-.11-.06v-.07h1.14v.07a.12.12,0,0,0-.1.12.22.22,0,0,0,0,.1l.8,1.51.82-1.48A.5.5,0,0,0,61,11.7c0-.06,0-.09-.11-.1v-.07H62v.07a.29.29,0,0,0-.1.06.13.13,0,0,0,0,.1v2.49a.15.15,0,0,0,0,.1.19.19,0,0,0,.1.05v.08h-.91V14.4a.19.19,0,0,0,.1-.05.15.15,0,0,0,0-.1v-1.8Z"/><path class="cls-3" d="M51.62,21c-.24,0-.56-1.1-.56-1.1-.22,4.07,3.21,3.84,3.29,3.49,0-.11-2,.08-1.92-1.66,0-.16.38,1.4.88.81s-.85-.91-.79-1.52c.31-3-2-2.71-1.87-4.12,0,0-.95.52,1,2.42.6.6.63,1.73,0,1.68"/><path class="cls-3" d="M54.67,23.07c-2.77-2.81-1-4.1-3-5.63-1-.81-1.3-2.93-1.59-4.24a2.81,2.81,0,0,0-.58-1.11c1.25.05,1.76,5.3,2.79,4.34.47-.42-.7-1.9-1.11-2.2a3.47,3.47,0,0,1,1.94,1.92c.65,1.38,0,3,.7,3.33s.53-.79.3-1.53c0,0,1,1.38.77,2.24a5.31,5.31,0,0,0-.23,2.88"/><path class="cls-3" d="M68.51,21c.24,0,.56-1.1.56-1.1.22,4.07-3.2,3.84-3.29,3.49,0-.11,2,.08,1.92-1.66,0-.16-.37,1.4-.87.81s.84-.91.78-1.52c-.31-3,2-2.71,1.88-4.12,0,0,.94.52-1,2.42-.6.6-.63,1.73,0,1.68"/><path class="cls-3" d="M65.47,23.07c2.77-2.81,1-4.1,3-5.63,1.06-.81,1.3-2.93,1.59-4.24a2.81,2.81,0,0,1,.58-1.11c-1.25.05-1.75,5.3-2.79,4.34-.46-.42.71-1.9,1.11-2.2A3.44,3.44,0,0,0,67,16.15c-.66,1.38,0,3-.71,3.33s-.53-.79-.3-1.53c0,0-1,1.38-.77,2.24a5.39,5.39,0,0,1,.24,2.88"/><path class="cls-2" d="M.36,60.22H36.19V52.65H.36Zm35.1-.82H1.09V53.47H35.46Z"/><path class="cls-2" d="M83.38,60.22h35.84V52.65H83.38Zm35.11-.82H84.11V53.47h34.38Z"/></g></g></svg>