<svg xmlns="http://www.w3.org/2000/svg" viewBox="0 0 148.17 37.83"><defs><style>.cls-1{fill:#cac48c;}.cls-2{fill:#231815;}</style></defs><title>資產 5</title><g id="圖層_2" data-name="圖層 2"><g id="レイヤ_x005B__1" data-name="レイヤ＼x005B__1"><polygon class="cls-1" points="22.65 1.67 25.33 1.23 25.36 4.86 22.56 4.29 22.91 6.64 18.64 6.67 18.99 4.29 16.22 4.89 16.25 1.16 18.89 1.61 18.58 0.14 22.97 0.17 22.65 1.67"/><path class="cls-2" d="M37,10.94c-4.34-2.23-8.63.82-10.48,6.7a16.63,16.63,0,0,0,.26-2.3v-.17c0-3.34-2.54-6.56-6.09-6.56-4,0-6.15,3.9-6.34,6.64v.09a13.65,13.65,0,0,0,.18,1.83c-1.93-5.57-6.11-8.4-10.33-6.23-8.61,4.42,5.22,17.84,6.62,22.62l7-.43,0-.11c.91,0,1.84-.08,2.81-.08s2,.06,2.94.09l0,.1,7.23.43C32.31,28.06,45.82,15.47,37,10.94Z"/><path class="cls-2" d="M38,9.74C31.46,5.65,27.5,12.52,27.52,13a7,7,0,0,0-13.66-.19c-2.12-4.28-6.35-5.95-10.73-3-9.74,6.64,6.4,20,6.4,24.52,0,0,8.28-.69,11.18-.69s11,.75,11,.75C30.95,30.65,48.37,16.16,38,9.74ZM15.68,32.6l-3.74.25c-1-5.48-14.6-16.81-7-21.07,4-2.23,7.62,2,8.62,8.12,1.93,11.93,2.1,12.67,2.12,12.7h0Zm9.75-15.91c-.36,2.8-2.28,15.8-2.28,15.8-1,0-1.45-.13-2.49-.13s-1.53.06-2.49.09L15.93,16.73c-.4-3.49,1.92-7.13,4.85-7.13S25.91,13,25.43,16.69Zm.2,15.92s.45-2.87,2-12.59c.93-5.7,4.62-10.69,8.66-8.3,7.55,4.45-5.47,15.12-7,21.17Z"/><path class="cls-1" d="M37.76,10.17C32.22,6.5,28,11.62,27.32,14.65v0a6.72,6.72,0,0,0-6.59-6.92,6.63,6.63,0,0,0-6.62,6.8v.07c-.69-3-4.92-8.15-10.45-4.47C-5.69,16.38,9.24,28.44,10,33.92c0,0,7.75-.65,10.5-.65s10.65.7,10.65.7C32,28.49,47.11,16.38,37.76,10.17Zm-26.08,23C10,26.8-3.16,16.16,4.78,11.48,8.85,9.09,12.88,13,14,20c2.07,12.49,2.13,12.79,2.13,12.79Zm9-.54c-1,0-1.92.07-2.83.1L16,20.13a41.05,41.05,0,0,1-.53-4.41v-.08c.16-2.64,2-6.39,5.31-6.39,3,0,5.11,3.09,5.11,6.31v.16a40.55,40.55,0,0,1-.53,4.41C24,29.48,23.48,32.75,23.48,32.75,22.56,32.72,21.65,32.64,20.66,32.64Zm9,.53-4.47-.34s0-.3,2.08-12.79c1.16-7,5.19-11,9.25-8.56C44.45,16.16,31.27,26.79,29.64,33.17Z"/><circle class="cls-2" cx="14.33" cy="16.6" r="0.54"/><circle class="cls-2" cx="14.72" cy="18.41" r="0.54"/><circle class="cls-2" cx="15.05" cy="20.33" r="0.54"/><circle class="cls-2" cx="15.38" cy="22.25" r="0.54"/><circle class="cls-2" cx="15.65" cy="24.12" r="0.54"/><circle class="cls-2" cx="15.91" cy="26.05" r="0.54"/><circle class="cls-2" cx="16.2" cy="27.8" r="0.54"/><circle class="cls-2" cx="16.48" cy="29.62" r="0.54"/><circle class="cls-2" cx="16.75" cy="31.43" r="0.54"/><circle class="cls-2" cx="13.35" cy="14.89" r="0.54"/><circle class="cls-2" cx="12.41" cy="13.19" r="0.54"/><circle class="cls-2" cx="11.31" cy="11.76" r="0.54"/><circle class="cls-2" cx="9.72" cy="10.5" r="0.54"/><circle class="cls-2" cx="7.79" cy="9.89" r="0.54"/><circle class="cls-2" cx="5.71" cy="10.11" r="0.54"/><circle class="cls-2" cx="3.89" cy="11.05" r="0.54"/><circle class="cls-2" cx="2.52" cy="12.25" r="0.54"/><circle class="cls-2" cx="1.7" cy="13.85" r="0.54"/><circle class="cls-2" cx="26.26" cy="13.02" r="0.54"/><circle class="cls-2" cx="25.49" cy="11.32" r="0.54"/><circle class="cls-2" cx="24.39" cy="10.06" r="0.54"/><circle class="cls-2" cx="22.8" cy="8.96" r="0.54"/><circle class="cls-2" cx="20.87" cy="8.52" r="0.54"/><circle class="cls-2" cx="18.79" cy="8.9" r="0.54"/><circle class="cls-2" cx="17.14" cy="9.84" r="0.54"/><circle class="cls-2" cx="15.93" cy="11.21" r="0.54"/><circle class="cls-2" cx="15.16" cy="12.97" r="0.54"/><circle class="cls-2" cx="14.83" cy="14.78" r="0.54"/><circle class="cls-2" cx="26.53" cy="14.78" r="0.54"/><circle class="cls-2" cx="1.37" cy="15.83" r="0.54"/><circle class="cls-2" cx="1.75" cy="17.8" r="0.54"/><circle class="cls-2" cx="2.52" cy="19.51" r="0.54"/><circle class="cls-2" cx="3.29" cy="21.21" r="0.54"/><circle class="cls-2" cx="4.33" cy="22.81" r="0.54"/><circle class="cls-2" cx="5.49" cy="24.51" r="0.54"/><circle class="cls-2" cx="6.53" cy="25.99" r="0.54"/><circle class="cls-2" cx="7.58" cy="27.58" r="0.54"/><circle class="cls-2" cx="8.62" cy="29.07" r="0.54"/><circle class="cls-2" cx="9.61" cy="30.66" r="0.54"/><circle class="cls-2" cx="10.49" cy="32.37" r="0.54"/><circle class="cls-2" cx="26.98" cy="16.6" r="0.54"/><circle class="cls-2" cx="26.6" cy="18.41" r="0.54"/><circle class="cls-2" cx="26.27" cy="20.33" r="0.54"/><circle class="cls-2" cx="25.94" cy="22.25" r="0.54"/><circle class="cls-2" cx="25.67" cy="24.12" r="0.54"/><circle class="cls-2" cx="25.4" cy="26.05" r="0.54"/><circle class="cls-2" cx="25.12" cy="27.8" r="0.54"/><circle class="cls-2" cx="24.84" cy="29.62" r="0.54"/><circle class="cls-2" cx="24.57" cy="31.43" r="0.54"/><circle class="cls-2" cx="27.97" cy="14.89" r="0.54"/><circle class="cls-2" cx="28.91" cy="13.19" r="0.54"/><circle class="cls-2" cx="30.01" cy="11.76" r="0.54"/><circle class="cls-2" cx="31.6" cy="10.5" r="0.54"/><circle class="cls-2" cx="33.52" cy="9.89" r="0.54"/><circle class="cls-2" cx="35.61" cy="10.11" r="0.54"/><circle class="cls-2" cx="37.42" cy="11.05" r="0.54"/><circle class="cls-2" cx="38.8" cy="12.25" r="0.54"/><circle class="cls-2" cx="39.62" cy="13.85" r="0.54"/><circle class="cls-2" cx="39.95" cy="15.83" r="0.54"/><circle class="cls-2" cx="39.57" cy="17.8" r="0.54"/><circle class="cls-2" cx="38.8" cy="19.51" r="0.54"/><circle class="cls-2" cx="38.03" cy="21.21" r="0.54"/><circle class="cls-2" cx="36.99" cy="22.81" r="0.54"/><circle class="cls-2" cx="35.83" cy="24.51" r="0.54"/><circle class="cls-2" cx="34.79" cy="25.99" r="0.54"/><circle class="cls-2" cx="33.74" cy="27.58" r="0.54"/><circle class="cls-2" cx="32.7" cy="29.07" r="0.54"/><circle class="cls-2" cx="31.71" cy="30.66" r="0.54"/><circle class="cls-2" cx="30.83" cy="32.37" r="0.54"/><polygon class="cls-1" points="19.34 32.07 18.08 29.88 19.34 27.69 21.87 27.69 23.14 29.88 21.87 32.07 19.34 32.07"/><polygon class="cls-2" points="20.2 30.59 19.79 29.88 20.2 29.18 21.02 29.18 21.42 29.88 21.02 30.59 20.2 30.59"/><polygon class="cls-2" points="21.48 31.69 21.04 30.94 20.17 30.94 19.74 31.69 21.48 31.69"/><polygon class="cls-2" points="19.49 31.54 19.93 30.79 19.49 30.03 18.62 30.03 19.49 31.54"/><polygon class="cls-2" points="18.59 29.73 19.46 29.73 19.9 28.98 19.47 28.23 18.59 29.73"/><polygon class="cls-2" points="21.7 28.23 21.27 28.98 21.7 29.73 22.57 29.73 21.7 28.23"/><polygon class="cls-2" points="22.6 30.03 21.73 30.03 21.29 30.79 21.73 31.54 22.6 30.03"/><polygon class="cls-2" points="19.73 28.09 20.17 28.84 21.04 28.83 21.47 28.07 19.73 28.09"/><polygon class="cls-2" points="21.68 2.46 24.45 2.04 24.47 3.86 21.68 3.36 21.96 6.01 19.53 6.01 19.84 3.36 17.06 3.84 17.09 2.05 19.84 2.46 19.53 0.73 21.96 0.73 21.68 2.46"/><path class="cls-2" d="M25.57,1l-2.65.43L23.2,0H18.32l.31,1.36L16,.84,16,5.1l2.79-.56-.37,2.28,4.75,0-.31-2.34,2.72.57ZM22.33,4l.34,2.52H18.84l.37-2.48-2.84.57,0-3.29,2.77.49L18.81.29H22.7l-.33,1.6,2.76-.51,0,3.23Z"/><circle class="cls-2" cx="20.77" cy="2.97" r="2.06"/><circle class="cls-1" cx="20.77" cy="2.97" r="1.68"/><circle class="cls-2" cx="20.77" cy="2.97" r="0.95"/><path class="cls-2" d="M31,37.54s-7.76-.73-10.62-.73-10.56.7-10.56.7l-.29-2.66s8-.68,10.84-.68,11,.74,11,.74Z"/><path class="cls-1" d="M13.18,35.5l.08,1.3a.13.13,0,0,0,0,.07l.08,0v0l-.63,0v0a.17.17,0,0,0,.08,0,.11.11,0,0,0,0-.07L12.72,35a.1.1,0,0,0,0-.07l-.08,0v-.05l.73,0v.05s-.06,0-.06.07a.13.13,0,0,0,0,.08l1.26,1.15-.08-1.27a.09.09,0,0,0,0-.07l-.08,0v-.05l.63,0v.05a.14.14,0,0,0-.07,0,.09.09,0,0,0,0,.07L15,36.69a.12.12,0,0,0,0,.07l.08,0v0l-.67,0v-.05s.06,0,.06-.07,0-.05-.08-.1Z"/><path class="cls-1" d="M16.74,36.21l-1,.07-.12.31a.24.24,0,0,0,0,.1s0,.07.11.09v.05l-.71.05v-.05l.09,0a.43.43,0,0,0,.07-.13l.67-1.7a.33.33,0,0,0,0-.13s0-.08-.1-.1v0l.76-.05v0c-.06,0-.09.06-.09.1a.25.25,0,0,0,0,.1l.94,1.59a.58.58,0,0,0,.1.14.2.2,0,0,0,.11,0v.05l-.79.06V36.7c.07,0,.1-.05.1-.11a.25.25,0,0,0,0-.1Zm-.16-.28-.4-.73-.29.78Z"/><path class="cls-1" d="M18.4,35.64l-.3.28,0,.58a.12.12,0,0,0,0,.07l.08,0v.05l-.67,0v0a.15.15,0,0,0,.08,0,.11.11,0,0,0,0-.08l-.14-1.81a.11.11,0,0,0,0-.07l-.08,0v0l.67-.05v0a.13.13,0,0,0-.07,0,.11.11,0,0,0,0,.07l.06.75.82-.79s.06-.06.06-.08,0,0-.1-.06v-.05l.88-.06v.05l-.08,0-.13.12-.11.11-.68.64.9.93.18.16a.28.28,0,0,0,.13,0v0l-.84.07v-.05c.06,0,.08,0,.08-.07a.31.31,0,0,0-.08-.11Z"/><path class="cls-1" d="M21.59,36l-1,0-.15.3a.26.26,0,0,0,0,.1s0,.08.1.1v.05l-.71,0v-.05a.18.18,0,0,0,.1,0A.4.4,0,0,0,20,36.3l.83-1.63a.34.34,0,0,0,0-.12s0-.08-.09-.11v-.05l.76,0v0c-.06,0-.09,0-.09.09a.22.22,0,0,0,0,.1l.78,1.67a.58.58,0,0,0,.09.15.25.25,0,0,0,.1.05v0l-.79,0v0c.07,0,.1,0,.11-.1a.29.29,0,0,0,0-.1Zm-.13-.3-.33-.77-.37.75Z"/><path class="cls-1" d="M23,35.76l-.06.71a.12.12,0,0,0,0,.07.15.15,0,0,0,.07,0v.05l-.67-.06v0a.15.15,0,0,0,.08,0,.11.11,0,0,0,0-.07l.16-1.81a.14.14,0,0,0,0-.08l-.08,0v0l1.34.11a2,2,0,0,1,.39.06.64.64,0,0,1,.24.12.51.51,0,0,1,.17.24.68.68,0,0,1,0,.29c0,.35-.24.54-.63.56l.37.63a1.36,1.36,0,0,0,.14.21.22.22,0,0,0,.12.06v0L24,36.72v-.05c.05,0,.08,0,.08,0a.39.39,0,0,0-.06-.14l-.38-.67Zm0-.35.72.06H24l.13,0a.25.25,0,0,0,.14-.22.25.25,0,0,0-.1-.25l-.12-.05-.23,0-.72-.06Z"/><path class="cls-1" d="M26.52,36.41l-1-.08-.17.29a.24.24,0,0,0,0,.1s0,.08.1.1v.05l-.71-.06v0a.19.19,0,0,0,.1,0,.39.39,0,0,0,.09-.12L25.84,35a.3.3,0,0,0,0-.12s0-.08-.08-.11v0l.76.06v.05c-.06,0-.1,0-.1.09a.23.23,0,0,0,0,.11l.69,1.71a.56.56,0,0,0,.08.15.21.21,0,0,0,.1.06v0L26.56,37v0c.07,0,.11,0,.11-.09a.24.24,0,0,0,0-.1Zm-.11-.3-.29-.78-.41.73Z"/><path class="cls-1" d="M27.57,36.91l.24-1.8a.12.12,0,0,0,0-.08l-.07,0v-.05l.67.09v0l-.08,0a.1.1,0,0,0,0,.07L28,37a.12.12,0,0,0,0,.08l.07.05v.05l-.67-.09V37l.08,0A.1.1,0,0,0,27.57,36.91Z"/><path class="cls-1" d="M9.5,25.41c-.32,0-.74-1.45-.74-1.45C8.47,29.33,13,29,13.1,28.57c0-.15-2.62.11-2.54-2.2,0-.21.5,1.85,1.16,1.07s-1.12-1.21-1-2c.41-4-2.58-3.57-2.48-5.44,0,0-1.25.68,1.3,3.19C10.3,24,10.34,25.48,9.5,25.41Z"/><path class="cls-1" d="M13.52,28.11c-3.66-3.71-1.32-5.4-3.95-7.43-1.39-1.07-1.71-3.86-2.1-5.6a3.65,3.65,0,0,0-.77-1.46c1.65.07,2.32,7,3.69,5.74.61-.56-.93-2.51-1.47-2.92A4.57,4.57,0,0,1,11.49,19c.86,1.82,0,3.95.93,4.39s.7-1,.4-2c0,0,1.37,1.82,1,2.95A7,7,0,0,0,13.52,28.11Z"/><path class="cls-1" d="M31.8,25.41c.32,0,.74-1.45.74-1.45.29,5.38-4.23,5.08-4.35,4.61,0-.15,2.62.11,2.54-2.2,0-.21-.5,1.85-1.16,1.07s1.12-1.21,1-2c-.41-4,2.57-3.57,2.48-5.44,0,0,1.25.68-1.3,3.19C31,24,31,25.48,31.8,25.41Z"/><path class="cls-1" d="M27.78,28.11c3.66-3.71,1.32-5.4,3.95-7.43,1.39-1.07,1.71-3.86,2.1-5.6a3.63,3.63,0,0,1,.77-1.46c-1.65.07-2.32,7-3.69,5.74-.61-.56.94-2.51,1.47-2.92A4.57,4.57,0,0,0,29.81,19c-.86,1.82,0,3.95-.92,4.39s-.7-1-.4-2c0,0-1.37,1.82-1,2.95A7,7,0,0,1,27.78,28.11Z"/><path class="cls-1" d="M17.87,15.63A.64.64,0,0,0,18,16a.7.7,0,0,0,.56.23c.37,0,.59-.16.59-.43a.36.36,0,0,0-.2-.34,3.83,3.83,0,0,0-.72-.2,1.86,1.86,0,0,1-.78-.28A1.08,1.08,0,0,1,17,14c0-.75.6-1.21,1.55-1.21a1.57,1.57,0,0,1,1.34.55,1.36,1.36,0,0,1,.24.58l-1,.11c-.06-.31-.23-.45-.6-.45S18,13.78,18,14a.33.33,0,0,0,.22.31,3.05,3.05,0,0,0,.67.16,2.32,2.32,0,0,1,.78.27,1.08,1.08,0,0,1,.52,1,1.21,1.21,0,0,1-.34.89,1.76,1.76,0,0,1-1.27.41,2.31,2.31,0,0,1-1.08-.24,1.16,1.16,0,0,1-.52-.62,1.84,1.84,0,0,1-.11-.45Z"/><path class="cls-1" d="M24,16.23a8,8,0,0,0,.51.72H23.23a5.45,5.45,0,0,0-.33-.61l-.75-1.2-.49.49v.61a5.43,5.43,0,0,0,0,.72h-1a5.6,5.6,0,0,0,0-.72V13.64a5.41,5.41,0,0,0,0-.72h1a5.31,5.31,0,0,0,0,.72v.85l1-1a3,3,0,0,0,.42-.54h1.31l-.19.19-.34.34-1,1.06Z"/><path class="cls-2" d="M36.15,18.65a1.81,1.81,0,0,0,.35,1,2,2,0,0,0,1.6.64c1,0,1.68-.46,1.68-1.23a1,1,0,0,0-.57-1,11.14,11.14,0,0,0-2-.56,5.31,5.31,0,0,1-2.2-.79,3.07,3.07,0,0,1-1.32-2.62c0-2.1,1.69-3.43,4.38-3.43a4.45,4.45,0,0,1,3.8,1.56,3.84,3.84,0,0,1,.68,1.64l-2.9.31c-.16-.89-.65-1.26-1.69-1.26-.83,0-1.45.45-1.45,1.08a.94.94,0,0,0,.64.87,8.22,8.22,0,0,0,1.88.45,6.6,6.6,0,0,1,2.21.78,3.05,3.05,0,0,1,1.47,2.79,3.42,3.42,0,0,1-1,2.51,5,5,0,0,1-3.59,1.16,6.49,6.49,0,0,1-3-.67A3.23,3.23,0,0,1,33.6,20.2a5.15,5.15,0,0,1-.3-1.27Z"/><path class="cls-2" d="M31.92,14.15A4.83,4.83,0,0,0,33,17.23l-1.65.16.27,1.79A6.81,6.81,0,0,0,32,20.81a5,5,0,0,0,2.24,2.64,8.11,8.11,0,0,0,3.89.89,6.64,6.64,0,0,0,4.78-1.64,5.09,5.09,0,0,0,1.48-3.75,4.84,4.84,0,0,0-1.24-3.37l1.45-.16-.43-1.88a5.5,5.5,0,0,0-1-2.28C42.44,10.22,40.94,9,38,9,34.37,9,31.92,11.07,31.92,14.15Zm11.27-2.89,0,0,0,0ZM32,20.86l0-.05v0Z"/><path class="cls-2" d="M50.74,22.35a11.14,11.14,0,0,0-.33-1.47L50,19.72H46.15l-.37,1.16a7.85,7.85,0,0,0-.34,1.47h-3.2a13.68,13.68,0,0,0,.65-1.66l3-8.22A8.35,8.35,0,0,0,46.29,11h3.56a11,11,0,0,0,.46,1.47l3,8.22c.26.72.48,1.28.65,1.66Zm-2.66-9-1.27,4.1h2.57Z"/><path class="cls-2" d="M49.85,9.28h-5L44.6,10.7a7.17,7.17,0,0,1-.36,1.17l-3,8.23a12.08,12.08,0,0,1-.58,1.48l-1.24,2.48h7.47l.2-1.49a6.14,6.14,0,0,1,.27-1.15h1.38a9.78,9.78,0,0,1,.26,1.2l.24,1.44h7.34l-1.13-2.44c-.15-.32-.35-.83-.59-1.52l-3-8.22a9.26,9.26,0,0,1-.41-1.3L51.2,9.28Zm-1.27,3.43.13.36L50.49,18h-4.8l1.78-5,.12-.34Z"/><polygon class="cls-2" points="46.44 14.2 44.48 19.14 51.72 19.14 48.06 10.41 46.44 14.2"/><path class="cls-2" d="M56.29,22.35c-1,0-1.43,0-2,0a13,13,0,0,0,.11-2V12.92a15.13,15.13,0,0,0-.11-2c.7,0,.89,0,2,0h3.58c2.21,0,3.51,1.07,3.51,2.87a2.5,2.5,0,0,1-.79,2,3.1,3.1,0,0,1-1.11.6,2.85,2.85,0,0,1,1.42.65,2.77,2.77,0,0,1,.89,2.16c0,2-1.39,3.13-3.77,3.13Zm3.17-7a1.06,1.06,0,0,0,1.17-1.09c0-.67-.42-1.05-1.2-1.05H57.06v2.14Zm-2.4,4.73h2.51a1.27,1.27,0,1,0,0-2.54h-2.5Z"/><path class="cls-2" d="M52.57,11.16a13.37,13.37,0,0,1,.1,1.75v7.47a11.2,11.2,0,0,1-.09,1.77l-.28,2,4-.08H60c3.33,0,5.48-1.9,5.48-4.84a4.51,4.51,0,0,0-1.07-3,4.37,4.37,0,0,0,.66-2.36c0-2.79-2-4.58-5.22-4.58H56.28L52.39,9.2Zm3.53,1.75c0-.08,0-.14,0-.21h3.76c1.79,0,1.79.81,1.79,1.15s-.16.62-.22.67a1.48,1.48,0,0,1-.55.27L56.1,16.55Zm0,7.47V17l5,1.12c.47.11.55.17.68.28a1,1,0,0,1,.29.86c0,.42,0,1.41-2.05,1.41H56.09C56.09,20.56,56.1,20.48,56.1,20.39Z"/><path class="cls-2" d="M57.06,11.52H55.34v5.58h4.12a2.76,2.76,0,0,0,2.89-2.81,2.72,2.72,0,0,0-2.92-2.77Z"/><path class="cls-2" d="M57.06,15.84H55.34v6h4.23a3,3,0,1,0,0-6Z"/><path class="cls-2" d="M67,11a12.5,12.5,0,0,0-.11,2v7.32a13.05,13.05,0,0,0,.11,2H64a12.94,12.94,0,0,0,.11-2V13A12.61,12.61,0,0,0,64,11Z"/><path class="cls-2" d="M67,9.28H62l.26,1.95A10.9,10.9,0,0,1,62.37,13v7.32a11.76,11.76,0,0,1-.09,1.76l-.31,2h7l-.28-2a11.56,11.56,0,0,1-.09-1.78V13a10.83,10.83,0,0,1,.09-1.77l.29-2Z"/><path class="cls-2" d="M39.39,33a15.83,15.83,0,0,0,.11,2.06h-3A15.1,15.1,0,0,0,36.59,33V26.12H35a18.47,18.47,0,0,0-2.06.1V23.6a18.49,18.49,0,0,0,2,.1h6a18.05,18.05,0,0,0,2.13-.1v2.61a17.71,17.71,0,0,0-2.13-.1H39.39Z"/><path class="cls-2" d="M31.2,23.6v4.48l1.86-.16a16.58,16.58,0,0,1,1.81-.09V33a13.48,13.48,0,0,1-.1,1.84l-.25,1.93h6.92l-.25-1.93A13.85,13.85,0,0,1,41.1,33V27.84a14.94,14.94,0,0,1,1.77.08l1.91.21V21.69l-1.91.21a16.45,16.45,0,0,1-1.94.08h-6a17.14,17.14,0,0,1-1.83-.08l-1.92-.23Z"/><path class="cls-2" d="M53.6,29.33c0,3.6-2.2,6-5.52,6s-5.5-2.34-5.5-6,2.16-5.91,5.52-5.91S53.6,25.75,53.6,29.33Zm-2.84,0c0-2.21-1-3.55-2.66-3.55s-2.69,1.35-2.69,3.55S46.43,33,48.1,33,50.76,31.59,50.76,29.36Z"/><path class="cls-2" d="M40.86,29.37c0,4.59,2.9,7.67,7.22,7.67s7.23-3.17,7.23-7.71-2.9-7.59-7.22-7.59S40.86,24.81,40.86,29.37Zm3.43,0c0-2.67,1.38-4.2,3.8-4.2s3.79,1.52,3.79,4.16-1.46,4.28-3.8,4.28S44.3,32,44.3,29.37Z"/><path class="cls-2" d="M43.69,29.36c0,3.68,2.21,5.32,4.4,5.32s4.38-1.64,4.38-5.32-2.2-5.27-4.38-5.27S43.69,25.72,43.69,29.36Zm3.43,0c0-.84.17-1.84,1-1.84s.95,1,.95,1.84-.12,1.89-.95,1.89S47.12,30.06,47.12,29.36Z"/><path class="cls-2" d="M60.87,35.06a13.39,13.39,0,0,0-.67-2.13c-.44-1.19-.6-1.5-.94-1.8a1.49,1.49,0,0,0-1.06-.37H56.8V33a14.2,14.2,0,0,0,.11,2.06H54a13.19,13.19,0,0,0,.11-2V25.67a14.22,14.22,0,0,0-.11-2c.6,0,1.11,0,2,0h3.55c2.21,0,3.49,1.15,3.49,3.11A2.67,2.67,0,0,1,61,29.74c.7.22,1,.53,1.45,1.5.21.44.4.9,1,2.37.15.38.31.72.65,1.45Zm-1.94-6.64a1.19,1.19,0,0,0,1.3-1.27c0-.76-.44-1.16-1.28-1.16H56.8v2.43Z"/><path class="cls-2" d="M52.28,23.87a13,13,0,0,1,.1,1.79V33a11.9,11.9,0,0,1-.1,1.83L52,36.78h6.84l-.25-1.94a11.61,11.61,0,0,1-.09-1.51l.07.19a11.8,11.8,0,0,1,.59,1.85l.26,1.4h7.33l-1.24-2.62L65,33l-.17-.41L64,30.51c-.08-.18-.17-.33-.26-.5a4.72,4.72,0,0,0,1.08-3.2c0-2.93-2-4.83-5.21-4.83H56l-3.94-.08Zm3.53,1.79c0-.09,0-.17,0-.26h3.76c1.78,0,1.78.91,1.78,1.4a1.44,1.44,0,0,1-.27,1c-.09.08-.14.13-.65.3L57.54,29H55.8Z"/><path class="cls-2" d="M56.8,24.28H55.09v5.86h3.84a2.9,2.9,0,0,0,3-3,2.78,2.78,0,0,0-3-2.88Z"/><path class="cls-2" d="M67,23.7a12.69,12.69,0,0,0-.11,2V33a13.19,13.19,0,0,0,.11,2H64a13.09,13.09,0,0,0,.11-2V25.72a12.8,12.8,0,0,0-.11-2Z"/><path class="cls-2" d="M67,22H62l.26,1.95a11,11,0,0,1,.09,1.79V33a11.79,11.79,0,0,1-.09,1.76l-.3,2h7l-.28-2A11.75,11.75,0,0,1,68.59,33V25.72a10.91,10.91,0,0,1,.09-1.77L69,22Z"/><path class="cls-1" d="M36.27,18.65a1.82,1.82,0,0,0,.36,1,2,2,0,0,0,1.6.64c1.05,0,1.68-.46,1.68-1.23a1,1,0,0,0-.57-1,11.14,11.14,0,0,0-2-.56,5.32,5.32,0,0,1-2.2-.79,3.08,3.08,0,0,1-1.33-2.62c0-2.1,1.69-3.43,4.39-3.43a4.45,4.45,0,0,1,3.8,1.56,3.82,3.82,0,0,1,.68,1.64l-2.9.31C39.56,13.34,39.06,13,38,13c-.83,0-1.45.45-1.45,1.08a.94.94,0,0,0,.64.87,8.22,8.22,0,0,0,1.88.45,6.59,6.59,0,0,1,2.21.78,3,3,0,0,1,1.47,2.79,3.42,3.42,0,0,1-1,2.51,5,5,0,0,1-3.59,1.16,6.49,6.49,0,0,1-3-.67,3.23,3.23,0,0,1-1.48-1.75,5.11,5.11,0,0,1-.3-1.27Z"/><path class="cls-1" d="M32.9,14.15a3.93,3.93,0,0,0,1.69,3.32,4.06,4.06,0,0,0,.74.41l-2.89.28.14.9a5.85,5.85,0,0,0,.36,1.47,4.08,4.08,0,0,0,1.85,2.17,7.25,7.25,0,0,0,3.47.78,5.82,5.82,0,0,0,4.19-1.4,4.25,4.25,0,0,0,1.22-3.13,3.89,3.89,0,0,0-1.88-3.51,5.17,5.17,0,0,0-.94-.46l2.84-.31-.22-.94a4.67,4.67,0,0,0-.83-2,5.24,5.24,0,0,0-4.48-1.9C35,9.86,32.9,11.54,32.9,14.15Zm4.39,5a1,1,0,0,1-.17-.57l0-.16a11.1,11.1,0,0,1,1.86.5.19.19,0,0,1,.08.18c0,.33-.57.37-.82.37A1.2,1.2,0,0,1,37.29,19.13Zm3.47-.05a1.87,1.87,0,0,0-1.07-1.73,11.08,11.08,0,0,0-2.22-.62,4.59,4.59,0,0,1-1.9-.66,2.21,2.21,0,0,1-1-1.92c0-1.61,1.32-2.57,3.53-2.57a3.75,3.75,0,0,1,3.1,1.2,2.36,2.36,0,0,1,.24.4l-1.18.13A2.32,2.32,0,0,0,38,12.11a2.1,2.1,0,0,0-2.3,1.94,1.77,1.77,0,0,0,1.13,1.65,8.28,8.28,0,0,0,2.08.52,5.83,5.83,0,0,1,1.92.66,2.19,2.19,0,0,1,1.08,2.06,2.58,2.58,0,0,1-.7,1.9,4.21,4.21,0,0,1-3,.92,5.68,5.68,0,0,1-2.62-.56,2.38,2.38,0,0,1-1.1-1.3,2.05,2.05,0,0,1-.08-.21l1.15-.11a2.28,2.28,0,0,0,.33.6,2.82,2.82,0,0,0,2.28,1C40,21.17,40.76,20.12,40.76,19.08Zm-3.18-4.93a.43.43,0,0,1-.14-.09c0-.06.21-.22.6-.22.75,0,.78.18.85.55v.07A6.28,6.28,0,0,1,37.57,14.14Z"/><path class="cls-1" d="M50.86,22.35a11.47,11.47,0,0,0-.33-1.47l-.37-1.16H46.27l-.37,1.16a7.78,7.78,0,0,0-.34,1.47h-3.2A13.53,13.53,0,0,0,43,20.69l3-8.22A8.35,8.35,0,0,0,46.41,11H50a10.88,10.88,0,0,0,.46,1.47l3,8.22c.26.72.48,1.28.66,1.66Zm-2.66-9-1.27,4.1h2.57Z"/><path class="cls-1" d="M50,10.13H45.69l-.12.71a7.66,7.66,0,0,1-.4,1.33l-3,8.23A12.88,12.88,0,0,1,41.6,22L41,23.21h5.33l.1-.74a7,7,0,0,1,.31-1.32l.18-.57h2.64l.18.56A10.2,10.2,0,0,1,50,22.5l.12.72H55.4L54.83,22c-.16-.34-.37-.87-.63-1.59l-3-8.22a10.2,10.2,0,0,1-.44-1.39l-.16-.66Zm-.66,1.72c.08.24.17.54.32.92l3,8.21c.07.2.13.35.19.52H51.57c-.06-.3-.13-.56-.22-.86l-.56-1.77H45.64l-.56,1.76a9,9,0,0,0-.24.88h-1.2l.19-.52,2.95-8.22c.14-.36.23-.65.31-.91Z"/><path class="cls-1" d="M47.38,13.07l-1.61,5.21h4.9l-2.48-7.82Zm.83,3.12.12.37h-.23Z"/><path class="cls-1" d="M56.41,22.35c-1,0-1.43,0-2,0a13,13,0,0,0,.11-2V12.92a15.11,15.11,0,0,0-.11-2c.7,0,.89,0,2,0H60c2.21,0,3.51,1.07,3.51,2.87a2.5,2.5,0,0,1-.79,2,3.07,3.07,0,0,1-1.1.6,2.87,2.87,0,0,1,1.42.65,2.77,2.77,0,0,1,.89,2.16c0,2-1.4,3.13-3.77,3.13Zm3.17-7a1.06,1.06,0,0,0,1.17-1.09c0-.67-.42-1.05-1.2-1.05H57.18v2.14Zm-2.4,4.73h2.51a1.27,1.27,0,1,0,0-2.54h-2.5Z"/><path class="cls-1" d="M53.54,11.06a14.48,14.48,0,0,1,.1,1.86v7.47a12.2,12.2,0,0,1-.1,1.89l-.14,1,3-.06h3.71c2.85,0,4.63-1.53,4.63-4a3.61,3.61,0,0,0-1.18-2.8l-.17-.13a3.39,3.39,0,0,0,.94-2.44c0-2.3-1.67-3.73-4.37-3.73H56.4l-2.95-.06Zm1.82,9.33V12.92c0-.4,0-.75,0-1.09l1.07,0H60c1.21,0,2.65.35,2.65,2a1.65,1.65,0,0,1-.51,1.31,2.22,2.22,0,0,1-.83.43l-2.74,1,2.85.64a2,2,0,0,1,1,.47A1.92,1.92,0,0,1,63,19.23c0,1.87-1.58,2.27-2.91,2.27H56.41l-1.08,0C55.35,21.2,55.36,20.85,55.36,20.39Z"/><path class="cls-1" d="M57.18,12.37h-.86v3.86h3.26a1.91,1.91,0,0,0,2-2,1.86,1.86,0,0,0-2.06-1.91Zm2.37,1.72a.59.59,0,0,1,.33.06.32.32,0,0,1,0,.13c0,.13,0,.23-.32.23H58v-.43Z"/><path class="cls-1" d="M57.18,16.7h-.86V21h3.37a2.13,2.13,0,1,0,0-4.26Zm2.5,1.72c.54,0,.54.21.54.4s0,.43-.52.43H58v-.83Z"/><path class="cls-1" d="M67.1,11A12.64,12.64,0,0,0,67,13v7.32a13.2,13.2,0,0,0,.11,2h-3a13.21,13.21,0,0,0,.11-2V13a12.86,12.86,0,0,0-.11-2Z"/><path class="cls-1" d="M67.1,10.13h-4l.13,1a12,12,0,0,1,.1,1.9v7.32a12.08,12.08,0,0,1-.1,1.89l-.15,1h5l-.14-1a12.5,12.5,0,0,1-.1-1.9V13a12,12,0,0,1,.1-1.9l.14-1Zm-.95,1.72c0,.32,0,.68,0,1.16v7.32c0,.47,0,.84,0,1.16H65c0-.33,0-.7,0-1.16V13c0-.49,0-.85,0-1.16Z"/><path class="cls-1" d="M39.51,33a15.65,15.65,0,0,0,.11,2.06h-3A15.08,15.08,0,0,0,36.71,33V26.12H35.1a18.51,18.51,0,0,0-2.06.1V23.6a18.5,18.5,0,0,0,2,.1h6a18.08,18.08,0,0,0,2.13-.1v2.61a17.7,17.7,0,0,0-2.13-.1H39.51Z"/><path class="cls-1" d="M32.18,23.6v3.54l.93-.08a17.79,17.79,0,0,1,2-.09h.75v6a14.32,14.32,0,0,1-.1,2l-.12,1h5l-.12-1a14.61,14.61,0,0,1-.1-2V27h.69a17.15,17.15,0,0,1,2,.09l1,.11V22.65l-1,.1a17.06,17.06,0,0,1-2,.09h-6a17.49,17.49,0,0,1-1.93-.09l-1-.12Zm1.72.93,1.18,0h6c.51,0,.91,0,1.27,0v.75c-.37,0-.76,0-1.27,0h-2.4V33c0,.46,0,.85,0,1.2H37.54c0-.35,0-.74,0-1.2V25.26H35.1c-.52,0-.84,0-1.2,0Z"/><path class="cls-1" d="M53.72,29.33c0,3.6-2.2,6-5.52,6s-5.5-2.34-5.5-6,2.16-5.91,5.52-5.91S53.72,25.75,53.72,29.33Zm-2.84,0c0-2.21-1-3.55-2.66-3.55s-2.69,1.35-2.69,3.55,1,3.61,2.69,3.61S50.88,31.59,50.88,29.36Z"/><path class="cls-1" d="M41.84,29.37c0,4.08,2.56,6.81,6.36,6.81s6.38-2.75,6.38-6.85S52,22.6,48.22,22.6,41.84,25.32,41.84,29.37Zm1.71,0c0-3.12,1.79-5.06,4.66-5.06s4.65,1.92,4.65,5S51,34.47,48.2,34.47,43.56,32.51,43.56,29.37Z"/><path class="cls-1" d="M44.67,29.36c0,2.71,1.39,4.46,3.55,4.46s3.52-1.75,3.52-4.46-1.38-4.41-3.52-4.41S44.67,26.68,44.67,29.36Zm1.71,0c0-.81.18-2.69,1.83-2.69S50,28.55,50,29.36s-.18,2.75-1.81,2.75S46.38,30.18,46.38,29.36Z"/><path class="cls-1" d="M61,35.06a13.37,13.37,0,0,0-.67-2.13c-.44-1.19-.6-1.5-.94-1.8a1.49,1.49,0,0,0-1.06-.37H56.93V33A14.36,14.36,0,0,0,57,35.06H54.1a13.34,13.34,0,0,0,.11-2V25.67a14.39,14.39,0,0,0-.11-2c.6,0,1.11,0,2,0h3.55c2.21,0,3.49,1.15,3.49,3.11a2.67,2.67,0,0,1-2.1,2.92c.7.22,1,.53,1.45,1.5.2.44.39.9,1,2.37.15.38.31.72.65,1.45Zm-1.94-6.64a1.19,1.19,0,0,0,1.3-1.27c0-.76-.44-1.16-1.29-1.16H56.93v2.43Z"/><path class="cls-1" d="M53.25,23.77a13.83,13.83,0,0,1,.1,1.9V33a12.6,12.6,0,0,1-.1,1.94l-.13,1H58l-.13-1a13.71,13.71,0,0,1-.1-2V31.62h.54a.63.63,0,0,1,.49.15c.19.16.3.34.71,1.46a13.09,13.09,0,0,1,.63,2l.13.7h5.26l-.66-1.39-.55-1.23-.16-.39-.87-2a5,5,0,0,0-.58-1l.24-.19A3.83,3.83,0,0,0,64,26.81c0-2.45-1.67-4-4.35-4H56.13l-3-.06ZM55.07,33V25.67c0-.44,0-.8,0-1.13l1.09,0h3.55c1.2,0,2.64.39,2.64,2.25a2.16,2.16,0,0,1-.54,1.62,2.18,2.18,0,0,1-1,.49l-2.55.83.87.27a2.71,2.71,0,0,0-.81-.12H56.07V33c0,.48,0,.86,0,1.2H55C55.06,33.88,55.07,33.51,55.07,33Zm6.06-.38a4.71,4.71,0,0,0-1.18-2.15,2.16,2.16,0,0,0-.69-.42l1.56.49c.35.11.53.17.92,1l.85,2,.15.38.12.26H61.66C61.54,33.79,61.38,33.31,61.13,32.63Z"/><path class="cls-1" d="M56.93,25.14h-.86v4.15h3a2,2,0,0,0,2.15-2.13,1.93,1.93,0,0,0-2.14-2Zm2.14,1.72c.43,0,.43.07.43.3s-.07.41-.44.41H57.78v-.72Z"/><path class="cls-1" d="M67.1,23.7a12.69,12.69,0,0,0-.11,2V33a13.19,13.19,0,0,0,.11,2h-3a13.18,13.18,0,0,0,.11-2V25.72a12.88,12.88,0,0,0-.11-2Z"/><path class="cls-1" d="M67.1,22.84h-4l.13,1a11.84,11.84,0,0,1,.1,1.91V33a12.17,12.17,0,0,1-.1,1.89l-.15,1h5l-.14-1a12.5,12.5,0,0,1-.1-1.9V25.72a11.93,11.93,0,0,1,.1-1.9l.14-1Zm-.95,1.72c0,.32,0,.68,0,1.16V33c0,.47,0,.84,0,1.16H65c0-.33,0-.7,0-1.16V25.72c0-.49,0-.85,0-1.16Z"/><path class="cls-1" d="M89.14,31.11a47.82,47.82,0,0,0,3,4.34h-7.3a35.34,35.34,0,0,0-1.94-3.72l-4.36-7.27-2.84,3v3.69a34.5,34.5,0,0,0,.22,4.34h-6a34.47,34.47,0,0,0,.23-4.34V15.39a33.27,33.27,0,0,0-.23-4.34h6a33.88,33.88,0,0,0-.22,4.34v5.19l5.59-6.24a17.8,17.8,0,0,0,2.45-3.29H91.3c-.51.53-.7.76-1.1,1.17l-2,2.05L82.37,20.7Z"/><path class="cls-1" d="M83.71,9.23H82.65l-.53.92a16,16,0,0,1-2.21,3L77.5,15.8v-.41a31.75,31.75,0,0,1,.21-4.14l.22-2H67.88l.25,2a31.67,31.67,0,0,1,.21,4.12V31.11a32.65,32.65,0,0,1-.21,4.13l-.23,2h10l-.22-2a32.38,32.38,0,0,1-.21-4.14v-3l.67-.7,3.13,5.22a33.8,33.8,0,0,1,1.82,3.49l.47,1.12H95.85l-2.29-2.95a46.85,46.85,0,0,1-2.88-4.21l-6-9.23,4.92-5.38,1.94-2,4-4.25-4.2,0ZM87,12.88l-.13.13-6.86,7.5L87.6,32.1l1,1.52H86c-.44-.88-1-1.92-1.53-2.83l-5.59-9.33-5,5.22v4.43c0,1,0,1.76.06,2.51h-2c0-.75.06-1.53.06-2.51V15.39c0-1,0-1.77-.06-2.51h2c0,.75-.06,1.52-.06,2.51v10l8.78-9.8a20.91,20.91,0,0,0,2.07-2.68Z"/><path class="cls-1" d="M101.45,11.05a28,28,0,0,0-.23,4.34V31.11a29.22,29.22,0,0,0,.23,4.34H95.26a29.29,29.29,0,0,0,.22-4.34V15.39a28.52,28.52,0,0,0-.22-4.34Z"/><path class="cls-1" d="M101.45,9.23H93.18l.27,2.06a26.59,26.59,0,0,1,.21,4.1V31.11a27.47,27.47,0,0,1-.2,4.07l-.31,2.09h10.4l-.28-2.08a27.4,27.4,0,0,1-.21-4.09V15.39a27,27,0,0,1,.21-4.08l.29-2.08Zm-2,3.66c0,.68,0,1.47,0,2.51V31.11c0,1,0,1.81,0,2.51H97.26c0-.71.05-1.51.05-2.51V15.39c0-1.09,0-1.86,0-2.51Z"/><path class="cls-1" d="M116,23a39.37,39.37,0,0,1,2,3.49c-.11-1.35-.17-2.7-.17-4.34V15.51a33.2,33.2,0,0,0-.22-4.46h6a33,33,0,0,0-.23,4.46V31.08a37.2,37.2,0,0,0,.23,4.37h-6.16a32,32,0,0,0-2.11-3.72l-5.2-8.18a34.85,34.85,0,0,1-2-3.61c.14,1.32.2,2.93.2,4.37v6.57a33.43,33.43,0,0,0,.22,4.57h-6a31.52,31.52,0,0,0,.22-4.6V15.42a34,34,0,0,0-.22-4.37h6.1a19.79,19.79,0,0,0,2,3.66Z"/><path class="cls-1" d="M123.64,9.23h-8.06l.26,2.05a31.68,31.68,0,0,1,.21,4.23V19.7l-3.83-6a17.81,17.81,0,0,1-1.81-3.29L110,9.23h-9.46l.26,2.05a32.1,32.1,0,0,1,.21,4.14V30.84a29.91,29.91,0,0,1-.2,4.34l-.31,2.09h10.19l-.28-2.07a31.32,31.32,0,0,1-.21-4.33V27l3.66,5.75a30.59,30.59,0,0,1,2,3.5l.49,1.07h9.38l-.23-2a35.73,35.73,0,0,1-.21-4.16V15.51a30.89,30.89,0,0,1,.21-4.22l.26-2.06Zm-2,3.66c0,.75-.05,1.59-.05,2.63V31.08c0,.91,0,1.74.07,2.54h-3c-.45-.85-1-1.75-1.69-2.87l-5.2-8.19a33.09,33.09,0,0,1-1.94-3.45l-3.45,1c.12,1.12.18,2.6.18,4.18v6.57c0,1.09,0,2,.06,2.75h-2c0-.76.05-1.64.05-2.78V15.42c0-1,0-1.78-.06-2.54h2.92a30.84,30.84,0,0,0,1.64,2.83L114.49,24a37.38,37.38,0,0,1,1.94,3.34l3.44-1c-.11-1.37-.16-2.66-.16-4.19V15.51c0-1,0-1.88-.06-2.63Z"/><path class="cls-1" d="M138.91,26.54a17.42,17.42,0,0,0-2.78.15V21.49a23.15,23.15,0,0,0,3.68.17h2.25a36.28,36.28,0,0,0,3.71-.15,29.42,29.42,0,0,0-.19,4v3.28a31.68,31.68,0,0,0,.19,4.37A13.62,13.62,0,0,1,142.2,35a18.07,18.07,0,0,1-6,1c-3.57,0-6.35-1-8.35-3.14s-3.32-5.72-3.32-9.73c0-7.71,4.47-12.61,11.55-12.61,3.51,0,6.18,1.14,8,3.49a8.68,8.68,0,0,1,1.66,3.2l-5.73,1.38a3.75,3.75,0,0,0-1.26-2.11,4.21,4.21,0,0,0-2.84-.91c-3.6,0-5.57,2.73-5.57,7.65,0,2.73.59,4.84,1.72,6.13a5.16,5.16,0,0,0,4,1.58,8.16,8.16,0,0,0,4.08-1.06V26.54Z"/><path class="cls-1" d="M122.75,23.13c0,4.52,1.36,8.42,3.82,11s5.58,3.7,9.67,3.7a20,20,0,0,0,6.57-1.1,15.47,15.47,0,0,0,4-2l.94-.63-.14-1.12a29.66,29.66,0,0,1-.18-4.14V25.51a26.75,26.75,0,0,1,.18-3.76l.28-2.26-2.27.22c-1,.09-1.86.12-2.85.13l5.42-1.3-.6-1.87a10.4,10.4,0,0,0-2-3.81c-2.16-2.74-5.35-4.15-9.44-4.15C128,8.7,122.75,14.37,122.75,23.13Zm6.47,8.48c-1.79-1.87-2.82-5-2.82-8.48,0-6.75,3.64-10.78,9.73-10.78,3,0,5.12.91,6.61,2.79a6.41,6.41,0,0,1,.56.79l-2.13.51a4.9,4.9,0,0,0-1.19-1.4,6,6,0,0,0-4-1.31c-4.63,0-7.4,3.54-7.4,9.48,0,3.22.73,5.68,2.17,7.33a6.94,6.94,0,0,0,5.42,2.21,10,10,0,0,0,4.94-1.27l1-.52V24.71H138V23.47c.51,0,1.08,0,1.86,0h2.25l1.72,0c0,.59,0,1.23,0,2v3.28c0,1.54,0,2.49.09,3.44a10.15,10.15,0,0,1-2.24,1.06,16.27,16.27,0,0,1-5.36.9C133.15,34.18,130.85,33.34,129.22,31.62Zm4.29-3.47c-.82-.93-1.26-2.68-1.26-4.93,0-5.82,2.81-5.82,3.74-5.82a2.38,2.38,0,0,1,1.66.48c.27.22.45.41.69,1.23l.21.73a15.48,15.48,0,0,1-2.17-.15l-2.08-.29v9.33A2.46,2.46,0,0,1,133.51,28.15Zm2.86.35a13.93,13.93,0,0,1,2.06-.13v.34a6,6,0,0,1-2.25.4,4.32,4.32,0,0,1-1.8-.35Z"/><path class="cls-2" d="M89.14,31.11a47.82,47.82,0,0,0,3,4.34h-7.3a35.34,35.34,0,0,0-1.94-3.72l-4.36-7.27-2.84,3v3.69a34.5,34.5,0,0,0,.22,4.34h-6a34.47,34.47,0,0,0,.23-4.34V15.39a33.27,33.27,0,0,0-.23-4.34h6a33.88,33.88,0,0,0-.22,4.34v5.19l5.59-6.24a17.8,17.8,0,0,0,2.45-3.29H91.3c-.51.53-.7.76-1.1,1.17l-2,2.05L82.37,20.7Z"/><path class="cls-2" d="M83.71,10h-.61l-.3.53a16.71,16.71,0,0,1-2.31,3.1l-3.78,4.22V15.39a33.1,33.1,0,0,1,.22-4.23L77.07,10h-8.3l.14,1.17a32.4,32.4,0,0,1,.22,4.22V31.11a33.09,33.09,0,0,1-.22,4.22l-.13,1.16h8.29l-.12-1.16a33.75,33.75,0,0,1-.22-4.23V27.83l1.6-1.67L82,32.26a34,34,0,0,1,1.87,3.59l.27.64H94.25l-1.31-1.68A47.27,47.27,0,0,1,90,30.55l-6.33-9.74L89,15l2-2L93.7,10h-10Zm5.17,2.09-1.4,1.46-6.44,7,7.21,11.09C89.1,33,89.62,33.78,90,34.4H85.48c-.44-.94-1.09-2.16-1.71-3.21l-5.06-8.45L74.63,27v4.11c0,1.34,0,2.24.12,3.3H71.09c.09-1,.12-2,.12-3.3V15.39c0-1.34,0-2.32-.12-3.3h3.65c-.09,1-.12,1.94-.12,3.3v7.92L82,15a19.47,19.47,0,0,0,2.23-2.94Z"/><path class="cls-2" d="M101.45,11.05a28,28,0,0,0-.23,4.34V31.11a29.22,29.22,0,0,0,.23,4.34H95.26a29.29,29.29,0,0,0,.22-4.34V15.39a28.52,28.52,0,0,0-.22-4.34Z"/><path class="cls-2" d="M101.45,10H94.07l.15,1.18a27.69,27.69,0,0,1,.22,4.2V31.11a28.23,28.23,0,0,1-.21,4.19l-.18,1.2h8.59l-.16-1.19a28.51,28.51,0,0,1-.21-4.2V15.39a27.39,27.39,0,0,1,.21-4.19l.17-1.19Zm-1.17,2.09c-.08.87-.1,1.82-.1,3.3V31.11c0,1.43,0,2.41.11,3.3H96.43c.07-.87.1-1.89.1-3.3V15.39c0-1.56,0-2.46-.1-3.3Z"/><path class="cls-2" d="M116,23a39.37,39.37,0,0,1,2,3.49c-.11-1.35-.17-2.7-.17-4.34V15.51a33.2,33.2,0,0,0-.22-4.46h6a33,33,0,0,0-.23,4.46V31.08a37.2,37.2,0,0,0,.23,4.37h-6.16a32,32,0,0,0-2.11-3.72l-5.2-8.18a34.85,34.85,0,0,1-2-3.61c.14,1.32.2,2.93.2,4.37v6.57a33.43,33.43,0,0,0,.22,4.57h-6a31.52,31.52,0,0,0,.22-4.6V15.42a34,34,0,0,0-.22-4.37h6.1a19.79,19.79,0,0,0,2,3.66Z"/><path class="cls-2" d="M123.64,10h-7.17l.15,1.17a32.3,32.3,0,0,1,.22,4.33V22.2c0,.06,0,.12,0,.18l-5.28-8.23a19.42,19.42,0,0,1-1.89-3.45l-.25-.69h-8l.15,1.17a32.69,32.69,0,0,1,.22,4.24V30.84a30.4,30.4,0,0,1-.21,4.45l-.18,1.2h8.39l-.16-1.18a32.22,32.22,0,0,1-.22-4.43V24.26l5.1,8a31,31,0,0,1,2,3.6l.28.61h8l-.13-1.16a36.44,36.44,0,0,1-.22-4.25V15.51a31.93,31.93,0,0,1,.22-4.32l.15-1.18Zm-1.16,2.09c-.08,1-.11,2-.11,3.41V31.08c0,1.22.05,2.29.14,3.32h-4.37c-.47-.95-1-1.92-1.88-3.23L111.06,23a33.42,33.42,0,0,1-2-3.52l-2,.58c.12,1.15.19,2.66.19,4.26v6.57c0,1.49,0,2.57.11,3.53h-3.67c.07-.91.11-2,.11-3.56V15.42c0-1.33,0-2.36-.12-3.32H108a26.09,26.09,0,0,0,1.82,3.19l5.34,8.33a38.61,38.61,0,0,1,2,3.41l2-.57c-.11-1.39-.17-2.7-.17-4.25V15.51c0-1.43,0-2.45-.11-3.41Z"/><path class="cls-2" d="M138.91,26.54a17.42,17.42,0,0,0-2.78.15V21.49a23.15,23.15,0,0,0,3.68.17h2.25a36.28,36.28,0,0,0,3.71-.15,29.42,29.42,0,0,0-.19,4v3.28a31.68,31.68,0,0,0,.19,4.37A13.62,13.62,0,0,1,142.2,35a18.07,18.07,0,0,1-6,1c-3.57,0-6.35-1-8.35-3.14s-3.32-5.72-3.32-9.73c0-7.71,4.47-12.61,11.55-12.61,3.51,0,6.18,1.14,8,3.49a8.68,8.68,0,0,1,1.66,3.2l-5.73,1.38a3.75,3.75,0,0,0-1.26-2.11,4.21,4.21,0,0,0-2.84-.91c-3.6,0-5.57,2.73-5.57,7.65,0,2.73.59,4.84,1.72,6.13a5.16,5.16,0,0,0,4,1.58,8.16,8.16,0,0,0,4.08-1.06V26.54Z"/><path class="cls-2" d="M123.53,23.13c0,4.31,1.28,8,3.61,10.46,2.17,2.29,5.23,3.46,9.1,3.46a19.17,19.17,0,0,0,6.3-1.06,14.8,14.8,0,0,0,3.8-2l.54-.36-.08-.64a30.14,30.14,0,0,1-.19-4.24V25.51a28.37,28.37,0,0,1,.19-3.86l.16-1.29-1.3.12a35.5,35.5,0,0,1-3.61.14h-2.25a22.18,22.18,0,0,1-3.54-.16l-1.19-.17v7.59l1.18-.16a16.22,16.22,0,0,1,2.64-.14h.3v1.64a6.9,6.9,0,0,1-3,.67,4.12,4.12,0,0,1-3.26-1.23c-1-1.09-1.46-3-1.46-5.44,0-3,.79-6.61,4.52-6.61a3.18,3.18,0,0,1,2.17.66,2.72,2.72,0,0,1,.93,1.61l.28,1L147.16,18l-.34-1.07A9.67,9.67,0,0,0,145,13.35c-2-2.56-5-3.87-8.84-3.87C128.47,9.48,123.53,14.84,123.53,23.13Zm5.12,9c-2-2-3-5.24-3-9,0-7.13,4-11.57,10.51-11.57,3.21,0,5.57,1,7.22,3.09a6.77,6.77,0,0,1,1.09,1.81l-3.69.89a4.23,4.23,0,0,0-1.27-1.69A5.2,5.2,0,0,0,136,14.53c-4.2,0-6.61,3.17-6.61,8.7,0,3,.68,5.34,2,6.82A6.18,6.18,0,0,0,136.18,32a9.15,9.15,0,0,0,4.57-1.18l.55-.29v-5h-2.39c-.77,0-1.28,0-1.74,0V22.65c.68,0,1.43.06,2.64.06h2.25c.92,0,1.73,0,2.55-.07-.06.79-.08,1.65-.08,2.87v3.28a37.18,37.18,0,0,0,.13,3.84,11.77,11.77,0,0,1-2.8,1.39,17,17,0,0,1-5.62.94C132.92,35,130.44,34,128.65,32.15Z"/><path class="cls-1" d="M89.14,31.11a47.82,47.82,0,0,0,3,4.34h-7.3a35.34,35.34,0,0,0-1.94-3.72l-4.36-7.27-2.84,3v3.69a34.5,34.5,0,0,0,.22,4.34h-6a34.47,34.47,0,0,0,.23-4.34V15.39a33.27,33.27,0,0,0-.23-4.34h6a33.88,33.88,0,0,0-.22,4.34v5.19l5.59-6.24a17.8,17.8,0,0,0,2.45-3.29H91.3c-.51.53-.7.76-1.1,1.17l-2,2.05L82.37,20.7Z"/><path class="cls-1" d="M101.45,11.05a28,28,0,0,0-.23,4.34V31.11a29.22,29.22,0,0,0,.23,4.34H95.26a29.29,29.29,0,0,0,.22-4.34V15.39a28.52,28.52,0,0,0-.22-4.34Z"/><path class="cls-1" d="M116,23a39.37,39.37,0,0,1,2,3.49c-.11-1.35-.17-2.7-.17-4.34V15.51a33.2,33.2,0,0,0-.22-4.46h6a33,33,0,0,0-.23,4.46V31.08a37.2,37.2,0,0,0,.23,4.37h-6.16a32,32,0,0,0-2.11-3.72l-5.2-8.18a34.85,34.85,0,0,1-2-3.61c.14,1.32.2,2.93.2,4.37v6.57a33.43,33.43,0,0,0,.22,4.57h-6a31.52,31.52,0,0,0,.22-4.6V15.42a34,34,0,0,0-.22-4.37h6.1a19.79,19.79,0,0,0,2,3.66Z"/><path class="cls-1" d="M138.91,26.54a17.42,17.42,0,0,0-2.78.15V21.49a23.15,23.15,0,0,0,3.68.17h2.25a36.28,36.28,0,0,0,3.71-.15,29.42,29.42,0,0,0-.19,4v3.28a31.68,31.68,0,0,0,.19,4.37A13.62,13.62,0,0,1,142.2,35a18.07,18.07,0,0,1-6,1c-3.57,0-6.35-1-8.35-3.14s-3.32-5.72-3.32-9.73c0-7.71,4.47-12.61,11.55-12.61,3.51,0,6.18,1.14,8,3.49a8.68,8.68,0,0,1,1.66,3.2l-5.73,1.38a3.75,3.75,0,0,0-1.26-2.11,4.21,4.21,0,0,0-2.84-.91c-3.6,0-5.57,2.73-5.57,7.65,0,2.73.59,4.84,1.72,6.13a5.16,5.16,0,0,0,4,1.58,8.16,8.16,0,0,0,4.08-1.06V26.54Z"/><path class="cls-2" d="M36.39,18.65a1.79,1.79,0,0,0,.36,1,2,2,0,0,0,1.6.64c1.05,0,1.68-.46,1.68-1.23a1,1,0,0,0-.58-1,11.08,11.08,0,0,0-2-.56,5.32,5.32,0,0,1-2.2-.79,3.07,3.07,0,0,1-1.33-2.62c0-2.1,1.69-3.43,4.38-3.43a4.45,4.45,0,0,1,3.8,1.56,3.82,3.82,0,0,1,.68,1.64l-2.9.31c-.16-.89-.66-1.26-1.69-1.26-.83,0-1.45.45-1.45,1.08a.94.94,0,0,0,.64.87,8.26,8.26,0,0,0,1.89.45,6.62,6.62,0,0,1,2.21.78,3.05,3.05,0,0,1,1.47,2.79,3.42,3.42,0,0,1-1,2.51,5,5,0,0,1-3.59,1.16,6.48,6.48,0,0,1-3-.67,3.22,3.22,0,0,1-1.48-1.75,5.1,5.1,0,0,1-.3-1.27Z"/><path class="cls-2" d="M51,22.35a11.44,11.44,0,0,0-.33-1.47l-.37-1.16H46.39L46,20.88a8,8,0,0,0-.34,1.47h-3.2a13,13,0,0,0,.66-1.66l3-8.22A8.23,8.23,0,0,0,46.53,11h3.57a10.74,10.74,0,0,0,.46,1.47l3,8.22c.26.72.48,1.28.65,1.66Zm-2.66-9L47,17.42h2.57Z"/><path class="cls-2" d="M56.53,22.35c-1,0-1.43,0-2,0a12.82,12.82,0,0,0,.11-2V12.92a14.93,14.93,0,0,0-.11-2c.7,0,.89,0,2,0H60.1c2.21,0,3.51,1.07,3.51,2.87a2.51,2.51,0,0,1-.79,2,3.11,3.11,0,0,1-1.11.6,2.86,2.86,0,0,1,1.42.65A2.77,2.77,0,0,1,64,19.23c0,2-1.39,3.13-3.77,3.13Zm3.17-7a1.06,1.06,0,0,0,1.17-1.09c0-.67-.42-1.05-1.2-1.05H57.3v2.14ZM57.3,20.1h2.51a1.27,1.27,0,1,0,0-2.54H57.3Z"/><path class="cls-2" d="M67.22,11a12.53,12.53,0,0,0-.11,2v7.32a13.07,13.07,0,0,0,.11,2h-3a13,13,0,0,0,.11-2V13a12.71,12.71,0,0,0-.11-2Z"/><path class="cls-2" d="M39.63,33a15.67,15.67,0,0,0,.11,2.06h-3A15.13,15.13,0,0,0,36.83,33V26.12H35.22a18.48,18.48,0,0,0-2.06.1V23.6a18.49,18.49,0,0,0,2,.1h6a18.09,18.09,0,0,0,2.13-.1v2.61a17.73,17.73,0,0,0-2.13-.1H39.63Z"/><path class="cls-2" d="M53.84,29.33c0,3.6-2.2,6-5.52,6s-5.5-2.34-5.5-6,2.16-5.91,5.52-5.91S53.84,25.75,53.84,29.33Zm-2.84,0c0-2.21-1-3.55-2.66-3.55s-2.69,1.35-2.69,3.55,1,3.61,2.69,3.61S51,31.59,51,29.36Z"/><path class="cls-2" d="M61.11,35.06a13.31,13.31,0,0,0-.67-2.13c-.44-1.19-.6-1.5-.95-1.8a1.48,1.48,0,0,0-1.06-.37H57V33a14.51,14.51,0,0,0,.11,2.06H54.22a13.15,13.15,0,0,0,.11-2V25.67a14.2,14.2,0,0,0-.11-2c.6,0,1.11,0,2,0H59.8c2.21,0,3.49,1.15,3.49,3.11a3,3,0,0,1-.8,2.24,3,3,0,0,1-1.3.68c.7.22,1,.53,1.45,1.5.2.44.4.9,1,2.37.15.38.31.72.66,1.45Zm-1.94-6.64a1.19,1.19,0,0,0,1.3-1.27c0-.76-.44-1.16-1.28-1.16H57v2.43Z"/><path class="cls-2" d="M67.22,23.7a12.57,12.57,0,0,0-.11,2V33a13.06,13.06,0,0,0,.11,2h-3a13,13,0,0,0,.11-2V25.72a12.75,12.75,0,0,0-.11-2Z"/></g></g></svg>