<?xml version="1.0" encoding="utf-8"?>
<!-- Generator: Adobe Illustrator 24.3.0, SVG Export Plug-In . SVG Version: 6.00 Build 0)  -->
<svg version="1.1" id="圖層_1" xmlns="http://www.w3.org/2000/svg" xmlns:xlink="http://www.w3.org/1999/xlink" x="0px" y="0px"
	 viewBox="0 0 690 132" style="enable-background:new 0 0 690 132;" xml:space="preserve">
<style type="text/css">
	.st0{fill:#C4352C;}
	.st1{fill:#939496;}
</style>
<g>
	<path class="st0" d="M2.9,3.7h75.5v6.1h-39v26.9h19.1V43H39.4v33.5H2.9V3.7z"/>
	<path class="st1" d="M92.4,71.5c-5.4-3.7-8.1-9.3-8.1-16.8v-51h39.7v51c0,4.9,1.1,8.5,3.3,10.8c2.2,2.3,5.1,3.4,8.7,3.4
		c8,0,12.1-4.7,12.1-14.1v-51h6.1v51c0,5.9-1.2,10.5-3.7,13.7c-2.5,3.2-6.2,5.5-11.2,6.8c-5,1.3-11.6,1.9-20,1.9
		C106.7,77,97.8,75.2,92.4,71.5z"/>
	<path class="st1" d="M160.1,3.7h36.5v66.6h39.5v6.2h-76V3.7z"/>
	<path class="st1" d="M242,3.7h36.5v66.6H318v6.2h-76V3.7z"/>
	<path class="st0" d="M324.7,9.8h-27.4V3.7h91.2v6.1h-27.5v66.7h-36.4V9.8z"/>
	<path class="st1" d="M402.4,72.8c-7.5-2.8-13.4-7.1-17.7-12.6c-4.3-5.6-6.5-12.3-6.5-20.1c0-7.8,2.2-14.4,6.6-20
		c4.4-5.5,10.3-9.8,17.7-12.6c7.5-2.9,15.8-4.3,25.1-4.3c9.2,0,17.6,1.4,25,4.3c7.5,2.9,13.3,7.1,17.7,12.6c4.3,5.5,6.5,12.2,6.5,20
		c0,7.8-2.2,14.5-6.5,20.1c-4.3,5.6-10.2,9.8-17.7,12.6c-7.5,2.8-15.8,4.3-25,4.3C418.2,77,409.9,75.6,402.4,72.8z M434,66.9
		c1.2-2,2-5.6,2.4-10.7c0.2-2.7,0.3-8.1,0.3-16.2c0-8.2-0.2-14-0.5-17.4c-0.2-4.2-1-7.3-2.3-9.5c-1.4-2.6-3.5-4-6.3-4
		c-2.9,0-5.1,1.3-6.6,4c-1.2,2.1-1.9,5.2-2.3,9.5c-0.3,3.6-0.4,9.4-0.4,17.4c0,9,0.1,14.4,0.3,16.2c0.3,4.8,1,8.4,2.3,10.7
		c1.5,2.6,3.7,4,6.7,4C430.5,70.9,432.6,69.6,434,66.9z"/>
	<path class="st1" d="M469.7,3.7H505l24.3,55l20.5-55h15.6l23.9,53.8l20-53.8h8l-27.5,72.8h-31.5l-15.1-34.1l-12.9,34.1h-28.5
		L469.7,3.7z"/>
	<path class="st1" d="M621.4,3.7H652l30.4,36.4V3.7h6.2v72.8h-24.4L627.7,28v48.5h-6.3V3.7z"/>
</g>
<g>
	<path class="st1" d="M1.7,86.5h19.2v41.3H1.7V86.5z"/>
	<path class="st1" d="M34,86.5h17.3l17.2,20.7V86.5h3.5v41.3H58.2l-20.7-27.5v27.5H34V86.5z"/>
	<path class="st1" d="M100.2,90H84.7v-3.5h51.7V90h-15.6v37.8h-20.7V90z"/>
	<path class="st1" d="M149.1,86.5H192V90h-22.1v15.3h10.9v3.5h-10.9v15.5H192v3.5h-42.9V86.5z"/>
	<path class="st1" d="M205.1,86.5h39.5c1.9,0,3.7,0.5,5.3,1.4c1.6,1,2.9,2.3,3.9,3.9c1,1.6,1.4,3.4,1.4,5.3c0,2.6-0.8,4.9-2.4,7
		c-1.6,2.1-3.6,3.4-6,4c2.1,0.6,3.9,1.7,5.2,3.4c1.4,1.7,2,3.5,2,5.6v10.7h-19.8V115c0-1.3-0.2-2.2-0.7-3c-0.6-0.8-1.2-1.4-1.9-1.8
		c-0.8-0.4-1.7-0.7-2.7-0.9c-1-0.2-2-0.3-2.9-0.4l-1.6-0.1v18.9h-19.6V86.5z M226.7,105.4c1.4,0,2.7-0.3,3.9-1
		c1.2-0.7,2.1-1.6,2.8-2.8c0.7-1.2,1-2.5,1-3.9c0-1.4-0.3-2.7-1-3.9c-0.7-1.2-1.6-2.2-2.8-2.9c-1.2-0.7-2.5-1.1-3.9-1.1h-2.1v15.6
		L226.7,105.4z"/>
	<path class="st1" d="M267.9,86.5h17.3l17.2,20.7V86.5h3.5v41.3h-13.9l-20.7-27.5v27.5h-3.6V86.5z"/>
	<path class="st1" d="M333.2,86.5h17.2l18.3,41.3h-22.3l-6.2-13.7h-13l-5.3,13.7h-4.3L333.2,86.5z M338.6,110.5l-5.4-12l-4.7,12
		H338.6z"/>
	<path class="st1" d="M382.9,90h-15.5v-3.5h51.7V90h-15.6v37.8h-20.7V90z"/>
	<path class="st1" d="M431.7,86.5h19.2v41.3h-19.2V86.5z"/>
	<path class="st1" d="M477.4,125.7c-4.2-1.6-7.6-4-10.1-7.2c-2.5-3.2-3.7-7-3.7-11.4c0-4.4,1.2-8.2,3.7-11.3
		c2.5-3.1,5.8-5.5,10.1-7.2c4.2-1.6,9-2.4,14.2-2.4c5.2,0,10,0.8,14.2,2.4c4.2,1.6,7.6,4,10,7.2c2.5,3.1,3.7,6.9,3.7,11.3
		c0,4.4-1.2,8.3-3.7,11.4c-2.5,3.2-5.8,5.6-10,7.2c-4.2,1.6-9,2.4-14.2,2.4C486.4,128.1,481.6,127.3,477.4,125.7z M495.3,122.3
		c0.7-1.1,1.1-3.2,1.4-6.1c0.1-1.5,0.2-4.6,0.2-9.2c0-4.6-0.1-7.9-0.3-9.9c-0.1-2.4-0.6-4.1-1.3-5.4c-0.8-1.5-2-2.2-3.6-2.2
		c-1.7,0-2.9,0.7-3.7,2.2c-0.7,1.2-1.1,3-1.3,5.4c-0.2,2-0.2,5.3-0.2,9.9c0,5.1,0.1,8.2,0.2,9.2c0.2,2.7,0.6,4.7,1.3,6.1
		c0.8,1.5,2.1,2.2,3.8,2.2C493.3,124.6,494.5,123.8,495.3,122.3z"/>
	<path class="st1" d="M532.2,86.5h17.3l17.2,20.7V86.5h3.5v41.3h-13.9l-20.7-27.5v27.5h-3.6V86.5z"/>
	<path class="st1" d="M597.5,86.5h17.2l18.3,41.3h-22.3l-6.2-13.7h-13l-5.3,13.7h-4.3L597.5,86.5z M602.9,110.5l-5.4-12l-4.7,12
		H602.9z"/>
	<path class="st1" d="M645,86.5h20.7v37.8h22.4v3.5H645V86.5z"/>
</g>
<g>
</g>
<g>
</g>
<g>
</g>
<g>
</g>
<g>
</g>
<g>
</g>
</svg>
