<svg xmlns="http://www.w3.org/2000/svg" viewBox="0 0 58.36 60.34"><defs><style>.cls-1{fill:red;stroke:red;stroke-miterlimit:10;stroke-width:0.5px;}</style></defs><title>資產 1</title><g id="圖層_2" data-name="圖層 2"><g id="圖層_1-2" data-name="圖層 1"><path class="cls-1" d="M.25,14.07a5.22,5.22,0,0,1,1.06-2.14c.7-1,1.51-2.13,2.43-3.26a37.84,37.84,0,0,1,2.69-3c.87-.88,1.48-1.31,1.82-1.31s.48.19.67.57a5.93,5.93,0,0,1,.45,1.31,11,11,0,0,1,.22,1.48c.05.49.07.82.07,1a19.49,19.49,0,0,1-.23,2.85,10.05,10.05,0,0,1-.83,2.81,5.89,5.89,0,0,1-1.69,2.18,4.35,4.35,0,0,1-2.76.86,5,5,0,0,1-2.78-.73A2.87,2.87,0,0,1,.25,14.07Zm53.25,25a.79.79,0,0,1-.35.51c-.2.13-.4.26-.61.38a5.83,5.83,0,0,0-.58.39.55.55,0,0,0-.25.45v17c0,.3-.33.55-1,.77a17.44,17.44,0,0,1-2.3.54c-.87.15-1.72.26-2.53.32s-1.34.1-1.6.1a.61.61,0,0,1-.57-.45,6.25,6.25,0,0,1-.26-1.86c0-.94-.07-2.06-.1-3.36s0-2.69,0-4.19.06-2.92.1-4.29.07-2.59.1-3.68,0-1.9,0-2.46a.57.57,0,0,0-.64-.64H33.79a.56.56,0,0,0-.64.64V54c0,.3.22.5.67.61a7.71,7.71,0,0,0,1.66.16,21.1,21.1,0,0,0,2.15-.13c.76-.09,1.48-.14,2.14-.16a7.45,7.45,0,0,1,1.66.1c.45.08.68.25.68.51a.4.4,0,0,1-.45.45h-26a2.56,2.56,0,0,0-.44.7,7.5,7.5,0,0,1-2.82,3,9,9,0,0,1-4.1.8c-.25,0-.51,0-.76,0a1.3,1.3,0,0,1-.71-.29.73.73,0,0,0-.06-.22,1,1,0,0,1-.07-.23V35.39a1.48,1.48,0,0,1,.16-.64.56.56,0,0,1,.55-.32,8.89,8.89,0,0,1,1.28.41l2.49.93c.9.34,1.74.67,2.53,1l1.51.61H42.55c.13,0,.39-.18.77-.54a15.08,15.08,0,0,0,1.15-1.22,15.85,15.85,0,0,0,1-1.31,2.09,2.09,0,0,0,.45-.9c0-.38-.13-.59-.39-.64a5.31,5.31,0,0,0-.83-.06,10.9,10.9,0,0,0-1.34.13c-.64.08-1.29.16-2,.22s-1.27.1-1.82.1-.9-.11-1-.32a3.87,3.87,0,0,1-.36-.87.69.69,0,0,0-.73-.54H21.43a2.56,2.56,0,0,0-1,.57,5,5,0,0,1-.89.71,9.59,9.59,0,0,1-3,1.31,13.32,13.32,0,0,1-3.26.42c-.35,0-.56-.22-.64-.64a20.41,20.41,0,0,1-.13-2.37c0-.81,0-1.6-.07-2.37-.08-1.62-.15-3.25-.19-4.9s-.06-3.29-.06-5c0-.38.21-.57.64-.57a4.11,4.11,0,0,1,1.85.48c.64.32,1.29.66,2,1s1.33.71,2,1a4.92,4.92,0,0,0,2.11.48H37.56l.45-.2,3.07-3.07.45-.19a5.79,5.79,0,0,1,1.66.67,26.91,26.91,0,0,1,2.34,1.41,15.62,15.62,0,0,1,2,1.63c.57.56.84,1,.8,1.41a.41.41,0,0,1-.26.38c-.17.09-.35.18-.54.26a2.32,2.32,0,0,0-.55.35,1,1,0,0,0-.25.74v8.13a2.12,2.12,0,0,0,.83,1.47,16.57,16.57,0,0,0,2,1.53c.75.52,1.48,1,2.21,1.44a9,9,0,0,1,1.6,1.19ZM41,10.62l1.18,1c.54.45,1.08.93,1.63,1.44s1.06,1,1.51,1.44a4.67,4.67,0,0,1,.86,1.06,1.31,1.31,0,0,1-.38.35.94.94,0,0,1-.45.16h-34A.65.65,0,0,1,11.1,16c-.11,0-.16-.1-.16-.19a.88.88,0,0,1,.09-.38.37.37,0,0,1,.36-.19H35.71a1.87,1.87,0,0,0,1.53-.71A10,10,0,0,0,38.3,13c.32-.57.65-1.1,1-1.6a2,2,0,0,1,1.34-.86Zm6.21-3.07c.17,0,.49-.21,1-.61s.93-.86,1.4-1.35.91-.92,1.32-1.31.67-.57.8-.57a1,1,0,0,1,.6.28l.74.61a7.49,7.49,0,0,1,.7.67l.52.55c.12.13.4.38.83.77L56.41,7.8c.45.43.84.82,1.18,1.19s.52.6.52.73c0,.51-.41,1.09-1.22,1.73A18.18,18.18,0,0,1,54,13.27a24.75,24.75,0,0,1-3.2,1.44,7.44,7.44,0,0,1-2.27.58.51.51,0,0,1-.58-.58,13.84,13.84,0,0,1,.26-2.65,14,14,0,0,0,.26-2.66,5.22,5.22,0,0,0,0-.67c0-.23-.18-.35-.48-.35a31.91,31.91,0,0,0-3.8.22,32.2,32.2,0,0,1-3.81.23q-8.84,0-17.67-.2c-.76,0-1.64,0-2.62,0l-3,.06q-1.5,0-2.94,0a12.38,12.38,0,0,1-2.46-.32,3.2,3.2,0,0,1-.39-.16.49.49,0,0,1-.25-.35.34.34,0,0,1,.25-.13H24c.47,0,.72-.4.74-1.19A20.93,20.93,0,0,0,24.63,4a22.84,22.84,0,0,1-.09-2.56c0-.78.26-1.18.73-1.18A38.92,38.92,0,0,1,30,.54c1.56.19,3.12.39,4.7.61l.19.19-.06.32-.61.48a2.07,2.07,0,0,0-.48.54,2.33,2.33,0,0,0-.22.77c-.07.38-.13.8-.19,1.25A12.07,12.07,0,0,0,33.18,6c0,.4,0,.69,0,.86l.19.45.38.26ZM14.78,54.27c0,.42.19.64.57.64,1.5,0,3,0,4.52-.07a40.14,40.14,0,0,0,4.51-.38c.42,0,.64-.26.64-.64V39.29a.57.57,0,0,0-.64-.64h-9a.56.56,0,0,0-.64.64Zm1.53-7.68-.12-.2a6.52,6.52,0,0,1,1.15-.09c.64,0,1.35,0,2.14,0s1.54,0,2.24,0l1.44,0,.19.19-.19.26h-6.4Zm22.4-17.16V23.55a.56.56,0,0,0-.64-.64H21a.56.56,0,0,0-.64.64V29.5a.57.57,0,0,0,.64.64l16.57.45a.85.85,0,0,0,.55-.29l.41-.42Zm-4,16.9h7.23l.2.19-.2.26H34.68l-.25-.26Z"/></g></g></svg>