<svg id="圖層_1" data-name="圖層 1" xmlns="http://www.w3.org/2000/svg" viewBox="0 0 205.26 55.41"><defs><style>.cls-1{fill:none;stroke-width:0.5px;}.cls-1,.cls-3,.cls-4{stroke:#231815;}.cls-1,.cls-4{stroke-miterlimit:10;}.cls-2,.cls-3,.cls-4{fill:#231815;}.cls-3,.cls-4{stroke-width:0.25px;}</style></defs><path class="cls-1" d="M111.7,6C95.58,11.29,91.58,22.66,91.58,22.66,89.08,28,91.08,35,91.08,35s10.12-8.88,12.12-16.38c0,0,1.63,1.94-2,7.5a24.1,24.1,0,0,1-4.87,6.38c-6.21,5.38-10.25,6-10.25,6l-.86.21.23-9.09a4.54,4.54,0,0,1,.5-2.37,34.83,34.83,0,0,0,2.63-7,24.59,24.59,0,0,0,0-12.38A18,18,0,0,0,85.45,2L82.93,4.45c-6.73,7.28-5,16.84-5,16.84a8.32,8.32,0,0,0,5.7,7.62L81.58,25.6C79.45,20.79,81,15.41,81,15.41,81.7,12,83.65,12,83.65,12c-2.18,10.37,1,15.87,1,15.87L84.21,39c-2.24.52-4.63,1-4.63,1l-5.46,1.64A57.61,57.61,0,0,1,75.33,35a24,24,0,0,0-.75-13.13C70,9,53.83,7.91,53.83,7.91c1,11,2.87,14.75,2.87,14.75a23.81,23.81,0,0,0,15,13.25,11.3,11.3,0,0,0,0-6.87c-2.5-6.75-11-12.5-11-12.5,9.13-.5,12.88,9.87,12.88,9.87a14.4,14.4,0,0,1,.5,9,56,56,0,0,1-1.74,6.82c-9,2.72-18.51,5.68-18.51,5.68-5.25,1.5-5.38,2.63-5.38,2.63-2.37,2.5,0,4.12,0,4.12a5.45,5.45,0,0,0,4.25-1.25c5-3.62,13.38-6.75,13.38-6.75,8.62-3.5,18.12-6.25,18.12-6.25,8.25-2.25,10.63-4.25,10.63-4.25,8.37-4,13.5-14.12,13.5-14.12A31.75,31.75,0,0,0,111.7,6Z"/><path class="cls-2" d="M125.77,13.47a14.92,14.92,0,0,1,4.51.68,9.61,9.61,0,0,1,3.7,2.13,9.37,9.37,0,0,1,2.37,3.7,13.39,13.39,0,0,1,.81,4.7,15.43,15.43,0,0,1-.86,5.13A12.07,12.07,0,0,1,133.87,34,9.31,9.31,0,0,1,130,36.49a14.56,14.56,0,0,1-4.85.8,14.17,14.17,0,0,1-4.55-.72,9.61,9.61,0,0,1-3.7-2.25,9.91,9.91,0,0,1-2.38-3.75,13.46,13.46,0,0,1-.81-4.65,14.45,14.45,0,0,1,1.49-6.61,9.65,9.65,0,0,1,4.36-4.39A13.53,13.53,0,0,1,125.77,13.47Zm-.1,2.86a8,8,0,0,0-4.21,1.15,6.82,6.82,0,0,0-2.85,3.45,13.55,13.55,0,0,0-.92,5,11.63,11.63,0,0,0,.76,4.29A6.57,6.57,0,0,0,121,33.32a7.45,7.45,0,0,0,4.23,1.18,8.94,8.94,0,0,0,3.19-.58A6.46,6.46,0,0,0,131,32a8.56,8.56,0,0,0,1.67-3.25,15.33,15.33,0,0,0,.54-4,12.77,12.77,0,0,0-.54-3.72A6.31,6.31,0,0,0,131,18.23a6.24,6.24,0,0,0-2.51-1.47A9.61,9.61,0,0,0,125.67,16.33Z"/><path class="cls-2" d="M151.43,13.47a14.92,14.92,0,0,1,4.51.68,9.68,9.68,0,0,1,3.7,2.13A9.37,9.37,0,0,1,162,20a13.62,13.62,0,0,1,.81,4.7,15.43,15.43,0,0,1-.86,5.13A11.93,11.93,0,0,1,159.52,34a9.21,9.21,0,0,1-3.82,2.51,14.56,14.56,0,0,1-4.85.8,14.17,14.17,0,0,1-4.55-.72,9.54,9.54,0,0,1-3.7-2.25,9.91,9.91,0,0,1-2.38-3.75,13.46,13.46,0,0,1-.81-4.65,14.32,14.32,0,0,1,1.49-6.61,9.65,9.65,0,0,1,4.36-4.39A13.5,13.5,0,0,1,151.43,13.47Zm-.1,2.86a8,8,0,0,0-4.21,1.15,6.77,6.77,0,0,0-2.85,3.45,13.55,13.55,0,0,0-.92,5,11.63,11.63,0,0,0,.76,4.29,6.51,6.51,0,0,0,2.52,3.07,7.45,7.45,0,0,0,4.23,1.18,8.94,8.94,0,0,0,3.19-.58,6.46,6.46,0,0,0,2.63-1.9,8.71,8.71,0,0,0,1.67-3.25,15.33,15.33,0,0,0,.53-4,12.77,12.77,0,0,0-.53-3.72,6.4,6.4,0,0,0-1.66-2.78,6.21,6.21,0,0,0-2.52-1.47A9.5,9.5,0,0,0,151.33,16.33Z"/><path class="cls-2" d="M186.67,36.84l-1.85-.05h-2l.27-4.86a18.61,18.61,0,0,1-1.24,2,8.64,8.64,0,0,1-1.22,1.29A8.74,8.74,0,0,1,179,36.26a9,9,0,0,1-2.08.76,11,11,0,0,1-6.52-.52,9.13,9.13,0,0,1-3.23-2.25,8.83,8.83,0,0,1-1.91-3.41,14.11,14.11,0,0,1-.59-4.07,14.77,14.77,0,0,1,1.11-5.58,11.81,11.81,0,0,1,3.12-4.54,11.22,11.22,0,0,1,4.55-2.48,20.2,20.2,0,0,1,5.41-.7,29.45,29.45,0,0,1,4.7.45c.07-1.64.11-3,.11-4.08,0-1.56,0-2.82,0-3.78l2.05,0,2.05,0-.65,12.72-.45,14.56Zm-3.25-20.08a13.57,13.57,0,0,0-2.3-.52,14.94,14.94,0,0,0-1.86-.11,13.46,13.46,0,0,0-4.13.62,8.89,8.89,0,0,0-3.47,2,9.26,9.26,0,0,0-2.3,3.6,12.1,12.1,0,0,0-.82,4.28,10,10,0,0,0,.77,3.91,6,6,0,0,0,2.37,2.83,6.81,6.81,0,0,0,3.75,1,7.47,7.47,0,0,0,2.34-.35,6.27,6.27,0,0,0,1.93-1,7.79,7.79,0,0,0,1.63-1.83,10,10,0,0,0,1.22-2.66,19.27,19.27,0,0,0,.56-3.58c.06-.73.12-2.15.2-4.25Z"/><path class="cls-3" d="M195.59,7.69h1.15a7.19,7.19,0,0,1,1.31.08,1.53,1.53,0,0,1,.84.51,1.44,1.44,0,0,1,.32,1,1.54,1.54,0,0,1-.23.83,1.29,1.29,0,0,1-.63.54,3.05,3.05,0,0,1-1.14.19l2.08,2.68h-.71l-2.08-2.68h-.33v2.68h-.58Zm.58.57v2h1a2.52,2.52,0,0,0,.85-.11.83.83,0,0,0,.43-.35.93.93,0,0,0,.16-.54.9.9,0,0,0-.16-.53.85.85,0,0,0-.41-.34,2.46,2.46,0,0,0-.85-.1Z"/><path class="cls-2" d="M3.6,36.17,4.06,29,4.7,10.15c0-.72,0-1.42,0-2.11l0-1.79,4.54,0,4.76,0a22,22,0,0,1,3.4.19,7.18,7.18,0,0,1,2.11.7,6.11,6.11,0,0,1,1.7,1.36,5.94,5.94,0,0,1,1.13,2,8.46,8.46,0,0,1,.13,4.55,7,7,0,0,1-.8,1.9,8,8,0,0,1-1.28,1.59A7.56,7.56,0,0,1,19,19.66a15,15,0,0,1-1.81.86c.75.23,1.34.44,1.79.63a11.28,11.28,0,0,1,1.35.73,5.69,5.69,0,0,1,1.21,1,5.91,5.91,0,0,1,.91,1.33A7.53,7.53,0,0,1,23,25.9a8.81,8.81,0,0,1,.21,1.94,8.32,8.32,0,0,1-.82,3.72A7.34,7.34,0,0,1,20,34.38a8.54,8.54,0,0,1-3.49,1.46,23.37,23.37,0,0,1-4.09.33l-5.3,0Zm2-1.38h6.36a19,19,0,0,0,4.37-.35,8.67,8.67,0,0,0,2.59-1.15,5.5,5.5,0,0,0,2-2.35,7.6,7.6,0,0,0,.73-3.25,6.21,6.21,0,0,0-.68-2.93A5.69,5.69,0,0,0,19,22.66a6.52,6.52,0,0,0-2.59-1.07,19.35,19.35,0,0,0-3.27-.24H6ZM6.09,20h4.32A39,39,0,0,0,15,19.8a9.61,9.61,0,0,0,2.8-.93,5.77,5.77,0,0,0,1.67-1.38,7,7,0,0,0,1.21-2.12,7.5,7.5,0,0,0,.44-2.54,5.64,5.64,0,0,0-.43-2.25A4.68,4.68,0,0,0,19.4,8.9a5.09,5.09,0,0,0-1.91-1,13.72,13.72,0,0,0-3.39-.31H6.54Z"/><path class="cls-2" d="M26.66,36.17q.25-3.29.57-11.46c.22-5.46.33-9,.33-10.68l.87,0,.88,0c-.2,2.78-.4,6.56-.6,11.36s-.29,8.39-.29,10.78l-.88,0Zm.81-27.75.07-2.17,1.11,0,1.12,0-.06,2.17c-.37,0-.74-.05-1.12-.05S27.84,8.39,27.47,8.42Z"/><path class="cls-2" d="M42.38,13.86a13.65,13.65,0,0,1,3.94.57,8.28,8.28,0,0,1,3.37,1.94A8.74,8.74,0,0,1,51.91,20a14.28,14.28,0,0,1,.77,4.69,16.21,16.21,0,0,1-.81,5.13,11.37,11.37,0,0,1-2.3,4.11,8.15,8.15,0,0,1-3.5,2.34,13.3,13.3,0,0,1-4.26.68,13.49,13.49,0,0,1-3.11-.36,9.2,9.2,0,0,1-2.85-1.22,8.83,8.83,0,0,1-2.32-2.21A9.64,9.64,0,0,1,32,29.88,14.2,14.2,0,0,1,31.5,26a15.5,15.5,0,0,1,1.32-6.45,8.64,8.64,0,0,1,3.93-4.31A11.9,11.9,0,0,1,42.38,13.86Zm-.05,1.22a9.69,9.69,0,0,0-4.84,1.27,7.54,7.54,0,0,0-3.29,3.88A15.16,15.16,0,0,0,33.15,26a13.71,13.71,0,0,0,.6,4.11,7.78,7.78,0,0,0,1.94,3.26,7.55,7.55,0,0,0,2.88,1.84,10.35,10.35,0,0,0,3.26.51A10.5,10.5,0,0,0,45.49,35a7.5,7.5,0,0,0,3-2.13,9.27,9.27,0,0,0,1.92-3.66,16.71,16.71,0,0,0,.62-4.6,14.18,14.18,0,0,0-.61-4.23,7.07,7.07,0,0,0-1.87-3.18,7.21,7.21,0,0,0-2.89-1.67A11.44,11.44,0,0,0,42.33,15.08Z"/><path class="cls-4" d="M197.28,15a4.53,4.53,0,1,1,4.53-4.53A4.53,4.53,0,0,1,197.28,15Zm0-8.45a3.93,3.93,0,1,0,3.93,3.92A3.93,3.93,0,0,0,197.28,6.58Z"/><path class="cls-2" d="M98.63,49.94a4.06,4.06,0,0,1-1.91.4,3.06,3.06,0,0,1-2.35-.94,3.51,3.51,0,0,1-.88-2.49,3.67,3.67,0,0,1,1-2.67,3.36,3.36,0,0,1,2.52-1,4.06,4.06,0,0,1,1.63.29v.86A3.28,3.28,0,0,0,97,44a2.5,2.5,0,0,0-1.92.8,3,3,0,0,0-.74,2.11,2.85,2.85,0,0,0,.69,2,2.34,2.34,0,0,0,1.81.75,3.4,3.4,0,0,0,1.8-.47Z"/><path class="cls-2" d="M102,50.34a2.27,2.27,0,0,1-1.74-.69,2.53,2.53,0,0,1-.65-1.83,2.65,2.65,0,0,1,.67-1.93,2.45,2.45,0,0,1,1.83-.7,2.21,2.21,0,0,1,1.72.68,2.7,2.7,0,0,1,.62,1.88,2.65,2.65,0,0,1-.67,1.88A2.3,2.3,0,0,1,102,50.34Zm0-4.48a1.52,1.52,0,0,0-1.2.51,2.16,2.16,0,0,0-.44,1.43,2,2,0,0,0,.45,1.37,1.51,1.51,0,0,0,1.19.51,1.45,1.45,0,0,0,1.18-.5,2.14,2.14,0,0,0,.41-1.4,2.18,2.18,0,0,0-.41-1.42A1.42,1.42,0,0,0,102,45.86Z"/><path class="cls-2" d="M112.44,50.23h-.79V47.4a2.11,2.11,0,0,0-.25-1.18,1,1,0,0,0-.85-.36,1,1,0,0,0-.86.46,1.76,1.76,0,0,0-.35,1.1v2.81h-.79V47.31c0-1-.37-1.45-1.12-1.45a1,1,0,0,0-.85.43,1.83,1.83,0,0,0-.34,1.13v2.81h-.78V45.31h.78v.78h0a1.67,1.67,0,0,1,1.53-.9,1.47,1.47,0,0,1,.88.28,1.42,1.42,0,0,1,.51.74,1.76,1.76,0,0,1,1.64-1q1.62,0,1.62,2Z"/><path class="cls-2" d="M114.38,49.52h0v3h-.79V45.31h.79v.86h0a1.86,1.86,0,0,1,1.7-1,1.79,1.79,0,0,1,1.48.66,2.71,2.71,0,0,1,.53,1.77,3,3,0,0,1-.6,2,2,2,0,0,1-1.64.74A1.63,1.63,0,0,1,114.38,49.52Zm0-2v.69a1.45,1.45,0,0,0,.39,1,1.41,1.41,0,0,0,2.13-.12,2.5,2.5,0,0,0,.41-1.52,2,2,0,0,0-.38-1.29,1.27,1.27,0,0,0-1-.46,1.43,1.43,0,0,0-1.11.47A1.8,1.8,0,0,0,114.36,47.53Z"/><path class="cls-2" d="M121.71,50.34a2.3,2.3,0,0,1-1.74-.69,2.57,2.57,0,0,1-.65-1.83,2.66,2.66,0,0,1,.68-1.93,2.45,2.45,0,0,1,1.83-.7,2.22,2.22,0,0,1,1.72.68,2.69,2.69,0,0,1,.61,1.88,2.65,2.65,0,0,1-.66,1.88A2.31,2.31,0,0,1,121.71,50.34Zm.06-4.48a1.52,1.52,0,0,0-1.2.51,2.16,2.16,0,0,0-.44,1.43,2,2,0,0,0,.45,1.37,1.49,1.49,0,0,0,1.19.51,1.46,1.46,0,0,0,1.18-.5,2.14,2.14,0,0,0,.41-1.4,2.18,2.18,0,0,0-.41-1.42A1.43,1.43,0,0,0,121.77,45.86Z"/><path class="cls-2" d="M125.14,50v-.84a2.37,2.37,0,0,0,1.41.47c.69,0,1-.23,1-.69a.58.58,0,0,0-.09-.33.82.82,0,0,0-.24-.25,2.29,2.29,0,0,0-.35-.19l-.44-.17c-.22-.09-.41-.17-.58-.26a1.89,1.89,0,0,1-.41-.3,1.19,1.19,0,0,1-.25-.38,1.23,1.23,0,0,1-.08-.49,1.2,1.2,0,0,1,.15-.61,1.42,1.42,0,0,1,.43-.45,1.83,1.83,0,0,1,.6-.27,2.74,2.74,0,0,1,.7-.09,2.79,2.79,0,0,1,1.14.22v.79a2.28,2.28,0,0,0-1.25-.35,1.62,1.62,0,0,0-.4.05.92.92,0,0,0-.3.14.6.6,0,0,0-.2.22.64.64,0,0,0-.07.28.72.72,0,0,0,.07.32.66.66,0,0,0,.21.23,1.59,1.59,0,0,0,.32.19l.44.17c.22.09.41.17.59.26a2.12,2.12,0,0,1,.44.3,1.28,1.28,0,0,1,.22,1.53,1.39,1.39,0,0,1-.43.44,2,2,0,0,1-.62.27,3,3,0,0,1-.74.08A2.72,2.72,0,0,1,125.14,50Z"/><path class="cls-2" d="M129.76,44.06a.52.52,0,0,1-.36-.14.53.53,0,0,1,0-.74.52.52,0,0,1,.36-.14.53.53,0,0,1,.37.14.5.5,0,0,1,.15.37.49.49,0,0,1-.15.36A.5.5,0,0,1,129.76,44.06Zm.39,6.17h-.79V45.31h.79Z"/><path class="cls-2" d="M133.54,50.18a1.57,1.57,0,0,1-.74.15q-1.29,0-1.29-1.44V46h-.84v-.67h.84v-1.2l.79-.26v1.46h1.24V46H132.3v2.77a1.11,1.11,0,0,0,.17.71.65.65,0,0,0,.55.21.91.91,0,0,0,.52-.16Z"/><path class="cls-2" d="M138.11,47.91h-3.48a1.82,1.82,0,0,0,.45,1.26,1.51,1.51,0,0,0,1.16.45,2.42,2.42,0,0,0,1.53-.55v.74a2.85,2.85,0,0,1-1.72.47,2.08,2.08,0,0,1-1.64-.67,2.75,2.75,0,0,1-.59-1.88,2.65,2.65,0,0,1,.65-1.87,2.08,2.08,0,0,1,1.61-.72,1.84,1.84,0,0,1,1.5.62,2.61,2.61,0,0,1,.53,1.73Zm-.81-.67a1.55,1.55,0,0,0-.33-1.06,1.14,1.14,0,0,0-.9-.38,1.27,1.27,0,0,0-.95.4,1.77,1.77,0,0,0-.48,1Z"/><path class="cls-2" d="M150.47,43.65l-1.95,6.89h-.94l-1.42-5a3,3,0,0,1-.11-.7h0a3.12,3.12,0,0,1-.13.69l-1.42,5h-.94l-2-6.89h.89l1.47,5.28a3.11,3.11,0,0,1,.11.69h0a3.1,3.1,0,0,1,.15-.69l1.52-5.28h.77L147.92,49a4.59,4.59,0,0,1,.12.64h0a3.25,3.25,0,0,1,.13-.66l1.4-5.3Z"/><path class="cls-2" d="M152.86,50.54a2.27,2.27,0,0,1-1.74-.69,2.53,2.53,0,0,1-.65-1.83,2.68,2.68,0,0,1,.67-1.94,2.47,2.47,0,0,1,1.83-.69,2.17,2.17,0,0,1,1.72.68,2.67,2.67,0,0,1,.62,1.87,2.62,2.62,0,0,1-.67,1.89A2.32,2.32,0,0,1,152.86,50.54Zm.06-4.49a1.47,1.47,0,0,0-1.2.52,2.09,2.09,0,0,0-.45,1.42,2,2,0,0,0,.45,1.38,1.55,1.55,0,0,0,1.2.5,1.42,1.42,0,0,0,1.17-.49A2.17,2.17,0,0,0,154.5,48a2.2,2.2,0,0,0-.41-1.42A1.43,1.43,0,0,0,152.92,46.05Z"/><path class="cls-2" d="M158.81,50.54a2.27,2.27,0,0,1-1.74-.69,2.54,2.54,0,0,1-.66-1.83,2.68,2.68,0,0,1,.68-1.94,2.44,2.44,0,0,1,1.83-.69,2.19,2.19,0,0,1,1.72.68,3.06,3.06,0,0,1,0,3.76A2.33,2.33,0,0,1,158.81,50.54Zm.05-4.49a1.5,1.5,0,0,0-1.2.52,2.13,2.13,0,0,0-.44,1.42,2,2,0,0,0,.45,1.38,1.53,1.53,0,0,0,1.19.5,1.46,1.46,0,0,0,1.18-.49,2.17,2.17,0,0,0,.41-1.41,2.2,2.2,0,0,0-.41-1.42A1.46,1.46,0,0,0,158.86,46.05Z"/><path class="cls-2" d="M166.45,50.36h-.79v-.83h0a2,2,0,0,1-3.17.29,2.71,2.71,0,0,1-.56-1.8,2.94,2.94,0,0,1,.62-2,2,2,0,0,1,1.63-.74,1.59,1.59,0,0,1,1.48.8h0V43.08h.79Zm-.79-2.22v-.72a1.4,1.4,0,0,0-.39-1,1.33,1.33,0,0,0-1-.42,1.39,1.39,0,0,0-1.14.53,2.37,2.37,0,0,0-.41,1.46,2,2,0,0,0,.4,1.34,1.28,1.28,0,0,0,1.06.5,1.35,1.35,0,0,0,1.07-.48A1.78,1.78,0,0,0,165.66,48.14Z"/><path class="cls-2" d="M171.34,49.65h0v.71h-.78V43.08h.78v3.23h0a1.87,1.87,0,0,1,1.7-1,1.8,1.8,0,0,1,1.48.66,2.71,2.71,0,0,1,.54,1.77,3,3,0,0,1-.6,2,2,2,0,0,1-1.64.75A1.63,1.63,0,0,1,171.34,49.65Zm0-2v.69a1.48,1.48,0,0,0,.4,1,1.42,1.42,0,0,0,2.12-.12,2.55,2.55,0,0,0,.41-1.53,2,2,0,0,0-.38-1.28,1.25,1.25,0,0,0-1-.47,1.4,1.4,0,0,0-1.1.48A1.76,1.76,0,0,0,171.32,47.67Z"/><path class="cls-2" d="M180.23,45.45,178,51.15c-.41,1-1,1.53-1.7,1.53a1.87,1.87,0,0,1-.52-.07v-.7a1.71,1.71,0,0,0,.47.08,1,1,0,0,0,.89-.71l.4-.93-1.92-4.9h.87l1.33,3.78c0,.05.05.17.1.37h0a3.1,3.1,0,0,1,.1-.36l1.39-3.79Z"/><path class="cls-2" d="M189,49.89a4.64,4.64,0,0,1-2.31.59,3.16,3.16,0,0,1-2.38-.95,3.5,3.5,0,0,1-.91-2.52,3.59,3.59,0,0,1,1-2.62,3.42,3.42,0,0,1,2.56-1,4.42,4.42,0,0,1,1.89.37v.89a3.66,3.66,0,0,0-2-.53,2.5,2.5,0,0,0-1.9.8,2.92,2.92,0,0,0-.74,2.06,2.89,2.89,0,0,0,.69,2,2.4,2.4,0,0,0,1.86.75,2.81,2.81,0,0,0,1.4-.32V47.5H186.7v-.73H189Z"/><path class="cls-2" d="M194.84,50.36h-1l-1.15-1.93a5.2,5.2,0,0,0-.31-.46,2.23,2.23,0,0,0-.3-.31,1.2,1.2,0,0,0-.34-.17,1.27,1.27,0,0,0-.41-.06h-.66v2.93h-.8V43.48H192a3.09,3.09,0,0,1,.83.11,1.86,1.86,0,0,1,.67.35,1.68,1.68,0,0,1,.44.57A2.22,2.22,0,0,1,194,46a2.05,2.05,0,0,1-.31.54,1.89,1.89,0,0,1-.48.4,2.51,2.51,0,0,1-.63.25v0a2.16,2.16,0,0,1,.3.18,1.7,1.7,0,0,1,.24.23,2.78,2.78,0,0,1,.23.31l.25.39Zm-4.13-6.15V46.7h1.1a1.73,1.73,0,0,0,.56-.09,1.39,1.39,0,0,0,.44-.26,1.06,1.06,0,0,0,.29-.42,1.38,1.38,0,0,0,.11-.55,1.06,1.06,0,0,0-.36-.86,1.51,1.51,0,0,0-1-.31Z"/><path class="cls-2" d="M202.57,50.36h-.81V45.74c0-.36,0-.81.07-1.34h0a3.76,3.76,0,0,1-.2.67l-2.36,5.29h-.39l-2.35-5.25a4.84,4.84,0,0,1-.2-.71h0c0,.28,0,.73,0,1.35v4.61h-.78V43.48h1.06l2.12,4.8a5.49,5.49,0,0,1,.31.82h0c.14-.37.25-.66.33-.84l2.16-4.78h1Z"/></svg>