<svg xmlns="http://www.w3.org/2000/svg" viewBox="0 0 58.55 60.15"><defs><style>.cls-1{stroke:#000;stroke-miterlimit:10;stroke-width:0.5px;}</style></defs><title>資產 7</title><g id="圖層_2" data-name="圖層 2"><g id="圖層_1-2" data-name="圖層 1"><path class="cls-1" d="M10.49,48.25c0-.34-.1-.89-.16-1.63A15.56,15.56,0,0,0,10,44.38a8.88,8.88,0,0,0-.67-2,1.3,1.3,0,0,0-1.19-.84.9.9,0,0,0-.54.23.63.63,0,0,0-.29.48V57.85a1.09,1.09,0,0,1-.77,1,6.39,6.39,0,0,1-1.79.51,17.48,17.48,0,0,1-2,.2l-1.41,0c-.34,0-.56-.22-.64-.64a9.78,9.78,0,0,1-.19-3c.08-1,.12-2,.12-3q0-12.68-.19-25.18T.25,2.55c0-.42.17-.64.51-.64A3.59,3.59,0,0,1,2,2.39c.62.32,1.33.67,2.14,1s1.67.7,2.56,1a7.35,7.35,0,0,0,2.44.48,2.31,2.31,0,0,0,1.47-.57A12.9,12.9,0,0,0,11.93,3.1l1.12-1.25a1.39,1.39,0,0,1,.9-.58,3.4,3.4,0,0,1,1.21.8c.64.54,1.3,1.16,2,1.86S18.44,5.31,19,6s.8,1.06.8,1.28A5,5,0,0,1,19,8.67c-.49.79-1.08,1.73-1.79,2.84s-1.48,2.3-2.33,3.56-1.64,2.43-2.34,3.52l-1.79,2.75A5.11,5.11,0,0,0,10,22.65a1.47,1.47,0,0,0,.19.83,11.56,11.56,0,0,0,1.32,1.57q.73.73,1.44,1.5c.89,1,1.67,2,2.33,2.92A15.16,15.16,0,0,1,17,32.28a13.92,13.92,0,0,1,1,3.11,19.14,19.14,0,0,1,.32,3.71,13.65,13.65,0,0,1-.41,3.29,10.63,10.63,0,0,1-1.31,3.11,7.47,7.47,0,0,1-2.24,2.27,5.27,5.27,0,0,1-3.27.74.24.24,0,0,1-.13,0l-.12,0Zm-3-8.32c0,.21.18.35.55.42a5.45,5.45,0,0,0,.8.09A2.91,2.91,0,0,0,10.46,40,2.53,2.53,0,0,0,11.35,39a4.35,4.35,0,0,0,.36-1.44c0-.53.06-1.08.06-1.63a17.88,17.88,0,0,0-.35-3.52c-.24-1.15-.48-2.31-.74-3.46s-.5-2.3-.73-3.45A17.3,17.3,0,0,1,9.59,22a44.14,44.14,0,0,1,.68-7.72,45,45,0,0,0,.67-7.71c0-.3-.18-.51-.55-.64a3.44,3.44,0,0,0-1.18-.19A4,4,0,0,0,8,5.85c-.37.11-.55.22-.55.35Zm16-.06a8.48,8.48,0,0,1,1.6.51q1.16.45,2.34,1a14.83,14.83,0,0,1,2.08,1.22c.6.42.89.79.89,1.09a.55.55,0,0,1-.19.38,27.41,27.41,0,0,1-2.85,3.1,51.29,51.29,0,0,1-4,3.52A31.81,31.81,0,0,1,19,53.63a8.2,8.2,0,0,1-3.81,1.21h-.54a.8.8,0,0,1-.48-.19l2.65-3.52q1.26-1.66,2.4-3.39a40.05,40.05,0,0,0,2.12-3.55,35.42,35.42,0,0,0,1.79-4.07ZM15.16,20.92a5.42,5.42,0,0,1,.55-1.25,17.13,17.13,0,0,1,1-1.53c.36-.54.7-1.06,1-1.57s.59-1,.8-1.34A29.64,29.64,0,0,0,21.11,8Q22,4.28,22.91.57l.32-.32h.19a9.62,9.62,0,0,1,1.37.19C25.5.57,26.22.74,27,1a18.83,18.83,0,0,1,2,.68q.87.35.87.6a1.91,1.91,0,0,1-.29.71l-.61,1.12c-.21.4-.41.81-.61,1.21A2.46,2.46,0,0,0,28,6.2a.71.71,0,0,0,.41.67,1.72,1.72,0,0,0,.8.23h.58a.9.9,0,0,0,.51-.19l3.46-3.08.44-.12a5.22,5.22,0,0,1,1.32.8c.53.4,1.05.82,1.56,1.24l1.41,1.19a2.2,2.2,0,0,0,.83.54.86.86,0,0,0,.58-.13A.58.58,0,0,0,40.09,7a2.17,2.17,0,0,0,0-.51A.69.69,0,0,1,40.25,6c.17,0,.3.12.38.38.39.81.8,1.7,1.25,2.66s.94,1.91,1.47,2.84a21.51,21.51,0,0,0,1.76,2.63,10,10,0,0,0,2,2,40.77,40.77,0,0,0,5.28,3.14,61.8,61.8,0,0,1,5.41,3,1.58,1.58,0,0,0,.29.22.32.32,0,0,1,.16.29c0,.25-.24.53-.71.83l-1,.64A9.56,9.56,0,0,0,54,27.1a11,11,0,0,0-1.63,3.23l-.26.19a1.55,1.55,0,0,1-.8-.54c-.23-.28-.49-.57-.77-.87a5.82,5.82,0,0,0-1-.8A2.51,2.51,0,0,0,48.19,28a1.66,1.66,0,0,0-.84.23,1.59,1.59,0,0,1-.83.22H28.35c-.43,0-.64-.17-.64-.51a4,4,0,0,1,1.5-.16c.92,0,1.93,0,3,0s2.15,0,3.14,0l1.85,0a1.59,1.59,0,0,0,1.22-.8,17.29,17.29,0,0,0,1.12-1.79c.36-.66.71-1.26,1.05-1.79s.66-.8,1-.8.48.21.93.64.95.88,1.51,1.37,1.12.95,1.69,1.38a2.74,2.74,0,0,0,1.51.64.34.34,0,0,0,.38-.39,5.61,5.61,0,0,0-.42-1c-.27-.6-.61-1.32-1-2.18s-.86-1.79-1.38-2.81-1-2-1.44-2.95-.84-1.76-1.18-2.46-.58-1.18-.7-1.44-.23-.48-.42-.93-.41-.9-.64-1.37a12.71,12.71,0,0,0-.7-1.25c-.24-.36-.44-.55-.61-.55a4.39,4.39,0,0,0-.58.71l-.51.77q-1.47,2.43-3.26,5.5a60.94,60.94,0,0,1-4,5.95,35.85,35.85,0,0,1-4.71,5.15,13,13,0,0,1-5.4,3c-.56.17-.83.14-.8-.09a2.19,2.19,0,0,1,.51-1,18.28,18.28,0,0,1,1.28-1.51c.53-.57,1-1.15,1.53-1.73s.92-1.11,1.28-1.6A2.19,2.19,0,0,0,25,23.29a.85.85,0,0,0-.39-.8c-.25-.15-.56-.31-.92-.48a5.59,5.59,0,0,1-1-.61A1.9,1.9,0,0,1,22,20.28a7,7,0,0,1-.13-.83c0-.38-.09-.77-.16-1.15a6.22,6.22,0,0,0-.25-1,.57.57,0,0,0-.55-.44c-.08,0-.31.17-.67.51s-.59.55-.67.64c-.6.6-1.25,1.19-1.95,1.79a7.39,7.39,0,0,1-2.28,1.34ZM41.4,54a3.59,3.59,0,0,1-.93,2.37,8.48,8.48,0,0,1-2.27,1.85,13.21,13.21,0,0,1-2.81,1.22,9,9,0,0,1-2.56.45c-.22,0-.35-.07-.39-.19s-.08-.26-.13-.39c-.21-.81-.36-1.45-.44-1.92a13.24,13.24,0,0,0-.32-1.31A5.79,5.79,0,0,0,31,54.84c-.26-.43-.64-1-1.15-1.66a1.63,1.63,0,0,1-.23-.29.7.7,0,0,1-.09-.35c0-.3.14-.45.41-.45s.62,0,1,.06a3.78,3.78,0,0,0,1.28-.09,2.08,2.08,0,0,0,1.18-.87,6.14,6.14,0,0,0,.19-1.79c0-1.06.09-2.24.13-3.52s.07-2.5.07-3.68,0-2,.06-2.33.1-.77.16-1.16a3.18,3.18,0,0,0,0-1.15,1.67,1.67,0,0,0-.16-.48.57.57,0,0,0-.48-.16H22.52a.51.51,0,0,1,0-1H45.05c.21,0,.49-.28.83-.83s.72-1.18,1.12-1.86a16.84,16.84,0,0,1,1.28-1.86,1.81,1.81,0,0,1,1.25-.83,3.44,3.44,0,0,1,1.34.8A26.13,26.13,0,0,1,53,33.18q1.08,1.05,1.92,2c.55.64.83,1.07.83,1.28a.21.21,0,0,1-.19.23l-.32,0H42a.57.57,0,0,0-.64.64ZM24.83,12.6a1.75,1.75,0,0,0-.55.39c-.23.21-.49.45-.77.73l-.76.8-.55.58-.06.32a9.93,9.93,0,0,0,.89.93c.47.44,1,.89,1.51,1.34s1,.85,1.53,1.22a2.42,2.42,0,0,0,1,.54.79.79,0,0,0,.57-.26,2,2,0,0,0,.42-.64,5.62,5.62,0,0,0,.25-.76,2.51,2.51,0,0,0,.1-.64A1.62,1.62,0,0,0,28,15.9a5.7,5.7,0,0,0-1.05-.77,6.21,6.21,0,0,1-1.16-.86A2.76,2.76,0,0,1,25,12.79Zm2-4.29a1.07,1.07,0,0,0-.48.71,4.26,4.26,0,0,0-.1.83,1.4,1.4,0,0,0,.36.93,3.26,3.26,0,0,0,.89.73A4.21,4.21,0,0,0,28.6,12a3.81,3.81,0,0,0,1,.16.89.89,0,0,0,.73-.35,2.24,2.24,0,0,0,.42-.83,5.44,5.44,0,0,0,.16-1c0-.37,0-.65,0-.87a2.68,2.68,0,0,0-.1-.86c-.06-.19-.33-.29-.8-.29a9.86,9.86,0,0,0-1.63.13Zm30.85.13a6.18,6.18,0,0,0-2.4,1.41c-.75.68-1.48,1.4-2.21,2.14a18.73,18.73,0,0,1-2.21,2,3.86,3.86,0,0,1-2.33.83c-.43,0-.64-.19-.64-.58a6.15,6.15,0,0,1,.28-1.63c.2-.66.4-1.32.61-2a12.79,12.79,0,0,0,.48-1.89,2.7,2.7,0,0,0,0-1.41,7.37,7.37,0,0,0-1-.13c-.47,0-1-.06-1.54-.06H44l-.19-.26L44,6.65c1.28-.09,2.24-.17,2.88-.26a4.37,4.37,0,0,0,1.6-.48,5.57,5.57,0,0,0,1.31-1c.45-.47,1.12-1.13,2-2a.69.69,0,0,1,.45-.25c.13,0,.46.23,1,.7s1.1,1,1.7,1.63l1.7,1.76,1,1.09.13.32ZM53.82,54.91a3.84,3.84,0,0,1-2.69-1.6,25,25,0,0,1-2.66-3.72,37.86,37.86,0,0,1-2.17-4.25,30.75,30.75,0,0,1-1.25-3.23,1.24,1.24,0,0,1-.06-.68c0-.1.25-.16.64-.16a10.41,10.41,0,0,1,3.87.84,15.48,15.48,0,0,1,3.87,2.24,13.21,13.21,0,0,1,3,3.23,6.76,6.76,0,0,1,1.18,3.74,3.48,3.48,0,0,1-1,2.66A3.82,3.82,0,0,1,53.82,54.91Z"/></g></g></svg>