<?xml version="1.0" encoding="utf-8"?>
<!-- Generator: Adobe Illustrator 24.3.0, SVG Export Plug-In . SVG Version: 6.00 Build 0)  -->
<svg version="1.1" id="圖層_1" xmlns="http://www.w3.org/2000/svg" xmlns:xlink="http://www.w3.org/1999/xlink" x="0px" y="0px"
	 viewBox="0 0 690 132" style="enable-background:new 0 0 690 132;" xml:space="preserve">
<style type="text/css">
	.st0{fill:#C4352C;}
	.st1{fill:#939496;}
</style>
<g>
	<path class="st0" d="M2.5,13.5h65.3v5.3H34.1v23.3h16.6v5.4H34.1v29H2.5V13.5z"/>
	<path class="st1" d="M80,72.2c-4.7-3.2-7-8-7-14.6V13.5h34.4v44.1c0,4.3,0.9,7.4,2.8,9.3c1.9,2,4.4,2.9,7.5,2.9
		c7,0,10.4-4.1,10.4-12.2V13.5h5.3v44.1c0,5.1-1.1,9-3.2,11.8c-2.2,2.8-5.4,4.7-9.7,5.8c-4.3,1.1-10.1,1.7-17.3,1.7
		C92.4,76.9,84.6,75.4,80,72.2z"/>
	<path class="st1" d="M138.5,13.5h31.6v57.6h34.2v5.4h-65.8V13.5z"/>
	<path class="st1" d="M209.4,13.5H241v57.6h34.2v5.4h-65.8V13.5z"/>
	<path class="st0" d="M281,18.8h-23.7v-5.3h78.9v5.3h-23.8v57.7H281V18.8z"/>
	<path class="st1" d="M348.2,73.3c-6.5-2.5-11.6-6.1-15.3-10.9c-3.8-4.8-5.6-10.6-5.6-17.4c0-6.7,1.9-12.5,5.7-17.3
		c3.8-4.8,8.9-8.4,15.3-10.9c6.4-2.5,13.7-3.7,21.7-3.7c8,0,15.2,1.2,21.6,3.7c6.4,2.5,11.5,6.1,15.3,10.9
		c3.7,4.8,5.6,10.6,5.6,17.3c0,6.8-1.9,12.6-5.6,17.4c-3.8,4.8-8.9,8.5-15.3,10.9c-6.5,2.5-13.7,3.7-21.6,3.7
		C361.9,76.9,354.7,75.7,348.2,73.3z M375.6,68.2c1-1.7,1.7-4.8,2.1-9.3c0.2-2.3,0.3-7,0.3-14c0-7.1-0.2-12.1-0.4-15
		c-0.2-3.6-0.8-6.3-2-8.2c-1.2-2.3-3-3.4-5.5-3.4c-2.5,0-4.4,1.1-5.7,3.4c-1,1.8-1.7,4.5-2,8.2c-0.2,3.1-0.4,8.1-0.4,15
		c0,7.8,0.1,12.5,0.3,14c0.2,4.1,0.9,7.2,2,9.3c1.3,2.3,3.2,3.4,5.8,3.4C372.5,71.6,374.4,70.5,375.6,68.2z"/>
	<path class="st1" d="M406.4,13.5H437l21.1,47.6l17.7-47.6h13.5L510,60l17.3-46.5h6.9l-23.8,63h-27.3l-13-29.5L459,76.5h-24.7
		L406.4,13.5z"/>
	<path class="st1" d="M537.7,13.5h26.5L590.5,45V13.5h5.4v63h-21.2l-31.5-41.9v41.9h-5.5V13.5z"/>
</g>
<g>
	<path class="st1" d="M208.3,88.2h15.6v33.6h-15.6V88.2z"/>
	<path class="st1" d="M228,88.2h14.1l14,16.8V88.2h2.9v33.6h-11.3l-16.8-22.4v22.4H228V88.2z"/>
	<path class="st1" d="M275.2,91h-12.6v-2.8h42.1V91H292v30.8h-16.8V91z"/>
	<path class="st1" d="M308.4,88.2h34.9V91h-18v12.4h8.8v2.9h-8.8v12.6h18v2.9h-34.9V88.2z"/>
	<path class="st1" d="M347.3,88.2h32.1c1.6,0,3,0.4,4.3,1.2c1.3,0.8,2.4,1.8,3.2,3.2c0.8,1.3,1.2,2.8,1.2,4.3c0,2.1-0.6,4-1.9,5.7
		c-1.3,1.7-2.9,2.8-4.8,3.3c1.7,0.5,3.1,1.4,4.2,2.7c1.1,1.3,1.7,2.9,1.7,4.6v8.7h-16.1v-10.4c0-1-0.2-1.8-0.6-2.4
		c-0.4-0.7-1-1.2-1.5-1.5c-0.6-0.4-1.4-0.6-2.2-0.8c-0.8-0.2-1.6-0.3-2.4-0.3l-1.3,0v15.4h-15.9V88.2z M364.9,103.6
		c1.2,0,2.2-0.3,3.2-0.8c1-0.6,1.7-1.3,2.3-2.3c0.6-1,0.8-2,0.8-3.1c0-1.2-0.3-2.2-0.8-3.2c-0.6-1-1.3-1.8-2.3-2.3
		c-1-0.6-2-0.9-3.2-0.9h-1.7v12.7L364.9,103.6z"/>
	<path class="st1" d="M391.8,88.2h14.1l14,16.8V88.2h2.9v33.6h-11.3l-16.8-22.4v22.4h-2.9V88.2z"/>
	<path class="st1" d="M438.3,88.2h14l14.9,33.6H449l-5-11.1h-10.6l-4.3,11.1h-3.5L438.3,88.2z M442.7,107.7l-4.4-9.7l-3.8,9.7H442.7
		z"/>
	<path class="st1" d="M472,91h-12.6v-2.8h42.1V91h-12.7v30.8H472V91z"/>
	<path class="st1" d="M505.2,88.2h15.6v33.6h-15.6V88.2z"/>
	<path class="st1" d="M535.7,120c-3.5-1.3-6.2-3.3-8.2-5.8s-3-5.7-3-9.3c0-3.6,1-6.7,3-9.2c2-2.6,4.7-4.5,8.2-5.8
		c3.4-1.3,7.3-2,11.6-2c4.3,0,8.1,0.7,11.5,2s6.2,3.3,8.2,5.8c2,2.6,3,5.6,3,9.2c0,3.6-1,6.7-3,9.3s-4.7,4.5-8.2,5.8
		c-3.4,1.3-7.3,2-11.5,2C543,122,539.1,121.4,535.7,120z M550.3,117.4c0.5-0.9,0.9-2.6,1.1-4.9c0.1-1.2,0.1-3.7,0.1-7.5
		c0-3.8-0.1-6.4-0.2-8c-0.1-1.9-0.4-3.4-1.1-4.4c-0.6-1.2-1.6-1.8-2.9-1.8c-1.3,0-2.4,0.6-3,1.8c-0.5,1-0.9,2.4-1.1,4.4
		c-0.1,1.7-0.2,4.3-0.2,8c0,4.2,0,6.7,0.1,7.5c0.1,2.2,0.5,3.9,1.1,4.9c0.7,1.2,1.7,1.8,3.1,1.8
		C548.6,119.2,549.6,118.6,550.3,117.4z"/>
	<path class="st1" d="M573.6,88.2h14.1l14,16.8V88.2h2.9v33.6h-11.3l-16.8-22.4v22.4h-2.9V88.2z"/>
	<path class="st1" d="M620.2,88.2h14l14.9,33.6h-18.1l-5-11.1h-10.6l-4.3,11.1h-3.5L620.2,88.2z M624.5,107.7l-4.4-9.7l-3.8,9.7
		H624.5z"/>
	<path class="st1" d="M652.2,88.2h16.8v30.7h18.2v2.9h-35.1V88.2z"/>
</g>
</svg>
