<?xml version="1.0" encoding="utf-8"?>
<!-- Generator: Adobe Illustrator 24.3.0, SVG Export Plug-In . SVG Version: 6.00 Build 0)  -->
<svg version="1.1" id="圖層_1" xmlns="http://www.w3.org/2000/svg" xmlns:xlink="http://www.w3.org/1999/xlink" x="0px" y="0px"
	 viewBox="0 0 1000 1000" style="enable-background:new 0 0 1000 1000;" xml:space="preserve">
<style type="text/css">
	.st0{fill:#D0342C;}
</style>
<g>
	<path class="st0" d="M46,249c0-6,5.5-17.2,16.5-33.5c11-16.3,23.7-33.3,38-51c14.3-17.7,28.3-33.3,42-47
		C156.2,103.8,165.7,97,171,97c4,0,7.5,3,10.5,9s5.3,12.8,7,20.5c1.7,7.7,2.8,15.3,3.5,23c0.7,7.7,1,12.8,1,15.5
		c0,14-1.2,28.8-3.5,44.5c-2.3,15.7-6.7,30.3-13,44c-6.3,13.7-15.2,25-26.5,34c-11.3,9-25.7,13.5-43,13.5
		c-17.3,0-31.8-3.8-43.5-11.5C51.8,281.8,46,268.3,46,249z M878,640c-0.7,3.3-2.5,6-5.5,8s-6.2,4-9.5,6c-3.3,2-6.3,4-9,6
		c-2.7,2-4,4.3-4,7v266c0,4.7-5.2,8.7-15.5,12c-10.3,3.3-22.3,6.2-36,8.5c-13.7,2.3-26.8,4-39.5,5c-12.7,1-21,1.5-25,1.5s-7-2.3-9-7
		c-2-4.7-3.3-14.3-4-29c-0.7-14.7-1.2-32.2-1.5-52.5c-0.3-20.3-0.3-42.2,0-65.5c0.3-23.3,0.8-45.7,1.5-67
		c0.7-21.3,1.2-40.5,1.5-57.5c0.3-17,0.5-29.8,0.5-38.5c0-6.7-3.3-10-10-10H570c-6.7,0-10,3.3-10,10v230c0,4.7,3.5,7.8,10.5,9.5
		c7,1.7,15.7,2.5,26,2.5c10.3,0,21.5-0.7,33.5-2c12-1.3,23.2-2.2,33.5-2.5c10.3-0.3,19,0.2,26,1.5c7,1.3,10.5,4,10.5,8
		c0,4.7-2.3,7-7,7H287c-3.3,4-5.7,7.7-7,11c-13.3,23.3-28,39.2-44,47.5c-16,8.3-37.3,12.5-64,12.5c-4,0-8-0.2-12-0.5
		c-4-0.3-7.7-1.8-11-4.5c0-0.7-0.3-1.8-1-3.5c-0.7-1.7-1-2.8-1-3.5V582c0-3.3,0.8-6.7,2.5-10c1.7-3.3,4.5-5,8.5-5
		c1.3,0,8,2.2,20,6.5c12,4.3,25,9.2,39,14.5c14,5.3,27.2,10.5,39.5,15.5c12.3,5,20.2,8.2,23.5,9.5h427c2,0,6-2.8,12-8.5
		c6-5.7,12-12,18-19s11.3-13.8,16-20.5c4.7-6.7,7-11.3,7-14c0-6-2-9.3-6-10c-4-0.7-8.3-1-13-1c-4,0-11,0.7-21,2
		c-10,1.3-20.2,2.5-30.5,3.5c-10.3,1-19.8,1.5-28.5,1.5c-8.7,0-14-1.7-16-5c-2-3.3-3.8-7.8-5.5-13.5c-1.7-5.7-5.5-8.5-11.5-8.5H377
		c-6,2-11,5-15,9s-8.7,7.7-14,11c-14,9.3-29.7,16.2-47,20.5c-17.3,4.3-34.3,6.5-51,6.5c-5.3,0-8.7-3.3-10-10c-1.3-12-2-24.3-2-37
		c0-12.7-0.3-25-1-37c-1.3-25.3-2.3-50.8-3-76.5c-0.7-25.7-1-51.5-1-77.5c0-6,3.3-9,10-9c9.3,0,19,2.5,29,7.5s20.2,10.3,30.5,16
		c10.3,5.7,20.8,11,31.5,16c10.7,5,21.7,7.5,33,7.5h262l7-3l48-48l7-3c5.3,0.7,14,4.2,26,10.5c12,6.3,24.2,13.7,36.5,22
		c12.3,8.3,23,16.8,32,25.5c9,8.7,13.2,16,12.5,22c0,2.7-1.3,4.7-4,6c-2.7,1.3-5.5,2.7-8.5,4c-3,1.3-5.8,3.2-8.5,5.5
		c-2.7,2.3-4,6.2-4,11.5v127c0,7.3,4.3,15,13,23c8.7,8,18.8,16,30.5,24c11.7,8,23.2,15.5,34.5,22.5c11.3,7,19.7,13.2,25,18.5
		L878,640z M683,195c4,3.3,10.2,8.5,18.5,15.5c8.3,7,16.8,14.5,25.5,22.5c8.7,8,16.5,15.5,23.5,22.5S762,268,764,272
		c-1.3,2-3.3,3.8-6,5.5c-2.7,1.7-5,2.5-7,2.5H220c-1.3,0-2.8-0.3-4.5-1c-1.7-0.7-2.5-1.7-2.5-3c0-2,0.5-4,1.5-6s2.8-3,5.5-3h380
		c10,0,18-3.7,24-11c6-7.3,11.5-15.5,16.5-24.5s10.2-17.3,15.5-25c5.3-7.7,12.3-12.2,21-13.5L683,195z M780,147
		c2.7,0,7.7-3.2,15-9.5c7.3-6.3,14.7-13.3,22-21c7.3-7.7,14.2-14.5,20.5-20.5c6.3-6,10.5-9,12.5-9c2.7,0,5.8,1.5,9.5,4.5
		c3.7,3,7.5,6.2,11.5,9.5c4,3.3,7.7,6.8,11,10.5c3.3,3.7,6,6.5,8,8.5s6.3,6,13,12c6.7,6,13.5,12.3,20.5,19
		c7,6.7,13.2,12.8,18.5,18.5c5.3,5.7,8,9.5,8,11.5c0,8-6.3,17-19,27c-12.7,10-27.5,19.5-44.5,28.5s-33.7,16.5-50,22.5
		c-16.3,6-28.2,9-35.5,9c-6,0-9-3-9-9c0-14,1.3-27.8,4-41.5c2.7-13.7,4-27.5,4-41.5c0-3.3-0.2-6.8-0.5-10.5
		c-0.3-3.7-2.8-5.5-7.5-5.5c-20,0-39.8,1.2-59.5,3.5c-19.7,2.3-39.5,3.5-59.5,3.5c-92,0-184-1-276-3c-12,0-25.7,0.2-41,0.5
		c-15.3,0.3-30.8,0.7-46.5,1c-15.7,0.3-31,0.2-46-0.5c-15-0.7-27.8-2.3-38.5-5c-2-0.7-4-1.5-6-2.5s-3.3-2.8-4-5.5c1.3-1.3,2.7-2,4-2
		h198c7.3,0,11.2-6.2,11.5-18.5c0.3-12.3-0.2-25.7-1.5-40c-1.3-14.3-1.8-27.7-1.5-40C425.8,39.2,429.7,33,437,33
		c24.7,0,49.2,1.5,73.5,4.5c24.3,3,48.8,6.2,73.5,9.5l3,3l-1,5c-3.3,2.7-6.5,5.2-9.5,7.5c-3,2.3-5.5,5.2-7.5,8.5
		c-1.3,2-2.5,6-3.5,12s-2,12.5-3,19.5s-1.7,13.7-2,20c-0.3,6.3-0.5,10.8-0.5,13.5l3,7l6,4H780z M273,877c0,6.7,3,10,9,10
		c23.3,0,46.8-0.3,70.5-1c23.7-0.7,47.2-2.7,70.5-6c6.7-0.7,10-4,10-10V643c0-6.7-3.3-10-10-10H283c-6.7,0-10,3.3-10,10V877z
		 M297,757l-2-3c2-0.7,8-1.2,18-1.5c10-0.3,21.2-0.5,33.5-0.5c12.3,0,24,0.2,35,0.5c11,0.3,18.5,0.5,22.5,0.5l3,3l-3,4H304L297,757z
		 M647,489v-92c0-6.7-3.3-10-10-10H370c-6.7,0-10,3.3-10,10v93c0,6.7,3.3,10,10,10l259,7c2.7,0,5.5-1.5,8.5-4.5s5.2-5.2,6.5-6.5
		L647,489z M584,753h113l3,3l-3,4H584l-4-4L584,753z"/>
</g>
</svg>
