<?xml version="1.0" encoding="utf-8"?>
<!-- Generator: Adobe Illustrator 24.3.0, SVG Export Plug-In . SVG Version: 6.00 Build 0)  -->
<svg version="1.1" id="圖層_1" xmlns="http://www.w3.org/2000/svg" xmlns:xlink="http://www.w3.org/1999/xlink" x="0px" y="0px"
	 viewBox="0 0 1000 1000" style="enable-background:new 0 0 1000 1000;" xml:space="preserve">
<g>
	<path d="M790,104c8-8.7,15.8-17.7,23.5-27c7.7-9.3,15.5-18.3,23.5-27c4-2,7.2-3.2,9.5-3.5c2.3-0.3,5.5,0.5,9.5,2.5
		c0.7,0,5.7,3.8,15,11.5c9.3,7.7,19.7,16,31,25c11.3,9,21.8,17.7,31.5,26c9.7,8.3,15.5,13.2,17.5,14.5l2,6
		c-5.3,6.7-12.2,11.8-20.5,15.5c-8.3,3.7-12.5,10.2-12.5,19.5v760c0,6-4,11.2-12,15.5c-8,4.3-17.3,7.8-28,10.5
		c-10.7,2.7-21.2,4.7-31.5,6c-10.3,1.3-17.8,2-22.5,2c-2.7,0-5.2-0.2-7.5-0.5c-2.3-0.3-4.8-0.5-7.5-0.5l-7-3l-1-1l-3-7V137
		c0-6.7-3.3-10-10-10H203c-6.7,0-10,3.3-10,10v730c0,6.7,3.3,10,10,10h569c1.3,0,2.7,0.7,4,2c-1.3,1.3-3.2,3-5.5,5
		c-2.3,2-4.5,3-6.5,3H207c-1.3,0-3,1.8-5,5.5c-2,3.7-3.3,6.2-4,7.5c-2.7,5.3-5.8,10.3-9.5,15c-3.7,4.7-7.5,9.3-11.5,14
		c-11.3,12.7-25.5,22.7-42.5,30c-17,7.3-34.2,11-51.5,11c-6.7,0-10-3.3-10-10V68c0-2,0.5-4.2,1.5-6.5c1-2.3,2.8-3.5,5.5-3.5
		c3.3,0,10.7,2.5,22,7.5c11.3,5,23.5,10.7,36.5,17c13,6.3,25.5,12,37.5,17s20.7,7.5,26,7.5h581L790,104z M280,765
		c-9.3-19.3-20.3-38.2-33-56.5c-12.7-18.3-21.7-37.8-27-58.5l3-3c40-3.3,79.8-8.8,119.5-16.5c39.7-7.7,79.8-11.5,120.5-11.5l4,4
		l-3,7c-22.7,17.3-45.2,34.7-67.5,52c-22.3,17.3-44.8,34.7-67.5,52c-7.3,5.3-14.7,11.2-22,17.5c-7.3,6.3-15,11.5-23,15.5L280,765z
		 M460,293c0,1.3-3,2.8-9,4.5c-6,1.7-9.7,2.5-11,2.5H233c-6.7,0-9-2.2-7-6.5c2-4.3,4.3-6.5,7-6.5h207c2.7,0,6.2,0.7,10.5,2
		C454.8,290.3,458,291.7,460,293z M463,547c0,5.3-2.5,9.8-7.5,13.5c-5,3.7-10.8,6.5-17.5,8.5c-6.7,2-13.5,3.3-20.5,4
		c-7,0.7-12.5,1-16.5,1c-5.3,0-9.8-1.2-13.5-3.5c-3.7-2.3-7.2-4.8-10.5-7.5c-3.3-2.7-6.7-5.2-10-7.5c-3.3-2.3-7.3-3.5-12-3.5
		c-9.3,0-17.5,2.2-24.5,6.5c-7,4.3-13.8,9.3-20.5,15c-6.7,5.7-13.7,10.7-21,15c-7.3,4.3-15.3,6.5-24,6.5c-3.3,0-6.2-0.7-8.5-2
		c-2.3-1.3-3.5-3.7-3.5-7c0-38.7-1.2-77.2-3.5-115.5c-2.3-38.3-3.5-76.8-3.5-115.5c0-6.7,4.3-9,13-7c8.7,2,18.8,5.3,30.5,10
		c11.7,4.7,23,9.5,34,14.5S342,380,346,380c10.7,0,19.2-2,25.5-6c6.3-4,11.5-8.2,15.5-12.5c4-4.3,7.5-8.5,10.5-12.5s6.5-6,10.5-6
		c2,0,6.7,2.5,14,7.5c7.3,5,14.8,10.7,22.5,17c7.7,6.3,14.5,12.3,20.5,18c6,5.7,9,9.5,9,11.5c0,3.3-1.8,6.7-5.5,10
		c-3.7,3.3-5.5,7-5.5,11V547z M327,523c0,6.7,3.3,10,10,10h33c6.7,0,10-3.3,10-10V410c0-6.7-3.3-10-10-10h-33c-6.7,0-10,3.3-10,10
		V523z M605,515c3.3-0.7,6.8-5.3,10.5-14c3.7-8.7,7.2-19.3,10.5-32c3.3-12.7,6.8-26.3,10.5-41c3.7-14.7,7.2-28.2,10.5-40.5
		c3.3-12.3,6.5-22.7,9.5-31c3-8.3,6.2-12.5,9.5-12.5c2.7,0,9.3,2.5,20,7.5c10.7,5,22.2,10.7,34.5,17C732.8,374.8,744,381,754,387
		s15.7,10,17,12c-0.7,0.7-1,1.2-1,1.5c0,0.3-0.3,0.8-1,1.5c-4,5.3-8.2,10.2-12.5,14.5c-4.3,4.3-8.2,9.2-11.5,14.5
		c-6,8.7-14.7,21.5-26,38.5c-11.3,17-22.3,35-33,54c-10.7,19-20,37.3-28,55c-8,17.7-12,31.5-12,41.5c0,4.7,2,10.7,6,18
		c4,7.3,8.7,14.7,14,22c5.3,7.3,11.2,13.7,17.5,19c6.3,5.3,11.8,8,16.5,8c8,0,14.3-3.7,19-11c4.7-7.3,8.7-15.2,12-23.5
		c3.3-8.3,6.3-16.2,9-23.5c2.7-7.3,6-11,10-11c2,0,3.3,1,4,3c0.7,2,1,3.7,1,5c0,14-1.5,27.7-4.5,41c-3,13.3-4.5,27-4.5,41
		c0,14.7,3.5,28.5,10.5,41.5S767,776.3,767,791c0,8-1.3,14-4,18c-2.7,4-6.3,6.8-11,8.5c-4.7,1.7-9.7,2.7-15,3
		c-5.3,0.3-11,0.5-17,0.5c-20.7,0-39.2-6.3-55.5-19c-16.3-12.7-30.8-26.7-43.5-42c-12.7-15.3-23.3-29.3-32-42
		c-8.7-12.7-15.7-19-21-19c-5.3,0-15.3,6.2-30,18.5c-14.7,12.3-31.5,26-50.5,41s-39,28.7-60,41c-21,12.3-40.2,18.5-57.5,18.5
		c-4.7,0-7-1.3-7-4c0-3.3,4.2-8.5,12.5-15.5c8.3-7,18.7-15.5,31-25.5c12.3-10,25.7-21,40-33c14.3-12,27.8-24.3,40.5-37
		c12.7-12.7,23.5-25.8,32.5-39.5c9-13.7,13.8-26.8,14.5-39.5c0.7-11.3-0.2-23.5-2.5-36.5c-2.3-13-5.5-26-9.5-39s-8-26-12-39
		s-7.3-25.2-10-36.5c-10-48-15.8-96.3-17.5-145c-1.7-48.7-2.5-97.7-2.5-147c0-4,0-9,0-15s3-9.3,9-10c1.3,0,2.3,0.2,3,0.5
		c0.7,0.3,1.7,0.8,3,1.5c2,0.7,4.2,1.2,6.5,1.5c2.3,0.3,4.5,0.8,6.5,1.5c14,2.7,28,4.7,42,6c14,1.3,27.7,4.3,41,9c5.3,1.3,8,4,8,8
		c0,2.7-2.3,6-7,10c-4.7,4-7.7,7.3-9,10c-1.3,2-2.5,7.5-3.5,16.5s-1.3,18.5-1,28.5c0.3,10,1.5,18.8,3.5,26.5c2,7.7,5,11.5,9,11.5
		c7.3,0,15.8-0.8,25.5-2.5c9.7-1.7,18.7-4.5,27-8.5c8.3-4,15.5-9.2,21.5-15.5c6-6.3,9-14.2,9-23.5c0-6-2.8-13.5-8.5-22.5
		c-5.7-9-11-17.7-16-26c-5-8.3-8.3-15.5-10-21.5c-1.7-6,1.2-9,8.5-9c8.7,0,19,0.7,31,2c12,1.3,23.5,4,34.5,8s20.3,9.7,28,17
		c7.7,7.3,11.5,16.7,11.5,28c0,8-2.3,15.5-7,22.5c-4.7,7-7,14.5-7,22.5c0,11.3,2.3,18.2,7,20.5c4.7,2.3,10,6.8,16,13.5
		c-1.3,2.7-3.7,4.7-7,6c-3.3,1.3-6.7,2-10,2H587c-2.7,0-4.5,3.2-5.5,9.5c-1,6.3-1.7,13.5-2,21.5c-0.3,8-0.3,15.7,0,23
		c0.3,7.3,0.5,12.3,0.5,15c0,7.3,0.3,18.2,1,32.5c0.7,14.3,1.7,29,3,44c1.3,15,3.5,29,6.5,42s6.8,21.8,11.5,26.5L605,515z"/>
</g>
</svg>
