<?xml version="1.0" encoding="utf-8"?>
<!-- Generator: Adobe Illustrator 24.3.0, SVG Export Plug-In . SVG Version: 6.00 Build 0)  -->
<svg version="1.1" id="圖層_1" xmlns="http://www.w3.org/2000/svg" xmlns:xlink="http://www.w3.org/1999/xlink" x="0px" y="0px"
	 viewBox="0 0 1000 1000" style="enable-background:new 0 0 1000 1000;" xml:space="preserve">
<g>
	<path d="M220,790c-0.7-5.3-1.5-13.8-2.5-25.5c-1-11.7-2.8-23.3-5.5-35c-2.7-11.7-6.2-21.8-10.5-30.5c-4.3-8.7-10.5-13-18.5-13
		c-2.7,0-5.5,1.2-8.5,3.5c-3,2.3-4.5,4.8-4.5,7.5v243c0,6.7-4,11.8-12,15.5c-8,3.7-17.3,6.3-28,8c-10.7,1.7-21,2.7-31,3
		c-10,0.3-17.3,0.5-22,0.5c-5.3,0-8.7-3.3-10-10c-3.3-15.3-4.3-31-3-47c1.3-16,2-31.7,2-47c0-132-1-263.2-3-393.5
		C61,339.2,60,208,60,76c0-6.7,2.7-10,8-10c3.3,0,9.8,2.5,19.5,7.5c9.7,5,20.8,10.3,33.5,16c12.7,5.7,26,11,40,16s26.7,7.5,38,7.5
		c8,0,15.7-3,23-9c7.3-6,14.2-12.5,20.5-19.5c6.3-7,12.2-13.5,17.5-19.5c5.3-6,10-9,14-9c2.7,0,9,4.2,19,12.5c10,8.3,20.3,18,31,29
		c10.7,11,20.2,21.5,28.5,31.5c8.3,10,12.5,16.7,12.5,20c0,2.7-3.8,10.2-11.5,22.5c-7.7,12.3-17,27.2-28,44.5
		c-11,17.3-23.2,35.8-36.5,55.5c-13.3,19.7-25.5,38-36.5,55s-20.3,31.3-28,43C216.8,381.2,213,388,213,390c0,6,1,10.3,3,13
		c6,8.7,12.8,16.8,20.5,24.5c7.7,7.7,15.2,15.5,22.5,23.5c14,16,26.2,31.2,36.5,45.5c10.3,14.3,18.8,29,25.5,44
		c6.7,15,11.7,31.2,15,48.5c3.3,17.3,5,36.7,5,58c0,16.7-2.2,33.8-6.5,51.5c-4.3,17.7-11.2,33.8-20.5,48.5
		c-9.3,14.7-21,26.5-35,35.5s-31,12.8-51,11.5c-0.7,0-1.3-0.2-2-0.5c-0.7-0.3-1.3-0.5-2-0.5L220,790z M173,660
		c0,3.3,2.8,5.5,8.5,6.5c5.7,1,9.8,1.5,12.5,1.5c10.7,0,19.2-2.2,25.5-6.5c6.3-4.3,11-9.8,14-16.5c3-6.7,4.8-14.2,5.5-22.5
		c0.7-8.3,1-16.8,1-25.5c0-18.7-1.8-37-5.5-55c-3.7-18-7.5-36-11.5-54s-7.8-36-11.5-54c-3.7-18-5.5-36.3-5.5-55
		c0-40.7,3.5-80.8,10.5-120.5c7-39.7,10.5-79.8,10.5-120.5c0-4.7-2.8-8-8.5-10c-5.7-2-11.8-3-18.5-3c-6.7,0-12.8,0.8-18.5,2.5
		c-5.7,1.7-8.5,3.5-8.5,5.5V660z M423,659c4.7,0.7,13,3.3,25,8c12,4.7,24.2,10,36.5,16c12.3,6,23.2,12.3,32.5,19
		c9.3,6.7,14,12.3,14,17c0,2-1,4-3,6c-10,13.3-24.8,29.5-44.5,48.5c-19.7,19-40.7,37.3-63,55c-22.3,17.7-45,32.8-68,45.5
		s-42.8,19-59.5,19c-3.3,0-6.2,0-8.5,0c-2.3,0-4.8-1-7.5-3c14.7-19.3,28.5-37.7,41.5-55c13-17.3,25.5-35,37.5-53s23-36.5,33-55.5
		s19.3-40.2,28-63.5L423,659z M293,363c1.3-5.3,4.2-11.8,8.5-19.5c4.3-7.7,9.3-15.7,15-24c5.7-8.3,11-16.5,16-24.5s9.2-15,12.5-21
		c18.7-36,32.3-73.5,41-112.5c8.7-39,18-77.8,28-116.5l5-5h3c3.3,0,10.5,1,21.5,3s22.3,4.7,34,8c11.7,3.3,22,6.8,31,10.5
		c9,3.7,13.5,6.8,13.5,9.5c0,2-1.5,5.7-4.5,11c-3,5.3-6.2,11.2-9.5,17.5c-3.3,6.3-6.5,12.7-9.5,19c-3,6.3-4.5,11.2-4.5,14.5
		c0,4.7,2.2,8.2,6.5,10.5c4.3,2.3,8.5,3.5,12.5,3.5c3.3,0,6.3,0,9,0c2.7,0,5.3-1,8-3l54-48l7-2c5.3,2,12.2,6.2,20.5,12.5
		c8.3,6.3,16.5,12.8,24.5,19.5c8,6.7,15.3,12.8,22,18.5c6.7,5.7,11,8.5,13,8.5c4.7,0,7.7-0.7,9-2c1.3-1.3,2.2-3.3,2.5-6
		c0.3-2.7,0.3-5.3,0-8c-0.3-2.7,0.5-5.3,2.5-8c2.7,0,4.7,2,6,6c6,12.7,12.5,26.5,19.5,41.5s14.7,29.8,23,44.5
		c8.3,14.7,17.5,28.3,27.5,41c10,12.7,20.7,23,32,31c26.7,18.7,54.2,35,82.5,49c28.3,14,56.5,29.7,84.5,47c1.3,1.3,2.8,2.5,4.5,3.5
		c1.7,1,2.5,2.5,2.5,4.5c0,4-3.7,8.3-11,13c-7.3,4.7-12.7,8-16,10c-15.3,10-28.8,23.2-40.5,39.5c-11.7,16.3-20.2,33.2-25.5,50.5
		l-4,3c-4.7-1.3-8.8-4.2-12.5-8.5c-3.7-4.3-7.7-8.8-12-13.5c-4.3-4.7-9.3-8.8-15-12.5c-5.7-3.7-12.8-5.5-21.5-5.5
		c-4.7,0-9,1.2-13,3.5c-4,2.3-8.3,3.5-13,3.5H499c-6.7,0-10-2.7-10-8c1.3-1.3,9.2-2.2,23.5-2.5c14.3-0.3,30.2-0.5,47.5-0.5
		c17.3,0,33.7,0.2,49,0.5c15.3,0.3,25,0.5,29,0.5c6.7,0,13-4.2,19-12.5c6-8.3,11.8-17.7,17.5-28c5.7-10.3,11.2-19.7,16.5-28
		c5.3-8.3,10.3-12.5,15-12.5c2.7,0,7.5,3.3,14.5,10c7,6.7,14.8,13.8,23.5,21.5c8.7,7.7,17.5,14.8,26.5,21.5c9,6.7,16.8,10,23.5,10
		c4,0,6-2,6-6c0-1.3-2.2-6.7-6.5-16c-4.3-9.3-9.7-20.7-16-34c-6.3-13.3-13.5-28-21.5-44s-15.5-31.3-22.5-46
		c-7-14.7-13.2-27.5-18.5-38.5c-5.3-11-9-18.5-11-22.5c-1.3-2.7-3.5-7.5-6.5-14.5s-6.3-14.2-10-21.5c-3.7-7.3-7.3-13.8-11-19.5
		c-3.7-5.7-6.8-8.5-9.5-8.5c-3.3,3.3-6.3,7-9,11c-2.7,4-5.3,8-8,12c-15.3,25.3-32.3,54-51,86c-18.7,32-39.3,63-62,93
		c-22.7,30-47.2,56.8-73.5,80.5C437.2,487.2,409,503,379,511c-8.7,2.7-12.8,2.2-12.5-1.5c0.3-3.7,3-8.8,8-15.5
		c5-6.7,11.7-14.5,20-23.5c8.3-9,16.3-18,24-27c7.7-9,14.3-17.3,20-25c5.7-7.7,8.5-13.8,8.5-18.5c0-6-2-10.2-6-12.5
		c-4-2.3-8.8-4.8-14.5-7.5c-5.7-2.7-11-5.8-16-9.5c-5-3.7-8.5-9.5-10.5-17.5c-0.7-2.7-1.3-7-2-13c-0.7-6-1.5-12-2.5-18
		s-2.3-11.3-4-16c-1.7-4.7-4.5-7-8.5-7c-1.3,0-4.8,2.7-10.5,8c-5.7,5.3-9.2,8.7-10.5,10c-9.3,9.3-19.5,18.7-30.5,28
		c-11,9.3-22.8,16.3-35.5,21L293,363z M703,880c0,13.3-4.8,25.7-14.5,37c-9.7,11.3-21.5,21-35.5,29s-28.7,14.3-44,19
		c-15.3,4.7-28.7,7-40,7c-3.3,0-5.3-1-6-3c-0.7-2-1.3-4-2-6c-3.3-12.7-5.7-22.7-7-30c-1.3-7.3-3-14.2-5-20.5c-2-6.3-5-12.8-9-19.5
		c-4-6.7-10-15.3-18-26c-1.3-1.3-2.5-2.8-3.5-4.5c-1-1.7-1.5-3.5-1.5-5.5c0-4.7,2.2-7,6.5-7c4.3,0,9.7,0.3,16,1
		c6.3,0.7,13,0.2,20-1.5c7-1.7,13.2-6.2,18.5-13.5c1.3-2,2.3-11.3,3-28c0.7-16.7,1.3-35,2-55c0.7-20,1-39.2,1-57.5
		c0-18.3,0.3-30.5,1-36.5c0.7-6,1.5-12,2.5-18s0.8-12-0.5-18c-0.7-3.3-1.5-5.8-2.5-7.5c-1-1.7-3.5-2.5-7.5-2.5H408c-5.3,0-8-2.7-8-8
		c0-5.3,2.7-8,8-8h352c3.3,0,7.7-4.3,13-13c5.3-8.7,11.2-18.3,17.5-29c6.3-10.7,13-20.3,20-29c7-8.7,13.5-13,19.5-13
		c3.3,0,10.3,4.2,21,12.5c10.7,8.3,21.7,18,33,29c11.3,11,21.3,21.5,30,31.5c8.7,10,13,16.7,13,20c0,2-1,3.2-3,3.5
		c-2,0.3-3.7,0.5-5,0.5H713c-6.7,0-10,3.3-10,10V880z M444,233c-2,0.7-4.8,2.7-8.5,6c-3.7,3.3-7.7,7.2-12,11.5
		c-4.3,4.3-8.3,8.5-12,12.5c-3.7,4-6.5,7-8.5,9l-1,5c2,2.7,6.7,7.5,14,14.5c7.3,7,15.2,14,23.5,21c8.3,7,16.3,13.3,24,19
		c7.7,5.7,12.8,8.5,15.5,8.5c3.3,0,6.3-1.3,9-4c2.7-2.7,4.8-6,6.5-10c1.7-4,3-8,4-12s1.5-7.3,1.5-10c0-8.7-2.3-15.2-7-19.5
		c-4.7-4.3-10.2-8.3-16.5-12c-6.3-3.7-12.3-8.2-18-13.5c-5.7-5.3-9.5-13-11.5-23L444,233z M475,166c-4,2.7-6.5,6.3-7.5,11
		c-1,4.7-1.5,9-1.5,13c0,5.3,1.8,10.2,5.5,14.5c3.7,4.3,8.3,8.2,14,11.5c5.7,3.3,11.5,5.8,17.5,7.5c6,1.7,11.3,2.5,16,2.5
		c4.7,0,8.5-1.8,11.5-5.5c3-3.7,5.2-8,6.5-13c1.3-5,2.2-10.3,2.5-16c0.3-5.7,0.5-10.2,0.5-13.5c0-6-0.5-10.5-1.5-13.5
		s-5.2-4.5-12.5-4.5c-8.7,0-17.2,0.7-25.5,2C492.2,163.3,483.7,164.7,475,166z M957,168c-13.3,4-25.8,11.3-37.5,22
		c-11.7,10.7-23.2,21.8-34.5,33.5c-11.3,11.7-22.8,21.8-34.5,30.5c-11.7,8.7-23.8,13-36.5,13c-6.7,0-10-3-10-9
		c0-6.7,1.5-15.2,4.5-25.5c3-10.3,6.2-20.7,9.5-31c3.3-10.3,5.8-20.2,7.5-29.5c1.7-9.3,1.5-16.7-0.5-22c-2.7-0.7-7.7-1.3-15-2
		c-7.3-0.7-15.3-1-24-1c-8.7,0-17,0-25,0s-14,0-18,0l-3-4l4-3c20-1.3,35-2.7,45-4c10-1.3,18.3-3.8,25-7.5
		c6.7-3.7,13.5-9.2,20.5-16.5c7-7.3,17.5-17.7,31.5-31c2.7-2.7,5-4,7-4s7.2,3.7,15.5,11c8.3,7.3,17.2,15.8,26.5,25.5
		c9.3,9.7,18.2,18.8,26.5,27.5c8.3,8.7,13.8,14.3,16.5,17l2,5L957,168z M897,894c-13.3,0-27.3-8.3-42-25c-14.7-16.7-28.5-36-41.5-58
		s-24.3-44.2-34-66.5c-9.7-22.3-16.2-39.2-19.5-50.5c-1.3-5.3-1.7-8.8-1-10.5c0.7-1.7,4-2.5,10-2.5c18.7,0,38.8,4.3,60.5,13
		c21.7,8.7,41.8,20.3,60.5,35c18.7,14.7,34.2,31.5,46.5,50.5c12.3,19,18.5,38.5,18.5,58.5c0,18-5.2,31.8-15.5,41.5
		C929.2,889.2,915,894,897,894z"/>
</g>
</svg>
