<?xml version="1.0" encoding="utf-8"?>
<!-- Generator: Adobe Illustrator 24.3.0, SVG Export Plug-In . SVG Version: 6.00 Build 0)  -->
<svg version="1.1" id="圖層_1" xmlns="http://www.w3.org/2000/svg" xmlns:xlink="http://www.w3.org/1999/xlink" x="0px" y="0px"
	 viewBox="0 0 1000 1000" style="enable-background:new 0 0 1000 1000;" xml:space="preserve">
<g>
	<path d="M46,313c0-14.7,5.3-29,16-43c9.3-12.7,19.7-24.2,31-34.5c11.3-10.3,22.3-21.2,33-32.5c6.7-6.7,13-13.5,19-20.5
		s12-14.2,18-21.5c3.3-3.3,5.7-5,7-5c4,0,7.8,3.5,11.5,10.5c3.7,7,6.8,15,9.5,24c2.7,9,4.8,18,6.5,27c1.7,9,2.5,15.2,2.5,18.5
		c0,40.7-8,71.5-24,92.5s-33.7,33.7-53,38c-19.3,4.3-37,1.7-53-8C54,348.8,46,333.7,46,313z M57,640c6,0,16.2-0.2,30.5-0.5
		c14.3-0.3,30.5-0.5,48.5-0.5s36.8-0.2,56.5-0.5c19.7-0.3,38-0.3,55,0c17,0.3,31.5,0.7,43.5,1c12,0.3,19.3,0.8,22,1.5
		c-2,0.7-5.5,1.8-10.5,3.5c-5,1.7-8.2,2.5-9.5,2.5H57l-4-4L57,640z M779,375c-3.3,3.3-7.8,7.2-13.5,11.5c-5.7,4.3-8.5,8.8-8.5,13.5
		v134c0,5.3-5.3,9.8-16,13.5c-10.7,3.7-22.7,6.8-36,9.5c-13.3,2.7-26.3,4.8-39,6.5c-12.7,1.7-21.3,2.8-26,3.5c-1.3-3.3-3.7-5.7-7-7
		c-1.3-8.7-2.5-15.7-3.5-21c-1-5.3-2.5-9.5-4.5-12.5s-5.3-5-10-6c-4.7-1-11.3-1.5-20-1.5c-3.3,0.7-7.3,0.8-12,0.5
		c-4.7-0.3-8.7-0.2-12,0.5c-7.3,1.3-11,5.3-11,12c0,20.7-2.3,40.8-7,60.5c-4.7,19.7-7,39.8-7,60.5c0,16,0.8,32,2.5,48
		c1.7,16,3.5,32,5.5,48c3.3,29.3,5.2,58.3,5.5,87c0.3,28.7,0.5,58,0.5,88c0,10-4.5,18-13.5,24s-19.8,10.5-32.5,13.5
		c-12.7,3-25.3,4.8-38,5.5c-12.7,0.7-22.7,1-30,1c-8.7,0-13-4-13-12c0-32,1.2-63.3,3.5-94c2.3-30.7,3.5-62,3.5-94c0-2,0.2-5,0.5-9
		c0.3-4,0.3-7.8,0-11.5c-0.3-3.7-1.2-7-2.5-10c-1.3-3-3.7-4.5-7-4.5c-6,2-11,5.2-15,9.5c-4,4.3-8.7,8.5-14,12.5l-39,30
		c-16,12-36,25.7-60,41c-24,15.3-49.3,30-76,44c-26.7,14-53,25.7-79,35c-26,9.3-49,14-69,14c-1.3,0-3.5-0.2-6.5-0.5
		c-3-0.3-4.5-1.8-4.5-4.5c0-3.3,4-8.7,12-16c8-7.3,17-15,27-23s19.8-15.5,29.5-22.5c9.7-7,16.2-11.8,19.5-14.5
		c14-10.7,29.2-21.8,45.5-33.5c16.3-11.7,32.2-24,47.5-37c15.3-13,29.5-26.8,42.5-41.5c13-14.7,23.5-30.3,31.5-47
		c1.3-2.7,2.7-6.3,4-11c1.3-4.7,2.8-9.3,4.5-14c1.7-4.7,3.5-8.7,5.5-12c2-3.3,4.7-5,8-5c3.3,0,9.8,0.3,19.5,1c9.7,0.7,19.5,1,29.5,1
		s19-0.8,27-2.5c8-1.7,12-4.8,12-9.5v-97c0-6.7-3.3-10-10-10c-2,0-5.2,0-9.5,0c-4.3,0-8.8,0-13.5,0c-4.7,0-9.2,0-13.5,0
		c-4.3,0-7.2,0.3-8.5,1c-1.3,0.7-3.2,1.8-5.5,3.5c-2.3,1.7-4.2,3.2-5.5,4.5c-6.7,5.3-14.2,11-22.5,17c-8.3,6-17,11.5-26,16.5
		s-18.3,9.2-28,12.5c-9.7,3.3-18.8,5-27.5,5c-5.3,0-8.7-0.2-10-0.5c-1.3-0.3-3.7-2.8-7-7.5c-2-2.7-3.2-9.8-3.5-21.5
		c-0.3-11.7-0.5-24.3-0.5-38c0-13.7,0.2-26.8,0.5-39.5c0.3-12.7,0.5-21.7,0.5-27c-0.7-24-1.3-48-2-72c-0.7-24-1-48-1-72
		c0-6,3.3-9,10-9c8,0,18.2,2.8,30.5,8.5c12.3,5.7,24.8,11.8,37.5,18.5c12.7,6.7,24.8,12.8,36.5,18.5c11.7,5.7,20.8,8.5,27.5,8.5h227
		l7-3c2-2,6-6,12-12s12.3-12.5,19-19.5c6.7-7,12.8-13.2,18.5-18.5c5.7-5.3,9.2-8,10.5-8c5.3,0,13.3,3.5,24,10.5
		c10.7,7,21.7,15.2,33,24.5c11.3,9.3,21.5,18.8,30.5,28.5c9,9.7,14.5,16.8,16.5,21.5L779,375z M849,155c2.7,3.3,9.5,10.3,20.5,21
		c11,10.7,22.5,22,34.5,34s22.8,23.2,32.5,33.5c9.7,10.3,14.5,16.2,14.5,17.5c0,6-7.3,12.8-22,20.5c-14.7,7.7-31.3,15.2-50,22.5
		c-18.7,7.3-36.8,13.5-54.5,18.5c-17.7,5-29.5,7.5-35.5,7.5c-6.7,0-9.7-4.8-9-14.5c0.7-9.7,1.8-20.3,3.5-32
		c1.7-11.7,2.5-22.3,2.5-32c0-9.7-3.7-14.5-11-14.5H221c-3.3,0-5-1-5-3c0-6,3.2-9.5,9.5-10.5c6.3-1,13.5-1.3,21.5-1
		c8,0.3,15.2,0.3,21.5,0c6.3-0.3,9.5-3.2,9.5-8.5l-3-5c-5.3-8-11.8-18.5-19.5-31.5c-7.7-13-15.2-26.7-22.5-41
		c-7.3-14.3-13.7-28.2-19-41.5c-5.3-13.3-8-24.7-8-34c0-6.7,3-10,9-10c14,0,29.5,1.8,46.5,5.5c17,3.7,32.8,9.3,47.5,17
		c14.7,7.7,27,17.7,37,30c10,12.3,15,26.8,15,43.5c0,7.3-1.8,14-5.5,20c-3.7,6-7.7,11.5-12,16.5c-4.3,5-8.3,10-12,15
		c-3.7,5-5.5,10.2-5.5,15.5c0,2.7,4,4.8,12,6.5c8,1.7,17.3,3,28,4c10.7,1,20.8,1.7,30.5,2c9.7,0.3,16.2,0.5,19.5,0.5l7-3l1-1l3-7V43
		c0-6.7,3.3-10,10-10c20,0,41.5,1.2,64.5,3.5c23,2.3,44.2,5.8,63.5,10.5c1.3,0.7,3.7,1.5,7,2.5c3.3,1,5,2.5,5,4.5s-2,4.8-6,8.5
		c-4,3.7-6.7,6.2-8,7.5l-3,7v140l2,5c1.3,1.3,3,2.5,5,3.5s4,1.5,6,1.5s5.7-0.3,11-1c5.3-0.7,11-1.3,17-2c6-0.7,11.5-1.3,16.5-2
		c5-0.7,8.2-1.3,9.5-2c4.7-2,8.5-7.8,11.5-17.5c3-9.7,5.7-20.8,8-33.5c2.3-12.7,4.3-26.3,6-41c1.7-14.7,3.7-28,6-40
		c2.3-12,4.8-22,7.5-30c2.7-8,6-12,10-12c3.3,0,12.2,2,26.5,6c14.3,4,29.8,8.7,46.5,14c16.7,5.3,32.3,10.5,47,15.5
		c14.7,5,24.3,8.5,29,10.5c1.3,1.3,2.5,2.5,3.5,3.5s1.8,2.2,2.5,3.5c-2,2.7-7.7,6.7-17,12c-9.3,5.3-20.7,11.5-34,18.5
		c-13.3,7-27.7,14.7-43,23c-15.3,8.3-29.5,16.5-42.5,24.5s-23.7,15.3-32,22c-8.3,6.7-12.5,12.3-12.5,17c0,1.3,1,2.3,3,3
		c2,0.7,3.7,1,5,1h109c2,0,6.5-2.8,13.5-8.5c7-5.7,14.5-12.2,22.5-19.5c8-7.3,15.3-14.5,22-21.5c6.7-7,11-11.8,13-14.5l6-3L849,155z
		 M623,504l1-1l3-7V370c0-6.7-3.3-10-10-10H377c-6.7,0-10,3.3-10,10v120c0,6.7,3.3,10,10,10c40,0,79.8,1,119.5,3
		c39.7,2,79.5,3.3,119.5,4L623,504z M595,681c28,10.7,55.2,22.2,81.5,34.5C702.8,727.8,730,739,758,749c29.3,10.7,59.2,20,89.5,28
		c30.3,8,60.8,15.3,91.5,22c1.3,0,2.7,0.3,4,1c1.3,0.7,2,1.7,2,3c0,4.7-3.3,10.5-10,17.5c-6.7,7-14.2,14.5-22.5,22.5
		c-8.3,8-16.5,15.8-24.5,23.5c-8,7.7-13,14.5-15,20.5c-1.3,2.7-2.5,6.7-3.5,12c-1,5.3-2.3,10.5-4,15.5c-1.7,5-3.7,9.5-6,13.5
		c-2.3,4-5.5,6-9.5,6c-2,0-6.7-2-14-6c-7.3-4-15.2-8.5-23.5-13.5c-8.3-5-16.2-9.8-23.5-14.5c-7.3-4.7-12.3-8-15-10
		c-14-9.3-31.8-21.8-53.5-37.5c-21.7-15.7-42.7-32.8-63-51.5c-20.3-18.7-37.7-38.2-52-58.5C591.2,722.2,584,702.7,584,684
		c0-2.7,1.5-4.2,4.5-4.5C591.5,679.2,593.7,679.7,595,681z M615,647c-3.3,0-7-1.2-11-3.5c-4-2.3-7.3-4.2-10-5.5
		c7.3-1.3,16.3-1.8,27-1.5c10.7,0.3,19.7,0.5,27,0.5h125c5.3,0,11.3-4.5,18-13.5c6.7-9,13.2-18.8,19.5-29.5
		c6.3-10.7,12.2-20.5,17.5-29.5c5.3-9,9.7-13.5,13-13.5c2.7,0,9,3.8,19,11.5c10,7.7,20.5,16.3,31.5,26c11,9.7,21.5,19.2,31.5,28.5
		c10,9.3,17,15.7,21,19l1,4l-2,4l-7,3H615z"/>
</g>
</svg>
